M48
;DRILL file {KiCad 4.0.5} date 2017 June 13, Tuesday 16:43:56
;FORMAT={-:-/ absolute / inch / decimal}
FMAT,2
INCH,TZ
T1C0.016
T2C0.026
T3C0.030
T4C0.039
T5C0.118
%
G90
G05
M72
T1
X2.1457Y-2.3228
X2.2638Y-1.0433
X2.2686Y-2.0076
X2.3031Y-1.9488
X2.3622Y-1.4173
X2.3622Y-2.0669
X2.4016Y-1.0297
X2.4803Y-1.0236
X2.5394Y-3.3268
X2.5787Y-2.9331
X2.5787Y-3.2874
X2.6033Y-2.7756
X2.6181Y-3.3268
X2.6575Y-3.3268
X2.6772Y-1.8307
X2.6772Y-1.8898
X2.7911Y-2.0138
X2.7953Y-2.0472
X2.8911Y-2.0256
X2.9227Y-2.019
X2.9724Y-2.7624
X2.9724Y-2.9331
X3.0341Y-2.2672
X3.1336Y-1.3467
X3.1693Y-1.378
X3.189Y-1.3189
X3.2677Y-2.5591
X3.3858Y-1.9094
X3.4055Y-1.5157
X3.6122Y-1.9019
X3.6811Y-2.2047
X3.6909Y-1.9435
X3.6985Y-1.9882
X3.7402Y-2.0866
X3.9173Y-2.5
X4.2717Y-1.9488
T2
X2.1894Y-1.8898
X2.2394Y-1.8898
X2.2894Y-1.8898
X2.3394Y-1.8898
X2.3894Y-1.8898
X2.4394Y-1.8898
X2.4894Y-1.8898
X2.5394Y-1.8898
T3
X1.3976Y-1.6339
X1.5157Y-1.9488
X1.5157Y-2.0079
X1.5157Y-2.0669
X1.5157Y-2.126
X1.9685Y-1.7913
X2.2244Y-1.122
X2.5612Y-1.671
X2.6656Y-2.5222
X3.1299Y-2.9724
X3.5236Y-2.6969
X3.5236Y-2.8937
X3.5236Y-3.248
T4
X1.6535Y-2.4953
X1.6535Y-2.5953
X1.6535Y-2.6953
X1.6535Y-2.7953
X1.6535Y-2.8953
X1.6535Y-2.9953
X1.6898Y-3.2677
X1.7898Y-3.2677
X1.8898Y-3.2677
X1.9898Y-3.2677
X2.2638Y-2.1378
X2.2638Y-2.2378
X2.2638Y-2.3378
X2.2638Y-2.4378
X2.2638Y-2.5378
X2.2638Y-2.6378
X2.2638Y-2.7378
X2.2638Y-2.8378
X2.2638Y-2.9378
X2.2638Y-3.0378
X2.2638Y-3.1378
X2.2638Y-3.2378
X2.7488Y-2.4828
X2.7488Y-2.5828
X2.7488Y-2.8928
X2.7488Y-2.9928
X2.8638Y-2.1378
X2.8638Y-2.2378
X2.8638Y-2.3378
X2.8638Y-2.4378
X2.8638Y-2.5378
X2.8638Y-2.6378
X2.8638Y-2.7378
X2.8638Y-2.8378
X2.8638Y-2.9378
X2.8638Y-3.0378
X2.8638Y-3.1378
X2.8638Y-3.2378
X3.0677Y-3.1283
X3.0677Y-3.2283
X3.0709Y-1.6307
X3.0709Y-1.7307
X3.0709Y-1.8307
X3.1677Y-3.1283
X3.1677Y-3.2283
X3.2283Y-1.6307
X3.2283Y-1.7307
X3.2283Y-1.8307
X3.2677Y-3.1283
X3.2677Y-3.2283
X3.3055Y-1.3976
X3.3677Y-3.1283
X3.3677Y-3.2283
X3.3858Y-1.6307
X3.3858Y-1.7307
X3.3858Y-1.8307
X3.4055Y-1.3976
X3.5433Y-1.6307
X3.5433Y-1.7307
X3.5433Y-1.8307
X4.0142Y-1.685
X4.0142Y-1.785
X4.0142Y-1.885
X4.0142Y-1.985
X4.0142Y-2.085
X4.0142Y-2.185
X4.0142Y-2.285
X4.0142Y-2.385
X4.0142Y-2.485
X4.0142Y-2.585
X4.0142Y-2.685
X4.0945Y-2.8512
X4.0945Y-2.9512
X4.0945Y-3.0512
X4.1142Y-1.685
X4.1142Y-1.785
X4.1142Y-1.885
X4.1142Y-1.985
X4.1142Y-2.085
X4.1142Y-2.185
X4.1142Y-2.285
X4.1142Y-2.385
X4.1142Y-2.485
X4.1142Y-2.585
X4.1142Y-2.685
X4.311Y-2.4378
X4.311Y-2.5378
X4.311Y-2.6378
X4.311Y-2.7378
X4.4685Y-2.4362
X4.4685Y-2.5362
X4.4685Y-2.6362
X4.4685Y-2.7362
T5
X1.2402Y-2.1654
X1.9488Y-1.2992
X1.9488Y-3.0315
X3.6417Y-1.2992
X3.6417Y-3.0315
X4.3504Y-2.1654
T4
X1.1417Y-2.5197G85X1.1417Y-2.5984
G05
X1.2205Y-2.7441G85X1.2992Y-2.7441
G05
X1.378Y-2.5197G85X1.378Y-2.5984
G05
T0
M30
