G04 #@! TF.FileFunction,Copper,L1,Top,Signal*
%FSLAX46Y46*%
G04 Gerber Fmt 4.6, Leading zero omitted, Abs format (unit mm)*
G04 Created by KiCad (PCBNEW 4.0.5) date 2017 June 13, Tuesday 16:43:51*
%MOMM*%
%LPD*%
G01*
G04 APERTURE LIST*
%ADD10C,0.100000*%
%ADD11C,1.800000*%
%ADD12R,1.700000X1.700000*%
%ADD13O,1.700000X1.700000*%
%ADD14R,3.500000X3.500000*%
%ADD15R,1.300000X1.500000*%
%ADD16R,1.500000X1.300000*%
%ADD17R,1.000000X1.500000*%
%ADD18R,1.000000X1.000000*%
%ADD19O,1.000000X1.000000*%
%ADD20C,0.914400*%
%ADD21C,0.600000*%
%ADD22C,0.304800*%
%ADD23C,0.250000*%
G04 APERTURE END LIST*
D10*
D11*
X69819000Y-73477000D03*
X69819000Y-76017000D03*
X69819000Y-65603000D03*
X69819000Y-63063000D03*
X72740000Y-82240000D03*
X72740000Y-79700000D03*
X72740000Y-74620000D03*
X72740000Y-77160000D03*
X72740000Y-67000000D03*
X72740000Y-64460000D03*
X72740000Y-69540000D03*
X72740000Y-72080000D03*
X72740000Y-61920000D03*
X72740000Y-59380000D03*
X72740000Y-54300000D03*
X72740000Y-56840000D03*
X57500000Y-56840000D03*
X57500000Y-54300000D03*
X57500000Y-59380000D03*
X57500000Y-61920000D03*
X57500000Y-72080000D03*
X57500000Y-69540000D03*
X57500000Y-64460000D03*
X57500000Y-67000000D03*
X57500000Y-77160000D03*
X57500000Y-74620000D03*
X57500000Y-79700000D03*
X57500000Y-82240000D03*
D12*
X78000000Y-46500000D03*
D13*
X78000000Y-43960000D03*
X78000000Y-41420000D03*
D14*
X35000000Y-65000000D03*
X29000000Y-65000000D03*
X32000000Y-69700000D03*
D12*
X83960000Y-35500000D03*
D13*
X86500000Y-35500000D03*
D12*
X77920000Y-82000000D03*
D13*
X77920000Y-79460000D03*
X80460000Y-82000000D03*
X80460000Y-79460000D03*
X83000000Y-82000000D03*
X83000000Y-79460000D03*
X85540000Y-82000000D03*
X85540000Y-79460000D03*
D12*
X42920000Y-83000000D03*
D13*
X45460000Y-83000000D03*
X48000000Y-83000000D03*
X50540000Y-83000000D03*
D12*
X113500000Y-61880000D03*
D13*
X113500000Y-64420000D03*
X113500000Y-66960000D03*
X113500000Y-69500000D03*
D12*
X109500000Y-61920000D03*
D13*
X109500000Y-64460000D03*
X109500000Y-67000000D03*
X109500000Y-69540000D03*
D12*
X104500000Y-68200000D03*
D13*
X101960000Y-68200000D03*
X104500000Y-65660000D03*
X101960000Y-65660000D03*
X104500000Y-63120000D03*
X101960000Y-63120000D03*
X104500000Y-60580000D03*
X101960000Y-60580000D03*
X104500000Y-58040000D03*
X101960000Y-58040000D03*
X104500000Y-55500000D03*
X101960000Y-55500000D03*
X104500000Y-52960000D03*
X101960000Y-52960000D03*
X104500000Y-50420000D03*
X101960000Y-50420000D03*
X104500000Y-47880000D03*
X101960000Y-47880000D03*
X104500000Y-45340000D03*
X101960000Y-45340000D03*
X104500000Y-42800000D03*
X101960000Y-42800000D03*
D12*
X42000000Y-63380000D03*
D13*
X42000000Y-65920000D03*
X42000000Y-68460000D03*
X42000000Y-71000000D03*
X42000000Y-73540000D03*
X42000000Y-76080000D03*
D15*
X110000000Y-46300000D03*
X110000000Y-49000000D03*
X113000000Y-46500000D03*
X113000000Y-49200000D03*
D16*
X42350000Y-79500000D03*
X39650000Y-79500000D03*
D17*
X71000000Y-39500000D03*
X69001020Y-39500000D03*
X59003580Y-39500000D03*
X59003580Y-27300000D03*
X61002560Y-27300000D03*
X66999500Y-27300000D03*
X65003060Y-27300000D03*
X69001020Y-27300000D03*
X63004080Y-27300000D03*
X66999500Y-39500000D03*
X61002560Y-39500000D03*
X65003060Y-39500000D03*
X63004080Y-39500000D03*
X71000000Y-27300000D03*
D18*
X55610000Y-48000000D03*
D19*
X56880000Y-48000000D03*
X58150000Y-48000000D03*
X59420000Y-48000000D03*
X60690000Y-48000000D03*
X61960000Y-48000000D03*
X63230000Y-48000000D03*
X64500000Y-48000000D03*
D12*
X86000000Y-46500000D03*
D13*
X86000000Y-43960000D03*
X86000000Y-41420000D03*
D12*
X82000000Y-46500000D03*
D13*
X82000000Y-43960000D03*
X82000000Y-41420000D03*
D12*
X90000000Y-46500000D03*
D13*
X90000000Y-43960000D03*
X90000000Y-41420000D03*
D12*
X104000000Y-72420000D03*
D13*
X104000000Y-74960000D03*
X104000000Y-77500000D03*
D20*
X38500000Y-49500000D03*
X38500000Y-51000000D03*
X38500000Y-52500000D03*
X38500000Y-54000000D03*
X65055369Y-42444630D03*
X35500000Y-41500000D03*
X56500000Y-28500000D03*
X79500000Y-75500000D03*
X89500000Y-82500000D03*
X89500000Y-68500000D03*
X89500000Y-73500000D03*
X50000000Y-45500000D03*
X67706675Y-64064586D03*
D21*
X93942811Y-50500000D03*
X91749988Y-48307177D03*
X57500000Y-26500000D03*
X70893653Y-51151598D03*
X86500000Y-38500000D03*
X81000000Y-33500000D03*
X93500000Y-56000000D03*
X86000000Y-48500000D03*
X93750000Y-49366102D03*
X67500000Y-84500000D03*
X63000000Y-26000000D03*
X99500000Y-63500000D03*
X71000000Y-52000000D03*
X66500000Y-84500000D03*
X79592285Y-34205328D03*
X73433936Y-51449962D03*
X58500000Y-49500000D03*
X77065357Y-57585666D03*
X95000000Y-53000000D03*
X83000000Y-65000000D03*
X80500000Y-35000000D03*
X74237044Y-51283264D03*
X57623535Y-50992567D03*
X65500000Y-83500000D03*
X64500000Y-84500000D03*
X75500000Y-74500000D03*
X54500000Y-59000000D03*
X60000000Y-36000000D03*
X60000000Y-52500000D03*
X108500000Y-49500000D03*
X61000000Y-26155610D03*
X66125010Y-70500000D03*
X65500000Y-74500000D03*
X68000000Y-48000000D03*
X68000000Y-46500000D03*
X75500000Y-70165010D03*
D22*
X38500000Y-52500000D02*
X38500000Y-51000000D01*
X69001020Y-39750000D02*
X66306390Y-42444630D01*
X69001020Y-39500000D02*
X69001020Y-39750000D01*
X66306390Y-42444630D02*
X65701947Y-42444630D01*
X65701947Y-42444630D02*
X65055369Y-42444630D01*
X56500000Y-25500000D02*
X62529710Y-25500000D01*
X62529710Y-25500000D02*
X62685311Y-25344399D01*
X56042801Y-28042801D02*
X56042801Y-25957199D01*
X56042801Y-25957199D02*
X56500000Y-25500000D01*
X62685311Y-25344399D02*
X63314689Y-25344399D01*
X63314689Y-25344399D02*
X63470290Y-25500000D01*
X56500000Y-28500000D02*
X56042801Y-28042801D01*
X63470290Y-25500000D02*
X70254800Y-25500000D01*
X70254800Y-25500000D02*
X71000000Y-26245200D01*
X71000000Y-26245200D02*
X71000000Y-27300000D01*
X35500000Y-55725200D02*
X35500000Y-41500000D01*
X42000000Y-63380000D02*
X42000000Y-62225200D01*
X42000000Y-62225200D02*
X35500000Y-55725200D01*
X39650000Y-79500000D02*
X39650000Y-64575200D01*
X39650000Y-64575200D02*
X40845200Y-63380000D01*
X40845200Y-63380000D02*
X42000000Y-63380000D01*
X42920000Y-83000000D02*
X41765200Y-83000000D01*
X41765200Y-83000000D02*
X39650000Y-80884800D01*
X39650000Y-80884800D02*
X39650000Y-80454800D01*
X39650000Y-80454800D02*
X39650000Y-79500000D01*
X76000000Y-81234800D02*
X76000000Y-79595710D01*
X79500000Y-76095710D02*
X79500000Y-75500000D01*
X76000000Y-79595710D02*
X79500000Y-76095710D01*
X77920000Y-82000000D02*
X76765200Y-82000000D01*
X76765200Y-82000000D02*
X76000000Y-81234800D01*
X89500000Y-68500000D02*
X99120000Y-68500000D01*
X99120000Y-68500000D02*
X101960000Y-65660000D01*
X89500000Y-73500000D02*
X89500000Y-82500000D01*
X89500000Y-73500000D02*
X89500000Y-68500000D01*
X59003580Y-39500000D02*
X59003580Y-39750000D01*
X50646578Y-45500000D02*
X50000000Y-45500000D01*
X59003580Y-39750000D02*
X53253580Y-45500000D01*
X53253580Y-45500000D02*
X50646578Y-45500000D01*
X67706675Y-64711164D02*
X67706675Y-64064586D01*
X72740000Y-82240000D02*
X67706675Y-77206675D01*
X67706675Y-77206675D02*
X67706675Y-64711164D01*
X104000000Y-72420000D02*
X104000000Y-68700000D01*
X104000000Y-68700000D02*
X104500000Y-68200000D01*
X98500000Y-84500000D02*
X102794399Y-80205601D01*
X102794399Y-80205601D02*
X102794399Y-72470801D01*
X102794399Y-72470801D02*
X102845200Y-72420000D01*
X102845200Y-72420000D02*
X104000000Y-72420000D01*
X75000000Y-84500000D02*
X98500000Y-84500000D01*
X72740000Y-82240000D02*
X75000000Y-84500000D01*
D23*
X113000000Y-46500000D02*
X110200000Y-46500000D01*
X110200000Y-46500000D02*
X110000000Y-46300000D01*
X115000000Y-59280000D02*
X115000000Y-48600000D01*
X115000000Y-48600000D02*
X113000000Y-46600000D01*
X113000000Y-46600000D02*
X113000000Y-46500000D01*
X113500000Y-61880000D02*
X113500000Y-60780000D01*
X113500000Y-60780000D02*
X115000000Y-59280000D01*
X113500000Y-72500000D02*
X106460000Y-72500000D01*
X106460000Y-72500000D02*
X104000000Y-74960000D01*
X116000000Y-70000000D02*
X113500000Y-72500000D01*
X116000000Y-63280000D02*
X116000000Y-70000000D01*
X113500000Y-61880000D02*
X114600000Y-61880000D01*
X114600000Y-61880000D02*
X116000000Y-63280000D01*
X96402811Y-52960000D02*
X93942811Y-50500000D01*
X93942811Y-50500000D02*
X92049987Y-48607176D01*
X92049987Y-48607176D02*
X91749988Y-48307177D01*
X101960000Y-52960000D02*
X96402811Y-52960000D01*
X80925004Y-35500000D02*
X80300002Y-36125002D01*
X67125002Y-36125002D02*
X57799999Y-26799999D01*
X57799999Y-26799999D02*
X57500000Y-26500000D01*
X83960000Y-35500000D02*
X80925004Y-35500000D01*
X80300002Y-36125002D02*
X67125002Y-36125002D01*
X113000000Y-49200000D02*
X113000000Y-50200000D01*
X113000000Y-50200000D02*
X111604999Y-51595001D01*
X111604999Y-51595001D02*
X103324999Y-51595001D01*
X103324999Y-51595001D02*
X102809999Y-52110001D01*
X102809999Y-52110001D02*
X101960000Y-52960000D01*
X109500000Y-64460000D02*
X111000000Y-64460000D01*
X111000000Y-64460000D02*
X113500000Y-66960000D01*
X114000000Y-58500000D02*
X110675001Y-61824999D01*
X110675001Y-61824999D02*
X110675001Y-63284999D01*
X110675001Y-63284999D02*
X110349999Y-63610001D01*
X110349999Y-63610001D02*
X109500000Y-64460000D01*
X114000000Y-50300000D02*
X114000000Y-58500000D01*
X113000000Y-49200000D02*
X113000000Y-49300000D01*
X113000000Y-49300000D02*
X114000000Y-50300000D01*
X59003580Y-27300000D02*
X58300000Y-27300000D01*
X58300000Y-27300000D02*
X57500000Y-26500000D01*
X71000000Y-48363590D02*
X70549991Y-48813599D01*
X71000000Y-42000000D02*
X71000000Y-48363590D01*
X70863590Y-51000000D02*
X71000000Y-51000000D01*
X86500000Y-38500000D02*
X74500000Y-38500000D01*
X74500000Y-38500000D02*
X71000000Y-42000000D01*
X70549991Y-50686401D02*
X70863590Y-51000000D01*
X71000000Y-51000000D02*
X71000000Y-51045251D01*
X71000000Y-51045251D02*
X70893653Y-51151598D01*
X70549991Y-48813599D02*
X70549991Y-50686401D01*
X90000000Y-41420000D02*
X98040000Y-41420000D01*
X98040000Y-41420000D02*
X101960000Y-45340000D01*
X80460000Y-79460000D02*
X80460000Y-62020000D01*
X80460000Y-62020000D02*
X72740000Y-54300000D01*
X74859238Y-33000000D02*
X80500000Y-33000000D01*
X80500000Y-33000000D02*
X81000000Y-33500000D01*
X70171799Y-28312561D02*
X74859238Y-33000000D01*
X68176019Y-26289999D02*
X68241019Y-26224999D01*
X68241019Y-26224999D02*
X69761021Y-26224999D01*
X68176019Y-27300000D02*
X68176019Y-26289999D01*
X69761021Y-26224999D02*
X70171799Y-26635777D01*
X70171799Y-26635777D02*
X70171799Y-28312561D01*
X66999500Y-27300000D02*
X68176019Y-27300000D01*
X95540000Y-58040000D02*
X93500000Y-56000000D01*
X93500000Y-56000000D02*
X86000000Y-48500000D01*
X101960000Y-58040000D02*
X95540000Y-58040000D01*
X73965001Y-60605001D02*
X73639999Y-60279999D01*
X73354999Y-63145001D02*
X73965001Y-62534999D01*
X73965001Y-62534999D02*
X73965001Y-60605001D01*
X70337999Y-61837999D02*
X71645001Y-63145001D01*
X67500000Y-84500000D02*
X67500000Y-84075736D01*
X71645001Y-63145001D02*
X73354999Y-63145001D01*
X66921274Y-63578726D02*
X68662001Y-61837999D01*
X68662001Y-61837999D02*
X70337999Y-61837999D01*
X66921274Y-69723450D02*
X66921274Y-63578726D01*
X67200022Y-70002198D02*
X66921274Y-69723450D01*
X73639999Y-60279999D02*
X72740000Y-59380000D01*
X67200022Y-83775758D02*
X67200022Y-70002198D01*
X67500000Y-84075736D02*
X67200022Y-83775758D01*
X94174264Y-49366102D02*
X93750000Y-49366102D01*
X100473898Y-49366102D02*
X94174264Y-49366102D01*
X101960000Y-47880000D02*
X100473898Y-49366102D01*
X90564001Y-42784999D02*
X93750000Y-45970998D01*
X93750000Y-48941838D02*
X93750000Y-49366102D01*
X89284999Y-42784999D02*
X90564001Y-42784999D01*
X85255001Y-40244999D02*
X86744999Y-40244999D01*
X79175001Y-42595001D02*
X82904999Y-42595001D01*
X78000000Y-41420000D02*
X79175001Y-42595001D01*
X93750000Y-45970998D02*
X93750000Y-48941838D01*
X82904999Y-42595001D02*
X85255001Y-40244999D01*
X86744999Y-40244999D02*
X89284999Y-42784999D01*
X63000000Y-26000000D02*
X63000000Y-27295920D01*
X63000000Y-27295920D02*
X63004080Y-27300000D01*
X72500000Y-51500000D02*
X84500000Y-63500000D01*
X84500000Y-63500000D02*
X99500000Y-63500000D01*
X72500000Y-50900000D02*
X72500000Y-51500000D01*
X76900000Y-46500000D02*
X72500000Y-50900000D01*
X78000000Y-46500000D02*
X76900000Y-46500000D01*
X66750011Y-70800001D02*
X66750011Y-70188598D01*
X66500000Y-71050012D02*
X66750011Y-70800001D01*
X68843588Y-61020001D02*
X71840001Y-61020001D01*
X66450011Y-63413578D02*
X68843588Y-61020001D01*
X66750011Y-70188598D02*
X66450011Y-69888598D01*
X71840001Y-61020001D02*
X72740000Y-61920000D01*
X66450011Y-69888598D02*
X66450011Y-63413578D01*
X66500000Y-84500000D02*
X66500000Y-71050012D01*
X72049989Y-50950011D02*
X71299999Y-51700001D01*
X72049989Y-50713600D02*
X72049989Y-50950011D01*
X75500000Y-47263590D02*
X72049989Y-50713600D01*
X75500000Y-42180998D02*
X75500000Y-47263590D01*
X80824999Y-40244999D02*
X77435999Y-40244999D01*
X82000000Y-41420000D02*
X80824999Y-40244999D01*
X77435999Y-40244999D02*
X75500000Y-42180998D01*
X71299999Y-51700001D02*
X71000000Y-52000000D01*
X82849999Y-40570001D02*
X82000000Y-41420000D01*
X83625012Y-39794988D02*
X82849999Y-40570001D01*
X101395999Y-43975001D02*
X97665997Y-40244999D01*
X86931399Y-39794988D02*
X83625012Y-39794988D01*
X87381409Y-40244999D02*
X86931399Y-39794988D01*
X97665997Y-40244999D02*
X87381409Y-40244999D01*
X103135001Y-43975001D02*
X101395999Y-43975001D01*
X104500000Y-45340000D02*
X103135001Y-43975001D01*
X69001020Y-28300000D02*
X74906348Y-34205328D01*
X74906348Y-34205328D02*
X79168021Y-34205328D01*
X79168021Y-34205328D02*
X79592285Y-34205328D01*
X69001020Y-27300000D02*
X69001020Y-28300000D01*
X73433936Y-51202474D02*
X73433936Y-51449962D01*
X75136410Y-49500000D02*
X73433936Y-51202474D01*
X77900000Y-49500000D02*
X75136410Y-49500000D01*
X80900000Y-46500000D02*
X77900000Y-49500000D01*
X82000000Y-46500000D02*
X80900000Y-46500000D01*
X103650001Y-54650001D02*
X104500000Y-55500000D01*
X103135001Y-54135001D02*
X103650001Y-54650001D01*
X87175001Y-45389999D02*
X87175001Y-46600005D01*
X87110001Y-45324999D02*
X87175001Y-45389999D01*
X84275001Y-45324999D02*
X87110001Y-45324999D01*
X83100000Y-46500000D02*
X84275001Y-45324999D01*
X82000000Y-46500000D02*
X83100000Y-46500000D01*
X94709997Y-54135001D02*
X103135001Y-54135001D01*
X87175001Y-46600005D02*
X94709997Y-54135001D01*
X56875012Y-52624988D02*
X56725599Y-52624988D01*
X56725599Y-52624988D02*
X55824988Y-53525599D01*
X55824988Y-53525599D02*
X55824988Y-55074401D01*
X55824988Y-55074401D02*
X56274999Y-55524412D01*
X56911999Y-60605001D02*
X57998003Y-60605001D01*
X56274999Y-55524412D02*
X56274999Y-59968001D01*
X56274999Y-59968001D02*
X56911999Y-60605001D01*
X57998003Y-60605001D02*
X58725001Y-61331999D01*
X58725001Y-61331999D02*
X58725001Y-63234999D01*
X58725001Y-63234999D02*
X58399999Y-63560001D01*
X58399999Y-63560001D02*
X57500000Y-64460000D01*
X58500000Y-51000000D02*
X56875012Y-52624988D01*
X58500000Y-49500000D02*
X58500000Y-51000000D01*
X77365356Y-57885665D02*
X77065357Y-57585666D01*
X83000000Y-63520309D02*
X77365356Y-57885665D01*
X83000000Y-65000000D02*
X83000000Y-63520309D01*
X86000000Y-41420000D02*
X88824999Y-44244999D01*
X88824999Y-47610001D02*
X88889999Y-47675001D01*
X88889999Y-47675001D02*
X89675001Y-47675001D01*
X88824999Y-44244999D02*
X88824999Y-47610001D01*
X89675001Y-47675001D02*
X95000000Y-53000000D01*
X83000000Y-79460000D02*
X83000000Y-65000000D01*
X65003060Y-28300000D02*
X71703060Y-35000000D01*
X65003060Y-27300000D02*
X65003060Y-28300000D01*
X71703060Y-35000000D02*
X80500000Y-35000000D01*
X74661308Y-51283264D02*
X74237044Y-51283264D01*
X82316736Y-51283264D02*
X74661308Y-51283264D01*
X86000000Y-47600000D02*
X82316736Y-51283264D01*
X86000000Y-46500000D02*
X86000000Y-47600000D01*
X86000000Y-47600000D02*
X93900000Y-55500000D01*
X93900000Y-55500000D02*
X100757919Y-55500000D01*
X100757919Y-55500000D02*
X101960000Y-55500000D01*
X55374977Y-55260801D02*
X55374977Y-53241125D01*
X57500000Y-61920000D02*
X56600001Y-61020001D01*
X55824988Y-55710813D02*
X55374977Y-55260801D01*
X56600001Y-61020001D02*
X56383591Y-61020001D01*
X57323536Y-51292566D02*
X57623535Y-50992567D01*
X56383591Y-61020001D02*
X55549991Y-60186401D01*
X55549991Y-59813599D02*
X55824988Y-59538602D01*
X55824988Y-59538602D02*
X55824988Y-55710813D01*
X55374977Y-53241125D02*
X57323536Y-51292566D01*
X55549991Y-60186401D02*
X55549991Y-59813599D01*
X58399999Y-55199999D02*
X57500000Y-54300000D01*
X64874998Y-74800002D02*
X64874998Y-61674998D01*
X65500000Y-75425004D02*
X64874998Y-74800002D01*
X65500000Y-83500000D02*
X65500000Y-75425004D01*
X64874998Y-61674998D02*
X58399999Y-55199999D01*
X65775012Y-45547834D02*
X62179079Y-41951901D01*
X62179079Y-38489999D02*
X62244079Y-38424999D01*
X62244079Y-38424999D02*
X66174499Y-38424999D01*
X66174499Y-38424999D02*
X66999500Y-39250000D01*
X66999500Y-39250000D02*
X66999500Y-39500000D01*
X60057413Y-54300000D02*
X65775012Y-48582401D01*
X57500000Y-54300000D02*
X60057413Y-54300000D01*
X62179079Y-41951901D02*
X62179079Y-38489999D01*
X65775012Y-48582401D02*
X65775012Y-45547834D01*
X45460000Y-83000000D02*
X42350000Y-79890000D01*
X42350000Y-79890000D02*
X42350000Y-79500000D01*
X57500000Y-67000000D02*
X56600001Y-66100001D01*
X56600001Y-66100001D02*
X55849999Y-66100001D01*
X55849999Y-66100001D02*
X42450000Y-79500000D01*
X42450000Y-79500000D02*
X42350000Y-79500000D01*
X64500000Y-75061415D02*
X64500000Y-84075736D01*
X55099980Y-59627199D02*
X55099980Y-60372801D01*
X64424987Y-72111985D02*
X64424987Y-74986402D01*
X58088001Y-65774999D02*
X64424987Y-72111985D01*
X56000000Y-64863590D02*
X56911409Y-65774999D01*
X56000000Y-61272821D02*
X56000000Y-64863590D01*
X55099980Y-60372801D02*
X56000000Y-61272821D01*
X55374977Y-59352203D02*
X55099980Y-59627199D01*
X54924967Y-55447202D02*
X55374977Y-55897213D01*
X55374977Y-55897213D02*
X55374977Y-59352203D01*
X54924967Y-51225033D02*
X54924967Y-55447202D01*
X64500000Y-84075736D02*
X64500000Y-84500000D01*
X56911409Y-65774999D02*
X58088001Y-65774999D01*
X64424987Y-74986402D02*
X64500000Y-75061415D01*
X58150000Y-48000000D02*
X54924967Y-51225033D01*
X75500000Y-74500000D02*
X72840000Y-77160000D01*
X72840000Y-77160000D02*
X72740000Y-77160000D01*
X56274999Y-54888001D02*
X57500000Y-56113002D01*
X57500000Y-56113002D02*
X57500000Y-56840000D01*
X59420000Y-48000000D02*
X59420000Y-50980022D01*
X57325023Y-53074999D02*
X56911999Y-53074999D01*
X56911999Y-53074999D02*
X56274999Y-53711999D01*
X56274999Y-53711999D02*
X56274999Y-54888001D01*
X59420000Y-50980022D02*
X57325023Y-53074999D01*
X60690000Y-48000000D02*
X59861799Y-47171799D01*
X54099980Y-47919258D02*
X54099980Y-58599980D01*
X54847439Y-47171799D02*
X54099980Y-47919258D01*
X59861799Y-47171799D02*
X54847439Y-47171799D01*
X54200001Y-58700001D02*
X54500000Y-59000000D01*
X54099980Y-58599980D02*
X54200001Y-58700001D01*
X60000000Y-52500000D02*
X61221002Y-52500000D01*
X61221002Y-52500000D02*
X65325001Y-48396001D01*
X65325001Y-48396001D02*
X65325001Y-45734234D01*
X65325001Y-45734234D02*
X60000000Y-40409233D01*
X60000000Y-40409233D02*
X60000000Y-36424264D01*
X60000000Y-36424264D02*
X60000000Y-36000000D01*
X110000000Y-49000000D02*
X109000000Y-49000000D01*
X109000000Y-49000000D02*
X108500000Y-49500000D01*
X104500000Y-52960000D02*
X105675001Y-54135001D01*
X105675001Y-54135001D02*
X105675001Y-63175001D01*
X105675001Y-63175001D02*
X108650001Y-66150001D01*
X108650001Y-66150001D02*
X109500000Y-67000000D01*
X61002560Y-26158170D02*
X61000000Y-26155610D01*
X61002560Y-27300000D02*
X61002560Y-26158170D01*
X70699998Y-52625002D02*
X70699998Y-54527000D01*
X66000000Y-70374990D02*
X66125010Y-70500000D01*
X70699998Y-54527000D02*
X66000000Y-59226998D01*
X66000000Y-59226998D02*
X66000000Y-70374990D01*
X69874998Y-51800002D02*
X70699998Y-52625002D01*
X67738589Y-47374999D02*
X68300001Y-47374999D01*
X66225023Y-45361434D02*
X66225023Y-45861433D01*
X68300001Y-47374999D02*
X69874998Y-48949996D01*
X63004080Y-42140491D02*
X66225023Y-45361434D01*
X66225023Y-45861433D02*
X67738589Y-47374999D01*
X63004080Y-39500000D02*
X63004080Y-42140491D01*
X69874998Y-48949996D02*
X69874998Y-51800002D01*
X103650001Y-63969999D02*
X104500000Y-63120000D01*
X103324999Y-64295001D02*
X103650001Y-63969999D01*
X84658591Y-64295001D02*
X103324999Y-64295001D01*
X72988592Y-52625002D02*
X84658591Y-64295001D01*
X70699998Y-52625002D02*
X72988592Y-52625002D01*
X65500000Y-59000000D02*
X65500000Y-74500000D01*
X68000000Y-56500000D02*
X65500000Y-59000000D01*
X68000000Y-48000000D02*
X68000000Y-56500000D01*
X64000000Y-42500000D02*
X68000000Y-46500000D01*
X64000000Y-40753060D02*
X64000000Y-42500000D01*
X65003060Y-39500000D02*
X65003060Y-39750000D01*
X65003060Y-39750000D02*
X64000000Y-40753060D01*
X74654990Y-70165010D02*
X75075736Y-70165010D01*
X75075736Y-70165010D02*
X75500000Y-70165010D01*
X72740000Y-72080000D02*
X74654990Y-70165010D01*
M02*
