G04 #@! TF.FileFunction,Legend,Top*
%FSLAX46Y46*%
G04 Gerber Fmt 4.6, Leading zero omitted, Abs format (unit mm)*
G04 Created by KiCad (PCBNEW 4.0.5) date 2017 June 13, Tuesday 16:43:51*
%MOMM*%
%LPD*%
G01*
G04 APERTURE LIST*
%ADD10C,0.100000*%
%ADD11C,0.300000*%
%ADD12C,0.150000*%
%ADD13C,0.120000*%
%ADD14C,0.066040*%
%ADD15C,0.127000*%
%ADD16C,0.003000*%
%ADD17C,0.101600*%
%ADD18C,2.200000*%
%ADD19R,2.100000X2.100000*%
%ADD20O,2.100000X2.100000*%
%ADD21C,3.400000*%
%ADD22R,3.900000X3.900000*%
%ADD23R,1.700000X1.900000*%
%ADD24R,1.900000X1.700000*%
%ADD25R,1.400000X1.900000*%
%ADD26R,1.400000X1.400000*%
%ADD27O,1.400000X1.400000*%
G04 APERTURE END LIST*
D10*
D11*
X100178571Y-69142857D02*
X98678571Y-69142857D01*
X99750000Y-68642857D01*
X98678571Y-68142857D01*
X100178571Y-68142857D01*
X99464286Y-67142857D02*
X100178571Y-67142857D01*
X98678571Y-67642857D02*
X99464286Y-67142857D01*
X98678571Y-66642857D01*
X100107143Y-66214286D02*
X100178571Y-66000000D01*
X100178571Y-65642857D01*
X100107143Y-65500000D01*
X100035714Y-65428571D01*
X99892857Y-65357143D01*
X99750000Y-65357143D01*
X99607143Y-65428571D01*
X99535714Y-65500000D01*
X99464286Y-65642857D01*
X99392857Y-65928571D01*
X99321429Y-66071429D01*
X99250000Y-66142857D01*
X99107143Y-66214286D01*
X98964286Y-66214286D01*
X98821429Y-66142857D01*
X98750000Y-66071429D01*
X98678571Y-65928571D01*
X98678571Y-65571429D01*
X98750000Y-65357143D01*
X98678571Y-64857143D02*
X100178571Y-63857143D01*
X98678571Y-63857143D02*
X100178571Y-64857143D01*
X99607143Y-62142858D02*
X99607143Y-61000001D01*
X99178571Y-60285715D02*
X99607143Y-59142858D01*
X100035714Y-60285715D01*
X116142857Y-68750000D02*
X116000000Y-68678571D01*
X115785714Y-68678571D01*
X115571429Y-68750000D01*
X115428571Y-68892857D01*
X115357143Y-69035714D01*
X115285714Y-69321429D01*
X115285714Y-69535714D01*
X115357143Y-69821429D01*
X115428571Y-69964286D01*
X115571429Y-70107143D01*
X115785714Y-70178571D01*
X115928571Y-70178571D01*
X116142857Y-70107143D01*
X116214286Y-70035714D01*
X116214286Y-69535714D01*
X115928571Y-69535714D01*
X116214286Y-65035714D02*
X116142857Y-65107143D01*
X115928571Y-65178571D01*
X115785714Y-65178571D01*
X115571429Y-65107143D01*
X115428571Y-64964286D01*
X115357143Y-64821429D01*
X115285714Y-64535714D01*
X115285714Y-64321429D01*
X115357143Y-64035714D01*
X115428571Y-63892857D01*
X115571429Y-63750000D01*
X115785714Y-63678571D01*
X115928571Y-63678571D01*
X116142857Y-63750000D01*
X116214286Y-63821429D01*
X115357143Y-67678571D02*
X115357143Y-66178571D01*
X115714286Y-66178571D01*
X115928571Y-66250000D01*
X116071429Y-66392857D01*
X116142857Y-66535714D01*
X116214286Y-66821429D01*
X116214286Y-67035714D01*
X116142857Y-67321429D01*
X116071429Y-67464286D01*
X115928571Y-67607143D01*
X115714286Y-67678571D01*
X115357143Y-67678571D01*
X115357143Y-61178571D02*
X115857143Y-62678571D01*
X116357143Y-61178571D01*
X107142857Y-68750000D02*
X107000000Y-68678571D01*
X106785714Y-68678571D01*
X106571429Y-68750000D01*
X106428571Y-68892857D01*
X106357143Y-69035714D01*
X106285714Y-69321429D01*
X106285714Y-69535714D01*
X106357143Y-69821429D01*
X106428571Y-69964286D01*
X106571429Y-70107143D01*
X106785714Y-70178571D01*
X106928571Y-70178571D01*
X107142857Y-70107143D01*
X107214286Y-70035714D01*
X107214286Y-69535714D01*
X106928571Y-69535714D01*
X107214286Y-67535714D02*
X107142857Y-67607143D01*
X106928571Y-67678571D01*
X106785714Y-67678571D01*
X106571429Y-67607143D01*
X106428571Y-67464286D01*
X106357143Y-67321429D01*
X106285714Y-67035714D01*
X106285714Y-66821429D01*
X106357143Y-66535714D01*
X106428571Y-66392857D01*
X106571429Y-66250000D01*
X106785714Y-66178571D01*
X106928571Y-66178571D01*
X107142857Y-66250000D01*
X107214286Y-66321429D01*
X106357143Y-65178571D02*
X106357143Y-63678571D01*
X106714286Y-63678571D01*
X106928571Y-63750000D01*
X107071429Y-63892857D01*
X107142857Y-64035714D01*
X107214286Y-64321429D01*
X107214286Y-64535714D01*
X107142857Y-64821429D01*
X107071429Y-64964286D01*
X106928571Y-65107143D01*
X106714286Y-65178571D01*
X106357143Y-65178571D01*
X106357143Y-61178571D02*
X106857143Y-62678571D01*
X107357143Y-61178571D01*
X98214287Y-76678571D02*
X99142858Y-76678571D01*
X98642858Y-77250000D01*
X98857144Y-77250000D01*
X99000001Y-77321429D01*
X99071430Y-77392857D01*
X99142858Y-77535714D01*
X99142858Y-77892857D01*
X99071430Y-78035714D01*
X99000001Y-78107143D01*
X98857144Y-78178571D01*
X98428572Y-78178571D01*
X98285715Y-78107143D01*
X98214287Y-78035714D01*
X99642858Y-77178571D02*
X100000001Y-78178571D01*
X100357143Y-77178571D01*
X100785715Y-76678571D02*
X101714286Y-76678571D01*
X101214286Y-77250000D01*
X101428572Y-77250000D01*
X101571429Y-77321429D01*
X101642858Y-77392857D01*
X101714286Y-77535714D01*
X101714286Y-77892857D01*
X101642858Y-78035714D01*
X101571429Y-78107143D01*
X101428572Y-78178571D01*
X101000000Y-78178571D01*
X100857143Y-78107143D01*
X100785715Y-78035714D01*
X97000000Y-71678571D02*
X97500000Y-73178571D01*
X98000000Y-71678571D01*
X98500000Y-73178571D02*
X98500000Y-72178571D01*
X98500000Y-72464286D02*
X98571428Y-72321429D01*
X98642857Y-72250000D01*
X98785714Y-72178571D01*
X98928571Y-72178571D01*
X100071428Y-73178571D02*
X100071428Y-72392857D01*
X99999999Y-72250000D01*
X99857142Y-72178571D01*
X99571428Y-72178571D01*
X99428571Y-72250000D01*
X100071428Y-73107143D02*
X99928571Y-73178571D01*
X99571428Y-73178571D01*
X99428571Y-73107143D01*
X99357142Y-72964286D01*
X99357142Y-72821429D01*
X99428571Y-72678571D01*
X99571428Y-72607143D01*
X99928571Y-72607143D01*
X100071428Y-72535714D01*
X100642857Y-72178571D02*
X100928571Y-73178571D01*
X101214285Y-72464286D01*
X101500000Y-73178571D01*
X101785714Y-72178571D01*
X72214286Y-47178571D02*
X72214286Y-45678571D01*
X72857143Y-45821429D02*
X72928572Y-45750000D01*
X73071429Y-45678571D01*
X73428572Y-45678571D01*
X73571429Y-45750000D01*
X73642858Y-45821429D01*
X73714286Y-45964286D01*
X73714286Y-46107143D01*
X73642858Y-46321429D01*
X72785715Y-47178571D01*
X73714286Y-47178571D01*
X75214286Y-47035714D02*
X75142857Y-47107143D01*
X74928571Y-47178571D01*
X74785714Y-47178571D01*
X74571429Y-47107143D01*
X74428571Y-46964286D01*
X74357143Y-46821429D01*
X74285714Y-46535714D01*
X74285714Y-46321429D01*
X74357143Y-46035714D01*
X74428571Y-45892857D01*
X74571429Y-45750000D01*
X74785714Y-45678571D01*
X74928571Y-45678571D01*
X75142857Y-45750000D01*
X75214286Y-45821429D01*
X72642857Y-42607143D02*
X72857143Y-42678571D01*
X73214286Y-42678571D01*
X73357143Y-42607143D01*
X73428572Y-42535714D01*
X73500000Y-42392857D01*
X73500000Y-42250000D01*
X73428572Y-42107143D01*
X73357143Y-42035714D01*
X73214286Y-41964286D01*
X72928572Y-41892857D01*
X72785714Y-41821429D01*
X72714286Y-41750000D01*
X72642857Y-41607143D01*
X72642857Y-41464286D01*
X72714286Y-41321429D01*
X72785714Y-41250000D01*
X72928572Y-41178571D01*
X73285714Y-41178571D01*
X73500000Y-41250000D01*
X74142857Y-42678571D02*
X74142857Y-41178571D01*
X74714285Y-41178571D01*
X74857143Y-41250000D01*
X74928571Y-41321429D01*
X75000000Y-41464286D01*
X75000000Y-41678571D01*
X74928571Y-41821429D01*
X74857143Y-41892857D01*
X74714285Y-41964286D01*
X74142857Y-41964286D01*
X75642857Y-42678571D02*
X75642857Y-41178571D01*
D12*
X56230000Y-83510000D02*
X56230000Y-50490000D01*
X56230000Y-50490000D02*
X74010000Y-50490000D01*
X74010000Y-50490000D02*
X74010000Y-83510000D01*
X74010000Y-83510000D02*
X56230000Y-83510000D01*
D13*
X30000000Y-69600000D02*
X21200000Y-69600000D01*
X21200000Y-69600000D02*
X21200000Y-60400000D01*
X35900000Y-66900000D02*
X35900000Y-69600000D01*
X35900000Y-69600000D02*
X34000000Y-69600000D01*
X21200000Y-60400000D02*
X35900000Y-60400000D01*
X35900000Y-60400000D02*
X35900000Y-63000000D01*
X82630000Y-34160000D02*
X85230000Y-34160000D01*
X85230000Y-34160000D02*
X85230000Y-31540000D01*
X85230000Y-31540000D02*
X82630000Y-31540000D01*
X82630000Y-31540000D02*
X82630000Y-34160000D01*
X83580000Y-31540000D02*
X84340000Y-31540000D01*
X84340000Y-31540000D02*
X84340000Y-25540000D01*
X84340000Y-25540000D02*
X83580000Y-25540000D01*
X83580000Y-25540000D02*
X83580000Y-31540000D01*
X83580000Y-34590000D02*
X83580000Y-34160000D01*
X84340000Y-34590000D02*
X84340000Y-34160000D01*
X83700000Y-31540000D02*
X83700000Y-25540000D01*
X83820000Y-31540000D02*
X83820000Y-25540000D01*
X83940000Y-31540000D02*
X83940000Y-25540000D01*
X84060000Y-31540000D02*
X84060000Y-25540000D01*
X84180000Y-31540000D02*
X84180000Y-25540000D01*
X84300000Y-31540000D02*
X84300000Y-25540000D01*
X85230000Y-34160000D02*
X87830000Y-34160000D01*
X87830000Y-34160000D02*
X87830000Y-31540000D01*
X87830000Y-31540000D02*
X85230000Y-31540000D01*
X85230000Y-31540000D02*
X85230000Y-34160000D01*
X86120000Y-31540000D02*
X86880000Y-31540000D01*
X86880000Y-31540000D02*
X86880000Y-25540000D01*
X86880000Y-25540000D02*
X86120000Y-25540000D01*
X86120000Y-25540000D02*
X86120000Y-31540000D01*
X86120000Y-34590000D02*
X86120000Y-34160000D01*
X86880000Y-34590000D02*
X86880000Y-34160000D01*
X83960000Y-36770000D02*
X82690000Y-36770000D01*
X82690000Y-36770000D02*
X82690000Y-35500000D01*
X79190000Y-83330000D02*
X86870000Y-83330000D01*
X86870000Y-83330000D02*
X86870000Y-78130000D01*
X86870000Y-78130000D02*
X76590000Y-78130000D01*
X76590000Y-78130000D02*
X76590000Y-80730000D01*
X76590000Y-80730000D02*
X79190000Y-80730000D01*
X79190000Y-80730000D02*
X79190000Y-83330000D01*
X77920000Y-83330000D02*
X76590000Y-83330000D01*
X76590000Y-83330000D02*
X76590000Y-82000000D01*
X44190000Y-84330000D02*
X51870000Y-84330000D01*
X51870000Y-84330000D02*
X51870000Y-81670000D01*
X51870000Y-81670000D02*
X44190000Y-81670000D01*
X44190000Y-81670000D02*
X44190000Y-84330000D01*
X42920000Y-84330000D02*
X41590000Y-84330000D01*
X41590000Y-84330000D02*
X41590000Y-83000000D01*
X112170000Y-63150000D02*
X112170000Y-70830000D01*
X112170000Y-70830000D02*
X114830000Y-70830000D01*
X114830000Y-70830000D02*
X114830000Y-63150000D01*
X114830000Y-63150000D02*
X112170000Y-63150000D01*
X112170000Y-61880000D02*
X112170000Y-60550000D01*
X112170000Y-60550000D02*
X113500000Y-60550000D01*
X108170000Y-63190000D02*
X108170000Y-70870000D01*
X108170000Y-70870000D02*
X110830000Y-70870000D01*
X110830000Y-70870000D02*
X110830000Y-63190000D01*
X110830000Y-63190000D02*
X108170000Y-63190000D01*
X108170000Y-61920000D02*
X108170000Y-60590000D01*
X108170000Y-60590000D02*
X109500000Y-60590000D01*
X105830000Y-66930000D02*
X105830000Y-41470000D01*
X105830000Y-41470000D02*
X100630000Y-41470000D01*
X100630000Y-41470000D02*
X100630000Y-69530000D01*
X100630000Y-69530000D02*
X103230000Y-69530000D01*
X103230000Y-69530000D02*
X103230000Y-66930000D01*
X103230000Y-66930000D02*
X105830000Y-66930000D01*
X105830000Y-68200000D02*
X105830000Y-69530000D01*
X105830000Y-69530000D02*
X104500000Y-69530000D01*
X40670000Y-64650000D02*
X40670000Y-77410000D01*
X40670000Y-77410000D02*
X43330000Y-77410000D01*
X43330000Y-77410000D02*
X43330000Y-64650000D01*
X43330000Y-64650000D02*
X40670000Y-64650000D01*
X40670000Y-63380000D02*
X40670000Y-62050000D01*
X40670000Y-62050000D02*
X42000000Y-62050000D01*
X109120000Y-48250000D02*
X109120000Y-47050000D01*
X110880000Y-47050000D02*
X110880000Y-48250000D01*
X112120000Y-48450000D02*
X112120000Y-47250000D01*
X113880000Y-47250000D02*
X113880000Y-48450000D01*
X40400000Y-78620000D02*
X41600000Y-78620000D01*
X41600000Y-80380000D02*
X40400000Y-80380000D01*
D14*
X72201420Y-27900720D02*
X72201420Y-30301020D01*
X72201420Y-30301020D02*
X74601720Y-30301020D01*
X74601720Y-27900720D02*
X74601720Y-30301020D01*
X72201420Y-27900720D02*
X74601720Y-27900720D01*
X72000760Y-36099840D02*
X72000760Y-38497600D01*
X72000760Y-38497600D02*
X74799840Y-38497600D01*
X74799840Y-36099840D02*
X74799840Y-38497600D01*
X72000760Y-36099840D02*
X74799840Y-36099840D01*
D15*
X57604040Y-27301280D02*
X57604040Y-39498360D01*
X75000500Y-27301280D02*
X75000500Y-39498360D01*
X75000500Y-39498360D02*
X71800100Y-39498360D01*
X71800100Y-39498360D02*
X57604040Y-39498360D01*
X75000500Y-27301280D02*
X71800100Y-27301280D01*
X71800100Y-27301280D02*
X57604040Y-27301280D01*
X69201680Y-34697760D02*
X69201680Y-29902240D01*
X69201680Y-29902240D02*
X64202960Y-29902240D01*
X64202960Y-29902240D02*
X64202960Y-34697760D01*
X64202960Y-34697760D02*
X69201680Y-34697760D01*
X64002300Y-38098820D02*
X64002300Y-35698520D01*
X64002300Y-35698520D02*
X61403880Y-35698520D01*
X61403880Y-35698520D02*
X61403880Y-38098820D01*
X61403880Y-38098820D02*
X64002300Y-38098820D01*
X62803420Y-34697760D02*
X62803420Y-29902240D01*
X62803420Y-29902240D02*
X57802160Y-29902240D01*
X57802160Y-29902240D02*
X57802160Y-34697760D01*
X57802160Y-34697760D02*
X62803420Y-34697760D01*
D12*
X21000000Y-85000000D02*
X21000000Y-25000000D01*
X117000000Y-89000000D02*
X25000000Y-89000000D01*
X121000000Y-25000000D02*
X121000000Y-85000000D01*
X25000000Y-21000000D02*
X117000000Y-21000000D01*
X21000000Y-85000000D02*
G75*
G03X25000000Y-89000000I4000000J0D01*
G01*
X117000000Y-89000000D02*
G75*
G03X121000000Y-85000000I0J4000000D01*
G01*
X121000000Y-25000000D02*
G75*
G03X117000000Y-21000000I-4000000J0D01*
G01*
X25000000Y-21000000D02*
G75*
G03X21000000Y-25000000I0J-4000000D01*
G01*
X113500000Y-55000000D02*
G75*
G03X113500000Y-55000000I-3000000J0D01*
G01*
X96000000Y-77000000D02*
G75*
G03X96000000Y-77000000I-3500000J0D01*
G01*
X96000000Y-33000000D02*
G75*
G03X96000000Y-33000000I-3500000J0D01*
G01*
X53000000Y-77000000D02*
G75*
G03X53000000Y-77000000I-3500000J0D01*
G01*
X53000000Y-33000000D02*
G75*
G03X53000000Y-33000000I-3500000J0D01*
G01*
X35000000Y-55000000D02*
G75*
G03X35000000Y-55000000I-3500000J0D01*
G01*
D13*
X56245000Y-49330000D02*
X65195000Y-49330000D01*
X65195000Y-49330000D02*
X65195000Y-46670000D01*
X65195000Y-46670000D02*
X56245000Y-46670000D01*
X56245000Y-46670000D02*
X56245000Y-49330000D01*
X55610000Y-49330000D02*
X54915000Y-49330000D01*
X54915000Y-49330000D02*
X54915000Y-48000000D01*
X102670000Y-73690000D02*
X102670000Y-78830000D01*
X102670000Y-78830000D02*
X105330000Y-78830000D01*
X105330000Y-78830000D02*
X105330000Y-73690000D01*
X105330000Y-73690000D02*
X102670000Y-73690000D01*
X102670000Y-72420000D02*
X102670000Y-71090000D01*
X102670000Y-71090000D02*
X104000000Y-71090000D01*
D16*
G36*
X83955946Y-63244959D02*
X84180731Y-63287041D01*
X84316959Y-63379534D01*
X84404734Y-63540717D01*
X84429914Y-63612134D01*
X84494887Y-63978307D01*
X84455659Y-64312755D01*
X84328958Y-64584268D01*
X84131512Y-64761631D01*
X83880050Y-64813633D01*
X83793617Y-64799387D01*
X83672302Y-64777931D01*
X83609107Y-64816709D01*
X83585097Y-64952461D01*
X83581333Y-65211270D01*
X83584984Y-65476529D01*
X83610039Y-65609914D01*
X83677648Y-65648886D01*
X83808962Y-65630906D01*
X83817330Y-65629234D01*
X84090624Y-65648380D01*
X84259721Y-65749162D01*
X84368586Y-65858335D01*
X84435672Y-65999001D01*
X84474485Y-66217025D01*
X84498533Y-66558271D01*
X84498645Y-66560478D01*
X84513065Y-66886060D01*
X84508744Y-67077901D01*
X84475548Y-67171377D01*
X84403346Y-67201862D01*
X84314122Y-67204667D01*
X84198691Y-67195044D01*
X84131356Y-67141164D01*
X84096225Y-67005507D01*
X84077405Y-66750554D01*
X84072035Y-66633167D01*
X84054946Y-66330222D01*
X84026739Y-66159068D01*
X83971889Y-66082222D01*
X83874870Y-66062197D01*
X83835333Y-66061667D01*
X83722680Y-66071975D01*
X83656840Y-66127890D01*
X83622289Y-66266897D01*
X83603502Y-66526479D01*
X83598631Y-66633167D01*
X83581416Y-66936217D01*
X83553017Y-67107436D01*
X83498175Y-67184276D01*
X83401633Y-67204191D01*
X83365798Y-67204667D01*
X83158000Y-67204667D01*
X83158000Y-64025922D01*
X83581333Y-64025922D01*
X83605800Y-64272197D01*
X83695329Y-64384474D01*
X83874111Y-64393082D01*
X83874183Y-64393071D01*
X83991907Y-64338970D01*
X84052368Y-64190965D01*
X84072510Y-64019225D01*
X84070562Y-63773187D01*
X84009562Y-63646573D01*
X83955946Y-63615598D01*
X83769370Y-63615886D01*
X83636128Y-63755426D01*
X83581554Y-64006465D01*
X83581333Y-64025922D01*
X83158000Y-64025922D01*
X83158000Y-63235029D01*
X83602500Y-63235008D01*
X83955946Y-63244959D01*
X83955946Y-63244959D01*
G37*
X83955946Y-63244959D02*
X84180731Y-63287041D01*
X84316959Y-63379534D01*
X84404734Y-63540717D01*
X84429914Y-63612134D01*
X84494887Y-63978307D01*
X84455659Y-64312755D01*
X84328958Y-64584268D01*
X84131512Y-64761631D01*
X83880050Y-64813633D01*
X83793617Y-64799387D01*
X83672302Y-64777931D01*
X83609107Y-64816709D01*
X83585097Y-64952461D01*
X83581333Y-65211270D01*
X83584984Y-65476529D01*
X83610039Y-65609914D01*
X83677648Y-65648886D01*
X83808962Y-65630906D01*
X83817330Y-65629234D01*
X84090624Y-65648380D01*
X84259721Y-65749162D01*
X84368586Y-65858335D01*
X84435672Y-65999001D01*
X84474485Y-66217025D01*
X84498533Y-66558271D01*
X84498645Y-66560478D01*
X84513065Y-66886060D01*
X84508744Y-67077901D01*
X84475548Y-67171377D01*
X84403346Y-67201862D01*
X84314122Y-67204667D01*
X84198691Y-67195044D01*
X84131356Y-67141164D01*
X84096225Y-67005507D01*
X84077405Y-66750554D01*
X84072035Y-66633167D01*
X84054946Y-66330222D01*
X84026739Y-66159068D01*
X83971889Y-66082222D01*
X83874870Y-66062197D01*
X83835333Y-66061667D01*
X83722680Y-66071975D01*
X83656840Y-66127890D01*
X83622289Y-66266897D01*
X83603502Y-66526479D01*
X83598631Y-66633167D01*
X83581416Y-66936217D01*
X83553017Y-67107436D01*
X83498175Y-67184276D01*
X83401633Y-67204191D01*
X83365798Y-67204667D01*
X83158000Y-67204667D01*
X83158000Y-64025922D01*
X83581333Y-64025922D01*
X83605800Y-64272197D01*
X83695329Y-64384474D01*
X83874111Y-64393082D01*
X83874183Y-64393071D01*
X83991907Y-64338970D01*
X84052368Y-64190965D01*
X84072510Y-64019225D01*
X84070562Y-63773187D01*
X84009562Y-63646573D01*
X83955946Y-63615598D01*
X83769370Y-63615886D01*
X83636128Y-63755426D01*
X83581554Y-64006465D01*
X83581333Y-64025922D01*
X83158000Y-64025922D01*
X83158000Y-63235029D01*
X83602500Y-63235008D01*
X83955946Y-63244959D01*
G36*
X85450201Y-65625207D02*
X85707678Y-65756145D01*
X85812681Y-65864354D01*
X85877704Y-66009700D01*
X85915687Y-66237374D01*
X85937978Y-66560478D01*
X85970508Y-67204667D01*
X85453254Y-67204667D01*
X85126575Y-67190375D01*
X84915770Y-67139001D01*
X84769138Y-67037792D01*
X84766667Y-67035333D01*
X84622795Y-66839381D01*
X84624191Y-66676923D01*
X85026506Y-66676923D01*
X85040498Y-66784376D01*
X85178024Y-66856719D01*
X85274667Y-66866000D01*
X85460587Y-66839389D01*
X85526046Y-66740378D01*
X85528667Y-66696666D01*
X85469907Y-66555729D01*
X85296870Y-66536655D01*
X85154591Y-66578725D01*
X85026506Y-66676923D01*
X84624191Y-66676923D01*
X84624429Y-66649280D01*
X84729134Y-66461505D01*
X84880728Y-66325753D01*
X85114877Y-66275435D01*
X85201009Y-66273333D01*
X85419933Y-66260192D01*
X85508884Y-66208636D01*
X85511645Y-66125166D01*
X85425908Y-66012716D01*
X85210387Y-65970319D01*
X85187937Y-65969581D01*
X84890006Y-65957986D01*
X84740048Y-65933852D01*
X84716706Y-65884484D01*
X84798618Y-65797186D01*
X84839546Y-65762516D01*
X85132648Y-65618532D01*
X85450201Y-65625207D01*
X85450201Y-65625207D01*
G37*
X85450201Y-65625207D02*
X85707678Y-65756145D01*
X85812681Y-65864354D01*
X85877704Y-66009700D01*
X85915687Y-66237374D01*
X85937978Y-66560478D01*
X85970508Y-67204667D01*
X85453254Y-67204667D01*
X85126575Y-67190375D01*
X84915770Y-67139001D01*
X84769138Y-67037792D01*
X84766667Y-67035333D01*
X84622795Y-66839381D01*
X84624191Y-66676923D01*
X85026506Y-66676923D01*
X85040498Y-66784376D01*
X85178024Y-66856719D01*
X85274667Y-66866000D01*
X85460587Y-66839389D01*
X85526046Y-66740378D01*
X85528667Y-66696666D01*
X85469907Y-66555729D01*
X85296870Y-66536655D01*
X85154591Y-66578725D01*
X85026506Y-66676923D01*
X84624191Y-66676923D01*
X84624429Y-66649280D01*
X84729134Y-66461505D01*
X84880728Y-66325753D01*
X85114877Y-66275435D01*
X85201009Y-66273333D01*
X85419933Y-66260192D01*
X85508884Y-66208636D01*
X85511645Y-66125166D01*
X85425908Y-66012716D01*
X85210387Y-65970319D01*
X85187937Y-65969581D01*
X84890006Y-65957986D01*
X84740048Y-65933852D01*
X84716706Y-65884484D01*
X84798618Y-65797186D01*
X84839546Y-65762516D01*
X85132648Y-65618532D01*
X85450201Y-65625207D01*
G36*
X86935332Y-65623549D02*
X87122911Y-65652317D01*
X87179245Y-65679984D01*
X87193930Y-65832748D01*
X87076181Y-65964208D01*
X86861929Y-66034956D01*
X86854960Y-66035673D01*
X86587000Y-66061667D01*
X86561965Y-66633167D01*
X86542870Y-66939248D01*
X86511222Y-67112304D01*
X86454917Y-67188643D01*
X86371465Y-67204667D01*
X86294056Y-67191474D01*
X86245386Y-67130873D01*
X86218877Y-66991330D01*
X86207950Y-66741310D01*
X86206000Y-66411470D01*
X86206000Y-65618273D01*
X86670970Y-65614094D01*
X86935332Y-65623549D01*
X86935332Y-65623549D01*
G37*
X86935332Y-65623549D02*
X87122911Y-65652317D01*
X87179245Y-65679984D01*
X87193930Y-65832748D01*
X87076181Y-65964208D01*
X86861929Y-66034956D01*
X86854960Y-66035673D01*
X86587000Y-66061667D01*
X86561965Y-66633167D01*
X86542870Y-66939248D01*
X86511222Y-67112304D01*
X86454917Y-67188643D01*
X86371465Y-67204667D01*
X86294056Y-67191474D01*
X86245386Y-67130873D01*
X86218877Y-66991330D01*
X86207950Y-66741310D01*
X86206000Y-66411470D01*
X86206000Y-65618273D01*
X86670970Y-65614094D01*
X86935332Y-65623549D01*
G36*
X88391796Y-65012669D02*
X88439027Y-65058665D01*
X88468510Y-65168309D01*
X88484399Y-65368584D01*
X88490843Y-65686477D01*
X88492000Y-66104000D01*
X88492000Y-67204667D01*
X87997122Y-67204667D01*
X87671039Y-67187850D01*
X87466306Y-67130036D01*
X87362122Y-67049833D01*
X87259078Y-66834976D01*
X87215474Y-66529455D01*
X87226716Y-66270815D01*
X87583563Y-66270815D01*
X87584641Y-66514147D01*
X87632772Y-66660577D01*
X87767463Y-66831734D01*
X87918587Y-66843501D01*
X88050071Y-66696872D01*
X88070901Y-66648458D01*
X88123959Y-66373430D01*
X88072574Y-66154408D01*
X87931072Y-66032086D01*
X87849434Y-66019333D01*
X87677159Y-66090095D01*
X87583563Y-66270815D01*
X87226716Y-66270815D01*
X87229792Y-66200056D01*
X87300514Y-65913563D01*
X87391333Y-65765333D01*
X87617094Y-65616374D01*
X87860303Y-65626681D01*
X87989566Y-65683645D01*
X88089587Y-65722022D01*
X88137670Y-65673067D01*
X88152513Y-65502947D01*
X88153333Y-65387312D01*
X88164235Y-65148082D01*
X88209577Y-65034487D01*
X88308319Y-65003538D01*
X88322667Y-65003333D01*
X88391796Y-65012669D01*
X88391796Y-65012669D01*
G37*
X88391796Y-65012669D02*
X88439027Y-65058665D01*
X88468510Y-65168309D01*
X88484399Y-65368584D01*
X88490843Y-65686477D01*
X88492000Y-66104000D01*
X88492000Y-67204667D01*
X87997122Y-67204667D01*
X87671039Y-67187850D01*
X87466306Y-67130036D01*
X87362122Y-67049833D01*
X87259078Y-66834976D01*
X87215474Y-66529455D01*
X87226716Y-66270815D01*
X87583563Y-66270815D01*
X87584641Y-66514147D01*
X87632772Y-66660577D01*
X87767463Y-66831734D01*
X87918587Y-66843501D01*
X88050071Y-66696872D01*
X88070901Y-66648458D01*
X88123959Y-66373430D01*
X88072574Y-66154408D01*
X87931072Y-66032086D01*
X87849434Y-66019333D01*
X87677159Y-66090095D01*
X87583563Y-66270815D01*
X87226716Y-66270815D01*
X87229792Y-66200056D01*
X87300514Y-65913563D01*
X87391333Y-65765333D01*
X87617094Y-65616374D01*
X87860303Y-65626681D01*
X87989566Y-65683645D01*
X88089587Y-65722022D01*
X88137670Y-65673067D01*
X88152513Y-65502947D01*
X88153333Y-65387312D01*
X88164235Y-65148082D01*
X88209577Y-65034487D01*
X88308319Y-65003538D01*
X88322667Y-65003333D01*
X88391796Y-65012669D01*
G36*
X88900525Y-65614359D02*
X88983317Y-65695957D01*
X89048797Y-65880574D01*
X89092184Y-66062188D01*
X89156172Y-66305168D01*
X89214458Y-66454423D01*
X89246423Y-66479534D01*
X89300692Y-66376664D01*
X89382909Y-66169547D01*
X89430592Y-66034513D01*
X89555016Y-65742031D01*
X89674978Y-65617375D01*
X89793045Y-65660934D01*
X89911789Y-65873094D01*
X89996008Y-66119843D01*
X90154543Y-66654333D01*
X90279283Y-66146333D01*
X90362476Y-65853376D01*
X90444643Y-65690649D01*
X90547660Y-65620606D01*
X90591011Y-65611278D01*
X90691722Y-65600777D01*
X90748986Y-65622688D01*
X90761593Y-65704166D01*
X90728334Y-65872362D01*
X90647998Y-66154431D01*
X90552838Y-66467813D01*
X90439685Y-66822563D01*
X90353227Y-67042068D01*
X90277529Y-67154960D01*
X90196651Y-67189873D01*
X90152263Y-67187480D01*
X90029592Y-67121600D01*
X89924014Y-66943333D01*
X89837826Y-66696666D01*
X89696660Y-66231000D01*
X89553989Y-66717833D01*
X89456788Y-67004303D01*
X89365353Y-67155695D01*
X89259261Y-67204224D01*
X89245335Y-67204667D01*
X89093129Y-67157852D01*
X89046302Y-67098833D01*
X88954982Y-66808760D01*
X88850616Y-66480737D01*
X88747945Y-66160653D01*
X88661710Y-65894397D01*
X88606652Y-65727860D01*
X88597553Y-65701833D01*
X88634595Y-65618626D01*
X88773203Y-65596000D01*
X88900525Y-65614359D01*
X88900525Y-65614359D01*
G37*
X88900525Y-65614359D02*
X88983317Y-65695957D01*
X89048797Y-65880574D01*
X89092184Y-66062188D01*
X89156172Y-66305168D01*
X89214458Y-66454423D01*
X89246423Y-66479534D01*
X89300692Y-66376664D01*
X89382909Y-66169547D01*
X89430592Y-66034513D01*
X89555016Y-65742031D01*
X89674978Y-65617375D01*
X89793045Y-65660934D01*
X89911789Y-65873094D01*
X89996008Y-66119843D01*
X90154543Y-66654333D01*
X90279283Y-66146333D01*
X90362476Y-65853376D01*
X90444643Y-65690649D01*
X90547660Y-65620606D01*
X90591011Y-65611278D01*
X90691722Y-65600777D01*
X90748986Y-65622688D01*
X90761593Y-65704166D01*
X90728334Y-65872362D01*
X90647998Y-66154431D01*
X90552838Y-66467813D01*
X90439685Y-66822563D01*
X90353227Y-67042068D01*
X90277529Y-67154960D01*
X90196651Y-67189873D01*
X90152263Y-67187480D01*
X90029592Y-67121600D01*
X89924014Y-66943333D01*
X89837826Y-66696666D01*
X89696660Y-66231000D01*
X89553989Y-66717833D01*
X89456788Y-67004303D01*
X89365353Y-67155695D01*
X89259261Y-67204224D01*
X89245335Y-67204667D01*
X89093129Y-67157852D01*
X89046302Y-67098833D01*
X88954982Y-66808760D01*
X88850616Y-66480737D01*
X88747945Y-66160653D01*
X88661710Y-65894397D01*
X88606652Y-65727860D01*
X88597553Y-65701833D01*
X88634595Y-65618626D01*
X88773203Y-65596000D01*
X88900525Y-65614359D01*
G36*
X91552612Y-65612650D02*
X91816530Y-65714226D01*
X91878666Y-65765333D01*
X91969753Y-65887542D01*
X92021836Y-66056954D01*
X92044501Y-66319095D01*
X92048000Y-66569666D01*
X92048000Y-67204667D01*
X91553122Y-67204667D01*
X91227039Y-67187850D01*
X91022306Y-67130036D01*
X90918122Y-67049833D01*
X90783495Y-66807851D01*
X90786299Y-66766208D01*
X91149850Y-66766208D01*
X91153149Y-66771867D01*
X91251589Y-66829674D01*
X91414057Y-66864477D01*
X91563879Y-66866729D01*
X91624667Y-66830591D01*
X91651005Y-66731067D01*
X91676058Y-66661258D01*
X91671969Y-66557902D01*
X91530841Y-66528615D01*
X91527891Y-66528630D01*
X91301941Y-66564888D01*
X91162441Y-66652835D01*
X91149850Y-66766208D01*
X90786299Y-66766208D01*
X90798869Y-66579547D01*
X90945821Y-66396114D01*
X91205927Y-66288750D01*
X91376714Y-66273333D01*
X91586574Y-66256569D01*
X91701768Y-66214777D01*
X91709333Y-66199034D01*
X91635701Y-66060688D01*
X91451235Y-65982323D01*
X91223722Y-65985222D01*
X91006367Y-65989001D01*
X90892289Y-65916038D01*
X90906595Y-65796253D01*
X90992914Y-65710156D01*
X91251430Y-65609634D01*
X91552612Y-65612650D01*
X91552612Y-65612650D01*
G37*
X91552612Y-65612650D02*
X91816530Y-65714226D01*
X91878666Y-65765333D01*
X91969753Y-65887542D01*
X92021836Y-66056954D01*
X92044501Y-66319095D01*
X92048000Y-66569666D01*
X92048000Y-67204667D01*
X91553122Y-67204667D01*
X91227039Y-67187850D01*
X91022306Y-67130036D01*
X90918122Y-67049833D01*
X90783495Y-66807851D01*
X90786299Y-66766208D01*
X91149850Y-66766208D01*
X91153149Y-66771867D01*
X91251589Y-66829674D01*
X91414057Y-66864477D01*
X91563879Y-66866729D01*
X91624667Y-66830591D01*
X91651005Y-66731067D01*
X91676058Y-66661258D01*
X91671969Y-66557902D01*
X91530841Y-66528615D01*
X91527891Y-66528630D01*
X91301941Y-66564888D01*
X91162441Y-66652835D01*
X91149850Y-66766208D01*
X90786299Y-66766208D01*
X90798869Y-66579547D01*
X90945821Y-66396114D01*
X91205927Y-66288750D01*
X91376714Y-66273333D01*
X91586574Y-66256569D01*
X91701768Y-66214777D01*
X91709333Y-66199034D01*
X91635701Y-66060688D01*
X91451235Y-65982323D01*
X91223722Y-65985222D01*
X91006367Y-65989001D01*
X90892289Y-65916038D01*
X90906595Y-65796253D01*
X90992914Y-65710156D01*
X91251430Y-65609634D01*
X91552612Y-65612650D01*
G36*
X92806317Y-65626852D02*
X93085305Y-65645686D01*
X93291849Y-65675832D01*
X93368715Y-65703160D01*
X93382665Y-65806984D01*
X93279537Y-65918019D01*
X93105785Y-65999522D01*
X92968966Y-66019333D01*
X92725333Y-66019333D01*
X92725333Y-66612000D01*
X92722221Y-66921636D01*
X92704098Y-67098847D01*
X92657786Y-67180531D01*
X92570108Y-67203587D01*
X92513667Y-67204667D01*
X92415299Y-67199012D01*
X92353399Y-67160821D01*
X92319521Y-67058249D01*
X92305218Y-66859453D01*
X92302044Y-66532589D01*
X92302000Y-66406646D01*
X92302000Y-65608625D01*
X92806317Y-65626852D01*
X92806317Y-65626852D01*
G37*
X92806317Y-65626852D02*
X93085305Y-65645686D01*
X93291849Y-65675832D01*
X93368715Y-65703160D01*
X93382665Y-65806984D01*
X93279537Y-65918019D01*
X93105785Y-65999522D01*
X92968966Y-66019333D01*
X92725333Y-66019333D01*
X92725333Y-66612000D01*
X92722221Y-66921636D01*
X92704098Y-67098847D01*
X92657786Y-67180531D01*
X92570108Y-67203587D01*
X92513667Y-67204667D01*
X92415299Y-67199012D01*
X92353399Y-67160821D01*
X92319521Y-67058249D01*
X92305218Y-66859453D01*
X92302044Y-66532589D01*
X92302000Y-66406646D01*
X92302000Y-65608625D01*
X92806317Y-65626852D01*
G36*
X94297138Y-65671320D02*
X94511836Y-65862054D01*
X94648409Y-66115367D01*
X94672667Y-66269485D01*
X94665321Y-66416171D01*
X94615677Y-66492955D01*
X94482326Y-66522466D01*
X94223857Y-66527331D01*
X94200792Y-66527333D01*
X93930672Y-66534609D01*
X93793618Y-66564460D01*
X93753691Y-66628924D01*
X93758434Y-66675500D01*
X93824772Y-66775979D01*
X93996808Y-66818912D01*
X94137819Y-66823667D01*
X94425239Y-66846755D01*
X94562104Y-66912644D01*
X94542048Y-67016270D01*
X94465851Y-67084589D01*
X94223870Y-67181579D01*
X93932505Y-67196395D01*
X93679179Y-67127538D01*
X93634328Y-67098833D01*
X93438663Y-66861027D01*
X93356904Y-66564317D01*
X93377652Y-66249621D01*
X93411118Y-66162329D01*
X93749309Y-66162329D01*
X93801021Y-66246049D01*
X93995333Y-66273333D01*
X94191514Y-66237909D01*
X94249333Y-66155392D01*
X94181446Y-66025727D01*
X94028250Y-65973078D01*
X93865444Y-66022018D01*
X93857602Y-66028239D01*
X93749309Y-66162329D01*
X93411118Y-66162329D01*
X93489509Y-65957860D01*
X93681078Y-65729951D01*
X93940961Y-65606814D01*
X94052933Y-65596000D01*
X94297138Y-65671320D01*
X94297138Y-65671320D01*
G37*
X94297138Y-65671320D02*
X94511836Y-65862054D01*
X94648409Y-66115367D01*
X94672667Y-66269485D01*
X94665321Y-66416171D01*
X94615677Y-66492955D01*
X94482326Y-66522466D01*
X94223857Y-66527331D01*
X94200792Y-66527333D01*
X93930672Y-66534609D01*
X93793618Y-66564460D01*
X93753691Y-66628924D01*
X93758434Y-66675500D01*
X93824772Y-66775979D01*
X93996808Y-66818912D01*
X94137819Y-66823667D01*
X94425239Y-66846755D01*
X94562104Y-66912644D01*
X94542048Y-67016270D01*
X94465851Y-67084589D01*
X94223870Y-67181579D01*
X93932505Y-67196395D01*
X93679179Y-67127538D01*
X93634328Y-67098833D01*
X93438663Y-66861027D01*
X93356904Y-66564317D01*
X93377652Y-66249621D01*
X93411118Y-66162329D01*
X93749309Y-66162329D01*
X93801021Y-66246049D01*
X93995333Y-66273333D01*
X94191514Y-66237909D01*
X94249333Y-66155392D01*
X94181446Y-66025727D01*
X94028250Y-65973078D01*
X93865444Y-66022018D01*
X93857602Y-66028239D01*
X93749309Y-66162329D01*
X93411118Y-66162329D01*
X93489509Y-65957860D01*
X93681078Y-65729951D01*
X93940961Y-65606814D01*
X94052933Y-65596000D01*
X94297138Y-65671320D01*
G36*
X82651762Y-63295543D02*
X82866926Y-63499510D01*
X82976208Y-63827243D01*
X82988667Y-64017805D01*
X82929599Y-64384660D01*
X82770577Y-64650737D01*
X82538876Y-64799345D01*
X82261769Y-64813792D01*
X81966528Y-64677386D01*
X81941751Y-64658521D01*
X81808131Y-64528488D01*
X81741255Y-64371515D01*
X81719578Y-64126271D01*
X81718776Y-64035826D01*
X82057333Y-64035826D01*
X82108687Y-64275908D01*
X82234169Y-64419115D01*
X82390915Y-64453126D01*
X82536056Y-64365622D01*
X82615895Y-64196358D01*
X82637282Y-63883813D01*
X82524785Y-63665160D01*
X82466597Y-63620318D01*
X82292353Y-63586498D01*
X82149623Y-63692818D01*
X82067140Y-63910105D01*
X82057333Y-64035826D01*
X81718776Y-64035826D01*
X81718667Y-64023522D01*
X81763756Y-63631190D01*
X81903580Y-63374793D01*
X82144979Y-63245530D01*
X82338908Y-63225333D01*
X82651762Y-63295543D01*
X82651762Y-63295543D01*
G37*
X82651762Y-63295543D02*
X82866926Y-63499510D01*
X82976208Y-63827243D01*
X82988667Y-64017805D01*
X82929599Y-64384660D01*
X82770577Y-64650737D01*
X82538876Y-64799345D01*
X82261769Y-64813792D01*
X81966528Y-64677386D01*
X81941751Y-64658521D01*
X81808131Y-64528488D01*
X81741255Y-64371515D01*
X81719578Y-64126271D01*
X81718776Y-64035826D01*
X82057333Y-64035826D01*
X82108687Y-64275908D01*
X82234169Y-64419115D01*
X82390915Y-64453126D01*
X82536056Y-64365622D01*
X82615895Y-64196358D01*
X82637282Y-63883813D01*
X82524785Y-63665160D01*
X82466597Y-63620318D01*
X82292353Y-63586498D01*
X82149623Y-63692818D01*
X82067140Y-63910105D01*
X82057333Y-64035826D01*
X81718776Y-64035826D01*
X81718667Y-64023522D01*
X81763756Y-63631190D01*
X81903580Y-63374793D01*
X82144979Y-63245530D01*
X82338908Y-63225333D01*
X82651762Y-63295543D01*
G36*
X85570330Y-63292019D02*
X85782004Y-63482109D01*
X85912985Y-63784417D01*
X85923320Y-63839166D01*
X85974156Y-64156667D01*
X85497411Y-64156667D01*
X85192839Y-64171559D01*
X85046500Y-64220581D01*
X85049562Y-64310245D01*
X85150174Y-64412747D01*
X85304162Y-64476913D01*
X85482411Y-64427859D01*
X85658961Y-64379706D01*
X85779140Y-64449153D01*
X85789582Y-64461333D01*
X85844963Y-64609715D01*
X85809871Y-64671329D01*
X85635372Y-64755844D01*
X85375709Y-64794473D01*
X85110295Y-64781186D01*
X84959859Y-64735903D01*
X84764109Y-64549838D01*
X84651229Y-64260260D01*
X84635695Y-63918564D01*
X84674836Y-63723858D01*
X84681019Y-63712166D01*
X85041833Y-63712166D01*
X85085891Y-63792455D01*
X85274667Y-63818000D01*
X85468745Y-63790044D01*
X85507500Y-63712166D01*
X85405449Y-63629523D01*
X85274667Y-63606333D01*
X85107094Y-63646245D01*
X85041833Y-63712166D01*
X84681019Y-63712166D01*
X84830217Y-63430067D01*
X85056531Y-63262497D01*
X85315871Y-63217648D01*
X85570330Y-63292019D01*
X85570330Y-63292019D01*
G37*
X85570330Y-63292019D02*
X85782004Y-63482109D01*
X85912985Y-63784417D01*
X85923320Y-63839166D01*
X85974156Y-64156667D01*
X85497411Y-64156667D01*
X85192839Y-64171559D01*
X85046500Y-64220581D01*
X85049562Y-64310245D01*
X85150174Y-64412747D01*
X85304162Y-64476913D01*
X85482411Y-64427859D01*
X85658961Y-64379706D01*
X85779140Y-64449153D01*
X85789582Y-64461333D01*
X85844963Y-64609715D01*
X85809871Y-64671329D01*
X85635372Y-64755844D01*
X85375709Y-64794473D01*
X85110295Y-64781186D01*
X84959859Y-64735903D01*
X84764109Y-64549838D01*
X84651229Y-64260260D01*
X84635695Y-63918564D01*
X84674836Y-63723858D01*
X84681019Y-63712166D01*
X85041833Y-63712166D01*
X85085891Y-63792455D01*
X85274667Y-63818000D01*
X85468745Y-63790044D01*
X85507500Y-63712166D01*
X85405449Y-63629523D01*
X85274667Y-63606333D01*
X85107094Y-63646245D01*
X85041833Y-63712166D01*
X84681019Y-63712166D01*
X84830217Y-63430067D01*
X85056531Y-63262497D01*
X85315871Y-63217648D01*
X85570330Y-63292019D01*
G36*
X86951628Y-63256466D02*
X87177992Y-63323426D01*
X87310933Y-63471868D01*
X87374126Y-63729809D01*
X87391244Y-64125264D01*
X87391333Y-64169789D01*
X87387510Y-64503689D01*
X87370351Y-64702574D01*
X87331324Y-64800696D01*
X87261897Y-64832304D01*
X87225868Y-64834000D01*
X87135800Y-64814055D01*
X87081923Y-64729860D01*
X87051866Y-64544873D01*
X87035368Y-64271339D01*
X87007388Y-63932088D01*
X86954509Y-63726351D01*
X86867567Y-63619040D01*
X86864497Y-63617075D01*
X86705760Y-63574554D01*
X86589870Y-63679383D01*
X86512939Y-63938221D01*
X86475301Y-64283902D01*
X86449354Y-64584628D01*
X86411293Y-64752214D01*
X86348322Y-64822852D01*
X86280803Y-64834000D01*
X86206076Y-64819257D01*
X86159078Y-64754121D01*
X86133505Y-64607227D01*
X86123050Y-64347211D01*
X86121333Y-64040803D01*
X86121333Y-63247606D01*
X86608167Y-63242973D01*
X86951628Y-63256466D01*
X86951628Y-63256466D01*
G37*
X86951628Y-63256466D02*
X87177992Y-63323426D01*
X87310933Y-63471868D01*
X87374126Y-63729809D01*
X87391244Y-64125264D01*
X87391333Y-64169789D01*
X87387510Y-64503689D01*
X87370351Y-64702574D01*
X87331324Y-64800696D01*
X87261897Y-64832304D01*
X87225868Y-64834000D01*
X87135800Y-64814055D01*
X87081923Y-64729860D01*
X87051866Y-64544873D01*
X87035368Y-64271339D01*
X87007388Y-63932088D01*
X86954509Y-63726351D01*
X86867567Y-63619040D01*
X86864497Y-63617075D01*
X86705760Y-63574554D01*
X86589870Y-63679383D01*
X86512939Y-63938221D01*
X86475301Y-64283902D01*
X86449354Y-64584628D01*
X86411293Y-64752214D01*
X86348322Y-64822852D01*
X86280803Y-64834000D01*
X86206076Y-64819257D01*
X86159078Y-64754121D01*
X86133505Y-64607227D01*
X86123050Y-64347211D01*
X86121333Y-64040803D01*
X86121333Y-63247606D01*
X86608167Y-63242973D01*
X86951628Y-63256466D01*
G36*
X89262647Y-63269619D02*
X89412498Y-63344222D01*
X89457670Y-63450825D01*
X89418914Y-63526991D01*
X89273259Y-63605613D01*
X89016714Y-63599005D01*
X88990114Y-63594932D01*
X88773750Y-63573077D01*
X88678510Y-63607792D01*
X88661333Y-63680179D01*
X88728281Y-63789641D01*
X88896494Y-63818000D01*
X89199890Y-63881035D01*
X89415383Y-64050232D01*
X89507024Y-64295727D01*
X89508000Y-64326000D01*
X89436229Y-64574383D01*
X89245221Y-64744283D01*
X88971436Y-64823796D01*
X88651332Y-64801017D01*
X88376036Y-64695598D01*
X88219157Y-64595431D01*
X88196945Y-64515399D01*
X88255539Y-64441508D01*
X88389385Y-64364524D01*
X88574659Y-64394484D01*
X88615519Y-64409343D01*
X88838541Y-64456357D01*
X89039156Y-64440065D01*
X89157979Y-64369043D01*
X89169333Y-64329353D01*
X89093470Y-64237773D01*
X88900631Y-64174294D01*
X88701543Y-64156667D01*
X88504490Y-64085120D01*
X88330097Y-63913691D01*
X88240374Y-63707195D01*
X88238000Y-63672161D01*
X88293423Y-63536883D01*
X88407333Y-63394667D01*
X88580460Y-63289540D01*
X88807083Y-63237105D01*
X89047660Y-63232189D01*
X89262647Y-63269619D01*
X89262647Y-63269619D01*
G37*
X89262647Y-63269619D02*
X89412498Y-63344222D01*
X89457670Y-63450825D01*
X89418914Y-63526991D01*
X89273259Y-63605613D01*
X89016714Y-63599005D01*
X88990114Y-63594932D01*
X88773750Y-63573077D01*
X88678510Y-63607792D01*
X88661333Y-63680179D01*
X88728281Y-63789641D01*
X88896494Y-63818000D01*
X89199890Y-63881035D01*
X89415383Y-64050232D01*
X89507024Y-64295727D01*
X89508000Y-64326000D01*
X89436229Y-64574383D01*
X89245221Y-64744283D01*
X88971436Y-64823796D01*
X88651332Y-64801017D01*
X88376036Y-64695598D01*
X88219157Y-64595431D01*
X88196945Y-64515399D01*
X88255539Y-64441508D01*
X88389385Y-64364524D01*
X88574659Y-64394484D01*
X88615519Y-64409343D01*
X88838541Y-64456357D01*
X89039156Y-64440065D01*
X89157979Y-64369043D01*
X89169333Y-64329353D01*
X89093470Y-64237773D01*
X88900631Y-64174294D01*
X88701543Y-64156667D01*
X88504490Y-64085120D01*
X88330097Y-63913691D01*
X88240374Y-63707195D01*
X88238000Y-63672161D01*
X88293423Y-63536883D01*
X88407333Y-63394667D01*
X88580460Y-63289540D01*
X88807083Y-63237105D01*
X89047660Y-63232189D01*
X89262647Y-63269619D01*
G36*
X90605354Y-63298938D02*
X90818398Y-63508391D01*
X90931990Y-63836652D01*
X90947333Y-64044933D01*
X90886114Y-64400954D01*
X90722186Y-64658421D01*
X90485144Y-64799986D01*
X90204582Y-64808306D01*
X89910096Y-64666034D01*
X89900418Y-64658521D01*
X89766798Y-64528488D01*
X89699922Y-64371515D01*
X89678244Y-64126271D01*
X89677413Y-64032489D01*
X90016000Y-64032489D01*
X90037932Y-64269270D01*
X90126370Y-64381458D01*
X90315270Y-64410638D01*
X90324831Y-64410666D01*
X90496124Y-64352525D01*
X90575466Y-64192756D01*
X90582706Y-63943832D01*
X90536561Y-63769423D01*
X90403183Y-63599445D01*
X90251449Y-63573181D01*
X90115530Y-63673361D01*
X90029595Y-63882717D01*
X90016000Y-64032489D01*
X89677413Y-64032489D01*
X89677333Y-64023522D01*
X89721649Y-63632370D01*
X89859921Y-63376966D01*
X90100138Y-63247173D01*
X90306188Y-63225333D01*
X90605354Y-63298938D01*
X90605354Y-63298938D01*
G37*
X90605354Y-63298938D02*
X90818398Y-63508391D01*
X90931990Y-63836652D01*
X90947333Y-64044933D01*
X90886114Y-64400954D01*
X90722186Y-64658421D01*
X90485144Y-64799986D01*
X90204582Y-64808306D01*
X89910096Y-64666034D01*
X89900418Y-64658521D01*
X89766798Y-64528488D01*
X89699922Y-64371515D01*
X89678244Y-64126271D01*
X89677413Y-64032489D01*
X90016000Y-64032489D01*
X90037932Y-64269270D01*
X90126370Y-64381458D01*
X90315270Y-64410638D01*
X90324831Y-64410666D01*
X90496124Y-64352525D01*
X90575466Y-64192756D01*
X90582706Y-63943832D01*
X90536561Y-63769423D01*
X90403183Y-63599445D01*
X90251449Y-63573181D01*
X90115530Y-63673361D01*
X90029595Y-63882717D01*
X90016000Y-64032489D01*
X89677413Y-64032489D01*
X89677333Y-64023522D01*
X89721649Y-63632370D01*
X89859921Y-63376966D01*
X90100138Y-63247173D01*
X90306188Y-63225333D01*
X90605354Y-63298938D01*
G36*
X91435129Y-63236169D02*
X91499902Y-63293647D01*
X91534043Y-63435218D01*
X91552810Y-63698335D01*
X91557298Y-63796833D01*
X91574387Y-64099778D01*
X91602594Y-64270931D01*
X91657444Y-64347778D01*
X91754463Y-64367802D01*
X91794000Y-64368333D01*
X91906240Y-64358151D01*
X91972034Y-64302729D01*
X92006700Y-64164752D01*
X92025559Y-63906904D01*
X92030824Y-63791468D01*
X92048109Y-63487242D01*
X92075601Y-63317048D01*
X92126864Y-63245621D01*
X92215464Y-63237693D01*
X92242491Y-63241134D01*
X92331016Y-63264273D01*
X92385971Y-63325404D01*
X92415313Y-63458171D01*
X92426999Y-63696222D01*
X92429000Y-64029666D01*
X92429000Y-64791666D01*
X91974929Y-64807111D01*
X91681904Y-64802634D01*
X91490384Y-64751898D01*
X91334808Y-64636253D01*
X91318762Y-64620459D01*
X91209358Y-64487919D01*
X91147956Y-64331384D01*
X91121483Y-64099190D01*
X91116667Y-63821848D01*
X91119840Y-63510922D01*
X91137898Y-63332555D01*
X91183647Y-63249986D01*
X91269891Y-63226455D01*
X91324465Y-63225333D01*
X91435129Y-63236169D01*
X91435129Y-63236169D01*
G37*
X91435129Y-63236169D02*
X91499902Y-63293647D01*
X91534043Y-63435218D01*
X91552810Y-63698335D01*
X91557298Y-63796833D01*
X91574387Y-64099778D01*
X91602594Y-64270931D01*
X91657444Y-64347778D01*
X91754463Y-64367802D01*
X91794000Y-64368333D01*
X91906240Y-64358151D01*
X91972034Y-64302729D01*
X92006700Y-64164752D01*
X92025559Y-63906904D01*
X92030824Y-63791468D01*
X92048109Y-63487242D01*
X92075601Y-63317048D01*
X92126864Y-63245621D01*
X92215464Y-63237693D01*
X92242491Y-63241134D01*
X92331016Y-63264273D01*
X92385971Y-63325404D01*
X92415313Y-63458171D01*
X92426999Y-63696222D01*
X92429000Y-64029666D01*
X92429000Y-64791666D01*
X91974929Y-64807111D01*
X91681904Y-64802634D01*
X91490384Y-64751898D01*
X91334808Y-64636253D01*
X91318762Y-64620459D01*
X91209358Y-64487919D01*
X91147956Y-64331384D01*
X91121483Y-64099190D01*
X91116667Y-63821848D01*
X91119840Y-63510922D01*
X91137898Y-63332555D01*
X91183647Y-63249986D01*
X91269891Y-63226455D01*
X91324465Y-63225333D01*
X91435129Y-63236169D01*
G36*
X93453735Y-63248672D02*
X93644655Y-63283756D01*
X93703288Y-63316939D01*
X93703158Y-63446764D01*
X93602690Y-63567656D01*
X93462243Y-63617289D01*
X93420704Y-63608726D01*
X93246554Y-63604711D01*
X93131174Y-63751812D01*
X93072651Y-64053703D01*
X93064000Y-64294034D01*
X93058522Y-64588457D01*
X93034200Y-64751420D01*
X92979203Y-64820650D01*
X92894667Y-64834000D01*
X92815612Y-64821738D01*
X92765873Y-64763903D01*
X92738729Y-64628919D01*
X92727459Y-64385211D01*
X92725333Y-64038423D01*
X92725333Y-63242846D01*
X93187999Y-63237320D01*
X93453735Y-63248672D01*
X93453735Y-63248672D01*
G37*
X93453735Y-63248672D02*
X93644655Y-63283756D01*
X93703288Y-63316939D01*
X93703158Y-63446764D01*
X93602690Y-63567656D01*
X93462243Y-63617289D01*
X93420704Y-63608726D01*
X93246554Y-63604711D01*
X93131174Y-63751812D01*
X93072651Y-64053703D01*
X93064000Y-64294034D01*
X93058522Y-64588457D01*
X93034200Y-64751420D01*
X92979203Y-64820650D01*
X92894667Y-64834000D01*
X92815612Y-64821738D01*
X92765873Y-64763903D01*
X92738729Y-64628919D01*
X92727459Y-64385211D01*
X92725333Y-64038423D01*
X92725333Y-63242846D01*
X93187999Y-63237320D01*
X93453735Y-63248672D01*
G36*
X94630295Y-63264422D02*
X94836717Y-63365488D01*
X94926003Y-63504231D01*
X94926667Y-63517590D01*
X94862042Y-63646778D01*
X94692715Y-63673239D01*
X94527007Y-63623378D01*
X94309036Y-63591005D01*
X94158855Y-63702012D01*
X94094460Y-63937935D01*
X94096885Y-64064753D01*
X94121440Y-64251575D01*
X94186326Y-64339855D01*
X94340849Y-64366531D01*
X94502106Y-64368333D01*
X94752912Y-64384579D01*
X94877184Y-64443106D01*
X94910433Y-64516253D01*
X94860339Y-64663636D01*
X94715649Y-64749086D01*
X94404790Y-64826530D01*
X94152303Y-64777412D01*
X93936555Y-64629664D01*
X93754053Y-64380570D01*
X93687851Y-64082087D01*
X93725584Y-63775780D01*
X93854889Y-63503211D01*
X94063399Y-63305943D01*
X94338751Y-63225540D01*
X94354325Y-63225333D01*
X94630295Y-63264422D01*
X94630295Y-63264422D01*
G37*
X94630295Y-63264422D02*
X94836717Y-63365488D01*
X94926003Y-63504231D01*
X94926667Y-63517590D01*
X94862042Y-63646778D01*
X94692715Y-63673239D01*
X94527007Y-63623378D01*
X94309036Y-63591005D01*
X94158855Y-63702012D01*
X94094460Y-63937935D01*
X94096885Y-64064753D01*
X94121440Y-64251575D01*
X94186326Y-64339855D01*
X94340849Y-64366531D01*
X94502106Y-64368333D01*
X94752912Y-64384579D01*
X94877184Y-64443106D01*
X94910433Y-64516253D01*
X94860339Y-64663636D01*
X94715649Y-64749086D01*
X94404790Y-64826530D01*
X94152303Y-64777412D01*
X93936555Y-64629664D01*
X93754053Y-64380570D01*
X93687851Y-64082087D01*
X93725584Y-63775780D01*
X93854889Y-63503211D01*
X94063399Y-63305943D01*
X94338751Y-63225540D01*
X94354325Y-63225333D01*
X94630295Y-63264422D01*
G36*
X95945942Y-63284681D02*
X96153596Y-63462555D01*
X96269744Y-63730760D01*
X96281333Y-63860333D01*
X96281333Y-64156667D01*
X95818324Y-64156667D01*
X95548903Y-64165784D01*
X95418451Y-64198853D01*
X95397307Y-64264445D01*
X95401537Y-64277120D01*
X95535868Y-64425648D01*
X95743984Y-64449672D01*
X95869546Y-64404488D01*
X96051313Y-64361237D01*
X96168438Y-64422372D01*
X96245399Y-64513216D01*
X96201429Y-64603638D01*
X96111313Y-64682248D01*
X95822572Y-64817774D01*
X95513191Y-64802640D01*
X95233347Y-64640002D01*
X95219151Y-64626182D01*
X95056617Y-64354608D01*
X95004386Y-64016143D01*
X95046753Y-63773645D01*
X95388926Y-63773645D01*
X95456062Y-63810179D01*
X95646333Y-63818000D01*
X95845069Y-63808848D01*
X95903884Y-63769812D01*
X95858000Y-63691000D01*
X95719326Y-63583687D01*
X95646333Y-63564000D01*
X95507332Y-63623292D01*
X95434667Y-63691000D01*
X95388926Y-63773645D01*
X95046753Y-63773645D01*
X95064191Y-63673838D01*
X95186812Y-63448418D01*
X95421263Y-63262074D01*
X95688069Y-63212674D01*
X95945942Y-63284681D01*
X95945942Y-63284681D01*
G37*
X95945942Y-63284681D02*
X96153596Y-63462555D01*
X96269744Y-63730760D01*
X96281333Y-63860333D01*
X96281333Y-64156667D01*
X95818324Y-64156667D01*
X95548903Y-64165784D01*
X95418451Y-64198853D01*
X95397307Y-64264445D01*
X95401537Y-64277120D01*
X95535868Y-64425648D01*
X95743984Y-64449672D01*
X95869546Y-64404488D01*
X96051313Y-64361237D01*
X96168438Y-64422372D01*
X96245399Y-64513216D01*
X96201429Y-64603638D01*
X96111313Y-64682248D01*
X95822572Y-64817774D01*
X95513191Y-64802640D01*
X95233347Y-64640002D01*
X95219151Y-64626182D01*
X95056617Y-64354608D01*
X95004386Y-64016143D01*
X95046753Y-63773645D01*
X95388926Y-63773645D01*
X95456062Y-63810179D01*
X95646333Y-63818000D01*
X95845069Y-63808848D01*
X95903884Y-63769812D01*
X95858000Y-63691000D01*
X95719326Y-63583687D01*
X95646333Y-63564000D01*
X95507332Y-63623292D01*
X95434667Y-63691000D01*
X95388926Y-63773645D01*
X95046753Y-63773645D01*
X95064191Y-63673838D01*
X95186812Y-63448418D01*
X95421263Y-63262074D01*
X95688069Y-63212674D01*
X95945942Y-63284681D01*
G36*
X89924184Y-52493833D02*
X89994335Y-52891494D01*
X90057102Y-53158793D01*
X90133876Y-53332240D01*
X90246048Y-53448346D01*
X90415007Y-53543619D01*
X90583899Y-53619844D01*
X90843239Y-53730085D01*
X91039506Y-53805332D01*
X91118481Y-53827333D01*
X91212910Y-53782452D01*
X91411476Y-53662147D01*
X91417855Y-53658000D01*
X91878666Y-53658000D01*
X91878666Y-54243611D01*
X91894836Y-54616493D01*
X91942983Y-54827982D01*
X91984500Y-54875069D01*
X92196385Y-54898421D01*
X92461977Y-54846234D01*
X92694982Y-54738228D01*
X92740944Y-54702205D01*
X92862548Y-54488296D01*
X92894667Y-54242345D01*
X92830946Y-53940194D01*
X92638850Y-53747316D01*
X92316977Y-53662535D01*
X92198494Y-53658000D01*
X91878666Y-53658000D01*
X91417855Y-53658000D01*
X91679473Y-53487927D01*
X91830239Y-53386244D01*
X92476587Y-52945155D01*
X93042049Y-53510617D01*
X93607512Y-54076080D01*
X93162836Y-54727683D01*
X92718160Y-55379285D01*
X92945292Y-55913708D01*
X93078717Y-56188703D01*
X93209537Y-56394462D01*
X93308712Y-56485987D01*
X93456413Y-56518381D01*
X93716795Y-56567992D01*
X94035462Y-56624487D01*
X94058833Y-56628482D01*
X94672667Y-56733119D01*
X94672667Y-58379183D01*
X93997341Y-58488854D01*
X93673453Y-58545806D01*
X93415080Y-58599325D01*
X93267297Y-58639833D01*
X93252489Y-58647096D01*
X93180795Y-58752340D01*
X93078615Y-58962831D01*
X92968747Y-59223082D01*
X92873989Y-59477611D01*
X92817142Y-59670930D01*
X92810000Y-59723972D01*
X92854564Y-59844584D01*
X92973198Y-60063620D01*
X93143317Y-60340464D01*
X93206601Y-60437129D01*
X93603203Y-61033563D01*
X93040498Y-61596267D01*
X92477794Y-62158971D01*
X91876144Y-61747881D01*
X91274493Y-61336791D01*
X90970770Y-61481627D01*
X90849517Y-61541402D01*
X90756735Y-61574595D01*
X90678559Y-61562445D01*
X90601124Y-61486193D01*
X90510562Y-61327079D01*
X90396901Y-61074977D01*
X91794001Y-61074977D01*
X91889521Y-61320340D01*
X92103420Y-61505882D01*
X92159368Y-61531409D01*
X92331456Y-61595066D01*
X92451133Y-61602950D01*
X92619500Y-61563302D01*
X92786538Y-61478485D01*
X92805191Y-61379360D01*
X92688935Y-61301369D01*
X92511009Y-61278000D01*
X92263500Y-61236132D01*
X92149889Y-61099593D01*
X92158387Y-60851980D01*
X92169751Y-60803104D01*
X92236996Y-60647871D01*
X92368195Y-60608360D01*
X92471967Y-60618820D01*
X92689982Y-60607463D01*
X92766411Y-60531074D01*
X92789406Y-60411980D01*
X92718654Y-60351340D01*
X92522335Y-60330826D01*
X92416880Y-60329733D01*
X92128296Y-60397171D01*
X91922328Y-60571672D01*
X91807916Y-60811514D01*
X91794001Y-61074977D01*
X90396901Y-61074977D01*
X90393009Y-61066345D01*
X90234598Y-60685231D01*
X90051354Y-60237726D01*
X89571465Y-59068725D01*
X89931749Y-58760335D01*
X90278937Y-58384880D01*
X90471312Y-57974019D01*
X90524000Y-57552666D01*
X90446868Y-57057586D01*
X90396906Y-56960000D01*
X93402666Y-56960000D01*
X93402666Y-57546459D01*
X93409701Y-57865436D01*
X93436661Y-58052549D01*
X93492326Y-58144896D01*
X93550833Y-58172435D01*
X93807788Y-58189107D01*
X94079323Y-58133117D01*
X94284468Y-58023626D01*
X94314701Y-57991679D01*
X94379277Y-57821193D01*
X94366745Y-57724429D01*
X94326694Y-57537774D01*
X94322621Y-57392102D01*
X94284399Y-57152682D01*
X94126382Y-57012907D01*
X93833540Y-56960952D01*
X93773300Y-56960000D01*
X93402666Y-56960000D01*
X90396906Y-56960000D01*
X90230544Y-56635061D01*
X89897636Y-56307699D01*
X89470749Y-56098106D01*
X89000000Y-56028666D01*
X88504920Y-56105798D01*
X88082395Y-56322122D01*
X87755032Y-56655031D01*
X87545439Y-57081918D01*
X87476000Y-57552666D01*
X87541830Y-58019037D01*
X87749076Y-58424018D01*
X88069934Y-58761776D01*
X88431902Y-59071607D01*
X87951168Y-60238304D01*
X87744881Y-60740006D01*
X87591759Y-61104971D01*
X87477978Y-61351983D01*
X87389712Y-61499823D01*
X87313139Y-61567273D01*
X87234435Y-61573119D01*
X87139776Y-61536141D01*
X87034313Y-61484051D01*
X86735673Y-61341639D01*
X86218521Y-61692830D01*
X85950931Y-61870399D01*
X85729532Y-62009824D01*
X85598736Y-62083220D01*
X85592751Y-62085702D01*
X85489003Y-62047671D01*
X85302203Y-61910855D01*
X85064703Y-61700389D01*
X84941116Y-61579495D01*
X84777652Y-61414565D01*
X85185529Y-61414565D01*
X85239529Y-61515863D01*
X85338167Y-61559907D01*
X85565688Y-61575797D01*
X85799814Y-61528208D01*
X85959223Y-61435188D01*
X85971022Y-61419454D01*
X86033030Y-61193323D01*
X85933132Y-60986592D01*
X85783202Y-60871895D01*
X85583926Y-60735303D01*
X85545009Y-60644997D01*
X85666826Y-60603338D01*
X85740333Y-60600666D01*
X85908758Y-60553000D01*
X85945693Y-60448580D01*
X85844289Y-60345275D01*
X85773580Y-60319758D01*
X85498878Y-60306786D01*
X85301837Y-60402636D01*
X85201162Y-60568381D01*
X85215559Y-60765091D01*
X85363733Y-60953838D01*
X85443465Y-61006771D01*
X85642538Y-61142336D01*
X85679280Y-61230860D01*
X85553693Y-61273487D01*
X85444000Y-61278000D01*
X85259476Y-61319853D01*
X85185529Y-61414565D01*
X84777652Y-61414565D01*
X84398098Y-61031607D01*
X84794049Y-60436152D01*
X84975990Y-60149400D01*
X85113844Y-59907119D01*
X85185005Y-59749968D01*
X85190000Y-59723972D01*
X85158209Y-59577368D01*
X85078035Y-59344067D01*
X84972278Y-59079555D01*
X84863735Y-58839316D01*
X84775206Y-58678835D01*
X84747511Y-58647096D01*
X84636121Y-58611575D01*
X84402341Y-58560536D01*
X84091247Y-58503558D01*
X84002658Y-58488854D01*
X83327333Y-58379183D01*
X83327333Y-56960000D01*
X83581333Y-56960000D01*
X83581333Y-57552666D01*
X83585902Y-57864131D01*
X83606504Y-58042565D01*
X83653484Y-58124175D01*
X83737188Y-58145168D01*
X83750667Y-58145333D01*
X83893373Y-58084601D01*
X83920000Y-57988248D01*
X84001402Y-57840658D01*
X84195167Y-57752720D01*
X84400396Y-57658725D01*
X84487432Y-57501953D01*
X84497618Y-57439019D01*
X84476885Y-57181991D01*
X84333988Y-57027033D01*
X84056337Y-56963096D01*
X83951966Y-56960000D01*
X83581333Y-56960000D01*
X83327333Y-56960000D01*
X83327333Y-56733119D01*
X83941167Y-56628482D01*
X84262599Y-56571698D01*
X84530270Y-56520834D01*
X84689399Y-56486328D01*
X84694957Y-56484822D01*
X84796813Y-56391496D01*
X84929159Y-56184405D01*
X85062969Y-55909209D01*
X85291024Y-55372617D01*
X84840923Y-54725181D01*
X84390823Y-54077745D01*
X84810568Y-53658000D01*
X85190000Y-53658000D01*
X85190000Y-54250667D01*
X85194568Y-54562131D01*
X85215170Y-54740565D01*
X85262151Y-54822175D01*
X85345854Y-54843168D01*
X85359333Y-54843333D01*
X85493385Y-54792226D01*
X85528667Y-54637290D01*
X85567600Y-54477942D01*
X85715762Y-54410823D01*
X85761500Y-54404457D01*
X85940412Y-54342537D01*
X85994333Y-54250667D01*
X85918554Y-54144359D01*
X85761500Y-54096876D01*
X85573206Y-54044817D01*
X85541135Y-53974198D01*
X85661178Y-53920926D01*
X85782667Y-53912000D01*
X85984319Y-53874136D01*
X86036667Y-53785000D01*
X85991347Y-53705134D01*
X85834439Y-53666126D01*
X85613333Y-53658000D01*
X85190000Y-53658000D01*
X84810568Y-53658000D01*
X85516945Y-52951623D01*
X86197731Y-53398571D01*
X86878516Y-53845520D01*
X87353478Y-53648659D01*
X87618221Y-53522845D01*
X87817155Y-53398718D01*
X87893844Y-53322065D01*
X87938487Y-53179590D01*
X87996964Y-52920966D01*
X88001890Y-52894813D01*
X88326199Y-52894813D01*
X88330295Y-53161589D01*
X88353349Y-53363479D01*
X88380875Y-53433986D01*
X88499080Y-53472693D01*
X88600331Y-53363094D01*
X88661333Y-53146467D01*
X88703667Y-52860061D01*
X88807685Y-53089697D01*
X88926518Y-53275658D01*
X89043205Y-53294442D01*
X89164003Y-53145345D01*
X89212440Y-53044167D01*
X89332038Y-52769000D01*
X89335353Y-53081503D01*
X89369930Y-53331952D01*
X89455651Y-53461859D01*
X89575164Y-53449885D01*
X89610591Y-53419942D01*
X89654660Y-53277065D01*
X89656904Y-52993446D01*
X89638808Y-52775386D01*
X89577066Y-52425308D01*
X89486397Y-52237872D01*
X89370217Y-52214697D01*
X89231942Y-52357399D01*
X89133600Y-52536167D01*
X88981837Y-52853667D01*
X88854863Y-52536167D01*
X88723205Y-52313247D01*
X88577084Y-52220836D01*
X88447306Y-52267103D01*
X88376031Y-52409166D01*
X88341349Y-52623792D01*
X88326199Y-52894813D01*
X88001890Y-52894813D01*
X88057891Y-52597493D01*
X88068268Y-52536167D01*
X88177287Y-51880000D01*
X89819547Y-51880000D01*
X89924184Y-52493833D01*
X89924184Y-52493833D01*
G37*
X89924184Y-52493833D02*
X89994335Y-52891494D01*
X90057102Y-53158793D01*
X90133876Y-53332240D01*
X90246048Y-53448346D01*
X90415007Y-53543619D01*
X90583899Y-53619844D01*
X90843239Y-53730085D01*
X91039506Y-53805332D01*
X91118481Y-53827333D01*
X91212910Y-53782452D01*
X91411476Y-53662147D01*
X91417855Y-53658000D01*
X91878666Y-53658000D01*
X91878666Y-54243611D01*
X91894836Y-54616493D01*
X91942983Y-54827982D01*
X91984500Y-54875069D01*
X92196385Y-54898421D01*
X92461977Y-54846234D01*
X92694982Y-54738228D01*
X92740944Y-54702205D01*
X92862548Y-54488296D01*
X92894667Y-54242345D01*
X92830946Y-53940194D01*
X92638850Y-53747316D01*
X92316977Y-53662535D01*
X92198494Y-53658000D01*
X91878666Y-53658000D01*
X91417855Y-53658000D01*
X91679473Y-53487927D01*
X91830239Y-53386244D01*
X92476587Y-52945155D01*
X93042049Y-53510617D01*
X93607512Y-54076080D01*
X93162836Y-54727683D01*
X92718160Y-55379285D01*
X92945292Y-55913708D01*
X93078717Y-56188703D01*
X93209537Y-56394462D01*
X93308712Y-56485987D01*
X93456413Y-56518381D01*
X93716795Y-56567992D01*
X94035462Y-56624487D01*
X94058833Y-56628482D01*
X94672667Y-56733119D01*
X94672667Y-58379183D01*
X93997341Y-58488854D01*
X93673453Y-58545806D01*
X93415080Y-58599325D01*
X93267297Y-58639833D01*
X93252489Y-58647096D01*
X93180795Y-58752340D01*
X93078615Y-58962831D01*
X92968747Y-59223082D01*
X92873989Y-59477611D01*
X92817142Y-59670930D01*
X92810000Y-59723972D01*
X92854564Y-59844584D01*
X92973198Y-60063620D01*
X93143317Y-60340464D01*
X93206601Y-60437129D01*
X93603203Y-61033563D01*
X93040498Y-61596267D01*
X92477794Y-62158971D01*
X91876144Y-61747881D01*
X91274493Y-61336791D01*
X90970770Y-61481627D01*
X90849517Y-61541402D01*
X90756735Y-61574595D01*
X90678559Y-61562445D01*
X90601124Y-61486193D01*
X90510562Y-61327079D01*
X90396901Y-61074977D01*
X91794001Y-61074977D01*
X91889521Y-61320340D01*
X92103420Y-61505882D01*
X92159368Y-61531409D01*
X92331456Y-61595066D01*
X92451133Y-61602950D01*
X92619500Y-61563302D01*
X92786538Y-61478485D01*
X92805191Y-61379360D01*
X92688935Y-61301369D01*
X92511009Y-61278000D01*
X92263500Y-61236132D01*
X92149889Y-61099593D01*
X92158387Y-60851980D01*
X92169751Y-60803104D01*
X92236996Y-60647871D01*
X92368195Y-60608360D01*
X92471967Y-60618820D01*
X92689982Y-60607463D01*
X92766411Y-60531074D01*
X92789406Y-60411980D01*
X92718654Y-60351340D01*
X92522335Y-60330826D01*
X92416880Y-60329733D01*
X92128296Y-60397171D01*
X91922328Y-60571672D01*
X91807916Y-60811514D01*
X91794001Y-61074977D01*
X90396901Y-61074977D01*
X90393009Y-61066345D01*
X90234598Y-60685231D01*
X90051354Y-60237726D01*
X89571465Y-59068725D01*
X89931749Y-58760335D01*
X90278937Y-58384880D01*
X90471312Y-57974019D01*
X90524000Y-57552666D01*
X90446868Y-57057586D01*
X90396906Y-56960000D01*
X93402666Y-56960000D01*
X93402666Y-57546459D01*
X93409701Y-57865436D01*
X93436661Y-58052549D01*
X93492326Y-58144896D01*
X93550833Y-58172435D01*
X93807788Y-58189107D01*
X94079323Y-58133117D01*
X94284468Y-58023626D01*
X94314701Y-57991679D01*
X94379277Y-57821193D01*
X94366745Y-57724429D01*
X94326694Y-57537774D01*
X94322621Y-57392102D01*
X94284399Y-57152682D01*
X94126382Y-57012907D01*
X93833540Y-56960952D01*
X93773300Y-56960000D01*
X93402666Y-56960000D01*
X90396906Y-56960000D01*
X90230544Y-56635061D01*
X89897636Y-56307699D01*
X89470749Y-56098106D01*
X89000000Y-56028666D01*
X88504920Y-56105798D01*
X88082395Y-56322122D01*
X87755032Y-56655031D01*
X87545439Y-57081918D01*
X87476000Y-57552666D01*
X87541830Y-58019037D01*
X87749076Y-58424018D01*
X88069934Y-58761776D01*
X88431902Y-59071607D01*
X87951168Y-60238304D01*
X87744881Y-60740006D01*
X87591759Y-61104971D01*
X87477978Y-61351983D01*
X87389712Y-61499823D01*
X87313139Y-61567273D01*
X87234435Y-61573119D01*
X87139776Y-61536141D01*
X87034313Y-61484051D01*
X86735673Y-61341639D01*
X86218521Y-61692830D01*
X85950931Y-61870399D01*
X85729532Y-62009824D01*
X85598736Y-62083220D01*
X85592751Y-62085702D01*
X85489003Y-62047671D01*
X85302203Y-61910855D01*
X85064703Y-61700389D01*
X84941116Y-61579495D01*
X84777652Y-61414565D01*
X85185529Y-61414565D01*
X85239529Y-61515863D01*
X85338167Y-61559907D01*
X85565688Y-61575797D01*
X85799814Y-61528208D01*
X85959223Y-61435188D01*
X85971022Y-61419454D01*
X86033030Y-61193323D01*
X85933132Y-60986592D01*
X85783202Y-60871895D01*
X85583926Y-60735303D01*
X85545009Y-60644997D01*
X85666826Y-60603338D01*
X85740333Y-60600666D01*
X85908758Y-60553000D01*
X85945693Y-60448580D01*
X85844289Y-60345275D01*
X85773580Y-60319758D01*
X85498878Y-60306786D01*
X85301837Y-60402636D01*
X85201162Y-60568381D01*
X85215559Y-60765091D01*
X85363733Y-60953838D01*
X85443465Y-61006771D01*
X85642538Y-61142336D01*
X85679280Y-61230860D01*
X85553693Y-61273487D01*
X85444000Y-61278000D01*
X85259476Y-61319853D01*
X85185529Y-61414565D01*
X84777652Y-61414565D01*
X84398098Y-61031607D01*
X84794049Y-60436152D01*
X84975990Y-60149400D01*
X85113844Y-59907119D01*
X85185005Y-59749968D01*
X85190000Y-59723972D01*
X85158209Y-59577368D01*
X85078035Y-59344067D01*
X84972278Y-59079555D01*
X84863735Y-58839316D01*
X84775206Y-58678835D01*
X84747511Y-58647096D01*
X84636121Y-58611575D01*
X84402341Y-58560536D01*
X84091247Y-58503558D01*
X84002658Y-58488854D01*
X83327333Y-58379183D01*
X83327333Y-56960000D01*
X83581333Y-56960000D01*
X83581333Y-57552666D01*
X83585902Y-57864131D01*
X83606504Y-58042565D01*
X83653484Y-58124175D01*
X83737188Y-58145168D01*
X83750667Y-58145333D01*
X83893373Y-58084601D01*
X83920000Y-57988248D01*
X84001402Y-57840658D01*
X84195167Y-57752720D01*
X84400396Y-57658725D01*
X84487432Y-57501953D01*
X84497618Y-57439019D01*
X84476885Y-57181991D01*
X84333988Y-57027033D01*
X84056337Y-56963096D01*
X83951966Y-56960000D01*
X83581333Y-56960000D01*
X83327333Y-56960000D01*
X83327333Y-56733119D01*
X83941167Y-56628482D01*
X84262599Y-56571698D01*
X84530270Y-56520834D01*
X84689399Y-56486328D01*
X84694957Y-56484822D01*
X84796813Y-56391496D01*
X84929159Y-56184405D01*
X85062969Y-55909209D01*
X85291024Y-55372617D01*
X84840923Y-54725181D01*
X84390823Y-54077745D01*
X84810568Y-53658000D01*
X85190000Y-53658000D01*
X85190000Y-54250667D01*
X85194568Y-54562131D01*
X85215170Y-54740565D01*
X85262151Y-54822175D01*
X85345854Y-54843168D01*
X85359333Y-54843333D01*
X85493385Y-54792226D01*
X85528667Y-54637290D01*
X85567600Y-54477942D01*
X85715762Y-54410823D01*
X85761500Y-54404457D01*
X85940412Y-54342537D01*
X85994333Y-54250667D01*
X85918554Y-54144359D01*
X85761500Y-54096876D01*
X85573206Y-54044817D01*
X85541135Y-53974198D01*
X85661178Y-53920926D01*
X85782667Y-53912000D01*
X85984319Y-53874136D01*
X86036667Y-53785000D01*
X85991347Y-53705134D01*
X85834439Y-53666126D01*
X85613333Y-53658000D01*
X85190000Y-53658000D01*
X84810568Y-53658000D01*
X85516945Y-52951623D01*
X86197731Y-53398571D01*
X86878516Y-53845520D01*
X87353478Y-53648659D01*
X87618221Y-53522845D01*
X87817155Y-53398718D01*
X87893844Y-53322065D01*
X87938487Y-53179590D01*
X87996964Y-52920966D01*
X88001890Y-52894813D01*
X88326199Y-52894813D01*
X88330295Y-53161589D01*
X88353349Y-53363479D01*
X88380875Y-53433986D01*
X88499080Y-53472693D01*
X88600331Y-53363094D01*
X88661333Y-53146467D01*
X88703667Y-52860061D01*
X88807685Y-53089697D01*
X88926518Y-53275658D01*
X89043205Y-53294442D01*
X89164003Y-53145345D01*
X89212440Y-53044167D01*
X89332038Y-52769000D01*
X89335353Y-53081503D01*
X89369930Y-53331952D01*
X89455651Y-53461859D01*
X89575164Y-53449885D01*
X89610591Y-53419942D01*
X89654660Y-53277065D01*
X89656904Y-52993446D01*
X89638808Y-52775386D01*
X89577066Y-52425308D01*
X89486397Y-52237872D01*
X89370217Y-52214697D01*
X89231942Y-52357399D01*
X89133600Y-52536167D01*
X88981837Y-52853667D01*
X88854863Y-52536167D01*
X88723205Y-52313247D01*
X88577084Y-52220836D01*
X88447306Y-52267103D01*
X88376031Y-52409166D01*
X88341349Y-52623792D01*
X88326199Y-52894813D01*
X88001890Y-52894813D01*
X88057891Y-52597493D01*
X88068268Y-52536167D01*
X88177287Y-51880000D01*
X89819547Y-51880000D01*
X89924184Y-52493833D01*
G36*
X94023615Y-57722995D02*
X94055148Y-57820824D01*
X93968369Y-57886659D01*
X93917722Y-57891333D01*
X93772174Y-57837548D01*
X93741333Y-57758125D01*
X93804812Y-57656399D01*
X93882484Y-57652292D01*
X94023615Y-57722995D01*
X94023615Y-57722995D01*
G37*
X94023615Y-57722995D02*
X94055148Y-57820824D01*
X93968369Y-57886659D01*
X93917722Y-57891333D01*
X93772174Y-57837548D01*
X93741333Y-57758125D01*
X93804812Y-57656399D01*
X93882484Y-57652292D01*
X94023615Y-57722995D01*
G36*
X93981005Y-57259717D02*
X93995333Y-57298667D01*
X93926757Y-57373781D01*
X93868333Y-57383333D01*
X93755661Y-57337616D01*
X93741333Y-57298667D01*
X93809910Y-57223552D01*
X93868333Y-57214000D01*
X93981005Y-57259717D01*
X93981005Y-57259717D01*
G37*
X93981005Y-57259717D02*
X93995333Y-57298667D01*
X93926757Y-57373781D01*
X93868333Y-57383333D01*
X93755661Y-57337616D01*
X93741333Y-57298667D01*
X93809910Y-57223552D01*
X93868333Y-57214000D01*
X93981005Y-57259717D01*
G36*
X84159248Y-57281773D02*
X84174000Y-57341000D01*
X84106227Y-57453248D01*
X84047000Y-57468000D01*
X83934751Y-57400227D01*
X83920000Y-57341000D01*
X83987773Y-57228751D01*
X84047000Y-57214000D01*
X84159248Y-57281773D01*
X84159248Y-57281773D01*
G37*
X84159248Y-57281773D02*
X84174000Y-57341000D01*
X84106227Y-57453248D01*
X84047000Y-57468000D01*
X83934751Y-57400227D01*
X83920000Y-57341000D01*
X83987773Y-57228751D01*
X84047000Y-57214000D01*
X84159248Y-57281773D01*
G36*
X92323167Y-53927278D02*
X92454966Y-53978053D01*
X92507486Y-54113380D01*
X92513667Y-54250667D01*
X92493059Y-54458615D01*
X92410858Y-54551987D01*
X92323167Y-54574055D01*
X92202222Y-54572935D01*
X92147142Y-54495107D01*
X92132845Y-54297995D01*
X92132667Y-54250667D01*
X92142613Y-54029589D01*
X92189172Y-53934876D01*
X92297425Y-53923951D01*
X92323167Y-53927278D01*
X92323167Y-53927278D01*
G37*
X92323167Y-53927278D02*
X92454966Y-53978053D01*
X92507486Y-54113380D01*
X92513667Y-54250667D01*
X92493059Y-54458615D01*
X92410858Y-54551987D01*
X92323167Y-54574055D01*
X92202222Y-54572935D01*
X92147142Y-54495107D01*
X92132845Y-54297995D01*
X92132667Y-54250667D01*
X92142613Y-54029589D01*
X92189172Y-53934876D01*
X92297425Y-53923951D01*
X92323167Y-53927278D01*
D12*
X63858096Y-59832381D02*
X63858096Y-58832381D01*
X64191430Y-59546667D01*
X64524763Y-58832381D01*
X64524763Y-59832381D01*
X65000953Y-59832381D02*
X65000953Y-59165714D01*
X65000953Y-58832381D02*
X64953334Y-58880000D01*
X65000953Y-58927619D01*
X65048572Y-58880000D01*
X65000953Y-58832381D01*
X65000953Y-58927619D01*
X65477143Y-59165714D02*
X65477143Y-59832381D01*
X65477143Y-59260952D02*
X65524762Y-59213333D01*
X65620000Y-59165714D01*
X65762858Y-59165714D01*
X65858096Y-59213333D01*
X65905715Y-59308571D01*
X65905715Y-59832381D01*
X66381905Y-59832381D02*
X66381905Y-59165714D01*
X66381905Y-58832381D02*
X66334286Y-58880000D01*
X66381905Y-58927619D01*
X66429524Y-58880000D01*
X66381905Y-58832381D01*
X66381905Y-58927619D01*
X64096190Y-57292381D02*
X64096190Y-56292381D01*
X64477143Y-56292381D01*
X64572381Y-56340000D01*
X64620000Y-56387619D01*
X64667619Y-56482857D01*
X64667619Y-56625714D01*
X64620000Y-56720952D01*
X64572381Y-56768571D01*
X64477143Y-56816190D01*
X64096190Y-56816190D01*
X65096190Y-57292381D02*
X65096190Y-56625714D01*
X65096190Y-56816190D02*
X65143809Y-56720952D01*
X65191428Y-56673333D01*
X65286666Y-56625714D01*
X65381905Y-56625714D01*
X65858095Y-57292381D02*
X65762857Y-57244762D01*
X65715238Y-57197143D01*
X65667619Y-57101905D01*
X65667619Y-56816190D01*
X65715238Y-56720952D01*
X65762857Y-56673333D01*
X65858095Y-56625714D01*
X66000953Y-56625714D01*
X66096191Y-56673333D01*
X66143810Y-56720952D01*
X66191429Y-56816190D01*
X66191429Y-57101905D01*
X66143810Y-57197143D01*
X66096191Y-57244762D01*
X66000953Y-57292381D01*
X65858095Y-57292381D01*
X62524762Y-54466667D02*
X63000953Y-54466667D01*
X62429524Y-54752381D02*
X62762857Y-53752381D01*
X63096191Y-54752381D01*
X63429524Y-54752381D02*
X63429524Y-54085714D01*
X63429524Y-54276190D02*
X63477143Y-54180952D01*
X63524762Y-54133333D01*
X63620000Y-54085714D01*
X63715239Y-54085714D01*
X64477144Y-54752381D02*
X64477144Y-53752381D01*
X64477144Y-54704762D02*
X64381906Y-54752381D01*
X64191429Y-54752381D01*
X64096191Y-54704762D01*
X64048572Y-54657143D01*
X64000953Y-54561905D01*
X64000953Y-54276190D01*
X64048572Y-54180952D01*
X64096191Y-54133333D01*
X64191429Y-54085714D01*
X64381906Y-54085714D01*
X64477144Y-54133333D01*
X65381906Y-54085714D02*
X65381906Y-54752381D01*
X64953334Y-54085714D02*
X64953334Y-54609524D01*
X65000953Y-54704762D01*
X65096191Y-54752381D01*
X65239049Y-54752381D01*
X65334287Y-54704762D01*
X65381906Y-54657143D01*
X65858096Y-54752381D02*
X65858096Y-54085714D01*
X65858096Y-53752381D02*
X65810477Y-53800000D01*
X65858096Y-53847619D01*
X65905715Y-53800000D01*
X65858096Y-53752381D01*
X65858096Y-53847619D01*
X66334286Y-54085714D02*
X66334286Y-54752381D01*
X66334286Y-54180952D02*
X66381905Y-54133333D01*
X66477143Y-54085714D01*
X66620001Y-54085714D01*
X66715239Y-54133333D01*
X66762858Y-54228571D01*
X66762858Y-54752381D01*
X67381905Y-54752381D02*
X67286667Y-54704762D01*
X67239048Y-54657143D01*
X67191429Y-54561905D01*
X67191429Y-54276190D01*
X67239048Y-54180952D01*
X67286667Y-54133333D01*
X67381905Y-54085714D01*
X67524763Y-54085714D01*
X67620001Y-54133333D01*
X67667620Y-54180952D01*
X67715239Y-54276190D01*
X67715239Y-54561905D01*
X67667620Y-54657143D01*
X67620001Y-54704762D01*
X67524763Y-54752381D01*
X67381905Y-54752381D01*
X109738095Y-50452381D02*
X109738095Y-51261905D01*
X109785714Y-51357143D01*
X109833333Y-51404762D01*
X109928571Y-51452381D01*
X110119048Y-51452381D01*
X110214286Y-51404762D01*
X110261905Y-51357143D01*
X110309524Y-51261905D01*
X110309524Y-50452381D01*
X110738095Y-50547619D02*
X110785714Y-50500000D01*
X110880952Y-50452381D01*
X111119048Y-50452381D01*
X111214286Y-50500000D01*
X111261905Y-50547619D01*
X111309524Y-50642857D01*
X111309524Y-50738095D01*
X111261905Y-50880952D01*
X110690476Y-51452381D01*
X111309524Y-51452381D01*
X26071428Y-58952381D02*
X26404761Y-59952381D01*
X26738095Y-58952381D01*
X27071428Y-59952381D02*
X27071428Y-59285714D01*
X27071428Y-59476190D02*
X27119047Y-59380952D01*
X27166666Y-59333333D01*
X27261904Y-59285714D01*
X27357143Y-59285714D01*
X28119048Y-59952381D02*
X28119048Y-59428571D01*
X28071429Y-59333333D01*
X27976191Y-59285714D01*
X27785714Y-59285714D01*
X27690476Y-59333333D01*
X28119048Y-59904762D02*
X28023810Y-59952381D01*
X27785714Y-59952381D01*
X27690476Y-59904762D01*
X27642857Y-59809524D01*
X27642857Y-59714286D01*
X27690476Y-59619048D01*
X27785714Y-59571429D01*
X28023810Y-59571429D01*
X28119048Y-59523810D01*
X28500000Y-59285714D02*
X28690476Y-59952381D01*
X28880953Y-59476190D01*
X29071429Y-59952381D01*
X29261905Y-59285714D01*
X31119048Y-58904762D02*
X30261905Y-60190476D01*
X32214286Y-59571429D02*
X32976191Y-59571429D01*
X32595239Y-59952381D02*
X32595239Y-59190476D01*
X33928572Y-58952381D02*
X33452381Y-58952381D01*
X33404762Y-59428571D01*
X33452381Y-59380952D01*
X33547619Y-59333333D01*
X33785715Y-59333333D01*
X33880953Y-59380952D01*
X33928572Y-59428571D01*
X33976191Y-59523810D01*
X33976191Y-59761905D01*
X33928572Y-59857143D01*
X33880953Y-59904762D01*
X33785715Y-59952381D01*
X33547619Y-59952381D01*
X33452381Y-59904762D01*
X33404762Y-59857143D01*
X34261905Y-58952381D02*
X34595238Y-59952381D01*
X34928572Y-58952381D01*
X81142381Y-32018333D02*
X81856667Y-32018333D01*
X81999524Y-32065953D01*
X82094762Y-32161191D01*
X82142381Y-32304048D01*
X82142381Y-32399286D01*
X82142381Y-31542143D02*
X81142381Y-31542143D01*
X81142381Y-31161190D01*
X81190000Y-31065952D01*
X81237619Y-31018333D01*
X81332857Y-30970714D01*
X81475714Y-30970714D01*
X81570952Y-31018333D01*
X81618571Y-31065952D01*
X81666190Y-31161190D01*
X81666190Y-31542143D01*
X81237619Y-30589762D02*
X81190000Y-30542143D01*
X81142381Y-30446905D01*
X81142381Y-30208809D01*
X81190000Y-30113571D01*
X81237619Y-30065952D01*
X81332857Y-30018333D01*
X81428095Y-30018333D01*
X81570952Y-30065952D01*
X82142381Y-30637381D01*
X82142381Y-30018333D01*
X84023809Y-37952381D02*
X84023809Y-36952381D01*
X84404762Y-36952381D01*
X84500000Y-37000000D01*
X84547619Y-37047619D01*
X84595238Y-37142857D01*
X84595238Y-37285714D01*
X84547619Y-37380952D01*
X84500000Y-37428571D01*
X84404762Y-37476190D01*
X84023809Y-37476190D01*
X85023809Y-37952381D02*
X85023809Y-37285714D01*
X85023809Y-37476190D02*
X85071428Y-37380952D01*
X85119047Y-37333333D01*
X85214285Y-37285714D01*
X85309524Y-37285714D01*
X85785714Y-37952381D02*
X85690476Y-37904762D01*
X85642857Y-37857143D01*
X85595238Y-37761905D01*
X85595238Y-37476190D01*
X85642857Y-37380952D01*
X85690476Y-37333333D01*
X85785714Y-37285714D01*
X85928572Y-37285714D01*
X86023810Y-37333333D01*
X86071429Y-37380952D01*
X86119048Y-37476190D01*
X86119048Y-37761905D01*
X86071429Y-37857143D01*
X86023810Y-37904762D01*
X85928572Y-37952381D01*
X85785714Y-37952381D01*
X86976191Y-37285714D02*
X86976191Y-38095238D01*
X86928572Y-38190476D01*
X86880953Y-38238095D01*
X86785714Y-38285714D01*
X86642857Y-38285714D01*
X86547619Y-38238095D01*
X86976191Y-37904762D02*
X86880953Y-37952381D01*
X86690476Y-37952381D01*
X86595238Y-37904762D01*
X86547619Y-37857143D01*
X86500000Y-37761905D01*
X86500000Y-37476190D01*
X86547619Y-37380952D01*
X86595238Y-37333333D01*
X86690476Y-37285714D01*
X86880953Y-37285714D01*
X86976191Y-37333333D01*
X76042381Y-81468095D02*
X75042381Y-81468095D01*
X75042381Y-81087142D01*
X75090000Y-80991904D01*
X75137619Y-80944285D01*
X75232857Y-80896666D01*
X75375714Y-80896666D01*
X75470952Y-80944285D01*
X75518571Y-80991904D01*
X75566190Y-81087142D01*
X75566190Y-81468095D01*
X76042381Y-79944285D02*
X76042381Y-80515714D01*
X76042381Y-80230000D02*
X75042381Y-80230000D01*
X75185238Y-80325238D01*
X75280476Y-80420476D01*
X75328095Y-80515714D01*
X76042381Y-82896667D02*
X75042381Y-82896667D01*
X76042381Y-82325238D01*
X75042381Y-82325238D01*
X76042381Y-81277619D02*
X75566190Y-81610953D01*
X76042381Y-81849048D02*
X75042381Y-81849048D01*
X75042381Y-81468095D01*
X75090000Y-81372857D01*
X75137619Y-81325238D01*
X75232857Y-81277619D01*
X75375714Y-81277619D01*
X75470952Y-81325238D01*
X75518571Y-81372857D01*
X75566190Y-81468095D01*
X75566190Y-81849048D01*
X75518571Y-80515714D02*
X75518571Y-80849048D01*
X76042381Y-80849048D02*
X75042381Y-80849048D01*
X75042381Y-80372857D01*
X75137619Y-80039524D02*
X75090000Y-79991905D01*
X75042381Y-79896667D01*
X75042381Y-79658571D01*
X75090000Y-79563333D01*
X75137619Y-79515714D01*
X75232857Y-79468095D01*
X75328095Y-79468095D01*
X75470952Y-79515714D01*
X76042381Y-80087143D01*
X76042381Y-79468095D01*
X75375714Y-78610952D02*
X76042381Y-78610952D01*
X74994762Y-78849048D02*
X75709048Y-79087143D01*
X75709048Y-78468095D01*
X38833333Y-83452381D02*
X38833333Y-82452381D01*
X39071428Y-82452381D01*
X39214286Y-82500000D01*
X39309524Y-82595238D01*
X39357143Y-82690476D01*
X39404762Y-82880952D01*
X39404762Y-83023810D01*
X39357143Y-83214286D01*
X39309524Y-83309524D01*
X39214286Y-83404762D01*
X39071428Y-83452381D01*
X38833333Y-83452381D01*
X39833333Y-83452381D02*
X39833333Y-82452381D01*
X39833333Y-82928571D02*
X40404762Y-82928571D01*
X40404762Y-83452381D02*
X40404762Y-82452381D01*
X40738095Y-82452381D02*
X41309524Y-82452381D01*
X41023809Y-83452381D02*
X41023809Y-82452381D01*
X112761905Y-60002381D02*
X112761905Y-59002381D01*
X113142858Y-59002381D01*
X113238096Y-59050000D01*
X113285715Y-59097619D01*
X113333334Y-59192857D01*
X113333334Y-59335714D01*
X113285715Y-59430952D01*
X113238096Y-59478571D01*
X113142858Y-59526190D01*
X112761905Y-59526190D01*
X114190477Y-59335714D02*
X114190477Y-60002381D01*
X113952381Y-58954762D02*
X113714286Y-59669048D01*
X114333334Y-59669048D01*
X108761905Y-60042381D02*
X108761905Y-59042381D01*
X109142858Y-59042381D01*
X109238096Y-59090000D01*
X109285715Y-59137619D01*
X109333334Y-59232857D01*
X109333334Y-59375714D01*
X109285715Y-59470952D01*
X109238096Y-59518571D01*
X109142858Y-59566190D01*
X108761905Y-59566190D01*
X110238096Y-59042381D02*
X109761905Y-59042381D01*
X109714286Y-59518571D01*
X109761905Y-59470952D01*
X109857143Y-59423333D01*
X110095239Y-59423333D01*
X110190477Y-59470952D01*
X110238096Y-59518571D01*
X110285715Y-59613810D01*
X110285715Y-59851905D01*
X110238096Y-59947143D01*
X110190477Y-59994762D01*
X110095239Y-60042381D01*
X109857143Y-60042381D01*
X109761905Y-59994762D01*
X109714286Y-59947143D01*
X41261905Y-61502381D02*
X41261905Y-60502381D01*
X41642858Y-60502381D01*
X41738096Y-60550000D01*
X41785715Y-60597619D01*
X41833334Y-60692857D01*
X41833334Y-60835714D01*
X41785715Y-60930952D01*
X41738096Y-60978571D01*
X41642858Y-61026190D01*
X41261905Y-61026190D01*
X42166667Y-60502381D02*
X42833334Y-60502381D01*
X42404762Y-61502381D01*
X39595239Y-60978571D02*
X39738096Y-61026190D01*
X39785715Y-61073810D01*
X39833334Y-61169048D01*
X39833334Y-61311905D01*
X39785715Y-61407143D01*
X39738096Y-61454762D01*
X39642858Y-61502381D01*
X39261905Y-61502381D01*
X39261905Y-60502381D01*
X39595239Y-60502381D01*
X39690477Y-60550000D01*
X39738096Y-60597619D01*
X39785715Y-60692857D01*
X39785715Y-60788095D01*
X39738096Y-60883333D01*
X39690477Y-60930952D01*
X39595239Y-60978571D01*
X39261905Y-60978571D01*
X40261905Y-61502381D02*
X40261905Y-60502381D01*
X40595239Y-61216667D01*
X40928572Y-60502381D01*
X40928572Y-61502381D01*
X41357143Y-61454762D02*
X41500000Y-61502381D01*
X41738096Y-61502381D01*
X41833334Y-61454762D01*
X41880953Y-61407143D01*
X41928572Y-61311905D01*
X41928572Y-61216667D01*
X41880953Y-61121429D01*
X41833334Y-61073810D01*
X41738096Y-61026190D01*
X41547619Y-60978571D01*
X41452381Y-60930952D01*
X41404762Y-60883333D01*
X41357143Y-60788095D01*
X41357143Y-60692857D01*
X41404762Y-60597619D01*
X41452381Y-60550000D01*
X41547619Y-60502381D01*
X41785715Y-60502381D01*
X41928572Y-60550000D01*
X42880953Y-61502381D02*
X42309524Y-61502381D01*
X42595238Y-61502381D02*
X42595238Y-60502381D01*
X42500000Y-60645238D01*
X42404762Y-60740476D01*
X42309524Y-60788095D01*
X43452381Y-60930952D02*
X43357143Y-60883333D01*
X43309524Y-60835714D01*
X43261905Y-60740476D01*
X43261905Y-60692857D01*
X43309524Y-60597619D01*
X43357143Y-60550000D01*
X43452381Y-60502381D01*
X43642858Y-60502381D01*
X43738096Y-60550000D01*
X43785715Y-60597619D01*
X43833334Y-60692857D01*
X43833334Y-60740476D01*
X43785715Y-60835714D01*
X43738096Y-60883333D01*
X43642858Y-60930952D01*
X43452381Y-60930952D01*
X43357143Y-60978571D01*
X43309524Y-61026190D01*
X43261905Y-61121429D01*
X43261905Y-61311905D01*
X43309524Y-61407143D01*
X43357143Y-61454762D01*
X43452381Y-61502381D01*
X43642858Y-61502381D01*
X43738096Y-61454762D01*
X43785715Y-61407143D01*
X43833334Y-61311905D01*
X43833334Y-61121429D01*
X43785715Y-61026190D01*
X43738096Y-60978571D01*
X43642858Y-60930952D01*
X44452381Y-60502381D02*
X44547620Y-60502381D01*
X44642858Y-60550000D01*
X44690477Y-60597619D01*
X44738096Y-60692857D01*
X44785715Y-60883333D01*
X44785715Y-61121429D01*
X44738096Y-61311905D01*
X44690477Y-61407143D01*
X44642858Y-61454762D01*
X44547620Y-61502381D01*
X44452381Y-61502381D01*
X44357143Y-61454762D01*
X44309524Y-61407143D01*
X44261905Y-61311905D01*
X44214286Y-61121429D01*
X44214286Y-60883333D01*
X44261905Y-60692857D01*
X44309524Y-60597619D01*
X44357143Y-60550000D01*
X44452381Y-60502381D01*
X112152381Y-47816666D02*
X111676190Y-48150000D01*
X112152381Y-48388095D02*
X111152381Y-48388095D01*
X111152381Y-48007142D01*
X111200000Y-47911904D01*
X111247619Y-47864285D01*
X111342857Y-47816666D01*
X111485714Y-47816666D01*
X111580952Y-47864285D01*
X111628571Y-47911904D01*
X111676190Y-48007142D01*
X111676190Y-48388095D01*
X112152381Y-46864285D02*
X112152381Y-47435714D01*
X112152381Y-47150000D02*
X111152381Y-47150000D01*
X111295238Y-47245238D01*
X111390476Y-47340476D01*
X111438095Y-47435714D01*
X115152381Y-48016666D02*
X114676190Y-48350000D01*
X115152381Y-48588095D02*
X114152381Y-48588095D01*
X114152381Y-48207142D01*
X114200000Y-48111904D01*
X114247619Y-48064285D01*
X114342857Y-48016666D01*
X114485714Y-48016666D01*
X114580952Y-48064285D01*
X114628571Y-48111904D01*
X114676190Y-48207142D01*
X114676190Y-48588095D01*
X114247619Y-47635714D02*
X114200000Y-47588095D01*
X114152381Y-47492857D01*
X114152381Y-47254761D01*
X114200000Y-47159523D01*
X114247619Y-47111904D01*
X114342857Y-47064285D01*
X114438095Y-47064285D01*
X114580952Y-47111904D01*
X115152381Y-47683333D01*
X115152381Y-47064285D01*
X40833334Y-81652381D02*
X40500000Y-81176190D01*
X40261905Y-81652381D02*
X40261905Y-80652381D01*
X40642858Y-80652381D01*
X40738096Y-80700000D01*
X40785715Y-80747619D01*
X40833334Y-80842857D01*
X40833334Y-80985714D01*
X40785715Y-81080952D01*
X40738096Y-81128571D01*
X40642858Y-81176190D01*
X40261905Y-81176190D01*
X41166667Y-80652381D02*
X41785715Y-80652381D01*
X41452381Y-81033333D01*
X41595239Y-81033333D01*
X41690477Y-81080952D01*
X41738096Y-81128571D01*
X41785715Y-81223810D01*
X41785715Y-81461905D01*
X41738096Y-81557143D01*
X41690477Y-81604762D01*
X41595239Y-81652381D01*
X41309524Y-81652381D01*
X41214286Y-81604762D01*
X41166667Y-81557143D01*
X91738095Y-72452381D02*
X91738095Y-73261905D01*
X91785714Y-73357143D01*
X91833333Y-73404762D01*
X91928571Y-73452381D01*
X92119048Y-73452381D01*
X92214286Y-73404762D01*
X92261905Y-73357143D01*
X92309524Y-73261905D01*
X92309524Y-72452381D01*
X92738095Y-72547619D02*
X92785714Y-72500000D01*
X92880952Y-72452381D01*
X93119048Y-72452381D01*
X93214286Y-72500000D01*
X93261905Y-72547619D01*
X93309524Y-72642857D01*
X93309524Y-72738095D01*
X93261905Y-72880952D01*
X92690476Y-73452381D01*
X93309524Y-73452381D01*
X91738095Y-28452381D02*
X91738095Y-29261905D01*
X91785714Y-29357143D01*
X91833333Y-29404762D01*
X91928571Y-29452381D01*
X92119048Y-29452381D01*
X92214286Y-29404762D01*
X92261905Y-29357143D01*
X92309524Y-29261905D01*
X92309524Y-28452381D01*
X92690476Y-28452381D02*
X93309524Y-28452381D01*
X92976190Y-28833333D01*
X93119048Y-28833333D01*
X93214286Y-28880952D01*
X93261905Y-28928571D01*
X93309524Y-29023810D01*
X93309524Y-29261905D01*
X93261905Y-29357143D01*
X93214286Y-29404762D01*
X93119048Y-29452381D01*
X92833333Y-29452381D01*
X92738095Y-29404762D01*
X92690476Y-29357143D01*
X30738095Y-50452381D02*
X30738095Y-51261905D01*
X30785714Y-51357143D01*
X30833333Y-51404762D01*
X30928571Y-51452381D01*
X31119048Y-51452381D01*
X31214286Y-51404762D01*
X31261905Y-51357143D01*
X31309524Y-51261905D01*
X31309524Y-50452381D01*
X32214286Y-50785714D02*
X32214286Y-51452381D01*
X31976190Y-50404762D02*
X31738095Y-51119048D01*
X32357143Y-51119048D01*
X48738095Y-28452381D02*
X48738095Y-29261905D01*
X48785714Y-29357143D01*
X48833333Y-29404762D01*
X48928571Y-29452381D01*
X49119048Y-29452381D01*
X49214286Y-29404762D01*
X49261905Y-29357143D01*
X49309524Y-29261905D01*
X49309524Y-28452381D01*
X50261905Y-28452381D02*
X49785714Y-28452381D01*
X49738095Y-28928571D01*
X49785714Y-28880952D01*
X49880952Y-28833333D01*
X50119048Y-28833333D01*
X50214286Y-28880952D01*
X50261905Y-28928571D01*
X50309524Y-29023810D01*
X50309524Y-29261905D01*
X50261905Y-29357143D01*
X50214286Y-29404762D01*
X50119048Y-29452381D01*
X49880952Y-29452381D01*
X49785714Y-29404762D01*
X49738095Y-29357143D01*
D17*
X75476206Y-33983899D02*
X75476206Y-33560566D01*
X76141444Y-33379137D02*
X76141444Y-33983899D01*
X74871444Y-33983899D01*
X74871444Y-33379137D01*
X76080968Y-32895327D02*
X76141444Y-32713899D01*
X76141444Y-32411518D01*
X76080968Y-32290565D01*
X76020491Y-32230089D01*
X75899539Y-32169613D01*
X75778587Y-32169613D01*
X75657634Y-32230089D01*
X75597158Y-32290565D01*
X75536682Y-32411518D01*
X75476206Y-32653422D01*
X75415730Y-32774375D01*
X75355253Y-32834851D01*
X75234301Y-32895327D01*
X75113349Y-32895327D01*
X74992396Y-32834851D01*
X74931920Y-32774375D01*
X74871444Y-32653422D01*
X74871444Y-32351042D01*
X74931920Y-32169613D01*
X76141444Y-31625327D02*
X74871444Y-31625327D01*
X74871444Y-31141518D01*
X74931920Y-31020565D01*
X74992396Y-30960089D01*
X75113349Y-30899613D01*
X75294777Y-30899613D01*
X75415730Y-30960089D01*
X75476206Y-31020565D01*
X75536682Y-31141518D01*
X75536682Y-31625327D01*
X75657634Y-30355327D02*
X75657634Y-29387708D01*
X74871444Y-28541041D02*
X74871444Y-28420089D01*
X74931920Y-28299137D01*
X74992396Y-28238660D01*
X75113349Y-28178184D01*
X75355253Y-28117708D01*
X75657634Y-28117708D01*
X75899539Y-28178184D01*
X76020491Y-28238660D01*
X76080968Y-28299137D01*
X76141444Y-28420089D01*
X76141444Y-28541041D01*
X76080968Y-28661994D01*
X76020491Y-28722470D01*
X75899539Y-28782946D01*
X75657634Y-28843422D01*
X75355253Y-28843422D01*
X75113349Y-28782946D01*
X74992396Y-28722470D01*
X74931920Y-28661994D01*
X74871444Y-28541041D01*
X74871444Y-27694374D02*
X74871444Y-26908184D01*
X75355253Y-27331517D01*
X75355253Y-27150089D01*
X75415730Y-27029136D01*
X75476206Y-26968660D01*
X75597158Y-26908184D01*
X75899539Y-26908184D01*
X76020491Y-26968660D01*
X76080968Y-27029136D01*
X76141444Y-27150089D01*
X76141444Y-27512946D01*
X76080968Y-27633898D01*
X76020491Y-27694374D01*
X56746246Y-34618899D02*
X56746246Y-34195566D01*
X57411484Y-34014137D02*
X57411484Y-34618899D01*
X56141484Y-34618899D01*
X56141484Y-34014137D01*
X57351008Y-33530327D02*
X57411484Y-33348899D01*
X57411484Y-33046518D01*
X57351008Y-32925565D01*
X57290531Y-32865089D01*
X57169579Y-32804613D01*
X57048627Y-32804613D01*
X56927674Y-32865089D01*
X56867198Y-32925565D01*
X56806722Y-33046518D01*
X56746246Y-33288422D01*
X56685770Y-33409375D01*
X56625293Y-33469851D01*
X56504341Y-33530327D01*
X56383389Y-33530327D01*
X56262436Y-33469851D01*
X56201960Y-33409375D01*
X56141484Y-33288422D01*
X56141484Y-32986042D01*
X56201960Y-32804613D01*
X57411484Y-32260327D02*
X56141484Y-32260327D01*
X56141484Y-31776518D01*
X56201960Y-31655565D01*
X56262436Y-31595089D01*
X56383389Y-31534613D01*
X56564817Y-31534613D01*
X56685770Y-31595089D01*
X56746246Y-31655565D01*
X56806722Y-31776518D01*
X56806722Y-32260327D01*
X56927674Y-30990327D02*
X56927674Y-30022708D01*
X56141484Y-29176041D02*
X56141484Y-29055089D01*
X56201960Y-28934137D01*
X56262436Y-28873660D01*
X56383389Y-28813184D01*
X56625293Y-28752708D01*
X56927674Y-28752708D01*
X57169579Y-28813184D01*
X57290531Y-28873660D01*
X57351008Y-28934137D01*
X57411484Y-29055089D01*
X57411484Y-29176041D01*
X57351008Y-29296994D01*
X57290531Y-29357470D01*
X57169579Y-29417946D01*
X56927674Y-29478422D01*
X56625293Y-29478422D01*
X56383389Y-29417946D01*
X56262436Y-29357470D01*
X56201960Y-29296994D01*
X56141484Y-29176041D01*
X56141484Y-28329374D02*
X56141484Y-27543184D01*
X56625293Y-27966517D01*
X56625293Y-27785089D01*
X56685770Y-27664136D01*
X56746246Y-27603660D01*
X56867198Y-27543184D01*
X57169579Y-27543184D01*
X57290531Y-27603660D01*
X57351008Y-27664136D01*
X57411484Y-27785089D01*
X57411484Y-28147946D01*
X57351008Y-28268898D01*
X57290531Y-28329374D01*
D12*
X59666667Y-23452381D02*
X59333333Y-22976190D01*
X59095238Y-23452381D02*
X59095238Y-22452381D01*
X59476191Y-22452381D01*
X59571429Y-22500000D01*
X59619048Y-22547619D01*
X59666667Y-22642857D01*
X59666667Y-22785714D01*
X59619048Y-22880952D01*
X59571429Y-22928571D01*
X59476191Y-22976190D01*
X59095238Y-22976190D01*
X60095238Y-22928571D02*
X60428572Y-22928571D01*
X60571429Y-23452381D02*
X60095238Y-23452381D01*
X60095238Y-22452381D01*
X60571429Y-22452381D01*
X61333334Y-22928571D02*
X61000000Y-22928571D01*
X61000000Y-23452381D02*
X61000000Y-22452381D01*
X61476191Y-22452381D01*
X62000000Y-22452381D02*
X62000000Y-22690476D01*
X61761905Y-22595238D02*
X62000000Y-22690476D01*
X62238096Y-22595238D01*
X61857143Y-22880952D02*
X62000000Y-22690476D01*
X62142858Y-22880952D01*
X62761905Y-22452381D02*
X62761905Y-22690476D01*
X62523810Y-22595238D02*
X62761905Y-22690476D01*
X63000001Y-22595238D01*
X62619048Y-22880952D02*
X62761905Y-22690476D01*
X62904763Y-22880952D01*
X54367381Y-48738095D02*
X53367381Y-48738095D01*
X53367381Y-48357142D01*
X53415000Y-48261904D01*
X53462619Y-48214285D01*
X53557857Y-48166666D01*
X53700714Y-48166666D01*
X53795952Y-48214285D01*
X53843571Y-48261904D01*
X53891190Y-48357142D01*
X53891190Y-48738095D01*
X53367381Y-47833333D02*
X53367381Y-47214285D01*
X53748333Y-47547619D01*
X53748333Y-47404761D01*
X53795952Y-47309523D01*
X53843571Y-47261904D01*
X53938810Y-47214285D01*
X54176905Y-47214285D01*
X54272143Y-47261904D01*
X54319762Y-47309523D01*
X54367381Y-47404761D01*
X54367381Y-47690476D01*
X54319762Y-47785714D01*
X54272143Y-47833333D01*
X54785714Y-45952381D02*
X54785714Y-44952381D01*
X55166667Y-44952381D01*
X55261905Y-45000000D01*
X55309524Y-45047619D01*
X55357143Y-45142857D01*
X55357143Y-45285714D01*
X55309524Y-45380952D01*
X55261905Y-45428571D01*
X55166667Y-45476190D01*
X54785714Y-45476190D01*
X55785714Y-45952381D02*
X55785714Y-44952381D01*
X56119048Y-45666667D01*
X56452381Y-44952381D01*
X56452381Y-45952381D01*
X56880952Y-45904762D02*
X57023809Y-45952381D01*
X57261905Y-45952381D01*
X57357143Y-45904762D01*
X57404762Y-45857143D01*
X57452381Y-45761905D01*
X57452381Y-45666667D01*
X57404762Y-45571429D01*
X57357143Y-45523810D01*
X57261905Y-45476190D01*
X57071428Y-45428571D01*
X56976190Y-45380952D01*
X56928571Y-45333333D01*
X56880952Y-45238095D01*
X56880952Y-45142857D01*
X56928571Y-45047619D01*
X56976190Y-45000000D01*
X57071428Y-44952381D01*
X57309524Y-44952381D01*
X57452381Y-45000000D01*
X57785714Y-44952381D02*
X58452381Y-44952381D01*
X58023809Y-45952381D01*
X59023809Y-44952381D02*
X59119048Y-44952381D01*
X59214286Y-45000000D01*
X59261905Y-45047619D01*
X59309524Y-45142857D01*
X59357143Y-45333333D01*
X59357143Y-45571429D01*
X59309524Y-45761905D01*
X59261905Y-45857143D01*
X59214286Y-45904762D01*
X59119048Y-45952381D01*
X59023809Y-45952381D01*
X58928571Y-45904762D01*
X58880952Y-45857143D01*
X58833333Y-45761905D01*
X58785714Y-45571429D01*
X58785714Y-45333333D01*
X58833333Y-45142857D01*
X58880952Y-45047619D01*
X58928571Y-45000000D01*
X59023809Y-44952381D01*
X59976190Y-44952381D02*
X60071429Y-44952381D01*
X60166667Y-45000000D01*
X60214286Y-45047619D01*
X60261905Y-45142857D01*
X60309524Y-45333333D01*
X60309524Y-45571429D01*
X60261905Y-45761905D01*
X60214286Y-45857143D01*
X60166667Y-45904762D01*
X60071429Y-45952381D01*
X59976190Y-45952381D01*
X59880952Y-45904762D01*
X59833333Y-45857143D01*
X59785714Y-45761905D01*
X59738095Y-45571429D01*
X59738095Y-45333333D01*
X59785714Y-45142857D01*
X59833333Y-45047619D01*
X59880952Y-45000000D01*
X59976190Y-44952381D01*
X60642857Y-44952381D02*
X61261905Y-44952381D01*
X60928571Y-45333333D01*
X61071429Y-45333333D01*
X61166667Y-45380952D01*
X61214286Y-45428571D01*
X61261905Y-45523810D01*
X61261905Y-45761905D01*
X61214286Y-45857143D01*
X61166667Y-45904762D01*
X61071429Y-45952381D01*
X60785714Y-45952381D01*
X60690476Y-45904762D01*
X60642857Y-45857143D01*
X99666667Y-70452381D02*
X99666667Y-71166667D01*
X99619047Y-71309524D01*
X99523809Y-71404762D01*
X99380952Y-71452381D01*
X99285714Y-71452381D01*
X100142857Y-71452381D02*
X100142857Y-70452381D01*
X100523810Y-70452381D01*
X100619048Y-70500000D01*
X100666667Y-70547619D01*
X100714286Y-70642857D01*
X100714286Y-70785714D01*
X100666667Y-70880952D01*
X100619048Y-70928571D01*
X100523810Y-70976190D01*
X100142857Y-70976190D01*
X101666667Y-71452381D02*
X101095238Y-71452381D01*
X101380952Y-71452381D02*
X101380952Y-70452381D01*
X101285714Y-70595238D01*
X101190476Y-70690476D01*
X101095238Y-70738095D01*
X102071429Y-69542381D02*
X102404762Y-70542381D01*
X102738096Y-69542381D01*
X102833334Y-70637619D02*
X103595239Y-70637619D01*
X103833334Y-70542381D02*
X103833334Y-69542381D01*
X104261905Y-69637619D02*
X104309524Y-69590000D01*
X104404762Y-69542381D01*
X104642858Y-69542381D01*
X104738096Y-69590000D01*
X104785715Y-69637619D01*
X104833334Y-69732857D01*
X104833334Y-69828095D01*
X104785715Y-69970952D01*
X104214286Y-70542381D01*
X104833334Y-70542381D01*
X105833334Y-70447143D02*
X105785715Y-70494762D01*
X105642858Y-70542381D01*
X105547620Y-70542381D01*
X105404762Y-70494762D01*
X105309524Y-70399524D01*
X105261905Y-70304286D01*
X105214286Y-70113810D01*
X105214286Y-69970952D01*
X105261905Y-69780476D01*
X105309524Y-69685238D01*
X105404762Y-69590000D01*
X105547620Y-69542381D01*
X105642858Y-69542381D01*
X105785715Y-69590000D01*
X105833334Y-69637619D01*
%LPC*%
D18*
X69819000Y-73477000D03*
X69819000Y-76017000D03*
X69819000Y-65603000D03*
X69819000Y-63063000D03*
X72740000Y-82240000D03*
X72740000Y-79700000D03*
X72740000Y-74620000D03*
X72740000Y-77160000D03*
X72740000Y-67000000D03*
X72740000Y-64460000D03*
X72740000Y-69540000D03*
X72740000Y-72080000D03*
X72740000Y-61920000D03*
X72740000Y-59380000D03*
X72740000Y-54300000D03*
X72740000Y-56840000D03*
X57500000Y-56840000D03*
X57500000Y-54300000D03*
X57500000Y-59380000D03*
X57500000Y-61920000D03*
X57500000Y-72080000D03*
X57500000Y-69540000D03*
X57500000Y-64460000D03*
X57500000Y-67000000D03*
X57500000Y-77160000D03*
X57500000Y-74620000D03*
X57500000Y-79700000D03*
X57500000Y-82240000D03*
D19*
X78000000Y-46500000D03*
D20*
X78000000Y-43960000D03*
X78000000Y-41420000D03*
D21*
X49500000Y-77000000D03*
X110500000Y-55000000D03*
D22*
X35000000Y-65000000D03*
X29000000Y-65000000D03*
X32000000Y-69700000D03*
D19*
X83960000Y-35500000D03*
D20*
X86500000Y-35500000D03*
D19*
X77920000Y-82000000D03*
D20*
X77920000Y-79460000D03*
X80460000Y-82000000D03*
X80460000Y-79460000D03*
X83000000Y-82000000D03*
X83000000Y-79460000D03*
X85540000Y-82000000D03*
X85540000Y-79460000D03*
D19*
X42920000Y-83000000D03*
D20*
X45460000Y-83000000D03*
X48000000Y-83000000D03*
X50540000Y-83000000D03*
D19*
X113500000Y-61880000D03*
D20*
X113500000Y-64420000D03*
X113500000Y-66960000D03*
X113500000Y-69500000D03*
D19*
X109500000Y-61920000D03*
D20*
X109500000Y-64460000D03*
X109500000Y-67000000D03*
X109500000Y-69540000D03*
D19*
X104500000Y-68200000D03*
D20*
X101960000Y-68200000D03*
X104500000Y-65660000D03*
X101960000Y-65660000D03*
X104500000Y-63120000D03*
X101960000Y-63120000D03*
X104500000Y-60580000D03*
X101960000Y-60580000D03*
X104500000Y-58040000D03*
X101960000Y-58040000D03*
X104500000Y-55500000D03*
X101960000Y-55500000D03*
X104500000Y-52960000D03*
X101960000Y-52960000D03*
X104500000Y-50420000D03*
X101960000Y-50420000D03*
X104500000Y-47880000D03*
X101960000Y-47880000D03*
X104500000Y-45340000D03*
X101960000Y-45340000D03*
X104500000Y-42800000D03*
X101960000Y-42800000D03*
D19*
X42000000Y-63380000D03*
D20*
X42000000Y-65920000D03*
X42000000Y-68460000D03*
X42000000Y-71000000D03*
X42000000Y-73540000D03*
X42000000Y-76080000D03*
D23*
X110000000Y-46300000D03*
X110000000Y-49000000D03*
X113000000Y-46500000D03*
X113000000Y-49200000D03*
D24*
X42350000Y-79500000D03*
X39650000Y-79500000D03*
D21*
X92500000Y-77000000D03*
X92500000Y-33000000D03*
X31500000Y-55000000D03*
X49500000Y-33000000D03*
D25*
X71000000Y-39500000D03*
X69001020Y-39500000D03*
X59003580Y-39500000D03*
X59003580Y-27300000D03*
X61002560Y-27300000D03*
X66999500Y-27300000D03*
X65003060Y-27300000D03*
X69001020Y-27300000D03*
X63004080Y-27300000D03*
X66999500Y-39500000D03*
X61002560Y-39500000D03*
X65003060Y-39500000D03*
X63004080Y-39500000D03*
X71000000Y-27300000D03*
D26*
X55610000Y-48000000D03*
D27*
X56880000Y-48000000D03*
X58150000Y-48000000D03*
X59420000Y-48000000D03*
X60690000Y-48000000D03*
X61960000Y-48000000D03*
X63230000Y-48000000D03*
X64500000Y-48000000D03*
D19*
X86000000Y-46500000D03*
D20*
X86000000Y-43960000D03*
X86000000Y-41420000D03*
D19*
X82000000Y-46500000D03*
D20*
X82000000Y-43960000D03*
X82000000Y-41420000D03*
D19*
X90000000Y-46500000D03*
D20*
X90000000Y-43960000D03*
X90000000Y-41420000D03*
D19*
X104000000Y-72420000D03*
D20*
X104000000Y-74960000D03*
X104000000Y-77500000D03*
M02*
