G04 #@! TF.FileFunction,Copper,L2,Bot,Signal*
%FSLAX46Y46*%
G04 Gerber Fmt 4.6, Leading zero omitted, Abs format (unit mm)*
G04 Created by KiCad (PCBNEW 4.0.5) date 2017 June 13, Tuesday 16:43:51*
%MOMM*%
%LPD*%
G01*
G04 APERTURE LIST*
%ADD10C,0.100000*%
%ADD11C,1.800000*%
%ADD12R,1.700000X1.700000*%
%ADD13O,1.700000X1.700000*%
%ADD14R,2.000000X2.500000*%
%ADD15R,1.500000X1.300000*%
%ADD16R,3.500000X3.500000*%
%ADD17R,2.500000X1.800000*%
%ADD18R,1.000000X1.000000*%
%ADD19R,0.575000X6.000000*%
%ADD20R,2.000000X0.575000*%
%ADD21R,1.500000X2.000000*%
%ADD22R,1.300000X1.500000*%
%ADD23R,1.560000X0.650000*%
%ADD24O,1.000000X1.000000*%
%ADD25C,0.914400*%
%ADD26C,0.600000*%
%ADD27C,0.304800*%
%ADD28C,0.250000*%
%ADD29C,0.254000*%
G04 APERTURE END LIST*
D10*
D11*
X69819000Y-73477000D03*
X69819000Y-76017000D03*
X69819000Y-65603000D03*
X69819000Y-63063000D03*
X72740000Y-82240000D03*
X72740000Y-79700000D03*
X72740000Y-74620000D03*
X72740000Y-77160000D03*
X72740000Y-67000000D03*
X72740000Y-64460000D03*
X72740000Y-69540000D03*
X72740000Y-72080000D03*
X72740000Y-61920000D03*
X72740000Y-59380000D03*
X72740000Y-54300000D03*
X72740000Y-56840000D03*
X57500000Y-56840000D03*
X57500000Y-54300000D03*
X57500000Y-59380000D03*
X57500000Y-61920000D03*
X57500000Y-72080000D03*
X57500000Y-69540000D03*
X57500000Y-64460000D03*
X57500000Y-67000000D03*
X57500000Y-77160000D03*
X57500000Y-74620000D03*
X57500000Y-79700000D03*
X57500000Y-82240000D03*
D12*
X78000000Y-46500000D03*
D13*
X78000000Y-43960000D03*
X78000000Y-41420000D03*
D14*
X77500000Y-75500000D03*
X81500000Y-75500000D03*
X44700000Y-50750000D03*
X40700000Y-50750000D03*
X44700000Y-54050000D03*
X40700000Y-54050000D03*
D15*
X47500000Y-44000000D03*
X44800000Y-44000000D03*
X43150000Y-32100000D03*
X40450000Y-32100000D03*
X43100000Y-34250000D03*
X40400000Y-34250000D03*
D16*
X35000000Y-65000000D03*
X29000000Y-65000000D03*
X32000000Y-69700000D03*
D10*
G36*
X51150000Y-65200000D02*
X48850000Y-65200000D01*
X49450000Y-61600000D01*
X50550000Y-61600000D01*
X51150000Y-65200000D01*
X51150000Y-65200000D01*
G37*
G36*
X48850000Y-55800000D02*
X51150000Y-55800000D01*
X50550000Y-59400000D01*
X49450000Y-59400000D01*
X48850000Y-55800000D01*
X48850000Y-55800000D01*
G37*
D17*
X42100000Y-45850000D03*
X38100000Y-45850000D03*
D18*
X47600000Y-40250000D03*
X50100000Y-40250000D03*
D12*
X83960000Y-35500000D03*
D13*
X86500000Y-35500000D03*
D19*
X44512500Y-39300000D03*
X39087500Y-39300000D03*
D20*
X43800000Y-42012500D03*
X43800000Y-36587500D03*
X39800000Y-36587500D03*
X39800000Y-42012500D03*
D21*
X38300000Y-39300000D03*
X45300000Y-39300000D03*
D12*
X77920000Y-82000000D03*
D13*
X77920000Y-79460000D03*
X80460000Y-82000000D03*
X80460000Y-79460000D03*
X83000000Y-82000000D03*
X83000000Y-79460000D03*
X85540000Y-82000000D03*
X85540000Y-79460000D03*
D12*
X42920000Y-83000000D03*
D13*
X45460000Y-83000000D03*
X48000000Y-83000000D03*
X50540000Y-83000000D03*
D12*
X113500000Y-61880000D03*
D13*
X113500000Y-64420000D03*
X113500000Y-66960000D03*
X113500000Y-69500000D03*
D12*
X109500000Y-61920000D03*
D13*
X109500000Y-64460000D03*
X109500000Y-67000000D03*
X109500000Y-69540000D03*
D12*
X104500000Y-68200000D03*
D13*
X101960000Y-68200000D03*
X104500000Y-65660000D03*
X101960000Y-65660000D03*
X104500000Y-63120000D03*
X101960000Y-63120000D03*
X104500000Y-60580000D03*
X101960000Y-60580000D03*
X104500000Y-58040000D03*
X101960000Y-58040000D03*
X104500000Y-55500000D03*
X101960000Y-55500000D03*
X104500000Y-52960000D03*
X101960000Y-52960000D03*
X104500000Y-50420000D03*
X101960000Y-50420000D03*
X104500000Y-47880000D03*
X101960000Y-47880000D03*
X104500000Y-45340000D03*
X101960000Y-45340000D03*
X104500000Y-42800000D03*
X101960000Y-42800000D03*
D12*
X42000000Y-63380000D03*
D13*
X42000000Y-65920000D03*
X42000000Y-68460000D03*
X42000000Y-71000000D03*
X42000000Y-73540000D03*
X42000000Y-76080000D03*
D22*
X51600000Y-47100000D03*
X51600000Y-49800000D03*
X49700000Y-49800000D03*
X49700000Y-47100000D03*
D15*
X56800000Y-31000000D03*
X59500000Y-31000000D03*
X62800000Y-33500000D03*
X65500000Y-33500000D03*
X56650000Y-33500000D03*
X59350000Y-33500000D03*
D23*
X47500000Y-45850000D03*
X47500000Y-46800000D03*
X47500000Y-47750000D03*
X44800000Y-47750000D03*
X44800000Y-45850000D03*
X44800000Y-46800000D03*
D18*
X55610000Y-48000000D03*
D24*
X56880000Y-48000000D03*
X58150000Y-48000000D03*
X59420000Y-48000000D03*
X60690000Y-48000000D03*
X61960000Y-48000000D03*
X63230000Y-48000000D03*
X64500000Y-48000000D03*
D12*
X86000000Y-46500000D03*
D13*
X86000000Y-43960000D03*
X86000000Y-41420000D03*
D12*
X82000000Y-46500000D03*
D13*
X82000000Y-43960000D03*
X82000000Y-41420000D03*
D12*
X90000000Y-46500000D03*
D13*
X90000000Y-43960000D03*
X90000000Y-41420000D03*
D12*
X104000000Y-72420000D03*
D13*
X104000000Y-74960000D03*
X104000000Y-77500000D03*
D25*
X38500000Y-49500000D03*
X38500000Y-51000000D03*
X38500000Y-52500000D03*
X38500000Y-54000000D03*
X65055369Y-42444630D03*
X35500000Y-41500000D03*
X56500000Y-28500000D03*
X79500000Y-75500000D03*
X89500000Y-82500000D03*
X89500000Y-68500000D03*
X89500000Y-73500000D03*
X50000000Y-45500000D03*
X67706675Y-64064586D03*
D26*
X93942811Y-50500000D03*
X91749988Y-48307177D03*
X57500000Y-26500000D03*
X70893653Y-51151598D03*
X86500000Y-38500000D03*
X81000000Y-33500000D03*
X93500000Y-56000000D03*
X86000000Y-48500000D03*
X93750000Y-49366102D03*
X67500000Y-84500000D03*
X63000000Y-26000000D03*
X99500000Y-63500000D03*
X71000000Y-52000000D03*
X66500000Y-84500000D03*
X79592285Y-34205328D03*
X73433936Y-51449962D03*
X58500000Y-49500000D03*
X77065357Y-57585666D03*
X95000000Y-53000000D03*
X83000000Y-65000000D03*
X80500000Y-35000000D03*
X74237044Y-51283264D03*
X57623535Y-50992567D03*
X65500000Y-83500000D03*
X64500000Y-84500000D03*
X75500000Y-74500000D03*
X54500000Y-59000000D03*
X60000000Y-36000000D03*
X60000000Y-52500000D03*
X108500000Y-49500000D03*
X61000000Y-26155610D03*
X66125010Y-70500000D03*
X65500000Y-74500000D03*
X68000000Y-48000000D03*
X68000000Y-46500000D03*
X75500000Y-70165010D03*
D27*
X38500000Y-51000000D02*
X38500000Y-49500000D01*
X38500000Y-54000000D02*
X38500000Y-52500000D01*
X64408791Y-42444630D02*
X65055369Y-42444630D01*
X55610000Y-48000000D02*
X55610000Y-47195200D01*
X55610000Y-47195200D02*
X60360570Y-42444630D01*
X60360570Y-42444630D02*
X64408791Y-42444630D01*
X39800000Y-42300000D02*
X38800000Y-41300000D01*
X38800000Y-41300000D02*
X38800000Y-39300000D01*
X39800000Y-36300000D02*
X38800000Y-37300000D01*
X38800000Y-37300000D02*
X38800000Y-38800000D01*
X38800000Y-38800000D02*
X38800000Y-39300000D01*
X71840001Y-75519999D02*
X72740000Y-74620000D01*
X71840001Y-75854289D02*
X71840001Y-75519999D01*
X70421689Y-77272601D02*
X71840001Y-75854289D01*
X70047713Y-77272601D02*
X70421689Y-77272601D01*
X62820314Y-84500000D02*
X70047713Y-77272601D01*
X43265200Y-84500000D02*
X62820314Y-84500000D01*
X42920000Y-84154800D02*
X43265200Y-84500000D01*
X42920000Y-83000000D02*
X42920000Y-84154800D01*
X97924368Y-72235632D02*
X80514368Y-72235632D01*
X101960000Y-68200000D02*
X97924368Y-72235632D01*
X77500000Y-75250000D02*
X77500000Y-75500000D01*
X80514368Y-72235632D02*
X77500000Y-75250000D01*
X56650000Y-33500000D02*
X56045200Y-33500000D01*
X56045200Y-33500000D02*
X50100000Y-39445200D01*
X50100000Y-39445200D02*
X50100000Y-40250000D01*
X56650000Y-33500000D02*
X56650000Y-31150000D01*
X56650000Y-31150000D02*
X56800000Y-31000000D01*
X35500000Y-41500000D02*
X37700000Y-39300000D01*
X37700000Y-39300000D02*
X38300000Y-39300000D01*
X55610000Y-48000000D02*
X52500000Y-48000000D01*
X52500000Y-48000000D02*
X51600000Y-47100000D01*
X90580000Y-81080000D02*
X100420000Y-81080000D01*
X100420000Y-81080000D02*
X104000000Y-77500000D01*
X87000000Y-77500000D02*
X90580000Y-81080000D01*
X77945200Y-77500000D02*
X87000000Y-77500000D01*
X77500000Y-75500000D02*
X77500000Y-77054800D01*
X77500000Y-77054800D02*
X77945200Y-77500000D01*
X104500000Y-65660000D02*
X103650001Y-66509999D01*
X103650001Y-66509999D02*
X101960000Y-68200000D01*
X77500000Y-75500000D02*
X73620000Y-75500000D01*
X73620000Y-75500000D02*
X72740000Y-74620000D01*
X77920000Y-79460000D02*
X77920000Y-75920000D01*
X77920000Y-75920000D02*
X77500000Y-75500000D01*
X56800000Y-31000000D02*
X56800000Y-28800000D01*
X56800000Y-28800000D02*
X56500000Y-28500000D01*
X50100000Y-40250000D02*
X50100000Y-41054800D01*
X50100000Y-41054800D02*
X51600000Y-42554800D01*
X51600000Y-42554800D02*
X51600000Y-47100000D01*
X43100000Y-34250000D02*
X44154800Y-34250000D01*
X44154800Y-34250000D02*
X50100000Y-40195200D01*
X50100000Y-40195200D02*
X50100000Y-40250000D01*
X43100000Y-34250000D02*
X43100000Y-32150000D01*
X43100000Y-32150000D02*
X43150000Y-32100000D01*
X39800000Y-36300000D02*
X40950000Y-36300000D01*
X40950000Y-36300000D02*
X43000000Y-34250000D01*
X43000000Y-34250000D02*
X43100000Y-34250000D01*
X79500000Y-75500000D02*
X81500000Y-75500000D01*
X89500000Y-75500000D02*
X89500000Y-73500000D01*
X81500000Y-75500000D02*
X89500000Y-75500000D01*
X77920000Y-82000000D02*
X75040000Y-82000000D01*
X75040000Y-82000000D02*
X72740000Y-79700000D01*
X49700000Y-47100000D02*
X49700000Y-45800000D01*
X49700000Y-45800000D02*
X50000000Y-45500000D01*
X47500000Y-46800000D02*
X49400000Y-46800000D01*
X49400000Y-46800000D02*
X49700000Y-47100000D01*
X67249476Y-63607387D02*
X67706675Y-64064586D01*
X50000000Y-57600000D02*
X50950000Y-57600000D01*
X50950000Y-57600000D02*
X51445601Y-58095601D01*
X61737690Y-58095601D02*
X67249476Y-63607387D01*
X51445601Y-58095601D02*
X61737690Y-58095601D01*
X44700000Y-50750000D02*
X44700000Y-54050000D01*
X44800000Y-47750000D02*
X44800000Y-50650000D01*
X44800000Y-50650000D02*
X44700000Y-50750000D01*
X44800000Y-46800000D02*
X44800000Y-47750000D01*
D28*
X47500000Y-45850000D02*
X47500000Y-44000000D01*
X47600000Y-40250000D02*
X47600000Y-43900000D01*
X47600000Y-43900000D02*
X47500000Y-44000000D01*
X43800000Y-36300000D02*
X45300000Y-37800000D01*
X45300000Y-37800000D02*
X45300000Y-39300000D01*
X43800000Y-42300000D02*
X43800000Y-40300000D01*
X43800000Y-40300000D02*
X44800000Y-39300000D01*
X44800000Y-44000000D02*
X44800000Y-45850000D01*
X43800000Y-42300000D02*
X43800000Y-43000000D01*
X43800000Y-43000000D02*
X44800000Y-44000000D01*
X42100000Y-45850000D02*
X44800000Y-45850000D01*
X36500000Y-61500000D02*
X48100000Y-61500000D01*
X48100000Y-61500000D02*
X50000000Y-63400000D01*
X35000000Y-65000000D02*
X35000000Y-63000000D01*
X35000000Y-63000000D02*
X36500000Y-61500000D01*
X113500000Y-61880000D02*
X109540000Y-61880000D01*
X109540000Y-61880000D02*
X109500000Y-61920000D01*
X69819000Y-65603000D02*
X72187001Y-63234999D01*
X72187001Y-63234999D02*
X81207812Y-63234999D01*
X81207812Y-63234999D02*
X93942811Y-50500000D01*
X92000000Y-40500000D02*
X92000000Y-47632901D01*
X91749988Y-47882913D02*
X91749988Y-48307177D01*
X83960000Y-35500000D02*
X83960000Y-36600000D01*
X88178201Y-36678201D02*
X92000000Y-40500000D01*
X92000000Y-47632901D02*
X91749988Y-47882913D01*
X83960000Y-36600000D02*
X84038201Y-36678201D01*
X84038201Y-36678201D02*
X88178201Y-36678201D01*
X69819000Y-65603000D02*
X67196999Y-68225001D01*
X67196999Y-68225001D02*
X44774999Y-68225001D01*
X44774999Y-68225001D02*
X42849999Y-70150001D01*
X42849999Y-70150001D02*
X42000000Y-71000000D01*
X57500000Y-26500000D02*
X59500000Y-28500000D01*
X59500000Y-28500000D02*
X59500000Y-31000000D01*
X72740000Y-52573681D02*
X71317917Y-51151598D01*
X71317917Y-51151598D02*
X70893653Y-51151598D01*
X72740000Y-54300000D02*
X72740000Y-52573681D01*
X90000000Y-41420000D02*
X87080000Y-38500000D01*
X87080000Y-38500000D02*
X86500000Y-38500000D01*
X86564001Y-40244999D02*
X89150001Y-42830999D01*
X86419997Y-40244999D02*
X86564001Y-40244999D01*
X89150001Y-43110001D02*
X90000000Y-43960000D01*
X81299999Y-33799999D02*
X81299999Y-35125001D01*
X81000000Y-33500000D02*
X81299999Y-33799999D01*
X81299999Y-35125001D02*
X86419997Y-40244999D01*
X89150001Y-42830999D02*
X89150001Y-43110001D01*
X93200001Y-56299999D02*
X93500000Y-56000000D01*
X81310009Y-68189991D02*
X93200001Y-56299999D01*
X73328591Y-68314999D02*
X73453599Y-68189991D01*
X72151999Y-68314999D02*
X73328591Y-68314999D01*
X70926998Y-69540000D02*
X72151999Y-68314999D01*
X58887805Y-69424987D02*
X66611412Y-69424987D01*
X66726425Y-69540000D02*
X70926998Y-69540000D01*
X57500000Y-69540000D02*
X58772792Y-69540000D01*
X58772792Y-69540000D02*
X58887805Y-69424987D01*
X66611412Y-69424987D02*
X66726425Y-69540000D01*
X73453599Y-68189991D02*
X81310009Y-68189991D01*
X86000000Y-48500000D02*
X86299999Y-48200001D01*
X86299999Y-48200001D02*
X87199999Y-48200001D01*
X87199999Y-48200001D02*
X88900000Y-46500000D01*
X88900000Y-46500000D02*
X90000000Y-46500000D01*
X93450001Y-49666101D02*
X93750000Y-49366102D01*
X83736102Y-59380000D02*
X93450001Y-49666101D01*
X72740000Y-59380000D02*
X83736102Y-59380000D01*
X85540000Y-82000000D02*
X83040000Y-84500000D01*
X83040000Y-84500000D02*
X67500000Y-84500000D01*
X78000000Y-43960000D02*
X68760000Y-43960000D01*
X68760000Y-43960000D02*
X66910001Y-42110001D01*
X62800000Y-33500000D02*
X62800000Y-38000000D01*
X62800000Y-38000000D02*
X62800000Y-38300000D01*
X66910001Y-42110001D02*
X62800000Y-38000000D01*
X62800000Y-26200000D02*
X63000000Y-26000000D01*
X62800000Y-33500000D02*
X62800000Y-26200000D01*
X59705002Y-69874998D02*
X66425012Y-69874998D01*
X67405013Y-70854999D02*
X92485999Y-70854999D01*
X66425012Y-69874998D02*
X67405013Y-70854999D01*
X57500000Y-72080000D02*
X59705002Y-69874998D01*
X92485999Y-70854999D02*
X99840998Y-63500000D01*
X99840998Y-63500000D02*
X101395999Y-61944999D01*
X99500000Y-63500000D02*
X99840998Y-63500000D01*
X101395999Y-61944999D02*
X102334003Y-61944999D01*
X103135001Y-61144001D02*
X103135001Y-59404999D01*
X103135001Y-59404999D02*
X103650001Y-58889999D01*
X103650001Y-58889999D02*
X104500000Y-58040000D01*
X102334003Y-61944999D02*
X103135001Y-61144001D01*
X71000000Y-52000000D02*
X70000000Y-53000000D01*
X70000000Y-53000000D02*
X70000000Y-60500000D01*
X70000000Y-60500000D02*
X71420000Y-61920000D01*
X71420000Y-61920000D02*
X72740000Y-61920000D01*
X66799999Y-84200001D02*
X66500000Y-84500000D01*
X67125002Y-83874998D02*
X66799999Y-84200001D01*
X67925004Y-84000000D02*
X67800002Y-83874998D01*
X81000000Y-84000000D02*
X67925004Y-84000000D01*
X83000000Y-82000000D02*
X81000000Y-84000000D01*
X67800002Y-83874998D02*
X67125002Y-83874998D01*
X82000000Y-43960000D02*
X79292286Y-41252286D01*
X79292286Y-34505327D02*
X79592285Y-34205328D01*
X79292286Y-41252286D02*
X79292286Y-34505327D01*
X73133937Y-51149963D02*
X73433936Y-51449962D01*
X58500000Y-49500000D02*
X71483974Y-49500000D01*
X71483974Y-49500000D02*
X73133937Y-51149963D01*
X76319691Y-56840000D02*
X76765358Y-57285667D01*
X76765358Y-57285667D02*
X77065357Y-57585666D01*
X72740000Y-56840000D02*
X76319691Y-56840000D01*
X103324999Y-49055001D02*
X98944999Y-49055001D01*
X104500000Y-47880000D02*
X103324999Y-49055001D01*
X98944999Y-49055001D02*
X83000000Y-65000000D01*
X80500000Y-35000000D02*
X83175001Y-37675001D01*
X83175001Y-37675001D02*
X83175001Y-41135001D01*
X83175001Y-41135001D02*
X85150001Y-43110001D01*
X85150001Y-43110001D02*
X86000000Y-43960000D01*
X58291139Y-50324963D02*
X71383935Y-50324963D01*
X73869608Y-52074964D02*
X74237044Y-51707528D01*
X57623535Y-50992567D02*
X58291139Y-50324963D01*
X74237044Y-51707528D02*
X74237044Y-51283264D01*
X73133934Y-52074964D02*
X73869608Y-52074964D01*
X71383935Y-50324963D02*
X73133934Y-52074964D01*
X65799999Y-83200001D02*
X65500000Y-83500000D01*
X78960000Y-83500000D02*
X68061415Y-83500000D01*
X67761416Y-83200001D02*
X65799999Y-83200001D01*
X80460000Y-82000000D02*
X78960000Y-83500000D01*
X68061415Y-83500000D02*
X67761416Y-83200001D01*
X64500000Y-83500000D02*
X70246788Y-77753212D01*
X70246788Y-77753212D02*
X70873996Y-77753212D01*
X70873996Y-77753212D02*
X71467208Y-77160000D01*
X71467208Y-77160000D02*
X72740000Y-77160000D01*
X64500000Y-84500000D02*
X64500000Y-83500000D01*
X76072820Y-74200001D02*
X75799999Y-74200001D01*
X75799999Y-74200001D02*
X75500000Y-74500000D01*
X103324999Y-61755001D02*
X103324999Y-63675001D01*
X103324999Y-63675001D02*
X102518201Y-64481799D01*
X102518201Y-64481799D02*
X100132020Y-64481799D01*
X92858799Y-71755021D02*
X78517800Y-71755021D01*
X100132020Y-64481799D02*
X92858799Y-71755021D01*
X78517800Y-71755021D02*
X76072820Y-74200001D01*
X104500000Y-60580000D02*
X103324999Y-61755001D01*
X54500000Y-59000000D02*
X57120000Y-59000000D01*
X57120000Y-59000000D02*
X57500000Y-59380000D01*
X92374998Y-48800002D02*
X92374998Y-48199998D01*
X85399999Y-48825001D02*
X85699999Y-49125001D01*
X103650001Y-41950001D02*
X104500000Y-42800000D01*
X93125002Y-47874998D02*
X99375001Y-41624999D01*
X99375001Y-41624999D02*
X103324999Y-41624999D01*
X103324999Y-41624999D02*
X103650001Y-41950001D01*
X91699999Y-49125001D02*
X92049999Y-49125001D01*
X86600001Y-48825001D02*
X91399999Y-48825001D01*
X85699999Y-49125001D02*
X86300001Y-49125001D01*
X62785001Y-48825001D02*
X85399999Y-48825001D01*
X61960000Y-48000000D02*
X62785001Y-48825001D01*
X91399999Y-48825001D02*
X91699999Y-49125001D01*
X92049999Y-49125001D02*
X92374998Y-48800002D01*
X92699998Y-47874998D02*
X93125002Y-47874998D01*
X92374998Y-48199998D02*
X92699998Y-47874998D01*
X86300001Y-49125001D02*
X86600001Y-48825001D01*
X95575012Y-51486401D02*
X95575012Y-49821398D01*
X103135001Y-44164999D02*
X103650001Y-43649999D01*
X103135001Y-45904001D02*
X103135001Y-44164999D01*
X72740000Y-67000000D02*
X80061413Y-67000000D01*
X95575012Y-49821398D02*
X98691411Y-46704999D01*
X80061413Y-67000000D02*
X95575012Y-51486401D01*
X103650001Y-43649999D02*
X104500000Y-42800000D01*
X98691411Y-46704999D02*
X102334003Y-46704999D01*
X102334003Y-46704999D02*
X103135001Y-45904001D01*
X60000000Y-36000000D02*
X60575001Y-35424999D01*
X60575001Y-35424999D02*
X60575001Y-34625001D01*
X60575001Y-34625001D02*
X59450000Y-33500000D01*
X59450000Y-33500000D02*
X59350000Y-33500000D01*
X69819000Y-63063000D02*
X60000000Y-53244000D01*
X60000000Y-53244000D02*
X60000000Y-52500000D01*
X44685001Y-65774999D02*
X67107001Y-65774999D01*
X68919001Y-63962999D02*
X69819000Y-63063000D01*
X67107001Y-65774999D02*
X68919001Y-63962999D01*
X42000000Y-68460000D02*
X44685001Y-65774999D01*
X108500000Y-49500000D02*
X105040000Y-52960000D01*
X105040000Y-52960000D02*
X104500000Y-52960000D01*
X113500000Y-64420000D02*
X112080000Y-64420000D01*
X112080000Y-64420000D02*
X109500000Y-67000000D01*
X59450000Y-33500000D02*
X61000000Y-31950000D01*
X61000000Y-31950000D02*
X61000000Y-26579874D01*
X61000000Y-26579874D02*
X61000000Y-26155610D01*
X58088001Y-80925001D02*
X56911999Y-80925001D01*
X56911999Y-80925001D02*
X56274999Y-80288001D01*
X56274999Y-80288001D02*
X56274999Y-79111999D01*
X57500000Y-82240000D02*
X58399999Y-81340001D01*
X65825011Y-70799999D02*
X66125010Y-70500000D01*
X65700001Y-70799999D02*
X65825011Y-70799999D01*
X56998797Y-78388201D02*
X58111799Y-78388201D01*
X58399999Y-81236999D02*
X58088001Y-80925001D01*
X58399999Y-81340001D02*
X58399999Y-81236999D01*
X56274999Y-79111999D02*
X56998797Y-78388201D01*
X58111799Y-78388201D02*
X65700001Y-70799999D01*
X70317003Y-74791999D02*
X65500000Y-74791999D01*
X65500000Y-74791999D02*
X62408001Y-74791999D01*
X65500000Y-74500000D02*
X65500000Y-74791999D01*
X68000000Y-46500000D02*
X68000000Y-48000000D01*
X101110001Y-63969999D02*
X100007410Y-63969999D01*
X76331409Y-73305001D02*
X71804001Y-73305001D01*
X78331400Y-71305010D02*
X76331409Y-73305001D01*
X62408001Y-74791999D02*
X58399999Y-78800001D01*
X71804001Y-73305001D02*
X70317003Y-74791999D01*
X100007410Y-63969999D02*
X92672399Y-71305010D01*
X101960000Y-63120000D02*
X101110001Y-63969999D01*
X92672399Y-71305010D02*
X78331400Y-71305010D01*
X58399999Y-78800001D02*
X57500000Y-79700000D01*
X102524001Y-59215001D02*
X101585997Y-59215001D01*
X101585997Y-59215001D02*
X90635988Y-70165010D01*
X103135001Y-58604001D02*
X102524001Y-59215001D01*
X103135001Y-51784999D02*
X103135001Y-58604001D01*
X104500000Y-50420000D02*
X103135001Y-51784999D01*
X90635988Y-70165010D02*
X75924264Y-70165010D01*
X75924264Y-70165010D02*
X75500000Y-70165010D01*
X72740000Y-69540000D02*
X73639999Y-68640001D01*
X73639999Y-68640001D02*
X83739999Y-68640001D01*
X83739999Y-68640001D02*
X101110001Y-51269999D01*
X101110001Y-51269999D02*
X101960000Y-50420000D01*
X81965002Y-64460000D02*
X95125001Y-51300001D01*
X72740000Y-64460000D02*
X81965002Y-64460000D01*
X95125001Y-51300001D02*
X95125001Y-49634999D01*
X101110001Y-43649999D02*
X101960000Y-42800000D01*
X95125001Y-49634999D02*
X101110001Y-43649999D01*
X49700000Y-49800000D02*
X49700000Y-49495000D01*
X49700000Y-49495000D02*
X47955000Y-47750000D01*
X47955000Y-47750000D02*
X47500000Y-47750000D01*
X51600000Y-49800000D02*
X49700000Y-49800000D01*
D29*
G36*
X41842930Y-44561536D02*
X40850000Y-44561536D01*
X40708810Y-44588103D01*
X40579135Y-44671546D01*
X40492141Y-44798866D01*
X40461536Y-44950000D01*
X40461536Y-46750000D01*
X40488103Y-46891190D01*
X40571546Y-47020865D01*
X40698866Y-47107859D01*
X40850000Y-47138464D01*
X41899359Y-47138464D01*
X41938181Y-48911339D01*
X41826309Y-48865000D01*
X40985750Y-48865000D01*
X40827000Y-49023750D01*
X40827000Y-50623000D01*
X40847000Y-50623000D01*
X40847000Y-50877000D01*
X40827000Y-50877000D01*
X40827000Y-53923000D01*
X40847000Y-53923000D01*
X40847000Y-54177000D01*
X40827000Y-54177000D01*
X40827000Y-55776250D01*
X40985750Y-55935000D01*
X41826309Y-55935000D01*
X42059698Y-55838327D01*
X42089220Y-55808805D01*
X42119000Y-57168748D01*
X42119000Y-57223000D01*
X38127000Y-57223000D01*
X38127000Y-54752706D01*
X38332540Y-54838054D01*
X38665997Y-54838345D01*
X38974182Y-54711005D01*
X39065000Y-54620346D01*
X39065000Y-55426310D01*
X39161673Y-55659699D01*
X39340302Y-55838327D01*
X39573691Y-55935000D01*
X40414250Y-55935000D01*
X40573000Y-55776250D01*
X40573000Y-54177000D01*
X40553000Y-54177000D01*
X40553000Y-53923000D01*
X40573000Y-53923000D01*
X40573000Y-50877000D01*
X40553000Y-50877000D01*
X40553000Y-50623000D01*
X40573000Y-50623000D01*
X40573000Y-49023750D01*
X40414250Y-48865000D01*
X39573691Y-48865000D01*
X39340302Y-48961673D01*
X39230054Y-49071920D01*
X39211005Y-49025818D01*
X38975422Y-48789823D01*
X38667460Y-48661946D01*
X38334003Y-48661655D01*
X38127000Y-48747187D01*
X38127000Y-47385000D01*
X38227002Y-47385000D01*
X38227002Y-47226252D01*
X38385750Y-47385000D01*
X39476309Y-47385000D01*
X39709698Y-47288327D01*
X39888327Y-47109699D01*
X39985000Y-46876310D01*
X39985000Y-46135750D01*
X39826250Y-45977000D01*
X38227000Y-45977000D01*
X38227000Y-45997000D01*
X38127000Y-45997000D01*
X38127000Y-45703000D01*
X38227000Y-45703000D01*
X38227000Y-45723000D01*
X39826250Y-45723000D01*
X39985000Y-45564250D01*
X39985000Y-44823690D01*
X39888327Y-44590301D01*
X39709698Y-44411673D01*
X39476309Y-44315000D01*
X38385750Y-44315000D01*
X38227002Y-44473748D01*
X38227002Y-44315000D01*
X38127000Y-44315000D01*
X38127000Y-40688464D01*
X38266600Y-40688464D01*
X38266600Y-41300000D01*
X38307203Y-41504123D01*
X38411536Y-41660270D01*
X38411536Y-42300000D01*
X38438103Y-42441190D01*
X38521546Y-42570865D01*
X38648866Y-42657859D01*
X38800000Y-42688464D01*
X39439731Y-42688464D01*
X39595877Y-42792797D01*
X39800000Y-42833401D01*
X40004124Y-42792797D01*
X40160270Y-42688464D01*
X40800000Y-42688464D01*
X40941190Y-42661897D01*
X41070865Y-42578454D01*
X41157859Y-42451134D01*
X41188464Y-42300000D01*
X41188464Y-41725000D01*
X41161897Y-41583810D01*
X41078454Y-41454135D01*
X40951134Y-41367141D01*
X40800000Y-41336536D01*
X39763464Y-41336536D01*
X39763464Y-37263464D01*
X40800000Y-37263464D01*
X40941190Y-37236897D01*
X41070865Y-37153454D01*
X41157859Y-37026134D01*
X41188464Y-36875000D01*
X41188464Y-36769851D01*
X41327171Y-36677171D01*
X41662927Y-36341415D01*
X41842930Y-44561536D01*
X41842930Y-44561536D01*
G37*
X41842930Y-44561536D02*
X40850000Y-44561536D01*
X40708810Y-44588103D01*
X40579135Y-44671546D01*
X40492141Y-44798866D01*
X40461536Y-44950000D01*
X40461536Y-46750000D01*
X40488103Y-46891190D01*
X40571546Y-47020865D01*
X40698866Y-47107859D01*
X40850000Y-47138464D01*
X41899359Y-47138464D01*
X41938181Y-48911339D01*
X41826309Y-48865000D01*
X40985750Y-48865000D01*
X40827000Y-49023750D01*
X40827000Y-50623000D01*
X40847000Y-50623000D01*
X40847000Y-50877000D01*
X40827000Y-50877000D01*
X40827000Y-53923000D01*
X40847000Y-53923000D01*
X40847000Y-54177000D01*
X40827000Y-54177000D01*
X40827000Y-55776250D01*
X40985750Y-55935000D01*
X41826309Y-55935000D01*
X42059698Y-55838327D01*
X42089220Y-55808805D01*
X42119000Y-57168748D01*
X42119000Y-57223000D01*
X38127000Y-57223000D01*
X38127000Y-54752706D01*
X38332540Y-54838054D01*
X38665997Y-54838345D01*
X38974182Y-54711005D01*
X39065000Y-54620346D01*
X39065000Y-55426310D01*
X39161673Y-55659699D01*
X39340302Y-55838327D01*
X39573691Y-55935000D01*
X40414250Y-55935000D01*
X40573000Y-55776250D01*
X40573000Y-54177000D01*
X40553000Y-54177000D01*
X40553000Y-53923000D01*
X40573000Y-53923000D01*
X40573000Y-50877000D01*
X40553000Y-50877000D01*
X40553000Y-50623000D01*
X40573000Y-50623000D01*
X40573000Y-49023750D01*
X40414250Y-48865000D01*
X39573691Y-48865000D01*
X39340302Y-48961673D01*
X39230054Y-49071920D01*
X39211005Y-49025818D01*
X38975422Y-48789823D01*
X38667460Y-48661946D01*
X38334003Y-48661655D01*
X38127000Y-48747187D01*
X38127000Y-47385000D01*
X38227002Y-47385000D01*
X38227002Y-47226252D01*
X38385750Y-47385000D01*
X39476309Y-47385000D01*
X39709698Y-47288327D01*
X39888327Y-47109699D01*
X39985000Y-46876310D01*
X39985000Y-46135750D01*
X39826250Y-45977000D01*
X38227000Y-45977000D01*
X38227000Y-45997000D01*
X38127000Y-45997000D01*
X38127000Y-45703000D01*
X38227000Y-45703000D01*
X38227000Y-45723000D01*
X39826250Y-45723000D01*
X39985000Y-45564250D01*
X39985000Y-44823690D01*
X39888327Y-44590301D01*
X39709698Y-44411673D01*
X39476309Y-44315000D01*
X38385750Y-44315000D01*
X38227002Y-44473748D01*
X38227002Y-44315000D01*
X38127000Y-44315000D01*
X38127000Y-40688464D01*
X38266600Y-40688464D01*
X38266600Y-41300000D01*
X38307203Y-41504123D01*
X38411536Y-41660270D01*
X38411536Y-42300000D01*
X38438103Y-42441190D01*
X38521546Y-42570865D01*
X38648866Y-42657859D01*
X38800000Y-42688464D01*
X39439731Y-42688464D01*
X39595877Y-42792797D01*
X39800000Y-42833401D01*
X40004124Y-42792797D01*
X40160270Y-42688464D01*
X40800000Y-42688464D01*
X40941190Y-42661897D01*
X41070865Y-42578454D01*
X41157859Y-42451134D01*
X41188464Y-42300000D01*
X41188464Y-41725000D01*
X41161897Y-41583810D01*
X41078454Y-41454135D01*
X40951134Y-41367141D01*
X40800000Y-41336536D01*
X39763464Y-41336536D01*
X39763464Y-37263464D01*
X40800000Y-37263464D01*
X40941190Y-37236897D01*
X41070865Y-37153454D01*
X41157859Y-37026134D01*
X41188464Y-36875000D01*
X41188464Y-36769851D01*
X41327171Y-36677171D01*
X41662927Y-36341415D01*
X41842930Y-44561536D01*
G36*
X41525713Y-30075309D02*
X41543884Y-30905123D01*
X41326309Y-30815000D01*
X40735750Y-30815000D01*
X40577000Y-30973750D01*
X40577000Y-31973000D01*
X40597000Y-31973000D01*
X40597000Y-32227000D01*
X40577000Y-32227000D01*
X40577000Y-33073750D01*
X40527000Y-33123750D01*
X40527000Y-34123000D01*
X40547000Y-34123000D01*
X40547000Y-34377000D01*
X40527000Y-34377000D01*
X40527000Y-35376250D01*
X40685750Y-35535000D01*
X40960658Y-35535000D01*
X40729058Y-35766600D01*
X39800005Y-35766600D01*
X39800000Y-35766599D01*
X39595877Y-35807203D01*
X39439730Y-35911536D01*
X38800000Y-35911536D01*
X38658810Y-35938103D01*
X38529135Y-36021546D01*
X38442141Y-36148866D01*
X38411536Y-36300000D01*
X38411536Y-36939730D01*
X38307203Y-37095877D01*
X38266600Y-37300000D01*
X38266600Y-37911536D01*
X38127000Y-37911536D01*
X38127000Y-34535750D01*
X39015000Y-34535750D01*
X39015000Y-35026310D01*
X39111673Y-35259699D01*
X39290302Y-35438327D01*
X39523691Y-35535000D01*
X40114250Y-35535000D01*
X40273000Y-35376250D01*
X40273000Y-34377000D01*
X39173750Y-34377000D01*
X39015000Y-34535750D01*
X38127000Y-34535750D01*
X38127000Y-33473690D01*
X39015000Y-33473690D01*
X39015000Y-33964250D01*
X39173750Y-34123000D01*
X40273000Y-34123000D01*
X40273000Y-33276250D01*
X40323000Y-33226250D01*
X40323000Y-32227000D01*
X39223750Y-32227000D01*
X39065000Y-32385750D01*
X39065000Y-32876310D01*
X39161673Y-33109699D01*
X39201974Y-33150000D01*
X39111673Y-33240301D01*
X39015000Y-33473690D01*
X38127000Y-33473690D01*
X38127000Y-31323690D01*
X39065000Y-31323690D01*
X39065000Y-31814250D01*
X39223750Y-31973000D01*
X40323000Y-31973000D01*
X40323000Y-30973750D01*
X40164250Y-30815000D01*
X39573691Y-30815000D01*
X39340302Y-30911673D01*
X39161673Y-31090301D01*
X39065000Y-31323690D01*
X38127000Y-31323690D01*
X38127000Y-30028752D01*
X41525713Y-30075309D01*
X41525713Y-30075309D01*
G37*
X41525713Y-30075309D02*
X41543884Y-30905123D01*
X41326309Y-30815000D01*
X40735750Y-30815000D01*
X40577000Y-30973750D01*
X40577000Y-31973000D01*
X40597000Y-31973000D01*
X40597000Y-32227000D01*
X40577000Y-32227000D01*
X40577000Y-33073750D01*
X40527000Y-33123750D01*
X40527000Y-34123000D01*
X40547000Y-34123000D01*
X40547000Y-34377000D01*
X40527000Y-34377000D01*
X40527000Y-35376250D01*
X40685750Y-35535000D01*
X40960658Y-35535000D01*
X40729058Y-35766600D01*
X39800005Y-35766600D01*
X39800000Y-35766599D01*
X39595877Y-35807203D01*
X39439730Y-35911536D01*
X38800000Y-35911536D01*
X38658810Y-35938103D01*
X38529135Y-36021546D01*
X38442141Y-36148866D01*
X38411536Y-36300000D01*
X38411536Y-36939730D01*
X38307203Y-37095877D01*
X38266600Y-37300000D01*
X38266600Y-37911536D01*
X38127000Y-37911536D01*
X38127000Y-34535750D01*
X39015000Y-34535750D01*
X39015000Y-35026310D01*
X39111673Y-35259699D01*
X39290302Y-35438327D01*
X39523691Y-35535000D01*
X40114250Y-35535000D01*
X40273000Y-35376250D01*
X40273000Y-34377000D01*
X39173750Y-34377000D01*
X39015000Y-34535750D01*
X38127000Y-34535750D01*
X38127000Y-33473690D01*
X39015000Y-33473690D01*
X39015000Y-33964250D01*
X39173750Y-34123000D01*
X40273000Y-34123000D01*
X40273000Y-33276250D01*
X40323000Y-33226250D01*
X40323000Y-32227000D01*
X39223750Y-32227000D01*
X39065000Y-32385750D01*
X39065000Y-32876310D01*
X39161673Y-33109699D01*
X39201974Y-33150000D01*
X39111673Y-33240301D01*
X39015000Y-33473690D01*
X38127000Y-33473690D01*
X38127000Y-31323690D01*
X39065000Y-31323690D01*
X39065000Y-31814250D01*
X39223750Y-31973000D01*
X40323000Y-31973000D01*
X40323000Y-30973750D01*
X40164250Y-30815000D01*
X39573691Y-30815000D01*
X39340302Y-30911673D01*
X39161673Y-31090301D01*
X39065000Y-31323690D01*
X38127000Y-31323690D01*
X38127000Y-30028752D01*
X41525713Y-30075309D01*
G36*
X46223000Y-49124974D02*
X46059698Y-48961673D01*
X45826309Y-48865000D01*
X44985750Y-48865000D01*
X44827000Y-49023750D01*
X44827000Y-50623000D01*
X44847000Y-50623000D01*
X44847000Y-50877000D01*
X44827000Y-50877000D01*
X44827000Y-53923000D01*
X46176250Y-53923000D01*
X46335000Y-53764250D01*
X46335000Y-53274178D01*
X46350000Y-53277000D01*
X51373000Y-53277000D01*
X51373000Y-55197719D01*
X51150000Y-55152560D01*
X50127000Y-55152560D01*
X50127000Y-57473000D01*
X50147000Y-57473000D01*
X50147000Y-57727000D01*
X50127000Y-57727000D01*
X50127000Y-57747000D01*
X49873000Y-57747000D01*
X49873000Y-57727000D01*
X48514796Y-57727000D01*
X48811369Y-59506438D01*
X48846838Y-59635317D01*
X48985910Y-59851441D01*
X49017463Y-59873000D01*
X42627000Y-59873000D01*
X42627000Y-54335750D01*
X43065000Y-54335750D01*
X43065000Y-55426310D01*
X43161673Y-55659699D01*
X43340302Y-55838327D01*
X43573691Y-55935000D01*
X44414250Y-55935000D01*
X44573000Y-55776250D01*
X44573000Y-54177000D01*
X44827000Y-54177000D01*
X44827000Y-55776250D01*
X44985750Y-55935000D01*
X45826309Y-55935000D01*
X45895263Y-55906438D01*
X48211369Y-55906438D01*
X48472463Y-57473000D01*
X49873000Y-57473000D01*
X49873000Y-55152560D01*
X48850000Y-55152560D01*
X48518726Y-55243730D01*
X48328405Y-55416441D01*
X48220274Y-55649589D01*
X48211369Y-55906438D01*
X45895263Y-55906438D01*
X46059698Y-55838327D01*
X46238327Y-55659699D01*
X46335000Y-55426310D01*
X46335000Y-54335750D01*
X46176250Y-54177000D01*
X44827000Y-54177000D01*
X44573000Y-54177000D01*
X43223750Y-54177000D01*
X43065000Y-54335750D01*
X42627000Y-54335750D01*
X42627000Y-51035750D01*
X43065000Y-51035750D01*
X43065000Y-52126310D01*
X43161673Y-52359699D01*
X43201974Y-52400000D01*
X43161673Y-52440301D01*
X43065000Y-52673690D01*
X43065000Y-53764250D01*
X43223750Y-53923000D01*
X44573000Y-53923000D01*
X44573000Y-50877000D01*
X43223750Y-50877000D01*
X43065000Y-51035750D01*
X42627000Y-51035750D01*
X42627000Y-49373690D01*
X43065000Y-49373690D01*
X43065000Y-50464250D01*
X43223750Y-50623000D01*
X44573000Y-50623000D01*
X44573000Y-49023750D01*
X44414250Y-48865000D01*
X43573691Y-48865000D01*
X43340302Y-48961673D01*
X43161673Y-49140301D01*
X43065000Y-49373690D01*
X42627000Y-49373690D01*
X42627000Y-48035750D01*
X43385000Y-48035750D01*
X43385000Y-48201310D01*
X43481673Y-48434699D01*
X43660302Y-48613327D01*
X43893691Y-48710000D01*
X44514250Y-48710000D01*
X44673000Y-48551250D01*
X44673000Y-47877000D01*
X44927000Y-47877000D01*
X44927000Y-48551250D01*
X45085750Y-48710000D01*
X45706309Y-48710000D01*
X45939698Y-48613327D01*
X46118327Y-48434699D01*
X46215000Y-48201310D01*
X46215000Y-48035750D01*
X46056250Y-47877000D01*
X44927000Y-47877000D01*
X44673000Y-47877000D01*
X43543750Y-47877000D01*
X43385000Y-48035750D01*
X42627000Y-48035750D01*
X42627000Y-47138464D01*
X43350000Y-47138464D01*
X43385000Y-47131878D01*
X43385000Y-47251310D01*
X43394813Y-47275000D01*
X43385000Y-47298690D01*
X43385000Y-47464250D01*
X43543750Y-47623000D01*
X43619975Y-47623000D01*
X43660302Y-47663327D01*
X43893691Y-47760000D01*
X44514250Y-47760000D01*
X44651250Y-47623000D01*
X44673000Y-47623000D01*
X44673000Y-46927000D01*
X44927000Y-46927000D01*
X44927000Y-47623000D01*
X44948750Y-47623000D01*
X45085750Y-47760000D01*
X45706309Y-47760000D01*
X45939698Y-47663327D01*
X45980025Y-47623000D01*
X46056250Y-47623000D01*
X46215000Y-47464250D01*
X46215000Y-47298690D01*
X46205187Y-47275000D01*
X46215000Y-47251310D01*
X46215000Y-47085750D01*
X46056250Y-46927000D01*
X45980025Y-46927000D01*
X45939698Y-46886673D01*
X45706309Y-46790000D01*
X45085750Y-46790000D01*
X44948750Y-46927000D01*
X44927000Y-46927000D01*
X44673000Y-46927000D01*
X44653000Y-46927000D01*
X44653000Y-46673000D01*
X44673000Y-46673000D01*
X44673000Y-46653000D01*
X44927000Y-46653000D01*
X44927000Y-46673000D01*
X46056250Y-46673000D01*
X46215000Y-46514250D01*
X46215000Y-46427000D01*
X46223000Y-46427000D01*
X46223000Y-49124974D01*
X46223000Y-49124974D01*
G37*
X46223000Y-49124974D02*
X46059698Y-48961673D01*
X45826309Y-48865000D01*
X44985750Y-48865000D01*
X44827000Y-49023750D01*
X44827000Y-50623000D01*
X44847000Y-50623000D01*
X44847000Y-50877000D01*
X44827000Y-50877000D01*
X44827000Y-53923000D01*
X46176250Y-53923000D01*
X46335000Y-53764250D01*
X46335000Y-53274178D01*
X46350000Y-53277000D01*
X51373000Y-53277000D01*
X51373000Y-55197719D01*
X51150000Y-55152560D01*
X50127000Y-55152560D01*
X50127000Y-57473000D01*
X50147000Y-57473000D01*
X50147000Y-57727000D01*
X50127000Y-57727000D01*
X50127000Y-57747000D01*
X49873000Y-57747000D01*
X49873000Y-57727000D01*
X48514796Y-57727000D01*
X48811369Y-59506438D01*
X48846838Y-59635317D01*
X48985910Y-59851441D01*
X49017463Y-59873000D01*
X42627000Y-59873000D01*
X42627000Y-54335750D01*
X43065000Y-54335750D01*
X43065000Y-55426310D01*
X43161673Y-55659699D01*
X43340302Y-55838327D01*
X43573691Y-55935000D01*
X44414250Y-55935000D01*
X44573000Y-55776250D01*
X44573000Y-54177000D01*
X44827000Y-54177000D01*
X44827000Y-55776250D01*
X44985750Y-55935000D01*
X45826309Y-55935000D01*
X45895263Y-55906438D01*
X48211369Y-55906438D01*
X48472463Y-57473000D01*
X49873000Y-57473000D01*
X49873000Y-55152560D01*
X48850000Y-55152560D01*
X48518726Y-55243730D01*
X48328405Y-55416441D01*
X48220274Y-55649589D01*
X48211369Y-55906438D01*
X45895263Y-55906438D01*
X46059698Y-55838327D01*
X46238327Y-55659699D01*
X46335000Y-55426310D01*
X46335000Y-54335750D01*
X46176250Y-54177000D01*
X44827000Y-54177000D01*
X44573000Y-54177000D01*
X43223750Y-54177000D01*
X43065000Y-54335750D01*
X42627000Y-54335750D01*
X42627000Y-51035750D01*
X43065000Y-51035750D01*
X43065000Y-52126310D01*
X43161673Y-52359699D01*
X43201974Y-52400000D01*
X43161673Y-52440301D01*
X43065000Y-52673690D01*
X43065000Y-53764250D01*
X43223750Y-53923000D01*
X44573000Y-53923000D01*
X44573000Y-50877000D01*
X43223750Y-50877000D01*
X43065000Y-51035750D01*
X42627000Y-51035750D01*
X42627000Y-49373690D01*
X43065000Y-49373690D01*
X43065000Y-50464250D01*
X43223750Y-50623000D01*
X44573000Y-50623000D01*
X44573000Y-49023750D01*
X44414250Y-48865000D01*
X43573691Y-48865000D01*
X43340302Y-48961673D01*
X43161673Y-49140301D01*
X43065000Y-49373690D01*
X42627000Y-49373690D01*
X42627000Y-48035750D01*
X43385000Y-48035750D01*
X43385000Y-48201310D01*
X43481673Y-48434699D01*
X43660302Y-48613327D01*
X43893691Y-48710000D01*
X44514250Y-48710000D01*
X44673000Y-48551250D01*
X44673000Y-47877000D01*
X44927000Y-47877000D01*
X44927000Y-48551250D01*
X45085750Y-48710000D01*
X45706309Y-48710000D01*
X45939698Y-48613327D01*
X46118327Y-48434699D01*
X46215000Y-48201310D01*
X46215000Y-48035750D01*
X46056250Y-47877000D01*
X44927000Y-47877000D01*
X44673000Y-47877000D01*
X43543750Y-47877000D01*
X43385000Y-48035750D01*
X42627000Y-48035750D01*
X42627000Y-47138464D01*
X43350000Y-47138464D01*
X43385000Y-47131878D01*
X43385000Y-47251310D01*
X43394813Y-47275000D01*
X43385000Y-47298690D01*
X43385000Y-47464250D01*
X43543750Y-47623000D01*
X43619975Y-47623000D01*
X43660302Y-47663327D01*
X43893691Y-47760000D01*
X44514250Y-47760000D01*
X44651250Y-47623000D01*
X44673000Y-47623000D01*
X44673000Y-46927000D01*
X44927000Y-46927000D01*
X44927000Y-47623000D01*
X44948750Y-47623000D01*
X45085750Y-47760000D01*
X45706309Y-47760000D01*
X45939698Y-47663327D01*
X45980025Y-47623000D01*
X46056250Y-47623000D01*
X46215000Y-47464250D01*
X46215000Y-47298690D01*
X46205187Y-47275000D01*
X46215000Y-47251310D01*
X46215000Y-47085750D01*
X46056250Y-46927000D01*
X45980025Y-46927000D01*
X45939698Y-46886673D01*
X45706309Y-46790000D01*
X45085750Y-46790000D01*
X44948750Y-46927000D01*
X44927000Y-46927000D01*
X44673000Y-46927000D01*
X44653000Y-46927000D01*
X44653000Y-46673000D01*
X44673000Y-46673000D01*
X44673000Y-46653000D01*
X44927000Y-46653000D01*
X44927000Y-46673000D01*
X46056250Y-46673000D01*
X46215000Y-46514250D01*
X46215000Y-46427000D01*
X46223000Y-46427000D01*
X46223000Y-49124974D01*
G36*
X62423013Y-25613741D02*
X62319118Y-25863946D01*
X62318934Y-26074646D01*
X62294000Y-26200000D01*
X62294000Y-32461536D01*
X62050000Y-32461536D01*
X61908810Y-32488103D01*
X61779135Y-32571546D01*
X61692141Y-32698866D01*
X61661536Y-32850000D01*
X61661536Y-34150000D01*
X61688103Y-34291190D01*
X61771546Y-34420865D01*
X61898866Y-34507859D01*
X62050000Y-34538464D01*
X62294000Y-34538464D01*
X62294000Y-38300000D01*
X62332517Y-38493638D01*
X62442204Y-38657796D01*
X62606362Y-38767483D01*
X62800000Y-38806000D01*
X62875408Y-38791000D01*
X68402204Y-44317796D01*
X68566362Y-44427483D01*
X68760000Y-44466000D01*
X76861918Y-44466000D01*
X77105435Y-44830448D01*
X77504800Y-45097296D01*
X77975883Y-45191000D01*
X78024117Y-45191000D01*
X78495200Y-45097296D01*
X78894565Y-44830448D01*
X79161413Y-44431083D01*
X79255117Y-43960000D01*
X79161413Y-43488917D01*
X78894565Y-43089552D01*
X78495200Y-42822704D01*
X78024117Y-42729000D01*
X77975883Y-42729000D01*
X77504800Y-42822704D01*
X77105435Y-43089552D01*
X76861918Y-43454000D01*
X68969592Y-43454000D01*
X63306000Y-37790408D01*
X63306000Y-34538464D01*
X63550000Y-34538464D01*
X63691190Y-34511897D01*
X63820865Y-34428454D01*
X63907859Y-34301134D01*
X63938464Y-34150000D01*
X63938464Y-33785750D01*
X64115000Y-33785750D01*
X64115000Y-34276310D01*
X64211673Y-34509699D01*
X64390302Y-34688327D01*
X64623691Y-34785000D01*
X65214250Y-34785000D01*
X65373000Y-34626250D01*
X65373000Y-33627000D01*
X65627000Y-33627000D01*
X65627000Y-34626250D01*
X65785750Y-34785000D01*
X66376309Y-34785000D01*
X66609698Y-34688327D01*
X66788327Y-34509699D01*
X66885000Y-34276310D01*
X66885000Y-33785750D01*
X66726250Y-33627000D01*
X65627000Y-33627000D01*
X65373000Y-33627000D01*
X64273750Y-33627000D01*
X64115000Y-33785750D01*
X63938464Y-33785750D01*
X63938464Y-32850000D01*
X63914697Y-32723690D01*
X64115000Y-32723690D01*
X64115000Y-33214250D01*
X64273750Y-33373000D01*
X65373000Y-33373000D01*
X65373000Y-32373750D01*
X65627000Y-32373750D01*
X65627000Y-33373000D01*
X66726250Y-33373000D01*
X66885000Y-33214250D01*
X66885000Y-32723690D01*
X66788327Y-32490301D01*
X66609698Y-32311673D01*
X66376309Y-32215000D01*
X65785750Y-32215000D01*
X65627000Y-32373750D01*
X65373000Y-32373750D01*
X65214250Y-32215000D01*
X64623691Y-32215000D01*
X64390302Y-32311673D01*
X64211673Y-32490301D01*
X64115000Y-32723690D01*
X63914697Y-32723690D01*
X63911897Y-32708810D01*
X63828454Y-32579135D01*
X63701134Y-32492141D01*
X63550000Y-32461536D01*
X63306000Y-32461536D01*
X63306000Y-26610407D01*
X63385252Y-26577661D01*
X63576987Y-26386259D01*
X63680882Y-26136054D01*
X63681118Y-25865135D01*
X63577661Y-25614748D01*
X63419189Y-25456000D01*
X101955089Y-25456000D01*
X102970128Y-25657904D01*
X103792562Y-26207438D01*
X104342096Y-27029872D01*
X104552762Y-28088961D01*
X105237846Y-31533112D01*
X105305934Y-31697491D01*
X107256889Y-34617301D01*
X107382699Y-34743112D01*
X107382703Y-34743114D01*
X110302509Y-36694066D01*
X110466888Y-36762154D01*
X113911039Y-37447238D01*
X114970128Y-37657904D01*
X115792562Y-38207438D01*
X116342096Y-39029872D01*
X116544000Y-40044911D01*
X116544000Y-69955089D01*
X116342096Y-70970128D01*
X115792562Y-71792562D01*
X114970128Y-72342096D01*
X113911039Y-72552762D01*
X110466888Y-73237846D01*
X110302509Y-73305934D01*
X107382703Y-75256886D01*
X107382699Y-75256888D01*
X107256889Y-75382699D01*
X105305934Y-78302509D01*
X105237846Y-78466888D01*
X104552762Y-81911038D01*
X104552762Y-81911039D01*
X104342096Y-82970128D01*
X103792562Y-83792562D01*
X102970128Y-84342096D01*
X101955089Y-84544000D01*
X83711592Y-84544000D01*
X85089988Y-83165604D01*
X85540000Y-83255117D01*
X86011083Y-83161413D01*
X86410448Y-82894565D01*
X86677296Y-82495200D01*
X86771000Y-82024117D01*
X86771000Y-81975883D01*
X86677296Y-81504800D01*
X86410448Y-81105435D01*
X86011083Y-80838587D01*
X85540000Y-80744883D01*
X85068917Y-80838587D01*
X84669552Y-81105435D01*
X84402704Y-81504800D01*
X84309000Y-81975883D01*
X84309000Y-82024117D01*
X84390510Y-82433898D01*
X82830408Y-83994000D01*
X81721592Y-83994000D01*
X82549988Y-83165604D01*
X83000000Y-83255117D01*
X83471083Y-83161413D01*
X83870448Y-82894565D01*
X84137296Y-82495200D01*
X84231000Y-82024117D01*
X84231000Y-81975883D01*
X84137296Y-81504800D01*
X83870448Y-81105435D01*
X83471083Y-80838587D01*
X83000000Y-80744883D01*
X82528917Y-80838587D01*
X82129552Y-81105435D01*
X81862704Y-81504800D01*
X81769000Y-81975883D01*
X81769000Y-82024117D01*
X81850510Y-82433898D01*
X80790408Y-83494000D01*
X79681592Y-83494000D01*
X80009988Y-83165604D01*
X80460000Y-83255117D01*
X80931083Y-83161413D01*
X81330448Y-82894565D01*
X81597296Y-82495200D01*
X81691000Y-82024117D01*
X81691000Y-81975883D01*
X81597296Y-81504800D01*
X81330448Y-81105435D01*
X80931083Y-80838587D01*
X80460000Y-80744883D01*
X79988917Y-80838587D01*
X79589552Y-81105435D01*
X79405000Y-81381636D01*
X79405000Y-81023691D01*
X79308327Y-80790302D01*
X79129699Y-80611673D01*
X78896310Y-80515000D01*
X78550341Y-80515000D01*
X78790448Y-80354565D01*
X79057296Y-79955200D01*
X79151000Y-79484117D01*
X79151000Y-79435883D01*
X79229000Y-79435883D01*
X79229000Y-79484117D01*
X79322704Y-79955200D01*
X79589552Y-80354565D01*
X79988917Y-80621413D01*
X80460000Y-80715117D01*
X80931083Y-80621413D01*
X81330448Y-80354565D01*
X81597296Y-79955200D01*
X81691000Y-79484117D01*
X81691000Y-79435883D01*
X81769000Y-79435883D01*
X81769000Y-79484117D01*
X81862704Y-79955200D01*
X82129552Y-80354565D01*
X82528917Y-80621413D01*
X83000000Y-80715117D01*
X83471083Y-80621413D01*
X83870448Y-80354565D01*
X84137296Y-79955200D01*
X84231000Y-79484117D01*
X84231000Y-79435883D01*
X84309000Y-79435883D01*
X84309000Y-79484117D01*
X84402704Y-79955200D01*
X84669552Y-80354565D01*
X85068917Y-80621413D01*
X85540000Y-80715117D01*
X86011083Y-80621413D01*
X86410448Y-80354565D01*
X86677296Y-79955200D01*
X86771000Y-79484117D01*
X86771000Y-79435883D01*
X86677296Y-78964800D01*
X86410448Y-78565435D01*
X86011083Y-78298587D01*
X85540000Y-78204883D01*
X85068917Y-78298587D01*
X84669552Y-78565435D01*
X84402704Y-78964800D01*
X84309000Y-79435883D01*
X84231000Y-79435883D01*
X84137296Y-78964800D01*
X83870448Y-78565435D01*
X83471083Y-78298587D01*
X83000000Y-78204883D01*
X82528917Y-78298587D01*
X82129552Y-78565435D01*
X81862704Y-78964800D01*
X81769000Y-79435883D01*
X81691000Y-79435883D01*
X81597296Y-78964800D01*
X81330448Y-78565435D01*
X80931083Y-78298587D01*
X80460000Y-78204883D01*
X79988917Y-78298587D01*
X79589552Y-78565435D01*
X79322704Y-78964800D01*
X79229000Y-79435883D01*
X79151000Y-79435883D01*
X79057296Y-78964800D01*
X78790448Y-78565435D01*
X78453400Y-78340226D01*
X78453400Y-78033400D01*
X86779058Y-78033400D01*
X90202827Y-81457168D01*
X90202829Y-81457171D01*
X90345891Y-81552761D01*
X90375877Y-81572797D01*
X90580000Y-81613401D01*
X90580005Y-81613400D01*
X100420000Y-81613400D01*
X100624123Y-81572797D01*
X100797171Y-81457171D01*
X103598423Y-78655919D01*
X103975883Y-78731000D01*
X104024117Y-78731000D01*
X104495200Y-78637296D01*
X104894565Y-78370448D01*
X105161413Y-77971083D01*
X105255117Y-77500000D01*
X105161413Y-77028917D01*
X104894565Y-76629552D01*
X104495200Y-76362704D01*
X104024117Y-76269000D01*
X103975883Y-76269000D01*
X103504800Y-76362704D01*
X103105435Y-76629552D01*
X102838587Y-77028917D01*
X102744883Y-77500000D01*
X102827967Y-77917692D01*
X100199058Y-80546600D01*
X90800941Y-80546600D01*
X87626855Y-77372513D01*
X90618674Y-77372513D01*
X90904436Y-78064109D01*
X91433108Y-78593704D01*
X92124204Y-78880673D01*
X92872513Y-78881326D01*
X93564109Y-78595564D01*
X94093704Y-78066892D01*
X94380673Y-77375796D01*
X94381326Y-76627487D01*
X94095564Y-75935891D01*
X93566892Y-75406296D01*
X92875796Y-75119327D01*
X92127487Y-75118674D01*
X91435891Y-75404436D01*
X90906296Y-75933108D01*
X90619327Y-76624204D01*
X90618674Y-77372513D01*
X87626855Y-77372513D01*
X87377171Y-77122829D01*
X87204123Y-77007203D01*
X87000000Y-76966600D01*
X83097601Y-76966600D01*
X83135000Y-76876310D01*
X83135000Y-75785750D01*
X82976250Y-75627000D01*
X81627000Y-75627000D01*
X81627000Y-75647000D01*
X81373000Y-75647000D01*
X81373000Y-75627000D01*
X80023750Y-75627000D01*
X79865000Y-75785750D01*
X79865000Y-76876310D01*
X79902399Y-76966600D01*
X78813128Y-76966600D01*
X78857859Y-76901134D01*
X78888464Y-76750000D01*
X78888464Y-74615878D01*
X79380652Y-74123690D01*
X79865000Y-74123690D01*
X79865000Y-75214250D01*
X80023750Y-75373000D01*
X81373000Y-75373000D01*
X81373000Y-73773750D01*
X81627000Y-73773750D01*
X81627000Y-75373000D01*
X82976250Y-75373000D01*
X83135000Y-75214250D01*
X83135000Y-74960000D01*
X102744883Y-74960000D01*
X102838587Y-75431083D01*
X103105435Y-75830448D01*
X103504800Y-76097296D01*
X103975883Y-76191000D01*
X104024117Y-76191000D01*
X104495200Y-76097296D01*
X104894565Y-75830448D01*
X105161413Y-75431083D01*
X105255117Y-74960000D01*
X105161413Y-74488917D01*
X104894565Y-74089552D01*
X104495200Y-73822704D01*
X104024117Y-73729000D01*
X103975883Y-73729000D01*
X103504800Y-73822704D01*
X103105435Y-74089552D01*
X102838587Y-74488917D01*
X102744883Y-74960000D01*
X83135000Y-74960000D01*
X83135000Y-74123690D01*
X83038327Y-73890301D01*
X82859698Y-73711673D01*
X82626309Y-73615000D01*
X81785750Y-73615000D01*
X81627000Y-73773750D01*
X81373000Y-73773750D01*
X81214250Y-73615000D01*
X80373691Y-73615000D01*
X80140302Y-73711673D01*
X79961673Y-73890301D01*
X79865000Y-74123690D01*
X79380652Y-74123690D01*
X80735310Y-72769032D01*
X97924368Y-72769032D01*
X98128491Y-72728429D01*
X98301539Y-72612803D01*
X99344342Y-71570000D01*
X102761536Y-71570000D01*
X102761536Y-73270000D01*
X102788103Y-73411190D01*
X102871546Y-73540865D01*
X102998866Y-73627859D01*
X103150000Y-73658464D01*
X104850000Y-73658464D01*
X104991190Y-73631897D01*
X105120865Y-73548454D01*
X105207859Y-73421134D01*
X105238464Y-73270000D01*
X105238464Y-71570000D01*
X105211897Y-71428810D01*
X105128454Y-71299135D01*
X105001134Y-71212141D01*
X104850000Y-71181536D01*
X103150000Y-71181536D01*
X103008810Y-71208103D01*
X102879135Y-71291546D01*
X102792141Y-71418866D01*
X102761536Y-71570000D01*
X99344342Y-71570000D01*
X101017452Y-69896890D01*
X108058524Y-69896890D01*
X108228355Y-70306924D01*
X108618642Y-70735183D01*
X109143108Y-70981486D01*
X109373000Y-70860819D01*
X109373000Y-69667000D01*
X109627000Y-69667000D01*
X109627000Y-70860819D01*
X109856892Y-70981486D01*
X110381358Y-70735183D01*
X110771645Y-70306924D01*
X110941476Y-69896890D01*
X110920367Y-69856890D01*
X112058524Y-69856890D01*
X112228355Y-70266924D01*
X112618642Y-70695183D01*
X113143108Y-70941486D01*
X113373000Y-70820819D01*
X113373000Y-69627000D01*
X113627000Y-69627000D01*
X113627000Y-70820819D01*
X113856892Y-70941486D01*
X114381358Y-70695183D01*
X114771645Y-70266924D01*
X114941476Y-69856890D01*
X114820155Y-69627000D01*
X113627000Y-69627000D01*
X113373000Y-69627000D01*
X112179845Y-69627000D01*
X112058524Y-69856890D01*
X110920367Y-69856890D01*
X110820155Y-69667000D01*
X109627000Y-69667000D01*
X109373000Y-69667000D01*
X108179845Y-69667000D01*
X108058524Y-69896890D01*
X101017452Y-69896890D01*
X101558423Y-69355919D01*
X101935883Y-69431000D01*
X101984117Y-69431000D01*
X102455200Y-69337296D01*
X102854565Y-69070448D01*
X103121413Y-68671083D01*
X103215117Y-68200000D01*
X103132033Y-67782309D01*
X103261536Y-67652806D01*
X103261536Y-69050000D01*
X103288103Y-69191190D01*
X103371546Y-69320865D01*
X103498866Y-69407859D01*
X103650000Y-69438464D01*
X105350000Y-69438464D01*
X105491190Y-69411897D01*
X105620865Y-69328454D01*
X105707859Y-69201134D01*
X105711508Y-69183110D01*
X108058524Y-69183110D01*
X108179845Y-69413000D01*
X109373000Y-69413000D01*
X109373000Y-69393000D01*
X109627000Y-69393000D01*
X109627000Y-69413000D01*
X110820155Y-69413000D01*
X110941476Y-69183110D01*
X110924909Y-69143110D01*
X112058524Y-69143110D01*
X112179845Y-69373000D01*
X113373000Y-69373000D01*
X113373000Y-69353000D01*
X113627000Y-69353000D01*
X113627000Y-69373000D01*
X114820155Y-69373000D01*
X114941476Y-69143110D01*
X114771645Y-68733076D01*
X114381358Y-68304817D01*
X113956053Y-68105083D01*
X113995200Y-68097296D01*
X114394565Y-67830448D01*
X114661413Y-67431083D01*
X114755117Y-66960000D01*
X114661413Y-66488917D01*
X114394565Y-66089552D01*
X113995200Y-65822704D01*
X113524117Y-65729000D01*
X113475883Y-65729000D01*
X113004800Y-65822704D01*
X112605435Y-66089552D01*
X112338587Y-66488917D01*
X112244883Y-66960000D01*
X112338587Y-67431083D01*
X112605435Y-67830448D01*
X113004800Y-68097296D01*
X113043947Y-68105083D01*
X112618642Y-68304817D01*
X112228355Y-68733076D01*
X112058524Y-69143110D01*
X110924909Y-69143110D01*
X110771645Y-68773076D01*
X110381358Y-68344817D01*
X109956053Y-68145083D01*
X109995200Y-68137296D01*
X110394565Y-67870448D01*
X110661413Y-67471083D01*
X110755117Y-67000000D01*
X110665604Y-66549988D01*
X112289592Y-64926000D01*
X112361918Y-64926000D01*
X112605435Y-65290448D01*
X113004800Y-65557296D01*
X113475883Y-65651000D01*
X113524117Y-65651000D01*
X113995200Y-65557296D01*
X114394565Y-65290448D01*
X114661413Y-64891083D01*
X114755117Y-64420000D01*
X114661413Y-63948917D01*
X114394565Y-63549552D01*
X113995200Y-63282704D01*
X113524117Y-63189000D01*
X113475883Y-63189000D01*
X113004800Y-63282704D01*
X112605435Y-63549552D01*
X112361918Y-63914000D01*
X112080000Y-63914000D01*
X111886362Y-63952517D01*
X111722204Y-64062204D01*
X109933898Y-65850510D01*
X109524117Y-65769000D01*
X109475883Y-65769000D01*
X109004800Y-65862704D01*
X108605435Y-66129552D01*
X108338587Y-66528917D01*
X108244883Y-67000000D01*
X108338587Y-67471083D01*
X108605435Y-67870448D01*
X109004800Y-68137296D01*
X109043947Y-68145083D01*
X108618642Y-68344817D01*
X108228355Y-68773076D01*
X108058524Y-69183110D01*
X105711508Y-69183110D01*
X105738464Y-69050000D01*
X105738464Y-67350000D01*
X105711897Y-67208810D01*
X105628454Y-67079135D01*
X105501134Y-66992141D01*
X105350000Y-66961536D01*
X103952806Y-66961536D01*
X104098423Y-66815919D01*
X104475883Y-66891000D01*
X104524117Y-66891000D01*
X104995200Y-66797296D01*
X105394565Y-66530448D01*
X105661413Y-66131083D01*
X105755117Y-65660000D01*
X105661413Y-65188917D01*
X105394565Y-64789552D01*
X104995200Y-64522704D01*
X104679965Y-64460000D01*
X108244883Y-64460000D01*
X108338587Y-64931083D01*
X108605435Y-65330448D01*
X109004800Y-65597296D01*
X109475883Y-65691000D01*
X109524117Y-65691000D01*
X109995200Y-65597296D01*
X110394565Y-65330448D01*
X110661413Y-64931083D01*
X110755117Y-64460000D01*
X110661413Y-63988917D01*
X110394565Y-63589552D01*
X109995200Y-63322704D01*
X109524117Y-63229000D01*
X109475883Y-63229000D01*
X109004800Y-63322704D01*
X108605435Y-63589552D01*
X108338587Y-63988917D01*
X108244883Y-64460000D01*
X104679965Y-64460000D01*
X104524117Y-64429000D01*
X104475883Y-64429000D01*
X104004800Y-64522704D01*
X103605435Y-64789552D01*
X103348212Y-65174512D01*
X103231645Y-64893076D01*
X103036570Y-64679022D01*
X103677195Y-64038397D01*
X104004800Y-64257296D01*
X104475883Y-64351000D01*
X104524117Y-64351000D01*
X104995200Y-64257296D01*
X105394565Y-63990448D01*
X105661413Y-63591083D01*
X105755117Y-63120000D01*
X105661413Y-62648917D01*
X105394565Y-62249552D01*
X104995200Y-61982704D01*
X104524117Y-61889000D01*
X104475883Y-61889000D01*
X104004800Y-61982704D01*
X103830999Y-62098834D01*
X103830999Y-61964593D01*
X104066102Y-61729490D01*
X104475883Y-61811000D01*
X104524117Y-61811000D01*
X104995200Y-61717296D01*
X105394565Y-61450448D01*
X105648773Y-61070000D01*
X108261536Y-61070000D01*
X108261536Y-62770000D01*
X108288103Y-62911190D01*
X108371546Y-63040865D01*
X108498866Y-63127859D01*
X108650000Y-63158464D01*
X110350000Y-63158464D01*
X110491190Y-63131897D01*
X110620865Y-63048454D01*
X110707859Y-62921134D01*
X110738464Y-62770000D01*
X110738464Y-62386000D01*
X112261536Y-62386000D01*
X112261536Y-62730000D01*
X112288103Y-62871190D01*
X112371546Y-63000865D01*
X112498866Y-63087859D01*
X112650000Y-63118464D01*
X114350000Y-63118464D01*
X114491190Y-63091897D01*
X114620865Y-63008454D01*
X114707859Y-62881134D01*
X114738464Y-62730000D01*
X114738464Y-61030000D01*
X114711897Y-60888810D01*
X114628454Y-60759135D01*
X114501134Y-60672141D01*
X114350000Y-60641536D01*
X112650000Y-60641536D01*
X112508810Y-60668103D01*
X112379135Y-60751546D01*
X112292141Y-60878866D01*
X112261536Y-61030000D01*
X112261536Y-61374000D01*
X110738464Y-61374000D01*
X110738464Y-61070000D01*
X110711897Y-60928810D01*
X110628454Y-60799135D01*
X110501134Y-60712141D01*
X110350000Y-60681536D01*
X108650000Y-60681536D01*
X108508810Y-60708103D01*
X108379135Y-60791546D01*
X108292141Y-60918866D01*
X108261536Y-61070000D01*
X105648773Y-61070000D01*
X105661413Y-61051083D01*
X105755117Y-60580000D01*
X105661413Y-60108917D01*
X105394565Y-59709552D01*
X104995200Y-59442704D01*
X104524117Y-59349000D01*
X104475883Y-59349000D01*
X104004800Y-59442704D01*
X103641001Y-59685787D01*
X103641001Y-59614591D01*
X104066102Y-59189490D01*
X104475883Y-59271000D01*
X104524117Y-59271000D01*
X104995200Y-59177296D01*
X105394565Y-58910448D01*
X105661413Y-58511083D01*
X105755117Y-58040000D01*
X105661413Y-57568917D01*
X105394565Y-57169552D01*
X104995200Y-56902704D01*
X104524117Y-56809000D01*
X104475883Y-56809000D01*
X104004800Y-56902704D01*
X103641001Y-57145787D01*
X103641001Y-56394213D01*
X104004800Y-56637296D01*
X104475883Y-56731000D01*
X104524117Y-56731000D01*
X104995200Y-56637296D01*
X105394565Y-56370448D01*
X105661413Y-55971083D01*
X105755117Y-55500000D01*
X105729759Y-55372513D01*
X108618674Y-55372513D01*
X108904436Y-56064109D01*
X109433108Y-56593704D01*
X110124204Y-56880673D01*
X110872513Y-56881326D01*
X111564109Y-56595564D01*
X112093704Y-56066892D01*
X112380673Y-55375796D01*
X112381326Y-54627487D01*
X112095564Y-53935891D01*
X111566892Y-53406296D01*
X110875796Y-53119327D01*
X110127487Y-53118674D01*
X109435891Y-53404436D01*
X108906296Y-53933108D01*
X108619327Y-54624204D01*
X108618674Y-55372513D01*
X105729759Y-55372513D01*
X105661413Y-55028917D01*
X105394565Y-54629552D01*
X104995200Y-54362704D01*
X104524117Y-54269000D01*
X104475883Y-54269000D01*
X104004800Y-54362704D01*
X103641001Y-54605787D01*
X103641001Y-53854213D01*
X104004800Y-54097296D01*
X104475883Y-54191000D01*
X104524117Y-54191000D01*
X104995200Y-54097296D01*
X105394565Y-53830448D01*
X105661413Y-53431083D01*
X105754999Y-52960593D01*
X108534561Y-50181031D01*
X108634865Y-50181118D01*
X108885252Y-50077661D01*
X109076987Y-49886259D01*
X109180882Y-49636054D01*
X109181118Y-49365135D01*
X109077661Y-49114748D01*
X108886259Y-48923013D01*
X108636054Y-48819118D01*
X108365135Y-48818882D01*
X108114748Y-48922339D01*
X107923013Y-49113741D01*
X107819118Y-49363946D01*
X107819030Y-49465378D01*
X105274848Y-52009560D01*
X104995200Y-51822704D01*
X104524117Y-51729000D01*
X104475883Y-51729000D01*
X104004800Y-51822704D01*
X103641001Y-52065787D01*
X103641001Y-51994591D01*
X104066102Y-51569490D01*
X104475883Y-51651000D01*
X104524117Y-51651000D01*
X104995200Y-51557296D01*
X105394565Y-51290448D01*
X105661413Y-50891083D01*
X105755117Y-50420000D01*
X105661413Y-49948917D01*
X105394565Y-49549552D01*
X104995200Y-49282704D01*
X104524117Y-49189000D01*
X104475883Y-49189000D01*
X104004800Y-49282704D01*
X103605435Y-49549552D01*
X103338587Y-49948917D01*
X103244883Y-50420000D01*
X103334396Y-50870012D01*
X102777205Y-51427203D01*
X102667518Y-51591361D01*
X102629001Y-51784999D01*
X102629001Y-51938834D01*
X102455200Y-51822704D01*
X101984117Y-51729000D01*
X101935883Y-51729000D01*
X101464800Y-51822704D01*
X101065435Y-52089552D01*
X100798587Y-52488917D01*
X100704883Y-52960000D01*
X100798587Y-53431083D01*
X101065435Y-53830448D01*
X101464800Y-54097296D01*
X101935883Y-54191000D01*
X101984117Y-54191000D01*
X102455200Y-54097296D01*
X102629001Y-53981166D01*
X102629001Y-54478834D01*
X102455200Y-54362704D01*
X101984117Y-54269000D01*
X101935883Y-54269000D01*
X101464800Y-54362704D01*
X101065435Y-54629552D01*
X100798587Y-55028917D01*
X100704883Y-55500000D01*
X100798587Y-55971083D01*
X101065435Y-56370448D01*
X101464800Y-56637296D01*
X101935883Y-56731000D01*
X101984117Y-56731000D01*
X102455200Y-56637296D01*
X102629001Y-56521166D01*
X102629001Y-57018834D01*
X102455200Y-56902704D01*
X101984117Y-56809000D01*
X101935883Y-56809000D01*
X101464800Y-56902704D01*
X101065435Y-57169552D01*
X100798587Y-57568917D01*
X100704883Y-58040000D01*
X100798587Y-58511083D01*
X101065435Y-58910448D01*
X101131089Y-58954317D01*
X90426396Y-69659010D01*
X75957123Y-69659010D01*
X75886259Y-69588023D01*
X75636054Y-69484128D01*
X75365135Y-69483892D01*
X75114748Y-69587349D01*
X74923013Y-69778751D01*
X74819118Y-70028956D01*
X74818882Y-70299875D01*
X74839179Y-70348999D01*
X73742777Y-70348999D01*
X73825345Y-70266575D01*
X74020777Y-69795924D01*
X74021222Y-69286311D01*
X73963247Y-69146001D01*
X83739999Y-69146001D01*
X83933637Y-69107484D01*
X84097795Y-68997797D01*
X101526102Y-51569490D01*
X101935883Y-51651000D01*
X101984117Y-51651000D01*
X102455200Y-51557296D01*
X102854565Y-51290448D01*
X103121413Y-50891083D01*
X103215117Y-50420000D01*
X103121413Y-49948917D01*
X102862215Y-49561001D01*
X103324999Y-49561001D01*
X103518637Y-49522484D01*
X103682795Y-49412797D01*
X104066102Y-49029490D01*
X104475883Y-49111000D01*
X104524117Y-49111000D01*
X104995200Y-49017296D01*
X105394565Y-48750448D01*
X105661413Y-48351083D01*
X105755117Y-47880000D01*
X105661413Y-47408917D01*
X105394565Y-47009552D01*
X104995200Y-46742704D01*
X104524117Y-46649000D01*
X104475883Y-46649000D01*
X104004800Y-46742704D01*
X103605435Y-47009552D01*
X103338587Y-47408917D01*
X103244883Y-47880000D01*
X103334396Y-48330012D01*
X103115407Y-48549001D01*
X102989168Y-48549001D01*
X103121413Y-48351083D01*
X103215117Y-47880000D01*
X103121413Y-47408917D01*
X102854565Y-47009552D01*
X102788911Y-46965683D01*
X103492797Y-46261797D01*
X103566271Y-46151835D01*
X103605435Y-46210448D01*
X104004800Y-46477296D01*
X104475883Y-46571000D01*
X104524117Y-46571000D01*
X104995200Y-46477296D01*
X105394565Y-46210448D01*
X105661413Y-45811083D01*
X105755117Y-45340000D01*
X105661413Y-44868917D01*
X105394565Y-44469552D01*
X104995200Y-44202704D01*
X104524117Y-44109000D01*
X104475883Y-44109000D01*
X104004800Y-44202704D01*
X103641001Y-44445787D01*
X103641001Y-44374591D01*
X104066102Y-43949490D01*
X104475883Y-44031000D01*
X104524117Y-44031000D01*
X104995200Y-43937296D01*
X105394565Y-43670448D01*
X105661413Y-43271083D01*
X105755117Y-42800000D01*
X105661413Y-42328917D01*
X105394565Y-41929552D01*
X104995200Y-41662704D01*
X104524117Y-41569000D01*
X104475883Y-41569000D01*
X104066102Y-41650510D01*
X103682795Y-41267203D01*
X103518637Y-41157516D01*
X103324999Y-41118999D01*
X99375001Y-41118999D01*
X99181363Y-41157516D01*
X99017205Y-41267203D01*
X92915410Y-47368998D01*
X92699998Y-47368998D01*
X92506360Y-47407515D01*
X92506000Y-47407756D01*
X92506000Y-40500000D01*
X92467483Y-40306362D01*
X92357796Y-40142204D01*
X88535997Y-36320405D01*
X88371839Y-36210718D01*
X88178201Y-36172201D01*
X87793409Y-36172201D01*
X87941486Y-35856892D01*
X87820819Y-35627000D01*
X86627000Y-35627000D01*
X86627000Y-35647000D01*
X86373000Y-35647000D01*
X86373000Y-35627000D01*
X86353000Y-35627000D01*
X86353000Y-35373000D01*
X86373000Y-35373000D01*
X86373000Y-34179845D01*
X86627000Y-34179845D01*
X86627000Y-35373000D01*
X87820819Y-35373000D01*
X87941486Y-35143108D01*
X87695183Y-34618642D01*
X87266924Y-34228355D01*
X86856890Y-34058524D01*
X86627000Y-34179845D01*
X86373000Y-34179845D01*
X86143110Y-34058524D01*
X85733076Y-34228355D01*
X85304817Y-34618642D01*
X85198464Y-34845105D01*
X85198464Y-34650000D01*
X85171897Y-34508810D01*
X85088454Y-34379135D01*
X84961134Y-34292141D01*
X84810000Y-34261536D01*
X83110000Y-34261536D01*
X82968810Y-34288103D01*
X82839135Y-34371546D01*
X82752141Y-34498866D01*
X82721536Y-34650000D01*
X82721536Y-35830946D01*
X81805999Y-34915409D01*
X81805999Y-33799999D01*
X81767482Y-33606361D01*
X81681021Y-33476963D01*
X81681111Y-33372513D01*
X90618674Y-33372513D01*
X90904436Y-34064109D01*
X91433108Y-34593704D01*
X92124204Y-34880673D01*
X92872513Y-34881326D01*
X93564109Y-34595564D01*
X94093704Y-34066892D01*
X94380673Y-33375796D01*
X94381326Y-32627487D01*
X94095564Y-31935891D01*
X93566892Y-31406296D01*
X92875796Y-31119327D01*
X92127487Y-31118674D01*
X91435891Y-31404436D01*
X90906296Y-31933108D01*
X90619327Y-32624204D01*
X90618674Y-33372513D01*
X81681111Y-33372513D01*
X81681118Y-33365135D01*
X81577661Y-33114748D01*
X81386259Y-32923013D01*
X81136054Y-32819118D01*
X80865135Y-32818882D01*
X80614748Y-32922339D01*
X80423013Y-33113741D01*
X80319118Y-33363946D01*
X80318882Y-33634865D01*
X80422339Y-33885252D01*
X80613741Y-34076987D01*
X80793999Y-34151837D01*
X80793999Y-34384703D01*
X80636054Y-34319118D01*
X80365135Y-34318882D01*
X80265398Y-34360092D01*
X80273167Y-34341382D01*
X80273403Y-34070463D01*
X80169946Y-33820076D01*
X79978544Y-33628341D01*
X79728339Y-33524446D01*
X79457420Y-33524210D01*
X79207033Y-33627667D01*
X79015298Y-33819069D01*
X78911403Y-34069274D01*
X78911305Y-34182230D01*
X78824803Y-34311689D01*
X78786286Y-34505327D01*
X78786286Y-40477202D01*
X78495200Y-40282704D01*
X78024117Y-40189000D01*
X77975883Y-40189000D01*
X77504800Y-40282704D01*
X77105435Y-40549552D01*
X76838587Y-40948917D01*
X76744883Y-41420000D01*
X76838587Y-41891083D01*
X77105435Y-42290448D01*
X77504800Y-42557296D01*
X77975883Y-42651000D01*
X78024117Y-42651000D01*
X78495200Y-42557296D01*
X78894565Y-42290448D01*
X79161413Y-41891083D01*
X79170385Y-41845977D01*
X80834396Y-43509988D01*
X80744883Y-43960000D01*
X80838587Y-44431083D01*
X81105435Y-44830448D01*
X81504800Y-45097296D01*
X81975883Y-45191000D01*
X82024117Y-45191000D01*
X82495200Y-45097296D01*
X82894565Y-44830448D01*
X83161413Y-44431083D01*
X83255117Y-43960000D01*
X83161413Y-43488917D01*
X82894565Y-43089552D01*
X82495200Y-42822704D01*
X82024117Y-42729000D01*
X81975883Y-42729000D01*
X81566102Y-42810510D01*
X79798286Y-41042694D01*
X79798286Y-34857053D01*
X79826887Y-34845236D01*
X79819118Y-34863946D01*
X79818882Y-35134865D01*
X79922339Y-35385252D01*
X80113741Y-35576987D01*
X80363946Y-35680882D01*
X80465378Y-35680970D01*
X82669001Y-37884593D01*
X82669001Y-40398834D01*
X82495200Y-40282704D01*
X82024117Y-40189000D01*
X81975883Y-40189000D01*
X81504800Y-40282704D01*
X81105435Y-40549552D01*
X80838587Y-40948917D01*
X80744883Y-41420000D01*
X80838587Y-41891083D01*
X81105435Y-42290448D01*
X81504800Y-42557296D01*
X81975883Y-42651000D01*
X82024117Y-42651000D01*
X82495200Y-42557296D01*
X82894565Y-42290448D01*
X83161413Y-41891083D01*
X83170385Y-41845977D01*
X84834396Y-43509988D01*
X84744883Y-43960000D01*
X84838587Y-44431083D01*
X85105435Y-44830448D01*
X85504800Y-45097296D01*
X85975883Y-45191000D01*
X86024117Y-45191000D01*
X86495200Y-45097296D01*
X86894565Y-44830448D01*
X87161413Y-44431083D01*
X87255117Y-43960000D01*
X87161413Y-43488917D01*
X86894565Y-43089552D01*
X86495200Y-42822704D01*
X86024117Y-42729000D01*
X85975883Y-42729000D01*
X85566102Y-42810510D01*
X83681001Y-40925409D01*
X83681001Y-38221595D01*
X85702738Y-40243332D01*
X85504800Y-40282704D01*
X85105435Y-40549552D01*
X84838587Y-40948917D01*
X84744883Y-41420000D01*
X84838587Y-41891083D01*
X85105435Y-42290448D01*
X85504800Y-42557296D01*
X85975883Y-42651000D01*
X86024117Y-42651000D01*
X86495200Y-42557296D01*
X86894565Y-42290448D01*
X87161413Y-41891083D01*
X87216674Y-41613264D01*
X88644001Y-43040591D01*
X88644001Y-43110001D01*
X88682518Y-43303639D01*
X88792205Y-43467797D01*
X88834396Y-43509988D01*
X88744883Y-43960000D01*
X88838587Y-44431083D01*
X89105435Y-44830448D01*
X89504800Y-45097296D01*
X89975883Y-45191000D01*
X90024117Y-45191000D01*
X90495200Y-45097296D01*
X90894565Y-44830448D01*
X91161413Y-44431083D01*
X91255117Y-43960000D01*
X91161413Y-43488917D01*
X90894565Y-43089552D01*
X90495200Y-42822704D01*
X90024117Y-42729000D01*
X89975883Y-42729000D01*
X89648659Y-42794089D01*
X89617484Y-42637361D01*
X89573058Y-42570873D01*
X89975883Y-42651000D01*
X90024117Y-42651000D01*
X90495200Y-42557296D01*
X90894565Y-42290448D01*
X91161413Y-41891083D01*
X91255117Y-41420000D01*
X91161413Y-40948917D01*
X90894565Y-40549552D01*
X90495200Y-40282704D01*
X90024117Y-40189000D01*
X89975883Y-40189000D01*
X89566102Y-40270510D01*
X87437796Y-38142204D01*
X87273638Y-38032517D01*
X87080000Y-37994000D01*
X86957123Y-37994000D01*
X86886259Y-37923013D01*
X86636054Y-37819118D01*
X86365135Y-37818882D01*
X86114748Y-37922339D01*
X85923013Y-38113741D01*
X85819118Y-38363946D01*
X85818882Y-38634865D01*
X85922339Y-38885252D01*
X86113741Y-39076987D01*
X86363946Y-39180882D01*
X86634865Y-39181118D01*
X86885252Y-39077661D01*
X86913685Y-39049277D01*
X88834396Y-40969988D01*
X88744883Y-41420000D01*
X88816962Y-41782368D01*
X86921797Y-39887203D01*
X86757639Y-39777516D01*
X86645875Y-39755285D01*
X84074791Y-37184201D01*
X87968609Y-37184201D01*
X91494000Y-40709592D01*
X91494000Y-47423309D01*
X91392192Y-47525117D01*
X91282505Y-47689275D01*
X91252143Y-47841913D01*
X91173001Y-47920918D01*
X91069106Y-48171123D01*
X91068977Y-48319001D01*
X87796591Y-48319001D01*
X88762178Y-47353414D01*
X88788103Y-47491190D01*
X88871546Y-47620865D01*
X88998866Y-47707859D01*
X89150000Y-47738464D01*
X90850000Y-47738464D01*
X90991190Y-47711897D01*
X91120865Y-47628454D01*
X91207859Y-47501134D01*
X91238464Y-47350000D01*
X91238464Y-45650000D01*
X91211897Y-45508810D01*
X91128454Y-45379135D01*
X91001134Y-45292141D01*
X90850000Y-45261536D01*
X89150000Y-45261536D01*
X89008810Y-45288103D01*
X88879135Y-45371546D01*
X88792141Y-45498866D01*
X88761536Y-45650000D01*
X88761536Y-46021542D01*
X88706362Y-46032517D01*
X88542204Y-46142204D01*
X87214102Y-47470306D01*
X87238464Y-47350000D01*
X87238464Y-45650000D01*
X87211897Y-45508810D01*
X87128454Y-45379135D01*
X87001134Y-45292141D01*
X86850000Y-45261536D01*
X85150000Y-45261536D01*
X85008810Y-45288103D01*
X84879135Y-45371546D01*
X84792141Y-45498866D01*
X84761536Y-45650000D01*
X84761536Y-47350000D01*
X84788103Y-47491190D01*
X84871546Y-47620865D01*
X84998866Y-47707859D01*
X85150000Y-47738464D01*
X86097462Y-47738464D01*
X85976963Y-47818979D01*
X85865135Y-47818882D01*
X85614748Y-47922339D01*
X85423013Y-48113741D01*
X85337781Y-48319001D01*
X68604915Y-48319001D01*
X68680882Y-48136054D01*
X68681118Y-47865135D01*
X68577661Y-47614748D01*
X68506000Y-47542962D01*
X68506000Y-46957123D01*
X68576987Y-46886259D01*
X68680882Y-46636054D01*
X68681118Y-46365135D01*
X68577661Y-46114748D01*
X68386259Y-45923013D01*
X68136054Y-45819118D01*
X67865135Y-45818882D01*
X67614748Y-45922339D01*
X67423013Y-46113741D01*
X67319118Y-46363946D01*
X67318882Y-46634865D01*
X67422339Y-46885252D01*
X67494000Y-46957038D01*
X67494000Y-47542877D01*
X67423013Y-47613741D01*
X67319118Y-47863946D01*
X67318882Y-48134865D01*
X67394965Y-48319001D01*
X65320980Y-48319001D01*
X65381000Y-48017260D01*
X65381000Y-47982740D01*
X65313938Y-47645596D01*
X65122961Y-47359779D01*
X64837144Y-47168802D01*
X64500000Y-47101740D01*
X64162856Y-47168802D01*
X63877039Y-47359779D01*
X63865000Y-47377797D01*
X63852961Y-47359779D01*
X63567144Y-47168802D01*
X63230000Y-47101740D01*
X62892856Y-47168802D01*
X62607039Y-47359779D01*
X62595000Y-47377797D01*
X62582961Y-47359779D01*
X62297144Y-47168802D01*
X61960000Y-47101740D01*
X61622856Y-47168802D01*
X61337039Y-47359779D01*
X61325000Y-47377797D01*
X61312961Y-47359779D01*
X61027144Y-47168802D01*
X60690000Y-47101740D01*
X60352856Y-47168802D01*
X60067039Y-47359779D01*
X60055000Y-47377797D01*
X60042961Y-47359779D01*
X59757144Y-47168802D01*
X59420000Y-47101740D01*
X59082856Y-47168802D01*
X58797039Y-47359779D01*
X58785000Y-47377797D01*
X58772961Y-47359779D01*
X58487144Y-47168802D01*
X58150000Y-47101740D01*
X57812856Y-47168802D01*
X57704497Y-47241205D01*
X57440209Y-47012873D01*
X57181874Y-46905881D01*
X57007000Y-47032046D01*
X57007000Y-47873000D01*
X57027000Y-47873000D01*
X57027000Y-48127000D01*
X57007000Y-48127000D01*
X57007000Y-48967954D01*
X57181874Y-49094119D01*
X57440209Y-48987127D01*
X57704497Y-48758795D01*
X57812856Y-48831198D01*
X58150000Y-48898260D01*
X58194397Y-48889429D01*
X58114748Y-48922339D01*
X57923013Y-49113741D01*
X57819118Y-49363946D01*
X57818882Y-49634865D01*
X57922339Y-49885252D01*
X57975795Y-49938801D01*
X57933343Y-49967167D01*
X57588974Y-50311536D01*
X57488670Y-50311449D01*
X57238283Y-50414906D01*
X57046548Y-50606308D01*
X56942653Y-50856513D01*
X56942417Y-51127432D01*
X57045874Y-51377819D01*
X57237276Y-51569554D01*
X57487481Y-51673449D01*
X57758400Y-51673685D01*
X58008787Y-51570228D01*
X58200522Y-51378826D01*
X58304417Y-51128621D01*
X58304505Y-51027189D01*
X58500731Y-50830963D01*
X70289416Y-50830963D01*
X70212771Y-51015544D01*
X70212535Y-51286463D01*
X70315992Y-51536850D01*
X70414123Y-51635151D01*
X70319118Y-51863946D01*
X70319030Y-51965378D01*
X69642204Y-52642204D01*
X69532517Y-52806362D01*
X69494000Y-53000000D01*
X69494000Y-60500000D01*
X69532517Y-60693638D01*
X69642204Y-60857796D01*
X71062204Y-62277796D01*
X71226362Y-62387483D01*
X71420000Y-62426000D01*
X71563031Y-62426000D01*
X71653388Y-62644680D01*
X71862979Y-62854636D01*
X71829205Y-62877203D01*
X70293446Y-64412962D01*
X70100364Y-64332787D01*
X70543680Y-64149612D01*
X70904345Y-63789575D01*
X71099777Y-63318924D01*
X71100222Y-62809311D01*
X70905612Y-62338320D01*
X70545575Y-61977655D01*
X70074924Y-61782223D01*
X69565311Y-61781778D01*
X69344576Y-61872984D01*
X60506000Y-53034408D01*
X60506000Y-52957123D01*
X60576987Y-52886259D01*
X60680882Y-52636054D01*
X60681118Y-52365135D01*
X60577661Y-52114748D01*
X60386259Y-51923013D01*
X60136054Y-51819118D01*
X59865135Y-51818882D01*
X59614748Y-51922339D01*
X59423013Y-52113741D01*
X59319118Y-52363946D01*
X59318882Y-52634865D01*
X59422339Y-52885252D01*
X59494000Y-52957038D01*
X59494000Y-53244000D01*
X59532517Y-53437638D01*
X59642204Y-53601796D01*
X68628962Y-62588554D01*
X68538223Y-62807076D01*
X68537778Y-63316689D01*
X68628984Y-63537424D01*
X68463971Y-63702437D01*
X68417680Y-63590404D01*
X68182097Y-63354409D01*
X67874135Y-63226532D01*
X67622743Y-63226313D01*
X62114861Y-57718430D01*
X61941813Y-57602804D01*
X61737690Y-57562201D01*
X58587161Y-57562201D01*
X58780777Y-57095924D01*
X58781222Y-56586311D01*
X58586612Y-56115320D01*
X58226575Y-55754655D01*
X57781364Y-55569787D01*
X58224680Y-55386612D01*
X58585345Y-55026575D01*
X58780777Y-54555924D01*
X58781222Y-54046311D01*
X58586612Y-53575320D01*
X58226575Y-53214655D01*
X57755924Y-53019223D01*
X57246311Y-53018778D01*
X56775320Y-53213388D01*
X56414655Y-53573425D01*
X56219223Y-54044076D01*
X56218778Y-54553689D01*
X56413388Y-55024680D01*
X56773425Y-55385345D01*
X57218636Y-55570213D01*
X56775320Y-55753388D01*
X56414655Y-56113425D01*
X56219223Y-56584076D01*
X56218778Y-57093689D01*
X56412364Y-57562201D01*
X51881000Y-57562201D01*
X51881000Y-53150000D01*
X51854944Y-53011523D01*
X51773104Y-52884340D01*
X51648230Y-52799017D01*
X51500000Y-52769000D01*
X46731000Y-52769000D01*
X46731000Y-48463464D01*
X47952872Y-48463464D01*
X48661536Y-49172128D01*
X48661536Y-50550000D01*
X48688103Y-50691190D01*
X48771546Y-50820865D01*
X48898866Y-50907859D01*
X49050000Y-50938464D01*
X50350000Y-50938464D01*
X50491190Y-50911897D01*
X50620865Y-50828454D01*
X50649480Y-50786574D01*
X50671546Y-50820865D01*
X50798866Y-50907859D01*
X50950000Y-50938464D01*
X52250000Y-50938464D01*
X52391190Y-50911897D01*
X52520865Y-50828454D01*
X52607859Y-50701134D01*
X52638464Y-50550000D01*
X52638464Y-49050000D01*
X52611897Y-48908810D01*
X52528454Y-48779135D01*
X52401134Y-48692141D01*
X52250000Y-48661536D01*
X50950000Y-48661536D01*
X50808810Y-48688103D01*
X50679135Y-48771546D01*
X50650520Y-48813426D01*
X50628454Y-48779135D01*
X50501134Y-48692141D01*
X50350000Y-48661536D01*
X49582128Y-48661536D01*
X49405592Y-48485000D01*
X49414250Y-48485000D01*
X49573000Y-48326250D01*
X49573000Y-47227000D01*
X49553000Y-47227000D01*
X49553000Y-46973000D01*
X49573000Y-46973000D01*
X49573000Y-45873750D01*
X49414250Y-45715000D01*
X48923690Y-45715000D01*
X48690301Y-45811673D01*
X48668464Y-45833510D01*
X48668464Y-45525000D01*
X48641897Y-45383810D01*
X48558454Y-45254135D01*
X48431134Y-45167141D01*
X48280000Y-45136536D01*
X48006000Y-45136536D01*
X48006000Y-45038464D01*
X48250000Y-45038464D01*
X48391190Y-45011897D01*
X48520865Y-44928454D01*
X48607859Y-44801134D01*
X48638464Y-44650000D01*
X48638464Y-43350000D01*
X48611897Y-43208810D01*
X48528454Y-43079135D01*
X48401134Y-42992141D01*
X48250000Y-42961536D01*
X48106000Y-42961536D01*
X48106000Y-41137335D01*
X48241190Y-41111897D01*
X48370865Y-41028454D01*
X48457859Y-40901134D01*
X48488464Y-40750000D01*
X48488464Y-39750000D01*
X48461897Y-39608810D01*
X48378454Y-39479135D01*
X48251134Y-39392141D01*
X48100000Y-39361536D01*
X47100000Y-39361536D01*
X46958810Y-39388103D01*
X46829135Y-39471546D01*
X46742141Y-39598866D01*
X46711536Y-39750000D01*
X46711536Y-40750000D01*
X46738103Y-40891190D01*
X46821546Y-41020865D01*
X46948866Y-41107859D01*
X47094000Y-41137249D01*
X47094000Y-42961536D01*
X46750000Y-42961536D01*
X46608810Y-42988103D01*
X46479135Y-43071546D01*
X46392141Y-43198866D01*
X46361536Y-43350000D01*
X46361536Y-44650000D01*
X46388103Y-44791190D01*
X46471546Y-44920865D01*
X46598866Y-45007859D01*
X46750000Y-45038464D01*
X46994000Y-45038464D01*
X46994000Y-45136536D01*
X46720000Y-45136536D01*
X46578810Y-45163103D01*
X46449135Y-45246546D01*
X46362141Y-45373866D01*
X46331536Y-45525000D01*
X46331536Y-45919000D01*
X45968464Y-45919000D01*
X45968464Y-45525000D01*
X45941897Y-45383810D01*
X45858454Y-45254135D01*
X45731134Y-45167141D01*
X45580000Y-45136536D01*
X45306000Y-45136536D01*
X45306000Y-45038464D01*
X45550000Y-45038464D01*
X45691190Y-45011897D01*
X45820865Y-44928454D01*
X45907859Y-44801134D01*
X45938464Y-44650000D01*
X45938464Y-43350000D01*
X45911897Y-43208810D01*
X45828454Y-43079135D01*
X45701134Y-42992141D01*
X45550000Y-42961536D01*
X44477128Y-42961536D01*
X44306000Y-42790408D01*
X44306000Y-42688464D01*
X44800000Y-42688464D01*
X44941190Y-42661897D01*
X45070865Y-42578454D01*
X45157859Y-42451134D01*
X45188464Y-42300000D01*
X45188464Y-40688464D01*
X46050000Y-40688464D01*
X46191190Y-40661897D01*
X46320865Y-40578454D01*
X46407859Y-40451134D01*
X46438464Y-40300000D01*
X46438464Y-38300000D01*
X46411897Y-38158810D01*
X46328454Y-38029135D01*
X46201134Y-37942141D01*
X46050000Y-37911536D01*
X45806000Y-37911536D01*
X45806000Y-37800000D01*
X45767483Y-37606362D01*
X45657796Y-37442204D01*
X45188464Y-36972872D01*
X45188464Y-36300000D01*
X45161897Y-36158810D01*
X45078454Y-36029135D01*
X44951134Y-35942141D01*
X44800000Y-35911536D01*
X44111898Y-35911536D01*
X43993638Y-35832517D01*
X43800000Y-35794000D01*
X43606362Y-35832517D01*
X43488102Y-35911536D01*
X42800000Y-35911536D01*
X42658810Y-35938103D01*
X42529135Y-36021546D01*
X42442141Y-36148866D01*
X42411536Y-36300000D01*
X42411536Y-36875000D01*
X42438103Y-37016190D01*
X42521546Y-37145865D01*
X42648866Y-37232859D01*
X42800000Y-37263464D01*
X43836536Y-37263464D01*
X43836536Y-39547872D01*
X43442204Y-39942204D01*
X43332517Y-40106362D01*
X43294000Y-40300000D01*
X43294000Y-41336536D01*
X42800000Y-41336536D01*
X42658810Y-41363103D01*
X42529135Y-41446546D01*
X42442141Y-41573866D01*
X42411536Y-41725000D01*
X42411536Y-42300000D01*
X42438103Y-42441190D01*
X42521546Y-42570865D01*
X42648866Y-42657859D01*
X42800000Y-42688464D01*
X43294000Y-42688464D01*
X43294000Y-43000000D01*
X43332517Y-43193638D01*
X43442204Y-43357796D01*
X43661536Y-43577128D01*
X43661536Y-44650000D01*
X43682955Y-44763833D01*
X43628454Y-44679135D01*
X43501134Y-44592141D01*
X43350000Y-44561536D01*
X40850000Y-44561536D01*
X40708810Y-44588103D01*
X40579135Y-44671546D01*
X40492141Y-44798866D01*
X40461536Y-44950000D01*
X40461536Y-46750000D01*
X40488103Y-46891190D01*
X40571546Y-47020865D01*
X40698866Y-47107859D01*
X40850000Y-47138464D01*
X42119000Y-47138464D01*
X42119000Y-49020975D01*
X42059698Y-48961673D01*
X41826309Y-48865000D01*
X40985750Y-48865000D01*
X40827000Y-49023750D01*
X40827000Y-50623000D01*
X40847000Y-50623000D01*
X40847000Y-50877000D01*
X40827000Y-50877000D01*
X40827000Y-53923000D01*
X40847000Y-53923000D01*
X40847000Y-54177000D01*
X40827000Y-54177000D01*
X40827000Y-55776250D01*
X40985750Y-55935000D01*
X41826309Y-55935000D01*
X42059698Y-55838327D01*
X42119000Y-55779025D01*
X42119000Y-60000000D01*
X42145056Y-60138477D01*
X42226896Y-60265660D01*
X42351770Y-60350983D01*
X42500000Y-60381000D01*
X51500000Y-60381000D01*
X51638477Y-60354944D01*
X51765660Y-60273104D01*
X51850983Y-60148230D01*
X51881000Y-60000000D01*
X51881000Y-58629001D01*
X53916676Y-58629001D01*
X53819118Y-58863946D01*
X53818882Y-59134865D01*
X53922339Y-59385252D01*
X54113741Y-59576987D01*
X54363946Y-59680882D01*
X54634865Y-59681118D01*
X54885252Y-59577661D01*
X54957038Y-59506000D01*
X56218889Y-59506000D01*
X56218778Y-59633689D01*
X56413388Y-60104680D01*
X56773425Y-60465345D01*
X57218636Y-60650213D01*
X56775320Y-60833388D01*
X56414655Y-61193425D01*
X56219223Y-61664076D01*
X56218778Y-62173689D01*
X56413388Y-62644680D01*
X56773425Y-63005345D01*
X57218636Y-63190213D01*
X56775320Y-63373388D01*
X56414655Y-63733425D01*
X56219223Y-64204076D01*
X56218778Y-64713689D01*
X56413388Y-65184680D01*
X56497560Y-65268999D01*
X51528573Y-65268999D01*
X51533179Y-65136137D01*
X50933179Y-61536137D01*
X50911897Y-61458810D01*
X50828454Y-61329135D01*
X50701134Y-61242141D01*
X50550000Y-61211536D01*
X49450000Y-61211536D01*
X49370226Y-61219815D01*
X49228598Y-61280805D01*
X49121857Y-61392091D01*
X49066821Y-61536137D01*
X49036094Y-61720502D01*
X48457796Y-61142204D01*
X48293638Y-61032517D01*
X48100000Y-60994000D01*
X36500000Y-60994000D01*
X36306362Y-61032517D01*
X36142204Y-61142204D01*
X34642204Y-62642204D01*
X34532517Y-62806362D01*
X34521542Y-62861536D01*
X33250000Y-62861536D01*
X33108810Y-62888103D01*
X32979135Y-62971546D01*
X32892141Y-63098866D01*
X32861536Y-63250000D01*
X32861536Y-66750000D01*
X32888103Y-66891190D01*
X32971546Y-67020865D01*
X33098866Y-67107859D01*
X33250000Y-67138464D01*
X36750000Y-67138464D01*
X36891190Y-67111897D01*
X37020865Y-67028454D01*
X37107859Y-66901134D01*
X37138464Y-66750000D01*
X37138464Y-65563110D01*
X40558524Y-65563110D01*
X40679845Y-65793000D01*
X41873000Y-65793000D01*
X41873000Y-65773000D01*
X42127000Y-65773000D01*
X42127000Y-65793000D01*
X43320155Y-65793000D01*
X43441476Y-65563110D01*
X43271645Y-65153076D01*
X42881358Y-64724817D01*
X42654895Y-64618464D01*
X42850000Y-64618464D01*
X42991190Y-64591897D01*
X43120865Y-64508454D01*
X43207859Y-64381134D01*
X43238464Y-64230000D01*
X43238464Y-62530000D01*
X43211897Y-62388810D01*
X43128454Y-62259135D01*
X43001134Y-62172141D01*
X42850000Y-62141536D01*
X41150000Y-62141536D01*
X41008810Y-62168103D01*
X40879135Y-62251546D01*
X40792141Y-62378866D01*
X40761536Y-62530000D01*
X40761536Y-64230000D01*
X40788103Y-64371190D01*
X40871546Y-64500865D01*
X40998866Y-64587859D01*
X41150000Y-64618464D01*
X41345105Y-64618464D01*
X41118642Y-64724817D01*
X40728355Y-65153076D01*
X40558524Y-65563110D01*
X37138464Y-65563110D01*
X37138464Y-63250000D01*
X37111897Y-63108810D01*
X37028454Y-62979135D01*
X36901134Y-62892141D01*
X36750000Y-62861536D01*
X35854056Y-62861536D01*
X36709592Y-62006000D01*
X47890408Y-62006000D01*
X48831639Y-62947231D01*
X48466821Y-65136137D01*
X48480610Y-65268999D01*
X44685001Y-65268999D01*
X44491363Y-65307516D01*
X44327205Y-65417203D01*
X43423063Y-66321345D01*
X43441476Y-66276890D01*
X43320155Y-66047000D01*
X42127000Y-66047000D01*
X42127000Y-66067000D01*
X41873000Y-66067000D01*
X41873000Y-66047000D01*
X40679845Y-66047000D01*
X40558524Y-66276890D01*
X40728355Y-66686924D01*
X41118642Y-67115183D01*
X41543947Y-67314917D01*
X41504800Y-67322704D01*
X41105435Y-67589552D01*
X40838587Y-67988917D01*
X40744883Y-68460000D01*
X40838587Y-68931083D01*
X41105435Y-69330448D01*
X41504800Y-69597296D01*
X41975883Y-69691000D01*
X42024117Y-69691000D01*
X42495200Y-69597296D01*
X42894565Y-69330448D01*
X43161413Y-68931083D01*
X43255117Y-68460000D01*
X43165604Y-68009988D01*
X44894593Y-66280999D01*
X56411510Y-66280999D01*
X56219223Y-66744076D01*
X56218778Y-67253689D01*
X56411041Y-67719001D01*
X44774999Y-67719001D01*
X44581361Y-67757518D01*
X44417203Y-67867205D01*
X42433898Y-69850510D01*
X42024117Y-69769000D01*
X41975883Y-69769000D01*
X41504800Y-69862704D01*
X41105435Y-70129552D01*
X40838587Y-70528917D01*
X40744883Y-71000000D01*
X40838587Y-71471083D01*
X41105435Y-71870448D01*
X41504800Y-72137296D01*
X41975883Y-72231000D01*
X42024117Y-72231000D01*
X42495200Y-72137296D01*
X42894565Y-71870448D01*
X43161413Y-71471083D01*
X43255117Y-71000000D01*
X43165604Y-70549988D01*
X44984591Y-68731001D01*
X56497223Y-68731001D01*
X56414655Y-68813425D01*
X56219223Y-69284076D01*
X56218778Y-69793689D01*
X56413388Y-70264680D01*
X56773425Y-70625345D01*
X57218636Y-70810213D01*
X56775320Y-70993388D01*
X56414655Y-71353425D01*
X56219223Y-71824076D01*
X56218778Y-72333689D01*
X56413388Y-72804680D01*
X56773425Y-73165345D01*
X56871970Y-73206264D01*
X56685852Y-73283357D01*
X56599446Y-73539841D01*
X57500000Y-74440395D01*
X58400554Y-73539841D01*
X58314148Y-73283357D01*
X58116841Y-73211170D01*
X58224680Y-73166612D01*
X58585345Y-72806575D01*
X58780777Y-72335924D01*
X58781222Y-71826311D01*
X58690016Y-71605576D01*
X59914594Y-70380998D01*
X65433805Y-70380998D01*
X65342205Y-70442203D01*
X59012939Y-76771469D01*
X58836643Y-76345852D01*
X58580159Y-76259446D01*
X57679605Y-77160000D01*
X57693748Y-77174143D01*
X57514143Y-77353748D01*
X57500000Y-77339605D01*
X56947126Y-77892479D01*
X56805159Y-77920718D01*
X56641001Y-78030405D01*
X55917203Y-78754203D01*
X55807516Y-78918361D01*
X55768999Y-79111999D01*
X55768999Y-80288001D01*
X55807516Y-80481639D01*
X55917203Y-80645797D01*
X56554203Y-81282797D01*
X56609004Y-81319414D01*
X56414655Y-81513425D01*
X56219223Y-81984076D01*
X56218778Y-82493689D01*
X56413388Y-82964680D01*
X56773425Y-83325345D01*
X57244076Y-83520777D01*
X57753689Y-83521222D01*
X58224680Y-83326612D01*
X58585345Y-82966575D01*
X58780777Y-82495924D01*
X58781222Y-81986311D01*
X58690016Y-81765576D01*
X58757795Y-81697797D01*
X58867482Y-81533639D01*
X58905999Y-81340001D01*
X58905999Y-81236999D01*
X58867482Y-81043361D01*
X58757795Y-80879203D01*
X58445797Y-80567205D01*
X58445002Y-80566674D01*
X58585345Y-80426575D01*
X58780777Y-79955924D01*
X58781222Y-79446311D01*
X58690016Y-79225576D01*
X62617593Y-75297999D01*
X68730510Y-75297999D01*
X68538223Y-75761076D01*
X68537778Y-76270689D01*
X68732388Y-76741680D01*
X69092425Y-77102345D01*
X69354715Y-77211257D01*
X62599372Y-83966600D01*
X51641648Y-83966600D01*
X51735183Y-83881358D01*
X51981486Y-83356892D01*
X51860819Y-83127000D01*
X50667000Y-83127000D01*
X50667000Y-83147000D01*
X50413000Y-83147000D01*
X50413000Y-83127000D01*
X50393000Y-83127000D01*
X50393000Y-82873000D01*
X50413000Y-82873000D01*
X50413000Y-81679845D01*
X50667000Y-81679845D01*
X50667000Y-82873000D01*
X51860819Y-82873000D01*
X51981486Y-82643108D01*
X51735183Y-82118642D01*
X51306924Y-81728355D01*
X50896890Y-81558524D01*
X50667000Y-81679845D01*
X50413000Y-81679845D01*
X50183110Y-81558524D01*
X49773076Y-81728355D01*
X49344817Y-82118642D01*
X49145083Y-82543947D01*
X49137296Y-82504800D01*
X48870448Y-82105435D01*
X48471083Y-81838587D01*
X48000000Y-81744883D01*
X47528917Y-81838587D01*
X47129552Y-82105435D01*
X46862704Y-82504800D01*
X46769000Y-82975883D01*
X46769000Y-83024117D01*
X46862704Y-83495200D01*
X47129552Y-83894565D01*
X47237360Y-83966600D01*
X46222640Y-83966600D01*
X46330448Y-83894565D01*
X46597296Y-83495200D01*
X46691000Y-83024117D01*
X46691000Y-82975883D01*
X46597296Y-82504800D01*
X46330448Y-82105435D01*
X45931083Y-81838587D01*
X45460000Y-81744883D01*
X44988917Y-81838587D01*
X44589552Y-82105435D01*
X44322704Y-82504800D01*
X44229000Y-82975883D01*
X44229000Y-83024117D01*
X44322704Y-83495200D01*
X44589552Y-83894565D01*
X44697360Y-83966600D01*
X44134852Y-83966600D01*
X44158464Y-83850000D01*
X44158464Y-82150000D01*
X44131897Y-82008810D01*
X44048454Y-81879135D01*
X43921134Y-81792141D01*
X43770000Y-81761536D01*
X42070000Y-81761536D01*
X41928810Y-81788103D01*
X41799135Y-81871546D01*
X41712141Y-81998866D01*
X41681536Y-82150000D01*
X41681536Y-83850000D01*
X41708103Y-83991190D01*
X41791546Y-84120865D01*
X41918866Y-84207859D01*
X42070000Y-84238464D01*
X42403242Y-84238464D01*
X42427203Y-84358923D01*
X42542829Y-84531971D01*
X42554858Y-84544000D01*
X40044911Y-84544000D01*
X39029872Y-84342096D01*
X38207438Y-83792562D01*
X37657904Y-82970128D01*
X37447238Y-81911039D01*
X37447238Y-81911038D01*
X36762154Y-78466888D01*
X36694066Y-78302509D01*
X36072663Y-77372513D01*
X47618674Y-77372513D01*
X47904436Y-78064109D01*
X48433108Y-78593704D01*
X49124204Y-78880673D01*
X49872513Y-78881326D01*
X50564109Y-78595564D01*
X51093704Y-78066892D01*
X51380673Y-77375796D01*
X51381071Y-76919336D01*
X55953542Y-76919336D01*
X55979161Y-77529460D01*
X56163357Y-77974148D01*
X56419841Y-78060554D01*
X57320395Y-77160000D01*
X56419841Y-76259446D01*
X56163357Y-76345852D01*
X55953542Y-76919336D01*
X51381071Y-76919336D01*
X51381326Y-76627487D01*
X51095564Y-75935891D01*
X50860243Y-75700159D01*
X56599446Y-75700159D01*
X56663401Y-75890000D01*
X56599446Y-76079841D01*
X57500000Y-76980395D01*
X58400554Y-76079841D01*
X58336599Y-75890000D01*
X58400554Y-75700159D01*
X57500000Y-74799605D01*
X56599446Y-75700159D01*
X50860243Y-75700159D01*
X50566892Y-75406296D01*
X49875796Y-75119327D01*
X49127487Y-75118674D01*
X48435891Y-75404436D01*
X47906296Y-75933108D01*
X47619327Y-76624204D01*
X47618674Y-77372513D01*
X36072663Y-77372513D01*
X35209033Y-76080000D01*
X40744883Y-76080000D01*
X40838587Y-76551083D01*
X41105435Y-76950448D01*
X41504800Y-77217296D01*
X41975883Y-77311000D01*
X42024117Y-77311000D01*
X42495200Y-77217296D01*
X42894565Y-76950448D01*
X43161413Y-76551083D01*
X43255117Y-76080000D01*
X43161413Y-75608917D01*
X42894565Y-75209552D01*
X42495200Y-74942704D01*
X42024117Y-74849000D01*
X41975883Y-74849000D01*
X41504800Y-74942704D01*
X41105435Y-75209552D01*
X40838587Y-75608917D01*
X40744883Y-76080000D01*
X35209033Y-76080000D01*
X34743114Y-75382703D01*
X34743112Y-75382699D01*
X34617301Y-75256889D01*
X32047796Y-73540000D01*
X40744883Y-73540000D01*
X40838587Y-74011083D01*
X41105435Y-74410448D01*
X41504800Y-74677296D01*
X41975883Y-74771000D01*
X42024117Y-74771000D01*
X42495200Y-74677296D01*
X42894565Y-74410448D01*
X42915353Y-74379336D01*
X55953542Y-74379336D01*
X55979161Y-74989460D01*
X56163357Y-75434148D01*
X56419841Y-75520554D01*
X57320395Y-74620000D01*
X57679605Y-74620000D01*
X58580159Y-75520554D01*
X58836643Y-75434148D01*
X59046458Y-74860664D01*
X59020839Y-74250540D01*
X58836643Y-73805852D01*
X58580159Y-73719446D01*
X57679605Y-74620000D01*
X57320395Y-74620000D01*
X56419841Y-73719446D01*
X56163357Y-73805852D01*
X55953542Y-74379336D01*
X42915353Y-74379336D01*
X43161413Y-74011083D01*
X43255117Y-73540000D01*
X43161413Y-73068917D01*
X42894565Y-72669552D01*
X42495200Y-72402704D01*
X42024117Y-72309000D01*
X41975883Y-72309000D01*
X41504800Y-72402704D01*
X41105435Y-72669552D01*
X40838587Y-73068917D01*
X40744883Y-73540000D01*
X32047796Y-73540000D01*
X31697491Y-73305934D01*
X31533112Y-73237846D01*
X28088961Y-72552762D01*
X27029872Y-72342096D01*
X26207438Y-71792562D01*
X25657904Y-70970128D01*
X25462099Y-69985750D01*
X29615000Y-69985750D01*
X29615000Y-71576310D01*
X29711673Y-71809699D01*
X29890302Y-71988327D01*
X30123691Y-72085000D01*
X31714250Y-72085000D01*
X31873000Y-71926250D01*
X31873000Y-69827000D01*
X32127000Y-69827000D01*
X32127000Y-71926250D01*
X32285750Y-72085000D01*
X33876309Y-72085000D01*
X34109698Y-71988327D01*
X34288327Y-71809699D01*
X34385000Y-71576310D01*
X34385000Y-69985750D01*
X34226250Y-69827000D01*
X32127000Y-69827000D01*
X31873000Y-69827000D01*
X29773750Y-69827000D01*
X29615000Y-69985750D01*
X25462099Y-69985750D01*
X25456000Y-69955089D01*
X25456000Y-65285750D01*
X26615000Y-65285750D01*
X26615000Y-66876310D01*
X26711673Y-67109699D01*
X26890302Y-67288327D01*
X27123691Y-67385000D01*
X28714250Y-67385000D01*
X28873000Y-67226250D01*
X28873000Y-65127000D01*
X29127000Y-65127000D01*
X29127000Y-67226250D01*
X29285750Y-67385000D01*
X29954696Y-67385000D01*
X29890302Y-67411673D01*
X29711673Y-67590301D01*
X29615000Y-67823690D01*
X29615000Y-69414250D01*
X29773750Y-69573000D01*
X31873000Y-69573000D01*
X31873000Y-67473750D01*
X32127000Y-67473750D01*
X32127000Y-69573000D01*
X34226250Y-69573000D01*
X34385000Y-69414250D01*
X34385000Y-67823690D01*
X34288327Y-67590301D01*
X34109698Y-67411673D01*
X33876309Y-67315000D01*
X32285750Y-67315000D01*
X32127000Y-67473750D01*
X31873000Y-67473750D01*
X31714250Y-67315000D01*
X31045304Y-67315000D01*
X31109698Y-67288327D01*
X31288327Y-67109699D01*
X31385000Y-66876310D01*
X31385000Y-65285750D01*
X31226250Y-65127000D01*
X29127000Y-65127000D01*
X28873000Y-65127000D01*
X26773750Y-65127000D01*
X26615000Y-65285750D01*
X25456000Y-65285750D01*
X25456000Y-63123690D01*
X26615000Y-63123690D01*
X26615000Y-64714250D01*
X26773750Y-64873000D01*
X28873000Y-64873000D01*
X28873000Y-62773750D01*
X29127000Y-62773750D01*
X29127000Y-64873000D01*
X31226250Y-64873000D01*
X31385000Y-64714250D01*
X31385000Y-63123690D01*
X31288327Y-62890301D01*
X31109698Y-62711673D01*
X30876309Y-62615000D01*
X29285750Y-62615000D01*
X29127000Y-62773750D01*
X28873000Y-62773750D01*
X28714250Y-62615000D01*
X27123691Y-62615000D01*
X26890302Y-62711673D01*
X26711673Y-62890301D01*
X26615000Y-63123690D01*
X25456000Y-63123690D01*
X25456000Y-55372513D01*
X29618674Y-55372513D01*
X29904436Y-56064109D01*
X30433108Y-56593704D01*
X31124204Y-56880673D01*
X31872513Y-56881326D01*
X32564109Y-56595564D01*
X33093704Y-56066892D01*
X33380673Y-55375796D01*
X33381326Y-54627487D01*
X33095564Y-53935891D01*
X32566892Y-53406296D01*
X31875796Y-53119327D01*
X31127487Y-53118674D01*
X30435891Y-53404436D01*
X29906296Y-53933108D01*
X29619327Y-54624204D01*
X29618674Y-55372513D01*
X25456000Y-55372513D01*
X25456000Y-49665997D01*
X37661655Y-49665997D01*
X37788995Y-49974182D01*
X37966600Y-50152098D01*
X37966600Y-50348110D01*
X37789823Y-50524578D01*
X37661946Y-50832540D01*
X37661655Y-51165997D01*
X37788995Y-51474182D01*
X38024578Y-51710177D01*
X38120338Y-51749940D01*
X38025818Y-51788995D01*
X37789823Y-52024578D01*
X37661946Y-52332540D01*
X37661655Y-52665997D01*
X37788995Y-52974182D01*
X37966600Y-53152098D01*
X37966600Y-53348110D01*
X37789823Y-53524578D01*
X37661946Y-53832540D01*
X37661655Y-54165997D01*
X37788995Y-54474182D01*
X38024578Y-54710177D01*
X38332540Y-54838054D01*
X38665997Y-54838345D01*
X38974182Y-54711005D01*
X39065000Y-54620346D01*
X39065000Y-55426310D01*
X39161673Y-55659699D01*
X39340302Y-55838327D01*
X39573691Y-55935000D01*
X40414250Y-55935000D01*
X40573000Y-55776250D01*
X40573000Y-54177000D01*
X40553000Y-54177000D01*
X40553000Y-53923000D01*
X40573000Y-53923000D01*
X40573000Y-50877000D01*
X40553000Y-50877000D01*
X40553000Y-50623000D01*
X40573000Y-50623000D01*
X40573000Y-49023750D01*
X40414250Y-48865000D01*
X39573691Y-48865000D01*
X39340302Y-48961673D01*
X39230054Y-49071920D01*
X39211005Y-49025818D01*
X38975422Y-48789823D01*
X38667460Y-48661946D01*
X38334003Y-48661655D01*
X38025818Y-48788995D01*
X37789823Y-49024578D01*
X37661946Y-49332540D01*
X37661655Y-49665997D01*
X25456000Y-49665997D01*
X25456000Y-46135750D01*
X36215000Y-46135750D01*
X36215000Y-46876310D01*
X36311673Y-47109699D01*
X36490302Y-47288327D01*
X36723691Y-47385000D01*
X37814250Y-47385000D01*
X37973000Y-47226250D01*
X37973000Y-45977000D01*
X38227000Y-45977000D01*
X38227000Y-47226250D01*
X38385750Y-47385000D01*
X39476309Y-47385000D01*
X39709698Y-47288327D01*
X39888327Y-47109699D01*
X39985000Y-46876310D01*
X39985000Y-46135750D01*
X39826250Y-45977000D01*
X38227000Y-45977000D01*
X37973000Y-45977000D01*
X36373750Y-45977000D01*
X36215000Y-46135750D01*
X25456000Y-46135750D01*
X25456000Y-44823690D01*
X36215000Y-44823690D01*
X36215000Y-45564250D01*
X36373750Y-45723000D01*
X37973000Y-45723000D01*
X37973000Y-44473750D01*
X38227000Y-44473750D01*
X38227000Y-45723000D01*
X39826250Y-45723000D01*
X39985000Y-45564250D01*
X39985000Y-44823690D01*
X39888327Y-44590301D01*
X39709698Y-44411673D01*
X39476309Y-44315000D01*
X38385750Y-44315000D01*
X38227000Y-44473750D01*
X37973000Y-44473750D01*
X37814250Y-44315000D01*
X36723691Y-44315000D01*
X36490302Y-44411673D01*
X36311673Y-44590301D01*
X36215000Y-44823690D01*
X25456000Y-44823690D01*
X25456000Y-41665997D01*
X34661655Y-41665997D01*
X34788995Y-41974182D01*
X35024578Y-42210177D01*
X35332540Y-42338054D01*
X35665997Y-42338345D01*
X35974182Y-42211005D01*
X36210177Y-41975422D01*
X36338054Y-41667460D01*
X36338273Y-41416069D01*
X37237064Y-40517278D01*
X37271546Y-40570865D01*
X37398866Y-40657859D01*
X37550000Y-40688464D01*
X38266600Y-40688464D01*
X38266600Y-41300000D01*
X38307203Y-41504123D01*
X38411536Y-41660270D01*
X38411536Y-42300000D01*
X38438103Y-42441190D01*
X38521546Y-42570865D01*
X38648866Y-42657859D01*
X38800000Y-42688464D01*
X39439731Y-42688464D01*
X39595877Y-42792797D01*
X39800000Y-42833401D01*
X40004124Y-42792797D01*
X40160270Y-42688464D01*
X40800000Y-42688464D01*
X40941190Y-42661897D01*
X41070865Y-42578454D01*
X41157859Y-42451134D01*
X41188464Y-42300000D01*
X41188464Y-41725000D01*
X41161897Y-41583810D01*
X41078454Y-41454135D01*
X40951134Y-41367141D01*
X40800000Y-41336536D01*
X39763464Y-41336536D01*
X39763464Y-37263464D01*
X40800000Y-37263464D01*
X40941190Y-37236897D01*
X41070865Y-37153454D01*
X41157859Y-37026134D01*
X41188464Y-36875000D01*
X41188464Y-36769851D01*
X41327171Y-36677171D01*
X42715878Y-35288464D01*
X43850000Y-35288464D01*
X43991190Y-35261897D01*
X44120865Y-35178454D01*
X44205315Y-35054857D01*
X49211536Y-40061077D01*
X49211536Y-40750000D01*
X49238103Y-40891190D01*
X49321546Y-41020865D01*
X49448866Y-41107859D01*
X49582539Y-41134928D01*
X49607203Y-41258923D01*
X49722829Y-41431971D01*
X51066600Y-42775742D01*
X51066600Y-45961536D01*
X50950000Y-45961536D01*
X50873884Y-45975858D01*
X50709699Y-45811673D01*
X50476310Y-45715000D01*
X49985750Y-45715000D01*
X49827000Y-45873750D01*
X49827000Y-46973000D01*
X49847000Y-46973000D01*
X49847000Y-47227000D01*
X49827000Y-47227000D01*
X49827000Y-48326250D01*
X49985750Y-48485000D01*
X50476310Y-48485000D01*
X50709699Y-48388327D01*
X50874791Y-48223234D01*
X50950000Y-48238464D01*
X51984122Y-48238464D01*
X52122829Y-48377171D01*
X52295877Y-48492797D01*
X52500000Y-48533400D01*
X54727821Y-48533400D01*
X54748103Y-48641190D01*
X54831546Y-48770865D01*
X54958866Y-48857859D01*
X55110000Y-48888464D01*
X56110000Y-48888464D01*
X56188496Y-48873694D01*
X56319791Y-48987127D01*
X56578126Y-49094119D01*
X56753000Y-48967954D01*
X56753000Y-48127000D01*
X56733000Y-48127000D01*
X56733000Y-47873000D01*
X56753000Y-47873000D01*
X56753000Y-47032046D01*
X56622004Y-46937538D01*
X57909541Y-45650000D01*
X76761536Y-45650000D01*
X76761536Y-47350000D01*
X76788103Y-47491190D01*
X76871546Y-47620865D01*
X76998866Y-47707859D01*
X77150000Y-47738464D01*
X78850000Y-47738464D01*
X78991190Y-47711897D01*
X79120865Y-47628454D01*
X79207859Y-47501134D01*
X79238464Y-47350000D01*
X79238464Y-45650000D01*
X80761536Y-45650000D01*
X80761536Y-47350000D01*
X80788103Y-47491190D01*
X80871546Y-47620865D01*
X80998866Y-47707859D01*
X81150000Y-47738464D01*
X82850000Y-47738464D01*
X82991190Y-47711897D01*
X83120865Y-47628454D01*
X83207859Y-47501134D01*
X83238464Y-47350000D01*
X83238464Y-45650000D01*
X83211897Y-45508810D01*
X83128454Y-45379135D01*
X83001134Y-45292141D01*
X82850000Y-45261536D01*
X81150000Y-45261536D01*
X81008810Y-45288103D01*
X80879135Y-45371546D01*
X80792141Y-45498866D01*
X80761536Y-45650000D01*
X79238464Y-45650000D01*
X79211897Y-45508810D01*
X79128454Y-45379135D01*
X79001134Y-45292141D01*
X78850000Y-45261536D01*
X77150000Y-45261536D01*
X77008810Y-45288103D01*
X76879135Y-45371546D01*
X76792141Y-45498866D01*
X76761536Y-45650000D01*
X57909541Y-45650000D01*
X60581511Y-42978030D01*
X64403479Y-42978030D01*
X64579947Y-43154807D01*
X64887909Y-43282684D01*
X65221366Y-43282975D01*
X65529551Y-43155635D01*
X65765546Y-42920052D01*
X65893423Y-42612090D01*
X65893714Y-42278633D01*
X65766374Y-41970448D01*
X65530791Y-41734453D01*
X65222829Y-41606576D01*
X64889372Y-41606285D01*
X64581187Y-41733625D01*
X64403271Y-41911230D01*
X60360575Y-41911230D01*
X60360570Y-41911229D01*
X60165657Y-41950001D01*
X60156447Y-41951833D01*
X59983399Y-42067459D01*
X59983397Y-42067462D01*
X55232829Y-46818029D01*
X55117203Y-46991077D01*
X55092590Y-47114812D01*
X54968810Y-47138103D01*
X54839135Y-47221546D01*
X54752141Y-47348866D01*
X54728300Y-47466600D01*
X52720942Y-47466600D01*
X52638464Y-47384122D01*
X52638464Y-46350000D01*
X52611897Y-46208810D01*
X52528454Y-46079135D01*
X52401134Y-45992141D01*
X52250000Y-45961536D01*
X52133400Y-45961536D01*
X52133400Y-42554800D01*
X52116094Y-42467797D01*
X52092797Y-42350676D01*
X51977171Y-42177629D01*
X50844781Y-41045239D01*
X50870865Y-41028454D01*
X50957859Y-40901134D01*
X50988464Y-40750000D01*
X50988464Y-39750000D01*
X50961897Y-39608810D01*
X50878454Y-39479135D01*
X50843969Y-39455573D01*
X55784472Y-34515069D01*
X55900000Y-34538464D01*
X57400000Y-34538464D01*
X57541190Y-34511897D01*
X57670865Y-34428454D01*
X57757859Y-34301134D01*
X57788464Y-34150000D01*
X57788464Y-32850000D01*
X57761897Y-32708810D01*
X57678454Y-32579135D01*
X57551134Y-32492141D01*
X57400000Y-32461536D01*
X57183400Y-32461536D01*
X57183400Y-32038464D01*
X57550000Y-32038464D01*
X57691190Y-32011897D01*
X57820865Y-31928454D01*
X57907859Y-31801134D01*
X57938464Y-31650000D01*
X57938464Y-30350000D01*
X57911897Y-30208810D01*
X57828454Y-30079135D01*
X57701134Y-29992141D01*
X57550000Y-29961536D01*
X57333400Y-29961536D01*
X57333400Y-28800000D01*
X57317082Y-28717966D01*
X57338054Y-28667460D01*
X57338345Y-28334003D01*
X57211005Y-28025818D01*
X56975422Y-27789823D01*
X56667460Y-27661946D01*
X56334003Y-27661655D01*
X56025818Y-27788995D01*
X55789823Y-28024578D01*
X55661946Y-28332540D01*
X55661655Y-28665997D01*
X55788995Y-28974182D01*
X56024578Y-29210177D01*
X56266600Y-29310673D01*
X56266600Y-29961536D01*
X56050000Y-29961536D01*
X55908810Y-29988103D01*
X55779135Y-30071546D01*
X55692141Y-30198866D01*
X55661536Y-30350000D01*
X55661536Y-31650000D01*
X55688103Y-31791190D01*
X55771546Y-31920865D01*
X55898866Y-32007859D01*
X56050000Y-32038464D01*
X56116600Y-32038464D01*
X56116600Y-32461536D01*
X55900000Y-32461536D01*
X55758810Y-32488103D01*
X55629135Y-32571546D01*
X55542141Y-32698866D01*
X55511536Y-32850000D01*
X55511536Y-33279323D01*
X49725000Y-39065858D01*
X44531971Y-33872829D01*
X44358923Y-33757203D01*
X44238464Y-33733242D01*
X44238464Y-33600000D01*
X44211897Y-33458810D01*
X44156367Y-33372513D01*
X47618674Y-33372513D01*
X47904436Y-34064109D01*
X48433108Y-34593704D01*
X49124204Y-34880673D01*
X49872513Y-34881326D01*
X50564109Y-34595564D01*
X51093704Y-34066892D01*
X51380673Y-33375796D01*
X51381326Y-32627487D01*
X51095564Y-31935891D01*
X50566892Y-31406296D01*
X49875796Y-31119327D01*
X49127487Y-31118674D01*
X48435891Y-31404436D01*
X47906296Y-31933108D01*
X47619327Y-32624204D01*
X47618674Y-33372513D01*
X44156367Y-33372513D01*
X44128454Y-33329135D01*
X44001134Y-33242141D01*
X43850000Y-33211536D01*
X43633400Y-33211536D01*
X43633400Y-33138464D01*
X43900000Y-33138464D01*
X44041190Y-33111897D01*
X44170865Y-33028454D01*
X44257859Y-32901134D01*
X44288464Y-32750000D01*
X44288464Y-31450000D01*
X44261897Y-31308810D01*
X44178454Y-31179135D01*
X44051134Y-31092141D01*
X43900000Y-31061536D01*
X42400000Y-31061536D01*
X42258810Y-31088103D01*
X42129135Y-31171546D01*
X42042141Y-31298866D01*
X42011536Y-31450000D01*
X42011536Y-32750000D01*
X42038103Y-32891190D01*
X42121546Y-33020865D01*
X42248866Y-33107859D01*
X42400000Y-33138464D01*
X42566600Y-33138464D01*
X42566600Y-33211536D01*
X42350000Y-33211536D01*
X42208810Y-33238103D01*
X42079135Y-33321546D01*
X41992141Y-33448866D01*
X41961536Y-33600000D01*
X41961536Y-34534122D01*
X41785000Y-34710658D01*
X41785000Y-34535750D01*
X41626250Y-34377000D01*
X40527000Y-34377000D01*
X40527000Y-35376250D01*
X40685750Y-35535000D01*
X40960658Y-35535000D01*
X40729058Y-35766600D01*
X39800005Y-35766600D01*
X39800000Y-35766599D01*
X39600105Y-35806362D01*
X39595877Y-35807203D01*
X39439730Y-35911536D01*
X38800000Y-35911536D01*
X38658810Y-35938103D01*
X38529135Y-36021546D01*
X38442141Y-36148866D01*
X38411536Y-36300000D01*
X38411536Y-36939730D01*
X38307203Y-37095877D01*
X38266600Y-37300000D01*
X38266600Y-37911536D01*
X37550000Y-37911536D01*
X37408810Y-37938103D01*
X37279135Y-38021546D01*
X37192141Y-38148866D01*
X37161536Y-38300000D01*
X37161536Y-39084122D01*
X35583785Y-40661873D01*
X35334003Y-40661655D01*
X35025818Y-40788995D01*
X34789823Y-41024578D01*
X34661946Y-41332540D01*
X34661655Y-41665997D01*
X25456000Y-41665997D01*
X25456000Y-40044911D01*
X25657904Y-39029872D01*
X26207438Y-38207438D01*
X27029872Y-37657904D01*
X28088961Y-37447238D01*
X31533112Y-36762154D01*
X31697491Y-36694066D01*
X34617301Y-34743111D01*
X34743112Y-34617301D01*
X34743114Y-34617297D01*
X34797601Y-34535750D01*
X39015000Y-34535750D01*
X39015000Y-35026310D01*
X39111673Y-35259699D01*
X39290302Y-35438327D01*
X39523691Y-35535000D01*
X40114250Y-35535000D01*
X40273000Y-35376250D01*
X40273000Y-34377000D01*
X39173750Y-34377000D01*
X39015000Y-34535750D01*
X34797601Y-34535750D01*
X35507247Y-33473690D01*
X39015000Y-33473690D01*
X39015000Y-33964250D01*
X39173750Y-34123000D01*
X40273000Y-34123000D01*
X40273000Y-33276250D01*
X40323000Y-33226250D01*
X40323000Y-33123750D01*
X40527000Y-33123750D01*
X40527000Y-34123000D01*
X41626250Y-34123000D01*
X41785000Y-33964250D01*
X41785000Y-33473690D01*
X41688327Y-33240301D01*
X41648026Y-33200000D01*
X41738327Y-33109699D01*
X41835000Y-32876310D01*
X41835000Y-32385750D01*
X41676250Y-32227000D01*
X40577000Y-32227000D01*
X40577000Y-33073750D01*
X40527000Y-33123750D01*
X40323000Y-33123750D01*
X40323000Y-32227000D01*
X39223750Y-32227000D01*
X39065000Y-32385750D01*
X39065000Y-32876310D01*
X39161673Y-33109699D01*
X39201974Y-33150000D01*
X39111673Y-33240301D01*
X39015000Y-33473690D01*
X35507247Y-33473690D01*
X36694066Y-31697491D01*
X36762154Y-31533112D01*
X36803810Y-31323690D01*
X39065000Y-31323690D01*
X39065000Y-31814250D01*
X39223750Y-31973000D01*
X40323000Y-31973000D01*
X40323000Y-30973750D01*
X40577000Y-30973750D01*
X40577000Y-31973000D01*
X41676250Y-31973000D01*
X41835000Y-31814250D01*
X41835000Y-31323690D01*
X41738327Y-31090301D01*
X41559698Y-30911673D01*
X41326309Y-30815000D01*
X40735750Y-30815000D01*
X40577000Y-30973750D01*
X40323000Y-30973750D01*
X40164250Y-30815000D01*
X39573691Y-30815000D01*
X39340302Y-30911673D01*
X39161673Y-31090301D01*
X39065000Y-31323690D01*
X36803810Y-31323690D01*
X37447238Y-28088961D01*
X37657904Y-27029872D01*
X37921839Y-26634865D01*
X56818882Y-26634865D01*
X56922339Y-26885252D01*
X57113741Y-27076987D01*
X57363946Y-27180882D01*
X57465378Y-27180970D01*
X58994000Y-28709592D01*
X58994000Y-29961536D01*
X58750000Y-29961536D01*
X58608810Y-29988103D01*
X58479135Y-30071546D01*
X58392141Y-30198866D01*
X58361536Y-30350000D01*
X58361536Y-31650000D01*
X58388103Y-31791190D01*
X58471546Y-31920865D01*
X58598866Y-32007859D01*
X58750000Y-32038464D01*
X60195944Y-32038464D01*
X59772872Y-32461536D01*
X58600000Y-32461536D01*
X58458810Y-32488103D01*
X58329135Y-32571546D01*
X58242141Y-32698866D01*
X58211536Y-32850000D01*
X58211536Y-34150000D01*
X58238103Y-34291190D01*
X58321546Y-34420865D01*
X58448866Y-34507859D01*
X58600000Y-34538464D01*
X59772872Y-34538464D01*
X60069001Y-34834593D01*
X60069001Y-35215407D01*
X59965439Y-35318969D01*
X59865135Y-35318882D01*
X59614748Y-35422339D01*
X59423013Y-35613741D01*
X59319118Y-35863946D01*
X59318882Y-36134865D01*
X59422339Y-36385252D01*
X59613741Y-36576987D01*
X59863946Y-36680882D01*
X60134865Y-36681118D01*
X60385252Y-36577661D01*
X60576987Y-36386259D01*
X60680882Y-36136054D01*
X60680970Y-36034622D01*
X60932797Y-35782795D01*
X61042484Y-35618637D01*
X61081001Y-35424999D01*
X61081001Y-34625001D01*
X61042484Y-34431363D01*
X60932797Y-34267205D01*
X60488464Y-33822872D01*
X60488464Y-33177128D01*
X61357796Y-32307796D01*
X61467483Y-32143638D01*
X61506000Y-31950000D01*
X61506000Y-26612733D01*
X61576987Y-26541869D01*
X61680882Y-26291664D01*
X61681118Y-26020745D01*
X61577661Y-25770358D01*
X61386259Y-25578623D01*
X61136054Y-25474728D01*
X60865135Y-25474492D01*
X60614748Y-25577949D01*
X60423013Y-25769351D01*
X60319118Y-26019556D01*
X60318882Y-26290475D01*
X60422339Y-26540862D01*
X60494000Y-26612648D01*
X60494000Y-30055594D01*
X60401134Y-29992141D01*
X60250000Y-29961536D01*
X60006000Y-29961536D01*
X60006000Y-28500000D01*
X59967483Y-28306362D01*
X59857796Y-28142204D01*
X58181031Y-26465439D01*
X58181118Y-26365135D01*
X58077661Y-26114748D01*
X57886259Y-25923013D01*
X57636054Y-25819118D01*
X57365135Y-25818882D01*
X57114748Y-25922339D01*
X56923013Y-26113741D01*
X56819118Y-26363946D01*
X56818882Y-26634865D01*
X37921839Y-26634865D01*
X38207438Y-26207438D01*
X39029872Y-25657904D01*
X40044911Y-25456000D01*
X62581028Y-25456000D01*
X62423013Y-25613741D01*
X62423013Y-25613741D01*
G37*
X62423013Y-25613741D02*
X62319118Y-25863946D01*
X62318934Y-26074646D01*
X62294000Y-26200000D01*
X62294000Y-32461536D01*
X62050000Y-32461536D01*
X61908810Y-32488103D01*
X61779135Y-32571546D01*
X61692141Y-32698866D01*
X61661536Y-32850000D01*
X61661536Y-34150000D01*
X61688103Y-34291190D01*
X61771546Y-34420865D01*
X61898866Y-34507859D01*
X62050000Y-34538464D01*
X62294000Y-34538464D01*
X62294000Y-38300000D01*
X62332517Y-38493638D01*
X62442204Y-38657796D01*
X62606362Y-38767483D01*
X62800000Y-38806000D01*
X62875408Y-38791000D01*
X68402204Y-44317796D01*
X68566362Y-44427483D01*
X68760000Y-44466000D01*
X76861918Y-44466000D01*
X77105435Y-44830448D01*
X77504800Y-45097296D01*
X77975883Y-45191000D01*
X78024117Y-45191000D01*
X78495200Y-45097296D01*
X78894565Y-44830448D01*
X79161413Y-44431083D01*
X79255117Y-43960000D01*
X79161413Y-43488917D01*
X78894565Y-43089552D01*
X78495200Y-42822704D01*
X78024117Y-42729000D01*
X77975883Y-42729000D01*
X77504800Y-42822704D01*
X77105435Y-43089552D01*
X76861918Y-43454000D01*
X68969592Y-43454000D01*
X63306000Y-37790408D01*
X63306000Y-34538464D01*
X63550000Y-34538464D01*
X63691190Y-34511897D01*
X63820865Y-34428454D01*
X63907859Y-34301134D01*
X63938464Y-34150000D01*
X63938464Y-33785750D01*
X64115000Y-33785750D01*
X64115000Y-34276310D01*
X64211673Y-34509699D01*
X64390302Y-34688327D01*
X64623691Y-34785000D01*
X65214250Y-34785000D01*
X65373000Y-34626250D01*
X65373000Y-33627000D01*
X65627000Y-33627000D01*
X65627000Y-34626250D01*
X65785750Y-34785000D01*
X66376309Y-34785000D01*
X66609698Y-34688327D01*
X66788327Y-34509699D01*
X66885000Y-34276310D01*
X66885000Y-33785750D01*
X66726250Y-33627000D01*
X65627000Y-33627000D01*
X65373000Y-33627000D01*
X64273750Y-33627000D01*
X64115000Y-33785750D01*
X63938464Y-33785750D01*
X63938464Y-32850000D01*
X63914697Y-32723690D01*
X64115000Y-32723690D01*
X64115000Y-33214250D01*
X64273750Y-33373000D01*
X65373000Y-33373000D01*
X65373000Y-32373750D01*
X65627000Y-32373750D01*
X65627000Y-33373000D01*
X66726250Y-33373000D01*
X66885000Y-33214250D01*
X66885000Y-32723690D01*
X66788327Y-32490301D01*
X66609698Y-32311673D01*
X66376309Y-32215000D01*
X65785750Y-32215000D01*
X65627000Y-32373750D01*
X65373000Y-32373750D01*
X65214250Y-32215000D01*
X64623691Y-32215000D01*
X64390302Y-32311673D01*
X64211673Y-32490301D01*
X64115000Y-32723690D01*
X63914697Y-32723690D01*
X63911897Y-32708810D01*
X63828454Y-32579135D01*
X63701134Y-32492141D01*
X63550000Y-32461536D01*
X63306000Y-32461536D01*
X63306000Y-26610407D01*
X63385252Y-26577661D01*
X63576987Y-26386259D01*
X63680882Y-26136054D01*
X63681118Y-25865135D01*
X63577661Y-25614748D01*
X63419189Y-25456000D01*
X101955089Y-25456000D01*
X102970128Y-25657904D01*
X103792562Y-26207438D01*
X104342096Y-27029872D01*
X104552762Y-28088961D01*
X105237846Y-31533112D01*
X105305934Y-31697491D01*
X107256889Y-34617301D01*
X107382699Y-34743112D01*
X107382703Y-34743114D01*
X110302509Y-36694066D01*
X110466888Y-36762154D01*
X113911039Y-37447238D01*
X114970128Y-37657904D01*
X115792562Y-38207438D01*
X116342096Y-39029872D01*
X116544000Y-40044911D01*
X116544000Y-69955089D01*
X116342096Y-70970128D01*
X115792562Y-71792562D01*
X114970128Y-72342096D01*
X113911039Y-72552762D01*
X110466888Y-73237846D01*
X110302509Y-73305934D01*
X107382703Y-75256886D01*
X107382699Y-75256888D01*
X107256889Y-75382699D01*
X105305934Y-78302509D01*
X105237846Y-78466888D01*
X104552762Y-81911038D01*
X104552762Y-81911039D01*
X104342096Y-82970128D01*
X103792562Y-83792562D01*
X102970128Y-84342096D01*
X101955089Y-84544000D01*
X83711592Y-84544000D01*
X85089988Y-83165604D01*
X85540000Y-83255117D01*
X86011083Y-83161413D01*
X86410448Y-82894565D01*
X86677296Y-82495200D01*
X86771000Y-82024117D01*
X86771000Y-81975883D01*
X86677296Y-81504800D01*
X86410448Y-81105435D01*
X86011083Y-80838587D01*
X85540000Y-80744883D01*
X85068917Y-80838587D01*
X84669552Y-81105435D01*
X84402704Y-81504800D01*
X84309000Y-81975883D01*
X84309000Y-82024117D01*
X84390510Y-82433898D01*
X82830408Y-83994000D01*
X81721592Y-83994000D01*
X82549988Y-83165604D01*
X83000000Y-83255117D01*
X83471083Y-83161413D01*
X83870448Y-82894565D01*
X84137296Y-82495200D01*
X84231000Y-82024117D01*
X84231000Y-81975883D01*
X84137296Y-81504800D01*
X83870448Y-81105435D01*
X83471083Y-80838587D01*
X83000000Y-80744883D01*
X82528917Y-80838587D01*
X82129552Y-81105435D01*
X81862704Y-81504800D01*
X81769000Y-81975883D01*
X81769000Y-82024117D01*
X81850510Y-82433898D01*
X80790408Y-83494000D01*
X79681592Y-83494000D01*
X80009988Y-83165604D01*
X80460000Y-83255117D01*
X80931083Y-83161413D01*
X81330448Y-82894565D01*
X81597296Y-82495200D01*
X81691000Y-82024117D01*
X81691000Y-81975883D01*
X81597296Y-81504800D01*
X81330448Y-81105435D01*
X80931083Y-80838587D01*
X80460000Y-80744883D01*
X79988917Y-80838587D01*
X79589552Y-81105435D01*
X79405000Y-81381636D01*
X79405000Y-81023691D01*
X79308327Y-80790302D01*
X79129699Y-80611673D01*
X78896310Y-80515000D01*
X78550341Y-80515000D01*
X78790448Y-80354565D01*
X79057296Y-79955200D01*
X79151000Y-79484117D01*
X79151000Y-79435883D01*
X79229000Y-79435883D01*
X79229000Y-79484117D01*
X79322704Y-79955200D01*
X79589552Y-80354565D01*
X79988917Y-80621413D01*
X80460000Y-80715117D01*
X80931083Y-80621413D01*
X81330448Y-80354565D01*
X81597296Y-79955200D01*
X81691000Y-79484117D01*
X81691000Y-79435883D01*
X81769000Y-79435883D01*
X81769000Y-79484117D01*
X81862704Y-79955200D01*
X82129552Y-80354565D01*
X82528917Y-80621413D01*
X83000000Y-80715117D01*
X83471083Y-80621413D01*
X83870448Y-80354565D01*
X84137296Y-79955200D01*
X84231000Y-79484117D01*
X84231000Y-79435883D01*
X84309000Y-79435883D01*
X84309000Y-79484117D01*
X84402704Y-79955200D01*
X84669552Y-80354565D01*
X85068917Y-80621413D01*
X85540000Y-80715117D01*
X86011083Y-80621413D01*
X86410448Y-80354565D01*
X86677296Y-79955200D01*
X86771000Y-79484117D01*
X86771000Y-79435883D01*
X86677296Y-78964800D01*
X86410448Y-78565435D01*
X86011083Y-78298587D01*
X85540000Y-78204883D01*
X85068917Y-78298587D01*
X84669552Y-78565435D01*
X84402704Y-78964800D01*
X84309000Y-79435883D01*
X84231000Y-79435883D01*
X84137296Y-78964800D01*
X83870448Y-78565435D01*
X83471083Y-78298587D01*
X83000000Y-78204883D01*
X82528917Y-78298587D01*
X82129552Y-78565435D01*
X81862704Y-78964800D01*
X81769000Y-79435883D01*
X81691000Y-79435883D01*
X81597296Y-78964800D01*
X81330448Y-78565435D01*
X80931083Y-78298587D01*
X80460000Y-78204883D01*
X79988917Y-78298587D01*
X79589552Y-78565435D01*
X79322704Y-78964800D01*
X79229000Y-79435883D01*
X79151000Y-79435883D01*
X79057296Y-78964800D01*
X78790448Y-78565435D01*
X78453400Y-78340226D01*
X78453400Y-78033400D01*
X86779058Y-78033400D01*
X90202827Y-81457168D01*
X90202829Y-81457171D01*
X90345891Y-81552761D01*
X90375877Y-81572797D01*
X90580000Y-81613401D01*
X90580005Y-81613400D01*
X100420000Y-81613400D01*
X100624123Y-81572797D01*
X100797171Y-81457171D01*
X103598423Y-78655919D01*
X103975883Y-78731000D01*
X104024117Y-78731000D01*
X104495200Y-78637296D01*
X104894565Y-78370448D01*
X105161413Y-77971083D01*
X105255117Y-77500000D01*
X105161413Y-77028917D01*
X104894565Y-76629552D01*
X104495200Y-76362704D01*
X104024117Y-76269000D01*
X103975883Y-76269000D01*
X103504800Y-76362704D01*
X103105435Y-76629552D01*
X102838587Y-77028917D01*
X102744883Y-77500000D01*
X102827967Y-77917692D01*
X100199058Y-80546600D01*
X90800941Y-80546600D01*
X87626855Y-77372513D01*
X90618674Y-77372513D01*
X90904436Y-78064109D01*
X91433108Y-78593704D01*
X92124204Y-78880673D01*
X92872513Y-78881326D01*
X93564109Y-78595564D01*
X94093704Y-78066892D01*
X94380673Y-77375796D01*
X94381326Y-76627487D01*
X94095564Y-75935891D01*
X93566892Y-75406296D01*
X92875796Y-75119327D01*
X92127487Y-75118674D01*
X91435891Y-75404436D01*
X90906296Y-75933108D01*
X90619327Y-76624204D01*
X90618674Y-77372513D01*
X87626855Y-77372513D01*
X87377171Y-77122829D01*
X87204123Y-77007203D01*
X87000000Y-76966600D01*
X83097601Y-76966600D01*
X83135000Y-76876310D01*
X83135000Y-75785750D01*
X82976250Y-75627000D01*
X81627000Y-75627000D01*
X81627000Y-75647000D01*
X81373000Y-75647000D01*
X81373000Y-75627000D01*
X80023750Y-75627000D01*
X79865000Y-75785750D01*
X79865000Y-76876310D01*
X79902399Y-76966600D01*
X78813128Y-76966600D01*
X78857859Y-76901134D01*
X78888464Y-76750000D01*
X78888464Y-74615878D01*
X79380652Y-74123690D01*
X79865000Y-74123690D01*
X79865000Y-75214250D01*
X80023750Y-75373000D01*
X81373000Y-75373000D01*
X81373000Y-73773750D01*
X81627000Y-73773750D01*
X81627000Y-75373000D01*
X82976250Y-75373000D01*
X83135000Y-75214250D01*
X83135000Y-74960000D01*
X102744883Y-74960000D01*
X102838587Y-75431083D01*
X103105435Y-75830448D01*
X103504800Y-76097296D01*
X103975883Y-76191000D01*
X104024117Y-76191000D01*
X104495200Y-76097296D01*
X104894565Y-75830448D01*
X105161413Y-75431083D01*
X105255117Y-74960000D01*
X105161413Y-74488917D01*
X104894565Y-74089552D01*
X104495200Y-73822704D01*
X104024117Y-73729000D01*
X103975883Y-73729000D01*
X103504800Y-73822704D01*
X103105435Y-74089552D01*
X102838587Y-74488917D01*
X102744883Y-74960000D01*
X83135000Y-74960000D01*
X83135000Y-74123690D01*
X83038327Y-73890301D01*
X82859698Y-73711673D01*
X82626309Y-73615000D01*
X81785750Y-73615000D01*
X81627000Y-73773750D01*
X81373000Y-73773750D01*
X81214250Y-73615000D01*
X80373691Y-73615000D01*
X80140302Y-73711673D01*
X79961673Y-73890301D01*
X79865000Y-74123690D01*
X79380652Y-74123690D01*
X80735310Y-72769032D01*
X97924368Y-72769032D01*
X98128491Y-72728429D01*
X98301539Y-72612803D01*
X99344342Y-71570000D01*
X102761536Y-71570000D01*
X102761536Y-73270000D01*
X102788103Y-73411190D01*
X102871546Y-73540865D01*
X102998866Y-73627859D01*
X103150000Y-73658464D01*
X104850000Y-73658464D01*
X104991190Y-73631897D01*
X105120865Y-73548454D01*
X105207859Y-73421134D01*
X105238464Y-73270000D01*
X105238464Y-71570000D01*
X105211897Y-71428810D01*
X105128454Y-71299135D01*
X105001134Y-71212141D01*
X104850000Y-71181536D01*
X103150000Y-71181536D01*
X103008810Y-71208103D01*
X102879135Y-71291546D01*
X102792141Y-71418866D01*
X102761536Y-71570000D01*
X99344342Y-71570000D01*
X101017452Y-69896890D01*
X108058524Y-69896890D01*
X108228355Y-70306924D01*
X108618642Y-70735183D01*
X109143108Y-70981486D01*
X109373000Y-70860819D01*
X109373000Y-69667000D01*
X109627000Y-69667000D01*
X109627000Y-70860819D01*
X109856892Y-70981486D01*
X110381358Y-70735183D01*
X110771645Y-70306924D01*
X110941476Y-69896890D01*
X110920367Y-69856890D01*
X112058524Y-69856890D01*
X112228355Y-70266924D01*
X112618642Y-70695183D01*
X113143108Y-70941486D01*
X113373000Y-70820819D01*
X113373000Y-69627000D01*
X113627000Y-69627000D01*
X113627000Y-70820819D01*
X113856892Y-70941486D01*
X114381358Y-70695183D01*
X114771645Y-70266924D01*
X114941476Y-69856890D01*
X114820155Y-69627000D01*
X113627000Y-69627000D01*
X113373000Y-69627000D01*
X112179845Y-69627000D01*
X112058524Y-69856890D01*
X110920367Y-69856890D01*
X110820155Y-69667000D01*
X109627000Y-69667000D01*
X109373000Y-69667000D01*
X108179845Y-69667000D01*
X108058524Y-69896890D01*
X101017452Y-69896890D01*
X101558423Y-69355919D01*
X101935883Y-69431000D01*
X101984117Y-69431000D01*
X102455200Y-69337296D01*
X102854565Y-69070448D01*
X103121413Y-68671083D01*
X103215117Y-68200000D01*
X103132033Y-67782309D01*
X103261536Y-67652806D01*
X103261536Y-69050000D01*
X103288103Y-69191190D01*
X103371546Y-69320865D01*
X103498866Y-69407859D01*
X103650000Y-69438464D01*
X105350000Y-69438464D01*
X105491190Y-69411897D01*
X105620865Y-69328454D01*
X105707859Y-69201134D01*
X105711508Y-69183110D01*
X108058524Y-69183110D01*
X108179845Y-69413000D01*
X109373000Y-69413000D01*
X109373000Y-69393000D01*
X109627000Y-69393000D01*
X109627000Y-69413000D01*
X110820155Y-69413000D01*
X110941476Y-69183110D01*
X110924909Y-69143110D01*
X112058524Y-69143110D01*
X112179845Y-69373000D01*
X113373000Y-69373000D01*
X113373000Y-69353000D01*
X113627000Y-69353000D01*
X113627000Y-69373000D01*
X114820155Y-69373000D01*
X114941476Y-69143110D01*
X114771645Y-68733076D01*
X114381358Y-68304817D01*
X113956053Y-68105083D01*
X113995200Y-68097296D01*
X114394565Y-67830448D01*
X114661413Y-67431083D01*
X114755117Y-66960000D01*
X114661413Y-66488917D01*
X114394565Y-66089552D01*
X113995200Y-65822704D01*
X113524117Y-65729000D01*
X113475883Y-65729000D01*
X113004800Y-65822704D01*
X112605435Y-66089552D01*
X112338587Y-66488917D01*
X112244883Y-66960000D01*
X112338587Y-67431083D01*
X112605435Y-67830448D01*
X113004800Y-68097296D01*
X113043947Y-68105083D01*
X112618642Y-68304817D01*
X112228355Y-68733076D01*
X112058524Y-69143110D01*
X110924909Y-69143110D01*
X110771645Y-68773076D01*
X110381358Y-68344817D01*
X109956053Y-68145083D01*
X109995200Y-68137296D01*
X110394565Y-67870448D01*
X110661413Y-67471083D01*
X110755117Y-67000000D01*
X110665604Y-66549988D01*
X112289592Y-64926000D01*
X112361918Y-64926000D01*
X112605435Y-65290448D01*
X113004800Y-65557296D01*
X113475883Y-65651000D01*
X113524117Y-65651000D01*
X113995200Y-65557296D01*
X114394565Y-65290448D01*
X114661413Y-64891083D01*
X114755117Y-64420000D01*
X114661413Y-63948917D01*
X114394565Y-63549552D01*
X113995200Y-63282704D01*
X113524117Y-63189000D01*
X113475883Y-63189000D01*
X113004800Y-63282704D01*
X112605435Y-63549552D01*
X112361918Y-63914000D01*
X112080000Y-63914000D01*
X111886362Y-63952517D01*
X111722204Y-64062204D01*
X109933898Y-65850510D01*
X109524117Y-65769000D01*
X109475883Y-65769000D01*
X109004800Y-65862704D01*
X108605435Y-66129552D01*
X108338587Y-66528917D01*
X108244883Y-67000000D01*
X108338587Y-67471083D01*
X108605435Y-67870448D01*
X109004800Y-68137296D01*
X109043947Y-68145083D01*
X108618642Y-68344817D01*
X108228355Y-68773076D01*
X108058524Y-69183110D01*
X105711508Y-69183110D01*
X105738464Y-69050000D01*
X105738464Y-67350000D01*
X105711897Y-67208810D01*
X105628454Y-67079135D01*
X105501134Y-66992141D01*
X105350000Y-66961536D01*
X103952806Y-66961536D01*
X104098423Y-66815919D01*
X104475883Y-66891000D01*
X104524117Y-66891000D01*
X104995200Y-66797296D01*
X105394565Y-66530448D01*
X105661413Y-66131083D01*
X105755117Y-65660000D01*
X105661413Y-65188917D01*
X105394565Y-64789552D01*
X104995200Y-64522704D01*
X104679965Y-64460000D01*
X108244883Y-64460000D01*
X108338587Y-64931083D01*
X108605435Y-65330448D01*
X109004800Y-65597296D01*
X109475883Y-65691000D01*
X109524117Y-65691000D01*
X109995200Y-65597296D01*
X110394565Y-65330448D01*
X110661413Y-64931083D01*
X110755117Y-64460000D01*
X110661413Y-63988917D01*
X110394565Y-63589552D01*
X109995200Y-63322704D01*
X109524117Y-63229000D01*
X109475883Y-63229000D01*
X109004800Y-63322704D01*
X108605435Y-63589552D01*
X108338587Y-63988917D01*
X108244883Y-64460000D01*
X104679965Y-64460000D01*
X104524117Y-64429000D01*
X104475883Y-64429000D01*
X104004800Y-64522704D01*
X103605435Y-64789552D01*
X103348212Y-65174512D01*
X103231645Y-64893076D01*
X103036570Y-64679022D01*
X103677195Y-64038397D01*
X104004800Y-64257296D01*
X104475883Y-64351000D01*
X104524117Y-64351000D01*
X104995200Y-64257296D01*
X105394565Y-63990448D01*
X105661413Y-63591083D01*
X105755117Y-63120000D01*
X105661413Y-62648917D01*
X105394565Y-62249552D01*
X104995200Y-61982704D01*
X104524117Y-61889000D01*
X104475883Y-61889000D01*
X104004800Y-61982704D01*
X103830999Y-62098834D01*
X103830999Y-61964593D01*
X104066102Y-61729490D01*
X104475883Y-61811000D01*
X104524117Y-61811000D01*
X104995200Y-61717296D01*
X105394565Y-61450448D01*
X105648773Y-61070000D01*
X108261536Y-61070000D01*
X108261536Y-62770000D01*
X108288103Y-62911190D01*
X108371546Y-63040865D01*
X108498866Y-63127859D01*
X108650000Y-63158464D01*
X110350000Y-63158464D01*
X110491190Y-63131897D01*
X110620865Y-63048454D01*
X110707859Y-62921134D01*
X110738464Y-62770000D01*
X110738464Y-62386000D01*
X112261536Y-62386000D01*
X112261536Y-62730000D01*
X112288103Y-62871190D01*
X112371546Y-63000865D01*
X112498866Y-63087859D01*
X112650000Y-63118464D01*
X114350000Y-63118464D01*
X114491190Y-63091897D01*
X114620865Y-63008454D01*
X114707859Y-62881134D01*
X114738464Y-62730000D01*
X114738464Y-61030000D01*
X114711897Y-60888810D01*
X114628454Y-60759135D01*
X114501134Y-60672141D01*
X114350000Y-60641536D01*
X112650000Y-60641536D01*
X112508810Y-60668103D01*
X112379135Y-60751546D01*
X112292141Y-60878866D01*
X112261536Y-61030000D01*
X112261536Y-61374000D01*
X110738464Y-61374000D01*
X110738464Y-61070000D01*
X110711897Y-60928810D01*
X110628454Y-60799135D01*
X110501134Y-60712141D01*
X110350000Y-60681536D01*
X108650000Y-60681536D01*
X108508810Y-60708103D01*
X108379135Y-60791546D01*
X108292141Y-60918866D01*
X108261536Y-61070000D01*
X105648773Y-61070000D01*
X105661413Y-61051083D01*
X105755117Y-60580000D01*
X105661413Y-60108917D01*
X105394565Y-59709552D01*
X104995200Y-59442704D01*
X104524117Y-59349000D01*
X104475883Y-59349000D01*
X104004800Y-59442704D01*
X103641001Y-59685787D01*
X103641001Y-59614591D01*
X104066102Y-59189490D01*
X104475883Y-59271000D01*
X104524117Y-59271000D01*
X104995200Y-59177296D01*
X105394565Y-58910448D01*
X105661413Y-58511083D01*
X105755117Y-58040000D01*
X105661413Y-57568917D01*
X105394565Y-57169552D01*
X104995200Y-56902704D01*
X104524117Y-56809000D01*
X104475883Y-56809000D01*
X104004800Y-56902704D01*
X103641001Y-57145787D01*
X103641001Y-56394213D01*
X104004800Y-56637296D01*
X104475883Y-56731000D01*
X104524117Y-56731000D01*
X104995200Y-56637296D01*
X105394565Y-56370448D01*
X105661413Y-55971083D01*
X105755117Y-55500000D01*
X105729759Y-55372513D01*
X108618674Y-55372513D01*
X108904436Y-56064109D01*
X109433108Y-56593704D01*
X110124204Y-56880673D01*
X110872513Y-56881326D01*
X111564109Y-56595564D01*
X112093704Y-56066892D01*
X112380673Y-55375796D01*
X112381326Y-54627487D01*
X112095564Y-53935891D01*
X111566892Y-53406296D01*
X110875796Y-53119327D01*
X110127487Y-53118674D01*
X109435891Y-53404436D01*
X108906296Y-53933108D01*
X108619327Y-54624204D01*
X108618674Y-55372513D01*
X105729759Y-55372513D01*
X105661413Y-55028917D01*
X105394565Y-54629552D01*
X104995200Y-54362704D01*
X104524117Y-54269000D01*
X104475883Y-54269000D01*
X104004800Y-54362704D01*
X103641001Y-54605787D01*
X103641001Y-53854213D01*
X104004800Y-54097296D01*
X104475883Y-54191000D01*
X104524117Y-54191000D01*
X104995200Y-54097296D01*
X105394565Y-53830448D01*
X105661413Y-53431083D01*
X105754999Y-52960593D01*
X108534561Y-50181031D01*
X108634865Y-50181118D01*
X108885252Y-50077661D01*
X109076987Y-49886259D01*
X109180882Y-49636054D01*
X109181118Y-49365135D01*
X109077661Y-49114748D01*
X108886259Y-48923013D01*
X108636054Y-48819118D01*
X108365135Y-48818882D01*
X108114748Y-48922339D01*
X107923013Y-49113741D01*
X107819118Y-49363946D01*
X107819030Y-49465378D01*
X105274848Y-52009560D01*
X104995200Y-51822704D01*
X104524117Y-51729000D01*
X104475883Y-51729000D01*
X104004800Y-51822704D01*
X103641001Y-52065787D01*
X103641001Y-51994591D01*
X104066102Y-51569490D01*
X104475883Y-51651000D01*
X104524117Y-51651000D01*
X104995200Y-51557296D01*
X105394565Y-51290448D01*
X105661413Y-50891083D01*
X105755117Y-50420000D01*
X105661413Y-49948917D01*
X105394565Y-49549552D01*
X104995200Y-49282704D01*
X104524117Y-49189000D01*
X104475883Y-49189000D01*
X104004800Y-49282704D01*
X103605435Y-49549552D01*
X103338587Y-49948917D01*
X103244883Y-50420000D01*
X103334396Y-50870012D01*
X102777205Y-51427203D01*
X102667518Y-51591361D01*
X102629001Y-51784999D01*
X102629001Y-51938834D01*
X102455200Y-51822704D01*
X101984117Y-51729000D01*
X101935883Y-51729000D01*
X101464800Y-51822704D01*
X101065435Y-52089552D01*
X100798587Y-52488917D01*
X100704883Y-52960000D01*
X100798587Y-53431083D01*
X101065435Y-53830448D01*
X101464800Y-54097296D01*
X101935883Y-54191000D01*
X101984117Y-54191000D01*
X102455200Y-54097296D01*
X102629001Y-53981166D01*
X102629001Y-54478834D01*
X102455200Y-54362704D01*
X101984117Y-54269000D01*
X101935883Y-54269000D01*
X101464800Y-54362704D01*
X101065435Y-54629552D01*
X100798587Y-55028917D01*
X100704883Y-55500000D01*
X100798587Y-55971083D01*
X101065435Y-56370448D01*
X101464800Y-56637296D01*
X101935883Y-56731000D01*
X101984117Y-56731000D01*
X102455200Y-56637296D01*
X102629001Y-56521166D01*
X102629001Y-57018834D01*
X102455200Y-56902704D01*
X101984117Y-56809000D01*
X101935883Y-56809000D01*
X101464800Y-56902704D01*
X101065435Y-57169552D01*
X100798587Y-57568917D01*
X100704883Y-58040000D01*
X100798587Y-58511083D01*
X101065435Y-58910448D01*
X101131089Y-58954317D01*
X90426396Y-69659010D01*
X75957123Y-69659010D01*
X75886259Y-69588023D01*
X75636054Y-69484128D01*
X75365135Y-69483892D01*
X75114748Y-69587349D01*
X74923013Y-69778751D01*
X74819118Y-70028956D01*
X74818882Y-70299875D01*
X74839179Y-70348999D01*
X73742777Y-70348999D01*
X73825345Y-70266575D01*
X74020777Y-69795924D01*
X74021222Y-69286311D01*
X73963247Y-69146001D01*
X83739999Y-69146001D01*
X83933637Y-69107484D01*
X84097795Y-68997797D01*
X101526102Y-51569490D01*
X101935883Y-51651000D01*
X101984117Y-51651000D01*
X102455200Y-51557296D01*
X102854565Y-51290448D01*
X103121413Y-50891083D01*
X103215117Y-50420000D01*
X103121413Y-49948917D01*
X102862215Y-49561001D01*
X103324999Y-49561001D01*
X103518637Y-49522484D01*
X103682795Y-49412797D01*
X104066102Y-49029490D01*
X104475883Y-49111000D01*
X104524117Y-49111000D01*
X104995200Y-49017296D01*
X105394565Y-48750448D01*
X105661413Y-48351083D01*
X105755117Y-47880000D01*
X105661413Y-47408917D01*
X105394565Y-47009552D01*
X104995200Y-46742704D01*
X104524117Y-46649000D01*
X104475883Y-46649000D01*
X104004800Y-46742704D01*
X103605435Y-47009552D01*
X103338587Y-47408917D01*
X103244883Y-47880000D01*
X103334396Y-48330012D01*
X103115407Y-48549001D01*
X102989168Y-48549001D01*
X103121413Y-48351083D01*
X103215117Y-47880000D01*
X103121413Y-47408917D01*
X102854565Y-47009552D01*
X102788911Y-46965683D01*
X103492797Y-46261797D01*
X103566271Y-46151835D01*
X103605435Y-46210448D01*
X104004800Y-46477296D01*
X104475883Y-46571000D01*
X104524117Y-46571000D01*
X104995200Y-46477296D01*
X105394565Y-46210448D01*
X105661413Y-45811083D01*
X105755117Y-45340000D01*
X105661413Y-44868917D01*
X105394565Y-44469552D01*
X104995200Y-44202704D01*
X104524117Y-44109000D01*
X104475883Y-44109000D01*
X104004800Y-44202704D01*
X103641001Y-44445787D01*
X103641001Y-44374591D01*
X104066102Y-43949490D01*
X104475883Y-44031000D01*
X104524117Y-44031000D01*
X104995200Y-43937296D01*
X105394565Y-43670448D01*
X105661413Y-43271083D01*
X105755117Y-42800000D01*
X105661413Y-42328917D01*
X105394565Y-41929552D01*
X104995200Y-41662704D01*
X104524117Y-41569000D01*
X104475883Y-41569000D01*
X104066102Y-41650510D01*
X103682795Y-41267203D01*
X103518637Y-41157516D01*
X103324999Y-41118999D01*
X99375001Y-41118999D01*
X99181363Y-41157516D01*
X99017205Y-41267203D01*
X92915410Y-47368998D01*
X92699998Y-47368998D01*
X92506360Y-47407515D01*
X92506000Y-47407756D01*
X92506000Y-40500000D01*
X92467483Y-40306362D01*
X92357796Y-40142204D01*
X88535997Y-36320405D01*
X88371839Y-36210718D01*
X88178201Y-36172201D01*
X87793409Y-36172201D01*
X87941486Y-35856892D01*
X87820819Y-35627000D01*
X86627000Y-35627000D01*
X86627000Y-35647000D01*
X86373000Y-35647000D01*
X86373000Y-35627000D01*
X86353000Y-35627000D01*
X86353000Y-35373000D01*
X86373000Y-35373000D01*
X86373000Y-34179845D01*
X86627000Y-34179845D01*
X86627000Y-35373000D01*
X87820819Y-35373000D01*
X87941486Y-35143108D01*
X87695183Y-34618642D01*
X87266924Y-34228355D01*
X86856890Y-34058524D01*
X86627000Y-34179845D01*
X86373000Y-34179845D01*
X86143110Y-34058524D01*
X85733076Y-34228355D01*
X85304817Y-34618642D01*
X85198464Y-34845105D01*
X85198464Y-34650000D01*
X85171897Y-34508810D01*
X85088454Y-34379135D01*
X84961134Y-34292141D01*
X84810000Y-34261536D01*
X83110000Y-34261536D01*
X82968810Y-34288103D01*
X82839135Y-34371546D01*
X82752141Y-34498866D01*
X82721536Y-34650000D01*
X82721536Y-35830946D01*
X81805999Y-34915409D01*
X81805999Y-33799999D01*
X81767482Y-33606361D01*
X81681021Y-33476963D01*
X81681111Y-33372513D01*
X90618674Y-33372513D01*
X90904436Y-34064109D01*
X91433108Y-34593704D01*
X92124204Y-34880673D01*
X92872513Y-34881326D01*
X93564109Y-34595564D01*
X94093704Y-34066892D01*
X94380673Y-33375796D01*
X94381326Y-32627487D01*
X94095564Y-31935891D01*
X93566892Y-31406296D01*
X92875796Y-31119327D01*
X92127487Y-31118674D01*
X91435891Y-31404436D01*
X90906296Y-31933108D01*
X90619327Y-32624204D01*
X90618674Y-33372513D01*
X81681111Y-33372513D01*
X81681118Y-33365135D01*
X81577661Y-33114748D01*
X81386259Y-32923013D01*
X81136054Y-32819118D01*
X80865135Y-32818882D01*
X80614748Y-32922339D01*
X80423013Y-33113741D01*
X80319118Y-33363946D01*
X80318882Y-33634865D01*
X80422339Y-33885252D01*
X80613741Y-34076987D01*
X80793999Y-34151837D01*
X80793999Y-34384703D01*
X80636054Y-34319118D01*
X80365135Y-34318882D01*
X80265398Y-34360092D01*
X80273167Y-34341382D01*
X80273403Y-34070463D01*
X80169946Y-33820076D01*
X79978544Y-33628341D01*
X79728339Y-33524446D01*
X79457420Y-33524210D01*
X79207033Y-33627667D01*
X79015298Y-33819069D01*
X78911403Y-34069274D01*
X78911305Y-34182230D01*
X78824803Y-34311689D01*
X78786286Y-34505327D01*
X78786286Y-40477202D01*
X78495200Y-40282704D01*
X78024117Y-40189000D01*
X77975883Y-40189000D01*
X77504800Y-40282704D01*
X77105435Y-40549552D01*
X76838587Y-40948917D01*
X76744883Y-41420000D01*
X76838587Y-41891083D01*
X77105435Y-42290448D01*
X77504800Y-42557296D01*
X77975883Y-42651000D01*
X78024117Y-42651000D01*
X78495200Y-42557296D01*
X78894565Y-42290448D01*
X79161413Y-41891083D01*
X79170385Y-41845977D01*
X80834396Y-43509988D01*
X80744883Y-43960000D01*
X80838587Y-44431083D01*
X81105435Y-44830448D01*
X81504800Y-45097296D01*
X81975883Y-45191000D01*
X82024117Y-45191000D01*
X82495200Y-45097296D01*
X82894565Y-44830448D01*
X83161413Y-44431083D01*
X83255117Y-43960000D01*
X83161413Y-43488917D01*
X82894565Y-43089552D01*
X82495200Y-42822704D01*
X82024117Y-42729000D01*
X81975883Y-42729000D01*
X81566102Y-42810510D01*
X79798286Y-41042694D01*
X79798286Y-34857053D01*
X79826887Y-34845236D01*
X79819118Y-34863946D01*
X79818882Y-35134865D01*
X79922339Y-35385252D01*
X80113741Y-35576987D01*
X80363946Y-35680882D01*
X80465378Y-35680970D01*
X82669001Y-37884593D01*
X82669001Y-40398834D01*
X82495200Y-40282704D01*
X82024117Y-40189000D01*
X81975883Y-40189000D01*
X81504800Y-40282704D01*
X81105435Y-40549552D01*
X80838587Y-40948917D01*
X80744883Y-41420000D01*
X80838587Y-41891083D01*
X81105435Y-42290448D01*
X81504800Y-42557296D01*
X81975883Y-42651000D01*
X82024117Y-42651000D01*
X82495200Y-42557296D01*
X82894565Y-42290448D01*
X83161413Y-41891083D01*
X83170385Y-41845977D01*
X84834396Y-43509988D01*
X84744883Y-43960000D01*
X84838587Y-44431083D01*
X85105435Y-44830448D01*
X85504800Y-45097296D01*
X85975883Y-45191000D01*
X86024117Y-45191000D01*
X86495200Y-45097296D01*
X86894565Y-44830448D01*
X87161413Y-44431083D01*
X87255117Y-43960000D01*
X87161413Y-43488917D01*
X86894565Y-43089552D01*
X86495200Y-42822704D01*
X86024117Y-42729000D01*
X85975883Y-42729000D01*
X85566102Y-42810510D01*
X83681001Y-40925409D01*
X83681001Y-38221595D01*
X85702738Y-40243332D01*
X85504800Y-40282704D01*
X85105435Y-40549552D01*
X84838587Y-40948917D01*
X84744883Y-41420000D01*
X84838587Y-41891083D01*
X85105435Y-42290448D01*
X85504800Y-42557296D01*
X85975883Y-42651000D01*
X86024117Y-42651000D01*
X86495200Y-42557296D01*
X86894565Y-42290448D01*
X87161413Y-41891083D01*
X87216674Y-41613264D01*
X88644001Y-43040591D01*
X88644001Y-43110001D01*
X88682518Y-43303639D01*
X88792205Y-43467797D01*
X88834396Y-43509988D01*
X88744883Y-43960000D01*
X88838587Y-44431083D01*
X89105435Y-44830448D01*
X89504800Y-45097296D01*
X89975883Y-45191000D01*
X90024117Y-45191000D01*
X90495200Y-45097296D01*
X90894565Y-44830448D01*
X91161413Y-44431083D01*
X91255117Y-43960000D01*
X91161413Y-43488917D01*
X90894565Y-43089552D01*
X90495200Y-42822704D01*
X90024117Y-42729000D01*
X89975883Y-42729000D01*
X89648659Y-42794089D01*
X89617484Y-42637361D01*
X89573058Y-42570873D01*
X89975883Y-42651000D01*
X90024117Y-42651000D01*
X90495200Y-42557296D01*
X90894565Y-42290448D01*
X91161413Y-41891083D01*
X91255117Y-41420000D01*
X91161413Y-40948917D01*
X90894565Y-40549552D01*
X90495200Y-40282704D01*
X90024117Y-40189000D01*
X89975883Y-40189000D01*
X89566102Y-40270510D01*
X87437796Y-38142204D01*
X87273638Y-38032517D01*
X87080000Y-37994000D01*
X86957123Y-37994000D01*
X86886259Y-37923013D01*
X86636054Y-37819118D01*
X86365135Y-37818882D01*
X86114748Y-37922339D01*
X85923013Y-38113741D01*
X85819118Y-38363946D01*
X85818882Y-38634865D01*
X85922339Y-38885252D01*
X86113741Y-39076987D01*
X86363946Y-39180882D01*
X86634865Y-39181118D01*
X86885252Y-39077661D01*
X86913685Y-39049277D01*
X88834396Y-40969988D01*
X88744883Y-41420000D01*
X88816962Y-41782368D01*
X86921797Y-39887203D01*
X86757639Y-39777516D01*
X86645875Y-39755285D01*
X84074791Y-37184201D01*
X87968609Y-37184201D01*
X91494000Y-40709592D01*
X91494000Y-47423309D01*
X91392192Y-47525117D01*
X91282505Y-47689275D01*
X91252143Y-47841913D01*
X91173001Y-47920918D01*
X91069106Y-48171123D01*
X91068977Y-48319001D01*
X87796591Y-48319001D01*
X88762178Y-47353414D01*
X88788103Y-47491190D01*
X88871546Y-47620865D01*
X88998866Y-47707859D01*
X89150000Y-47738464D01*
X90850000Y-47738464D01*
X90991190Y-47711897D01*
X91120865Y-47628454D01*
X91207859Y-47501134D01*
X91238464Y-47350000D01*
X91238464Y-45650000D01*
X91211897Y-45508810D01*
X91128454Y-45379135D01*
X91001134Y-45292141D01*
X90850000Y-45261536D01*
X89150000Y-45261536D01*
X89008810Y-45288103D01*
X88879135Y-45371546D01*
X88792141Y-45498866D01*
X88761536Y-45650000D01*
X88761536Y-46021542D01*
X88706362Y-46032517D01*
X88542204Y-46142204D01*
X87214102Y-47470306D01*
X87238464Y-47350000D01*
X87238464Y-45650000D01*
X87211897Y-45508810D01*
X87128454Y-45379135D01*
X87001134Y-45292141D01*
X86850000Y-45261536D01*
X85150000Y-45261536D01*
X85008810Y-45288103D01*
X84879135Y-45371546D01*
X84792141Y-45498866D01*
X84761536Y-45650000D01*
X84761536Y-47350000D01*
X84788103Y-47491190D01*
X84871546Y-47620865D01*
X84998866Y-47707859D01*
X85150000Y-47738464D01*
X86097462Y-47738464D01*
X85976963Y-47818979D01*
X85865135Y-47818882D01*
X85614748Y-47922339D01*
X85423013Y-48113741D01*
X85337781Y-48319001D01*
X68604915Y-48319001D01*
X68680882Y-48136054D01*
X68681118Y-47865135D01*
X68577661Y-47614748D01*
X68506000Y-47542962D01*
X68506000Y-46957123D01*
X68576987Y-46886259D01*
X68680882Y-46636054D01*
X68681118Y-46365135D01*
X68577661Y-46114748D01*
X68386259Y-45923013D01*
X68136054Y-45819118D01*
X67865135Y-45818882D01*
X67614748Y-45922339D01*
X67423013Y-46113741D01*
X67319118Y-46363946D01*
X67318882Y-46634865D01*
X67422339Y-46885252D01*
X67494000Y-46957038D01*
X67494000Y-47542877D01*
X67423013Y-47613741D01*
X67319118Y-47863946D01*
X67318882Y-48134865D01*
X67394965Y-48319001D01*
X65320980Y-48319001D01*
X65381000Y-48017260D01*
X65381000Y-47982740D01*
X65313938Y-47645596D01*
X65122961Y-47359779D01*
X64837144Y-47168802D01*
X64500000Y-47101740D01*
X64162856Y-47168802D01*
X63877039Y-47359779D01*
X63865000Y-47377797D01*
X63852961Y-47359779D01*
X63567144Y-47168802D01*
X63230000Y-47101740D01*
X62892856Y-47168802D01*
X62607039Y-47359779D01*
X62595000Y-47377797D01*
X62582961Y-47359779D01*
X62297144Y-47168802D01*
X61960000Y-47101740D01*
X61622856Y-47168802D01*
X61337039Y-47359779D01*
X61325000Y-47377797D01*
X61312961Y-47359779D01*
X61027144Y-47168802D01*
X60690000Y-47101740D01*
X60352856Y-47168802D01*
X60067039Y-47359779D01*
X60055000Y-47377797D01*
X60042961Y-47359779D01*
X59757144Y-47168802D01*
X59420000Y-47101740D01*
X59082856Y-47168802D01*
X58797039Y-47359779D01*
X58785000Y-47377797D01*
X58772961Y-47359779D01*
X58487144Y-47168802D01*
X58150000Y-47101740D01*
X57812856Y-47168802D01*
X57704497Y-47241205D01*
X57440209Y-47012873D01*
X57181874Y-46905881D01*
X57007000Y-47032046D01*
X57007000Y-47873000D01*
X57027000Y-47873000D01*
X57027000Y-48127000D01*
X57007000Y-48127000D01*
X57007000Y-48967954D01*
X57181874Y-49094119D01*
X57440209Y-48987127D01*
X57704497Y-48758795D01*
X57812856Y-48831198D01*
X58150000Y-48898260D01*
X58194397Y-48889429D01*
X58114748Y-48922339D01*
X57923013Y-49113741D01*
X57819118Y-49363946D01*
X57818882Y-49634865D01*
X57922339Y-49885252D01*
X57975795Y-49938801D01*
X57933343Y-49967167D01*
X57588974Y-50311536D01*
X57488670Y-50311449D01*
X57238283Y-50414906D01*
X57046548Y-50606308D01*
X56942653Y-50856513D01*
X56942417Y-51127432D01*
X57045874Y-51377819D01*
X57237276Y-51569554D01*
X57487481Y-51673449D01*
X57758400Y-51673685D01*
X58008787Y-51570228D01*
X58200522Y-51378826D01*
X58304417Y-51128621D01*
X58304505Y-51027189D01*
X58500731Y-50830963D01*
X70289416Y-50830963D01*
X70212771Y-51015544D01*
X70212535Y-51286463D01*
X70315992Y-51536850D01*
X70414123Y-51635151D01*
X70319118Y-51863946D01*
X70319030Y-51965378D01*
X69642204Y-52642204D01*
X69532517Y-52806362D01*
X69494000Y-53000000D01*
X69494000Y-60500000D01*
X69532517Y-60693638D01*
X69642204Y-60857796D01*
X71062204Y-62277796D01*
X71226362Y-62387483D01*
X71420000Y-62426000D01*
X71563031Y-62426000D01*
X71653388Y-62644680D01*
X71862979Y-62854636D01*
X71829205Y-62877203D01*
X70293446Y-64412962D01*
X70100364Y-64332787D01*
X70543680Y-64149612D01*
X70904345Y-63789575D01*
X71099777Y-63318924D01*
X71100222Y-62809311D01*
X70905612Y-62338320D01*
X70545575Y-61977655D01*
X70074924Y-61782223D01*
X69565311Y-61781778D01*
X69344576Y-61872984D01*
X60506000Y-53034408D01*
X60506000Y-52957123D01*
X60576987Y-52886259D01*
X60680882Y-52636054D01*
X60681118Y-52365135D01*
X60577661Y-52114748D01*
X60386259Y-51923013D01*
X60136054Y-51819118D01*
X59865135Y-51818882D01*
X59614748Y-51922339D01*
X59423013Y-52113741D01*
X59319118Y-52363946D01*
X59318882Y-52634865D01*
X59422339Y-52885252D01*
X59494000Y-52957038D01*
X59494000Y-53244000D01*
X59532517Y-53437638D01*
X59642204Y-53601796D01*
X68628962Y-62588554D01*
X68538223Y-62807076D01*
X68537778Y-63316689D01*
X68628984Y-63537424D01*
X68463971Y-63702437D01*
X68417680Y-63590404D01*
X68182097Y-63354409D01*
X67874135Y-63226532D01*
X67622743Y-63226313D01*
X62114861Y-57718430D01*
X61941813Y-57602804D01*
X61737690Y-57562201D01*
X58587161Y-57562201D01*
X58780777Y-57095924D01*
X58781222Y-56586311D01*
X58586612Y-56115320D01*
X58226575Y-55754655D01*
X57781364Y-55569787D01*
X58224680Y-55386612D01*
X58585345Y-55026575D01*
X58780777Y-54555924D01*
X58781222Y-54046311D01*
X58586612Y-53575320D01*
X58226575Y-53214655D01*
X57755924Y-53019223D01*
X57246311Y-53018778D01*
X56775320Y-53213388D01*
X56414655Y-53573425D01*
X56219223Y-54044076D01*
X56218778Y-54553689D01*
X56413388Y-55024680D01*
X56773425Y-55385345D01*
X57218636Y-55570213D01*
X56775320Y-55753388D01*
X56414655Y-56113425D01*
X56219223Y-56584076D01*
X56218778Y-57093689D01*
X56412364Y-57562201D01*
X51881000Y-57562201D01*
X51881000Y-53150000D01*
X51854944Y-53011523D01*
X51773104Y-52884340D01*
X51648230Y-52799017D01*
X51500000Y-52769000D01*
X46731000Y-52769000D01*
X46731000Y-48463464D01*
X47952872Y-48463464D01*
X48661536Y-49172128D01*
X48661536Y-50550000D01*
X48688103Y-50691190D01*
X48771546Y-50820865D01*
X48898866Y-50907859D01*
X49050000Y-50938464D01*
X50350000Y-50938464D01*
X50491190Y-50911897D01*
X50620865Y-50828454D01*
X50649480Y-50786574D01*
X50671546Y-50820865D01*
X50798866Y-50907859D01*
X50950000Y-50938464D01*
X52250000Y-50938464D01*
X52391190Y-50911897D01*
X52520865Y-50828454D01*
X52607859Y-50701134D01*
X52638464Y-50550000D01*
X52638464Y-49050000D01*
X52611897Y-48908810D01*
X52528454Y-48779135D01*
X52401134Y-48692141D01*
X52250000Y-48661536D01*
X50950000Y-48661536D01*
X50808810Y-48688103D01*
X50679135Y-48771546D01*
X50650520Y-48813426D01*
X50628454Y-48779135D01*
X50501134Y-48692141D01*
X50350000Y-48661536D01*
X49582128Y-48661536D01*
X49405592Y-48485000D01*
X49414250Y-48485000D01*
X49573000Y-48326250D01*
X49573000Y-47227000D01*
X49553000Y-47227000D01*
X49553000Y-46973000D01*
X49573000Y-46973000D01*
X49573000Y-45873750D01*
X49414250Y-45715000D01*
X48923690Y-45715000D01*
X48690301Y-45811673D01*
X48668464Y-45833510D01*
X48668464Y-45525000D01*
X48641897Y-45383810D01*
X48558454Y-45254135D01*
X48431134Y-45167141D01*
X48280000Y-45136536D01*
X48006000Y-45136536D01*
X48006000Y-45038464D01*
X48250000Y-45038464D01*
X48391190Y-45011897D01*
X48520865Y-44928454D01*
X48607859Y-44801134D01*
X48638464Y-44650000D01*
X48638464Y-43350000D01*
X48611897Y-43208810D01*
X48528454Y-43079135D01*
X48401134Y-42992141D01*
X48250000Y-42961536D01*
X48106000Y-42961536D01*
X48106000Y-41137335D01*
X48241190Y-41111897D01*
X48370865Y-41028454D01*
X48457859Y-40901134D01*
X48488464Y-40750000D01*
X48488464Y-39750000D01*
X48461897Y-39608810D01*
X48378454Y-39479135D01*
X48251134Y-39392141D01*
X48100000Y-39361536D01*
X47100000Y-39361536D01*
X46958810Y-39388103D01*
X46829135Y-39471546D01*
X46742141Y-39598866D01*
X46711536Y-39750000D01*
X46711536Y-40750000D01*
X46738103Y-40891190D01*
X46821546Y-41020865D01*
X46948866Y-41107859D01*
X47094000Y-41137249D01*
X47094000Y-42961536D01*
X46750000Y-42961536D01*
X46608810Y-42988103D01*
X46479135Y-43071546D01*
X46392141Y-43198866D01*
X46361536Y-43350000D01*
X46361536Y-44650000D01*
X46388103Y-44791190D01*
X46471546Y-44920865D01*
X46598866Y-45007859D01*
X46750000Y-45038464D01*
X46994000Y-45038464D01*
X46994000Y-45136536D01*
X46720000Y-45136536D01*
X46578810Y-45163103D01*
X46449135Y-45246546D01*
X46362141Y-45373866D01*
X46331536Y-45525000D01*
X46331536Y-45919000D01*
X45968464Y-45919000D01*
X45968464Y-45525000D01*
X45941897Y-45383810D01*
X45858454Y-45254135D01*
X45731134Y-45167141D01*
X45580000Y-45136536D01*
X45306000Y-45136536D01*
X45306000Y-45038464D01*
X45550000Y-45038464D01*
X45691190Y-45011897D01*
X45820865Y-44928454D01*
X45907859Y-44801134D01*
X45938464Y-44650000D01*
X45938464Y-43350000D01*
X45911897Y-43208810D01*
X45828454Y-43079135D01*
X45701134Y-42992141D01*
X45550000Y-42961536D01*
X44477128Y-42961536D01*
X44306000Y-42790408D01*
X44306000Y-42688464D01*
X44800000Y-42688464D01*
X44941190Y-42661897D01*
X45070865Y-42578454D01*
X45157859Y-42451134D01*
X45188464Y-42300000D01*
X45188464Y-40688464D01*
X46050000Y-40688464D01*
X46191190Y-40661897D01*
X46320865Y-40578454D01*
X46407859Y-40451134D01*
X46438464Y-40300000D01*
X46438464Y-38300000D01*
X46411897Y-38158810D01*
X46328454Y-38029135D01*
X46201134Y-37942141D01*
X46050000Y-37911536D01*
X45806000Y-37911536D01*
X45806000Y-37800000D01*
X45767483Y-37606362D01*
X45657796Y-37442204D01*
X45188464Y-36972872D01*
X45188464Y-36300000D01*
X45161897Y-36158810D01*
X45078454Y-36029135D01*
X44951134Y-35942141D01*
X44800000Y-35911536D01*
X44111898Y-35911536D01*
X43993638Y-35832517D01*
X43800000Y-35794000D01*
X43606362Y-35832517D01*
X43488102Y-35911536D01*
X42800000Y-35911536D01*
X42658810Y-35938103D01*
X42529135Y-36021546D01*
X42442141Y-36148866D01*
X42411536Y-36300000D01*
X42411536Y-36875000D01*
X42438103Y-37016190D01*
X42521546Y-37145865D01*
X42648866Y-37232859D01*
X42800000Y-37263464D01*
X43836536Y-37263464D01*
X43836536Y-39547872D01*
X43442204Y-39942204D01*
X43332517Y-40106362D01*
X43294000Y-40300000D01*
X43294000Y-41336536D01*
X42800000Y-41336536D01*
X42658810Y-41363103D01*
X42529135Y-41446546D01*
X42442141Y-41573866D01*
X42411536Y-41725000D01*
X42411536Y-42300000D01*
X42438103Y-42441190D01*
X42521546Y-42570865D01*
X42648866Y-42657859D01*
X42800000Y-42688464D01*
X43294000Y-42688464D01*
X43294000Y-43000000D01*
X43332517Y-43193638D01*
X43442204Y-43357796D01*
X43661536Y-43577128D01*
X43661536Y-44650000D01*
X43682955Y-44763833D01*
X43628454Y-44679135D01*
X43501134Y-44592141D01*
X43350000Y-44561536D01*
X40850000Y-44561536D01*
X40708810Y-44588103D01*
X40579135Y-44671546D01*
X40492141Y-44798866D01*
X40461536Y-44950000D01*
X40461536Y-46750000D01*
X40488103Y-46891190D01*
X40571546Y-47020865D01*
X40698866Y-47107859D01*
X40850000Y-47138464D01*
X42119000Y-47138464D01*
X42119000Y-49020975D01*
X42059698Y-48961673D01*
X41826309Y-48865000D01*
X40985750Y-48865000D01*
X40827000Y-49023750D01*
X40827000Y-50623000D01*
X40847000Y-50623000D01*
X40847000Y-50877000D01*
X40827000Y-50877000D01*
X40827000Y-53923000D01*
X40847000Y-53923000D01*
X40847000Y-54177000D01*
X40827000Y-54177000D01*
X40827000Y-55776250D01*
X40985750Y-55935000D01*
X41826309Y-55935000D01*
X42059698Y-55838327D01*
X42119000Y-55779025D01*
X42119000Y-60000000D01*
X42145056Y-60138477D01*
X42226896Y-60265660D01*
X42351770Y-60350983D01*
X42500000Y-60381000D01*
X51500000Y-60381000D01*
X51638477Y-60354944D01*
X51765660Y-60273104D01*
X51850983Y-60148230D01*
X51881000Y-60000000D01*
X51881000Y-58629001D01*
X53916676Y-58629001D01*
X53819118Y-58863946D01*
X53818882Y-59134865D01*
X53922339Y-59385252D01*
X54113741Y-59576987D01*
X54363946Y-59680882D01*
X54634865Y-59681118D01*
X54885252Y-59577661D01*
X54957038Y-59506000D01*
X56218889Y-59506000D01*
X56218778Y-59633689D01*
X56413388Y-60104680D01*
X56773425Y-60465345D01*
X57218636Y-60650213D01*
X56775320Y-60833388D01*
X56414655Y-61193425D01*
X56219223Y-61664076D01*
X56218778Y-62173689D01*
X56413388Y-62644680D01*
X56773425Y-63005345D01*
X57218636Y-63190213D01*
X56775320Y-63373388D01*
X56414655Y-63733425D01*
X56219223Y-64204076D01*
X56218778Y-64713689D01*
X56413388Y-65184680D01*
X56497560Y-65268999D01*
X51528573Y-65268999D01*
X51533179Y-65136137D01*
X50933179Y-61536137D01*
X50911897Y-61458810D01*
X50828454Y-61329135D01*
X50701134Y-61242141D01*
X50550000Y-61211536D01*
X49450000Y-61211536D01*
X49370226Y-61219815D01*
X49228598Y-61280805D01*
X49121857Y-61392091D01*
X49066821Y-61536137D01*
X49036094Y-61720502D01*
X48457796Y-61142204D01*
X48293638Y-61032517D01*
X48100000Y-60994000D01*
X36500000Y-60994000D01*
X36306362Y-61032517D01*
X36142204Y-61142204D01*
X34642204Y-62642204D01*
X34532517Y-62806362D01*
X34521542Y-62861536D01*
X33250000Y-62861536D01*
X33108810Y-62888103D01*
X32979135Y-62971546D01*
X32892141Y-63098866D01*
X32861536Y-63250000D01*
X32861536Y-66750000D01*
X32888103Y-66891190D01*
X32971546Y-67020865D01*
X33098866Y-67107859D01*
X33250000Y-67138464D01*
X36750000Y-67138464D01*
X36891190Y-67111897D01*
X37020865Y-67028454D01*
X37107859Y-66901134D01*
X37138464Y-66750000D01*
X37138464Y-65563110D01*
X40558524Y-65563110D01*
X40679845Y-65793000D01*
X41873000Y-65793000D01*
X41873000Y-65773000D01*
X42127000Y-65773000D01*
X42127000Y-65793000D01*
X43320155Y-65793000D01*
X43441476Y-65563110D01*
X43271645Y-65153076D01*
X42881358Y-64724817D01*
X42654895Y-64618464D01*
X42850000Y-64618464D01*
X42991190Y-64591897D01*
X43120865Y-64508454D01*
X43207859Y-64381134D01*
X43238464Y-64230000D01*
X43238464Y-62530000D01*
X43211897Y-62388810D01*
X43128454Y-62259135D01*
X43001134Y-62172141D01*
X42850000Y-62141536D01*
X41150000Y-62141536D01*
X41008810Y-62168103D01*
X40879135Y-62251546D01*
X40792141Y-62378866D01*
X40761536Y-62530000D01*
X40761536Y-64230000D01*
X40788103Y-64371190D01*
X40871546Y-64500865D01*
X40998866Y-64587859D01*
X41150000Y-64618464D01*
X41345105Y-64618464D01*
X41118642Y-64724817D01*
X40728355Y-65153076D01*
X40558524Y-65563110D01*
X37138464Y-65563110D01*
X37138464Y-63250000D01*
X37111897Y-63108810D01*
X37028454Y-62979135D01*
X36901134Y-62892141D01*
X36750000Y-62861536D01*
X35854056Y-62861536D01*
X36709592Y-62006000D01*
X47890408Y-62006000D01*
X48831639Y-62947231D01*
X48466821Y-65136137D01*
X48480610Y-65268999D01*
X44685001Y-65268999D01*
X44491363Y-65307516D01*
X44327205Y-65417203D01*
X43423063Y-66321345D01*
X43441476Y-66276890D01*
X43320155Y-66047000D01*
X42127000Y-66047000D01*
X42127000Y-66067000D01*
X41873000Y-66067000D01*
X41873000Y-66047000D01*
X40679845Y-66047000D01*
X40558524Y-66276890D01*
X40728355Y-66686924D01*
X41118642Y-67115183D01*
X41543947Y-67314917D01*
X41504800Y-67322704D01*
X41105435Y-67589552D01*
X40838587Y-67988917D01*
X40744883Y-68460000D01*
X40838587Y-68931083D01*
X41105435Y-69330448D01*
X41504800Y-69597296D01*
X41975883Y-69691000D01*
X42024117Y-69691000D01*
X42495200Y-69597296D01*
X42894565Y-69330448D01*
X43161413Y-68931083D01*
X43255117Y-68460000D01*
X43165604Y-68009988D01*
X44894593Y-66280999D01*
X56411510Y-66280999D01*
X56219223Y-66744076D01*
X56218778Y-67253689D01*
X56411041Y-67719001D01*
X44774999Y-67719001D01*
X44581361Y-67757518D01*
X44417203Y-67867205D01*
X42433898Y-69850510D01*
X42024117Y-69769000D01*
X41975883Y-69769000D01*
X41504800Y-69862704D01*
X41105435Y-70129552D01*
X40838587Y-70528917D01*
X40744883Y-71000000D01*
X40838587Y-71471083D01*
X41105435Y-71870448D01*
X41504800Y-72137296D01*
X41975883Y-72231000D01*
X42024117Y-72231000D01*
X42495200Y-72137296D01*
X42894565Y-71870448D01*
X43161413Y-71471083D01*
X43255117Y-71000000D01*
X43165604Y-70549988D01*
X44984591Y-68731001D01*
X56497223Y-68731001D01*
X56414655Y-68813425D01*
X56219223Y-69284076D01*
X56218778Y-69793689D01*
X56413388Y-70264680D01*
X56773425Y-70625345D01*
X57218636Y-70810213D01*
X56775320Y-70993388D01*
X56414655Y-71353425D01*
X56219223Y-71824076D01*
X56218778Y-72333689D01*
X56413388Y-72804680D01*
X56773425Y-73165345D01*
X56871970Y-73206264D01*
X56685852Y-73283357D01*
X56599446Y-73539841D01*
X57500000Y-74440395D01*
X58400554Y-73539841D01*
X58314148Y-73283357D01*
X58116841Y-73211170D01*
X58224680Y-73166612D01*
X58585345Y-72806575D01*
X58780777Y-72335924D01*
X58781222Y-71826311D01*
X58690016Y-71605576D01*
X59914594Y-70380998D01*
X65433805Y-70380998D01*
X65342205Y-70442203D01*
X59012939Y-76771469D01*
X58836643Y-76345852D01*
X58580159Y-76259446D01*
X57679605Y-77160000D01*
X57693748Y-77174143D01*
X57514143Y-77353748D01*
X57500000Y-77339605D01*
X56947126Y-77892479D01*
X56805159Y-77920718D01*
X56641001Y-78030405D01*
X55917203Y-78754203D01*
X55807516Y-78918361D01*
X55768999Y-79111999D01*
X55768999Y-80288001D01*
X55807516Y-80481639D01*
X55917203Y-80645797D01*
X56554203Y-81282797D01*
X56609004Y-81319414D01*
X56414655Y-81513425D01*
X56219223Y-81984076D01*
X56218778Y-82493689D01*
X56413388Y-82964680D01*
X56773425Y-83325345D01*
X57244076Y-83520777D01*
X57753689Y-83521222D01*
X58224680Y-83326612D01*
X58585345Y-82966575D01*
X58780777Y-82495924D01*
X58781222Y-81986311D01*
X58690016Y-81765576D01*
X58757795Y-81697797D01*
X58867482Y-81533639D01*
X58905999Y-81340001D01*
X58905999Y-81236999D01*
X58867482Y-81043361D01*
X58757795Y-80879203D01*
X58445797Y-80567205D01*
X58445002Y-80566674D01*
X58585345Y-80426575D01*
X58780777Y-79955924D01*
X58781222Y-79446311D01*
X58690016Y-79225576D01*
X62617593Y-75297999D01*
X68730510Y-75297999D01*
X68538223Y-75761076D01*
X68537778Y-76270689D01*
X68732388Y-76741680D01*
X69092425Y-77102345D01*
X69354715Y-77211257D01*
X62599372Y-83966600D01*
X51641648Y-83966600D01*
X51735183Y-83881358D01*
X51981486Y-83356892D01*
X51860819Y-83127000D01*
X50667000Y-83127000D01*
X50667000Y-83147000D01*
X50413000Y-83147000D01*
X50413000Y-83127000D01*
X50393000Y-83127000D01*
X50393000Y-82873000D01*
X50413000Y-82873000D01*
X50413000Y-81679845D01*
X50667000Y-81679845D01*
X50667000Y-82873000D01*
X51860819Y-82873000D01*
X51981486Y-82643108D01*
X51735183Y-82118642D01*
X51306924Y-81728355D01*
X50896890Y-81558524D01*
X50667000Y-81679845D01*
X50413000Y-81679845D01*
X50183110Y-81558524D01*
X49773076Y-81728355D01*
X49344817Y-82118642D01*
X49145083Y-82543947D01*
X49137296Y-82504800D01*
X48870448Y-82105435D01*
X48471083Y-81838587D01*
X48000000Y-81744883D01*
X47528917Y-81838587D01*
X47129552Y-82105435D01*
X46862704Y-82504800D01*
X46769000Y-82975883D01*
X46769000Y-83024117D01*
X46862704Y-83495200D01*
X47129552Y-83894565D01*
X47237360Y-83966600D01*
X46222640Y-83966600D01*
X46330448Y-83894565D01*
X46597296Y-83495200D01*
X46691000Y-83024117D01*
X46691000Y-82975883D01*
X46597296Y-82504800D01*
X46330448Y-82105435D01*
X45931083Y-81838587D01*
X45460000Y-81744883D01*
X44988917Y-81838587D01*
X44589552Y-82105435D01*
X44322704Y-82504800D01*
X44229000Y-82975883D01*
X44229000Y-83024117D01*
X44322704Y-83495200D01*
X44589552Y-83894565D01*
X44697360Y-83966600D01*
X44134852Y-83966600D01*
X44158464Y-83850000D01*
X44158464Y-82150000D01*
X44131897Y-82008810D01*
X44048454Y-81879135D01*
X43921134Y-81792141D01*
X43770000Y-81761536D01*
X42070000Y-81761536D01*
X41928810Y-81788103D01*
X41799135Y-81871546D01*
X41712141Y-81998866D01*
X41681536Y-82150000D01*
X41681536Y-83850000D01*
X41708103Y-83991190D01*
X41791546Y-84120865D01*
X41918866Y-84207859D01*
X42070000Y-84238464D01*
X42403242Y-84238464D01*
X42427203Y-84358923D01*
X42542829Y-84531971D01*
X42554858Y-84544000D01*
X40044911Y-84544000D01*
X39029872Y-84342096D01*
X38207438Y-83792562D01*
X37657904Y-82970128D01*
X37447238Y-81911039D01*
X37447238Y-81911038D01*
X36762154Y-78466888D01*
X36694066Y-78302509D01*
X36072663Y-77372513D01*
X47618674Y-77372513D01*
X47904436Y-78064109D01*
X48433108Y-78593704D01*
X49124204Y-78880673D01*
X49872513Y-78881326D01*
X50564109Y-78595564D01*
X51093704Y-78066892D01*
X51380673Y-77375796D01*
X51381071Y-76919336D01*
X55953542Y-76919336D01*
X55979161Y-77529460D01*
X56163357Y-77974148D01*
X56419841Y-78060554D01*
X57320395Y-77160000D01*
X56419841Y-76259446D01*
X56163357Y-76345852D01*
X55953542Y-76919336D01*
X51381071Y-76919336D01*
X51381326Y-76627487D01*
X51095564Y-75935891D01*
X50860243Y-75700159D01*
X56599446Y-75700159D01*
X56663401Y-75890000D01*
X56599446Y-76079841D01*
X57500000Y-76980395D01*
X58400554Y-76079841D01*
X58336599Y-75890000D01*
X58400554Y-75700159D01*
X57500000Y-74799605D01*
X56599446Y-75700159D01*
X50860243Y-75700159D01*
X50566892Y-75406296D01*
X49875796Y-75119327D01*
X49127487Y-75118674D01*
X48435891Y-75404436D01*
X47906296Y-75933108D01*
X47619327Y-76624204D01*
X47618674Y-77372513D01*
X36072663Y-77372513D01*
X35209033Y-76080000D01*
X40744883Y-76080000D01*
X40838587Y-76551083D01*
X41105435Y-76950448D01*
X41504800Y-77217296D01*
X41975883Y-77311000D01*
X42024117Y-77311000D01*
X42495200Y-77217296D01*
X42894565Y-76950448D01*
X43161413Y-76551083D01*
X43255117Y-76080000D01*
X43161413Y-75608917D01*
X42894565Y-75209552D01*
X42495200Y-74942704D01*
X42024117Y-74849000D01*
X41975883Y-74849000D01*
X41504800Y-74942704D01*
X41105435Y-75209552D01*
X40838587Y-75608917D01*
X40744883Y-76080000D01*
X35209033Y-76080000D01*
X34743114Y-75382703D01*
X34743112Y-75382699D01*
X34617301Y-75256889D01*
X32047796Y-73540000D01*
X40744883Y-73540000D01*
X40838587Y-74011083D01*
X41105435Y-74410448D01*
X41504800Y-74677296D01*
X41975883Y-74771000D01*
X42024117Y-74771000D01*
X42495200Y-74677296D01*
X42894565Y-74410448D01*
X42915353Y-74379336D01*
X55953542Y-74379336D01*
X55979161Y-74989460D01*
X56163357Y-75434148D01*
X56419841Y-75520554D01*
X57320395Y-74620000D01*
X57679605Y-74620000D01*
X58580159Y-75520554D01*
X58836643Y-75434148D01*
X59046458Y-74860664D01*
X59020839Y-74250540D01*
X58836643Y-73805852D01*
X58580159Y-73719446D01*
X57679605Y-74620000D01*
X57320395Y-74620000D01*
X56419841Y-73719446D01*
X56163357Y-73805852D01*
X55953542Y-74379336D01*
X42915353Y-74379336D01*
X43161413Y-74011083D01*
X43255117Y-73540000D01*
X43161413Y-73068917D01*
X42894565Y-72669552D01*
X42495200Y-72402704D01*
X42024117Y-72309000D01*
X41975883Y-72309000D01*
X41504800Y-72402704D01*
X41105435Y-72669552D01*
X40838587Y-73068917D01*
X40744883Y-73540000D01*
X32047796Y-73540000D01*
X31697491Y-73305934D01*
X31533112Y-73237846D01*
X28088961Y-72552762D01*
X27029872Y-72342096D01*
X26207438Y-71792562D01*
X25657904Y-70970128D01*
X25462099Y-69985750D01*
X29615000Y-69985750D01*
X29615000Y-71576310D01*
X29711673Y-71809699D01*
X29890302Y-71988327D01*
X30123691Y-72085000D01*
X31714250Y-72085000D01*
X31873000Y-71926250D01*
X31873000Y-69827000D01*
X32127000Y-69827000D01*
X32127000Y-71926250D01*
X32285750Y-72085000D01*
X33876309Y-72085000D01*
X34109698Y-71988327D01*
X34288327Y-71809699D01*
X34385000Y-71576310D01*
X34385000Y-69985750D01*
X34226250Y-69827000D01*
X32127000Y-69827000D01*
X31873000Y-69827000D01*
X29773750Y-69827000D01*
X29615000Y-69985750D01*
X25462099Y-69985750D01*
X25456000Y-69955089D01*
X25456000Y-65285750D01*
X26615000Y-65285750D01*
X26615000Y-66876310D01*
X26711673Y-67109699D01*
X26890302Y-67288327D01*
X27123691Y-67385000D01*
X28714250Y-67385000D01*
X28873000Y-67226250D01*
X28873000Y-65127000D01*
X29127000Y-65127000D01*
X29127000Y-67226250D01*
X29285750Y-67385000D01*
X29954696Y-67385000D01*
X29890302Y-67411673D01*
X29711673Y-67590301D01*
X29615000Y-67823690D01*
X29615000Y-69414250D01*
X29773750Y-69573000D01*
X31873000Y-69573000D01*
X31873000Y-67473750D01*
X32127000Y-67473750D01*
X32127000Y-69573000D01*
X34226250Y-69573000D01*
X34385000Y-69414250D01*
X34385000Y-67823690D01*
X34288327Y-67590301D01*
X34109698Y-67411673D01*
X33876309Y-67315000D01*
X32285750Y-67315000D01*
X32127000Y-67473750D01*
X31873000Y-67473750D01*
X31714250Y-67315000D01*
X31045304Y-67315000D01*
X31109698Y-67288327D01*
X31288327Y-67109699D01*
X31385000Y-66876310D01*
X31385000Y-65285750D01*
X31226250Y-65127000D01*
X29127000Y-65127000D01*
X28873000Y-65127000D01*
X26773750Y-65127000D01*
X26615000Y-65285750D01*
X25456000Y-65285750D01*
X25456000Y-63123690D01*
X26615000Y-63123690D01*
X26615000Y-64714250D01*
X26773750Y-64873000D01*
X28873000Y-64873000D01*
X28873000Y-62773750D01*
X29127000Y-62773750D01*
X29127000Y-64873000D01*
X31226250Y-64873000D01*
X31385000Y-64714250D01*
X31385000Y-63123690D01*
X31288327Y-62890301D01*
X31109698Y-62711673D01*
X30876309Y-62615000D01*
X29285750Y-62615000D01*
X29127000Y-62773750D01*
X28873000Y-62773750D01*
X28714250Y-62615000D01*
X27123691Y-62615000D01*
X26890302Y-62711673D01*
X26711673Y-62890301D01*
X26615000Y-63123690D01*
X25456000Y-63123690D01*
X25456000Y-55372513D01*
X29618674Y-55372513D01*
X29904436Y-56064109D01*
X30433108Y-56593704D01*
X31124204Y-56880673D01*
X31872513Y-56881326D01*
X32564109Y-56595564D01*
X33093704Y-56066892D01*
X33380673Y-55375796D01*
X33381326Y-54627487D01*
X33095564Y-53935891D01*
X32566892Y-53406296D01*
X31875796Y-53119327D01*
X31127487Y-53118674D01*
X30435891Y-53404436D01*
X29906296Y-53933108D01*
X29619327Y-54624204D01*
X29618674Y-55372513D01*
X25456000Y-55372513D01*
X25456000Y-49665997D01*
X37661655Y-49665997D01*
X37788995Y-49974182D01*
X37966600Y-50152098D01*
X37966600Y-50348110D01*
X37789823Y-50524578D01*
X37661946Y-50832540D01*
X37661655Y-51165997D01*
X37788995Y-51474182D01*
X38024578Y-51710177D01*
X38120338Y-51749940D01*
X38025818Y-51788995D01*
X37789823Y-52024578D01*
X37661946Y-52332540D01*
X37661655Y-52665997D01*
X37788995Y-52974182D01*
X37966600Y-53152098D01*
X37966600Y-53348110D01*
X37789823Y-53524578D01*
X37661946Y-53832540D01*
X37661655Y-54165997D01*
X37788995Y-54474182D01*
X38024578Y-54710177D01*
X38332540Y-54838054D01*
X38665997Y-54838345D01*
X38974182Y-54711005D01*
X39065000Y-54620346D01*
X39065000Y-55426310D01*
X39161673Y-55659699D01*
X39340302Y-55838327D01*
X39573691Y-55935000D01*
X40414250Y-55935000D01*
X40573000Y-55776250D01*
X40573000Y-54177000D01*
X40553000Y-54177000D01*
X40553000Y-53923000D01*
X40573000Y-53923000D01*
X40573000Y-50877000D01*
X40553000Y-50877000D01*
X40553000Y-50623000D01*
X40573000Y-50623000D01*
X40573000Y-49023750D01*
X40414250Y-48865000D01*
X39573691Y-48865000D01*
X39340302Y-48961673D01*
X39230054Y-49071920D01*
X39211005Y-49025818D01*
X38975422Y-48789823D01*
X38667460Y-48661946D01*
X38334003Y-48661655D01*
X38025818Y-48788995D01*
X37789823Y-49024578D01*
X37661946Y-49332540D01*
X37661655Y-49665997D01*
X25456000Y-49665997D01*
X25456000Y-46135750D01*
X36215000Y-46135750D01*
X36215000Y-46876310D01*
X36311673Y-47109699D01*
X36490302Y-47288327D01*
X36723691Y-47385000D01*
X37814250Y-47385000D01*
X37973000Y-47226250D01*
X37973000Y-45977000D01*
X38227000Y-45977000D01*
X38227000Y-47226250D01*
X38385750Y-47385000D01*
X39476309Y-47385000D01*
X39709698Y-47288327D01*
X39888327Y-47109699D01*
X39985000Y-46876310D01*
X39985000Y-46135750D01*
X39826250Y-45977000D01*
X38227000Y-45977000D01*
X37973000Y-45977000D01*
X36373750Y-45977000D01*
X36215000Y-46135750D01*
X25456000Y-46135750D01*
X25456000Y-44823690D01*
X36215000Y-44823690D01*
X36215000Y-45564250D01*
X36373750Y-45723000D01*
X37973000Y-45723000D01*
X37973000Y-44473750D01*
X38227000Y-44473750D01*
X38227000Y-45723000D01*
X39826250Y-45723000D01*
X39985000Y-45564250D01*
X39985000Y-44823690D01*
X39888327Y-44590301D01*
X39709698Y-44411673D01*
X39476309Y-44315000D01*
X38385750Y-44315000D01*
X38227000Y-44473750D01*
X37973000Y-44473750D01*
X37814250Y-44315000D01*
X36723691Y-44315000D01*
X36490302Y-44411673D01*
X36311673Y-44590301D01*
X36215000Y-44823690D01*
X25456000Y-44823690D01*
X25456000Y-41665997D01*
X34661655Y-41665997D01*
X34788995Y-41974182D01*
X35024578Y-42210177D01*
X35332540Y-42338054D01*
X35665997Y-42338345D01*
X35974182Y-42211005D01*
X36210177Y-41975422D01*
X36338054Y-41667460D01*
X36338273Y-41416069D01*
X37237064Y-40517278D01*
X37271546Y-40570865D01*
X37398866Y-40657859D01*
X37550000Y-40688464D01*
X38266600Y-40688464D01*
X38266600Y-41300000D01*
X38307203Y-41504123D01*
X38411536Y-41660270D01*
X38411536Y-42300000D01*
X38438103Y-42441190D01*
X38521546Y-42570865D01*
X38648866Y-42657859D01*
X38800000Y-42688464D01*
X39439731Y-42688464D01*
X39595877Y-42792797D01*
X39800000Y-42833401D01*
X40004124Y-42792797D01*
X40160270Y-42688464D01*
X40800000Y-42688464D01*
X40941190Y-42661897D01*
X41070865Y-42578454D01*
X41157859Y-42451134D01*
X41188464Y-42300000D01*
X41188464Y-41725000D01*
X41161897Y-41583810D01*
X41078454Y-41454135D01*
X40951134Y-41367141D01*
X40800000Y-41336536D01*
X39763464Y-41336536D01*
X39763464Y-37263464D01*
X40800000Y-37263464D01*
X40941190Y-37236897D01*
X41070865Y-37153454D01*
X41157859Y-37026134D01*
X41188464Y-36875000D01*
X41188464Y-36769851D01*
X41327171Y-36677171D01*
X42715878Y-35288464D01*
X43850000Y-35288464D01*
X43991190Y-35261897D01*
X44120865Y-35178454D01*
X44205315Y-35054857D01*
X49211536Y-40061077D01*
X49211536Y-40750000D01*
X49238103Y-40891190D01*
X49321546Y-41020865D01*
X49448866Y-41107859D01*
X49582539Y-41134928D01*
X49607203Y-41258923D01*
X49722829Y-41431971D01*
X51066600Y-42775742D01*
X51066600Y-45961536D01*
X50950000Y-45961536D01*
X50873884Y-45975858D01*
X50709699Y-45811673D01*
X50476310Y-45715000D01*
X49985750Y-45715000D01*
X49827000Y-45873750D01*
X49827000Y-46973000D01*
X49847000Y-46973000D01*
X49847000Y-47227000D01*
X49827000Y-47227000D01*
X49827000Y-48326250D01*
X49985750Y-48485000D01*
X50476310Y-48485000D01*
X50709699Y-48388327D01*
X50874791Y-48223234D01*
X50950000Y-48238464D01*
X51984122Y-48238464D01*
X52122829Y-48377171D01*
X52295877Y-48492797D01*
X52500000Y-48533400D01*
X54727821Y-48533400D01*
X54748103Y-48641190D01*
X54831546Y-48770865D01*
X54958866Y-48857859D01*
X55110000Y-48888464D01*
X56110000Y-48888464D01*
X56188496Y-48873694D01*
X56319791Y-48987127D01*
X56578126Y-49094119D01*
X56753000Y-48967954D01*
X56753000Y-48127000D01*
X56733000Y-48127000D01*
X56733000Y-47873000D01*
X56753000Y-47873000D01*
X56753000Y-47032046D01*
X56622004Y-46937538D01*
X57909541Y-45650000D01*
X76761536Y-45650000D01*
X76761536Y-47350000D01*
X76788103Y-47491190D01*
X76871546Y-47620865D01*
X76998866Y-47707859D01*
X77150000Y-47738464D01*
X78850000Y-47738464D01*
X78991190Y-47711897D01*
X79120865Y-47628454D01*
X79207859Y-47501134D01*
X79238464Y-47350000D01*
X79238464Y-45650000D01*
X80761536Y-45650000D01*
X80761536Y-47350000D01*
X80788103Y-47491190D01*
X80871546Y-47620865D01*
X80998866Y-47707859D01*
X81150000Y-47738464D01*
X82850000Y-47738464D01*
X82991190Y-47711897D01*
X83120865Y-47628454D01*
X83207859Y-47501134D01*
X83238464Y-47350000D01*
X83238464Y-45650000D01*
X83211897Y-45508810D01*
X83128454Y-45379135D01*
X83001134Y-45292141D01*
X82850000Y-45261536D01*
X81150000Y-45261536D01*
X81008810Y-45288103D01*
X80879135Y-45371546D01*
X80792141Y-45498866D01*
X80761536Y-45650000D01*
X79238464Y-45650000D01*
X79211897Y-45508810D01*
X79128454Y-45379135D01*
X79001134Y-45292141D01*
X78850000Y-45261536D01*
X77150000Y-45261536D01*
X77008810Y-45288103D01*
X76879135Y-45371546D01*
X76792141Y-45498866D01*
X76761536Y-45650000D01*
X57909541Y-45650000D01*
X60581511Y-42978030D01*
X64403479Y-42978030D01*
X64579947Y-43154807D01*
X64887909Y-43282684D01*
X65221366Y-43282975D01*
X65529551Y-43155635D01*
X65765546Y-42920052D01*
X65893423Y-42612090D01*
X65893714Y-42278633D01*
X65766374Y-41970448D01*
X65530791Y-41734453D01*
X65222829Y-41606576D01*
X64889372Y-41606285D01*
X64581187Y-41733625D01*
X64403271Y-41911230D01*
X60360575Y-41911230D01*
X60360570Y-41911229D01*
X60165657Y-41950001D01*
X60156447Y-41951833D01*
X59983399Y-42067459D01*
X59983397Y-42067462D01*
X55232829Y-46818029D01*
X55117203Y-46991077D01*
X55092590Y-47114812D01*
X54968810Y-47138103D01*
X54839135Y-47221546D01*
X54752141Y-47348866D01*
X54728300Y-47466600D01*
X52720942Y-47466600D01*
X52638464Y-47384122D01*
X52638464Y-46350000D01*
X52611897Y-46208810D01*
X52528454Y-46079135D01*
X52401134Y-45992141D01*
X52250000Y-45961536D01*
X52133400Y-45961536D01*
X52133400Y-42554800D01*
X52116094Y-42467797D01*
X52092797Y-42350676D01*
X51977171Y-42177629D01*
X50844781Y-41045239D01*
X50870865Y-41028454D01*
X50957859Y-40901134D01*
X50988464Y-40750000D01*
X50988464Y-39750000D01*
X50961897Y-39608810D01*
X50878454Y-39479135D01*
X50843969Y-39455573D01*
X55784472Y-34515069D01*
X55900000Y-34538464D01*
X57400000Y-34538464D01*
X57541190Y-34511897D01*
X57670865Y-34428454D01*
X57757859Y-34301134D01*
X57788464Y-34150000D01*
X57788464Y-32850000D01*
X57761897Y-32708810D01*
X57678454Y-32579135D01*
X57551134Y-32492141D01*
X57400000Y-32461536D01*
X57183400Y-32461536D01*
X57183400Y-32038464D01*
X57550000Y-32038464D01*
X57691190Y-32011897D01*
X57820865Y-31928454D01*
X57907859Y-31801134D01*
X57938464Y-31650000D01*
X57938464Y-30350000D01*
X57911897Y-30208810D01*
X57828454Y-30079135D01*
X57701134Y-29992141D01*
X57550000Y-29961536D01*
X57333400Y-29961536D01*
X57333400Y-28800000D01*
X57317082Y-28717966D01*
X57338054Y-28667460D01*
X57338345Y-28334003D01*
X57211005Y-28025818D01*
X56975422Y-27789823D01*
X56667460Y-27661946D01*
X56334003Y-27661655D01*
X56025818Y-27788995D01*
X55789823Y-28024578D01*
X55661946Y-28332540D01*
X55661655Y-28665997D01*
X55788995Y-28974182D01*
X56024578Y-29210177D01*
X56266600Y-29310673D01*
X56266600Y-29961536D01*
X56050000Y-29961536D01*
X55908810Y-29988103D01*
X55779135Y-30071546D01*
X55692141Y-30198866D01*
X55661536Y-30350000D01*
X55661536Y-31650000D01*
X55688103Y-31791190D01*
X55771546Y-31920865D01*
X55898866Y-32007859D01*
X56050000Y-32038464D01*
X56116600Y-32038464D01*
X56116600Y-32461536D01*
X55900000Y-32461536D01*
X55758810Y-32488103D01*
X55629135Y-32571546D01*
X55542141Y-32698866D01*
X55511536Y-32850000D01*
X55511536Y-33279323D01*
X49725000Y-39065858D01*
X44531971Y-33872829D01*
X44358923Y-33757203D01*
X44238464Y-33733242D01*
X44238464Y-33600000D01*
X44211897Y-33458810D01*
X44156367Y-33372513D01*
X47618674Y-33372513D01*
X47904436Y-34064109D01*
X48433108Y-34593704D01*
X49124204Y-34880673D01*
X49872513Y-34881326D01*
X50564109Y-34595564D01*
X51093704Y-34066892D01*
X51380673Y-33375796D01*
X51381326Y-32627487D01*
X51095564Y-31935891D01*
X50566892Y-31406296D01*
X49875796Y-31119327D01*
X49127487Y-31118674D01*
X48435891Y-31404436D01*
X47906296Y-31933108D01*
X47619327Y-32624204D01*
X47618674Y-33372513D01*
X44156367Y-33372513D01*
X44128454Y-33329135D01*
X44001134Y-33242141D01*
X43850000Y-33211536D01*
X43633400Y-33211536D01*
X43633400Y-33138464D01*
X43900000Y-33138464D01*
X44041190Y-33111897D01*
X44170865Y-33028454D01*
X44257859Y-32901134D01*
X44288464Y-32750000D01*
X44288464Y-31450000D01*
X44261897Y-31308810D01*
X44178454Y-31179135D01*
X44051134Y-31092141D01*
X43900000Y-31061536D01*
X42400000Y-31061536D01*
X42258810Y-31088103D01*
X42129135Y-31171546D01*
X42042141Y-31298866D01*
X42011536Y-31450000D01*
X42011536Y-32750000D01*
X42038103Y-32891190D01*
X42121546Y-33020865D01*
X42248866Y-33107859D01*
X42400000Y-33138464D01*
X42566600Y-33138464D01*
X42566600Y-33211536D01*
X42350000Y-33211536D01*
X42208810Y-33238103D01*
X42079135Y-33321546D01*
X41992141Y-33448866D01*
X41961536Y-33600000D01*
X41961536Y-34534122D01*
X41785000Y-34710658D01*
X41785000Y-34535750D01*
X41626250Y-34377000D01*
X40527000Y-34377000D01*
X40527000Y-35376250D01*
X40685750Y-35535000D01*
X40960658Y-35535000D01*
X40729058Y-35766600D01*
X39800005Y-35766600D01*
X39800000Y-35766599D01*
X39600105Y-35806362D01*
X39595877Y-35807203D01*
X39439730Y-35911536D01*
X38800000Y-35911536D01*
X38658810Y-35938103D01*
X38529135Y-36021546D01*
X38442141Y-36148866D01*
X38411536Y-36300000D01*
X38411536Y-36939730D01*
X38307203Y-37095877D01*
X38266600Y-37300000D01*
X38266600Y-37911536D01*
X37550000Y-37911536D01*
X37408810Y-37938103D01*
X37279135Y-38021546D01*
X37192141Y-38148866D01*
X37161536Y-38300000D01*
X37161536Y-39084122D01*
X35583785Y-40661873D01*
X35334003Y-40661655D01*
X35025818Y-40788995D01*
X34789823Y-41024578D01*
X34661946Y-41332540D01*
X34661655Y-41665997D01*
X25456000Y-41665997D01*
X25456000Y-40044911D01*
X25657904Y-39029872D01*
X26207438Y-38207438D01*
X27029872Y-37657904D01*
X28088961Y-37447238D01*
X31533112Y-36762154D01*
X31697491Y-36694066D01*
X34617301Y-34743111D01*
X34743112Y-34617301D01*
X34743114Y-34617297D01*
X34797601Y-34535750D01*
X39015000Y-34535750D01*
X39015000Y-35026310D01*
X39111673Y-35259699D01*
X39290302Y-35438327D01*
X39523691Y-35535000D01*
X40114250Y-35535000D01*
X40273000Y-35376250D01*
X40273000Y-34377000D01*
X39173750Y-34377000D01*
X39015000Y-34535750D01*
X34797601Y-34535750D01*
X35507247Y-33473690D01*
X39015000Y-33473690D01*
X39015000Y-33964250D01*
X39173750Y-34123000D01*
X40273000Y-34123000D01*
X40273000Y-33276250D01*
X40323000Y-33226250D01*
X40323000Y-33123750D01*
X40527000Y-33123750D01*
X40527000Y-34123000D01*
X41626250Y-34123000D01*
X41785000Y-33964250D01*
X41785000Y-33473690D01*
X41688327Y-33240301D01*
X41648026Y-33200000D01*
X41738327Y-33109699D01*
X41835000Y-32876310D01*
X41835000Y-32385750D01*
X41676250Y-32227000D01*
X40577000Y-32227000D01*
X40577000Y-33073750D01*
X40527000Y-33123750D01*
X40323000Y-33123750D01*
X40323000Y-32227000D01*
X39223750Y-32227000D01*
X39065000Y-32385750D01*
X39065000Y-32876310D01*
X39161673Y-33109699D01*
X39201974Y-33150000D01*
X39111673Y-33240301D01*
X39015000Y-33473690D01*
X35507247Y-33473690D01*
X36694066Y-31697491D01*
X36762154Y-31533112D01*
X36803810Y-31323690D01*
X39065000Y-31323690D01*
X39065000Y-31814250D01*
X39223750Y-31973000D01*
X40323000Y-31973000D01*
X40323000Y-30973750D01*
X40577000Y-30973750D01*
X40577000Y-31973000D01*
X41676250Y-31973000D01*
X41835000Y-31814250D01*
X41835000Y-31323690D01*
X41738327Y-31090301D01*
X41559698Y-30911673D01*
X41326309Y-30815000D01*
X40735750Y-30815000D01*
X40577000Y-30973750D01*
X40323000Y-30973750D01*
X40164250Y-30815000D01*
X39573691Y-30815000D01*
X39340302Y-30911673D01*
X39161673Y-31090301D01*
X39065000Y-31323690D01*
X36803810Y-31323690D01*
X37447238Y-28088961D01*
X37657904Y-27029872D01*
X37921839Y-26634865D01*
X56818882Y-26634865D01*
X56922339Y-26885252D01*
X57113741Y-27076987D01*
X57363946Y-27180882D01*
X57465378Y-27180970D01*
X58994000Y-28709592D01*
X58994000Y-29961536D01*
X58750000Y-29961536D01*
X58608810Y-29988103D01*
X58479135Y-30071546D01*
X58392141Y-30198866D01*
X58361536Y-30350000D01*
X58361536Y-31650000D01*
X58388103Y-31791190D01*
X58471546Y-31920865D01*
X58598866Y-32007859D01*
X58750000Y-32038464D01*
X60195944Y-32038464D01*
X59772872Y-32461536D01*
X58600000Y-32461536D01*
X58458810Y-32488103D01*
X58329135Y-32571546D01*
X58242141Y-32698866D01*
X58211536Y-32850000D01*
X58211536Y-34150000D01*
X58238103Y-34291190D01*
X58321546Y-34420865D01*
X58448866Y-34507859D01*
X58600000Y-34538464D01*
X59772872Y-34538464D01*
X60069001Y-34834593D01*
X60069001Y-35215407D01*
X59965439Y-35318969D01*
X59865135Y-35318882D01*
X59614748Y-35422339D01*
X59423013Y-35613741D01*
X59319118Y-35863946D01*
X59318882Y-36134865D01*
X59422339Y-36385252D01*
X59613741Y-36576987D01*
X59863946Y-36680882D01*
X60134865Y-36681118D01*
X60385252Y-36577661D01*
X60576987Y-36386259D01*
X60680882Y-36136054D01*
X60680970Y-36034622D01*
X60932797Y-35782795D01*
X61042484Y-35618637D01*
X61081001Y-35424999D01*
X61081001Y-34625001D01*
X61042484Y-34431363D01*
X60932797Y-34267205D01*
X60488464Y-33822872D01*
X60488464Y-33177128D01*
X61357796Y-32307796D01*
X61467483Y-32143638D01*
X61506000Y-31950000D01*
X61506000Y-26612733D01*
X61576987Y-26541869D01*
X61680882Y-26291664D01*
X61681118Y-26020745D01*
X61577661Y-25770358D01*
X61386259Y-25578623D01*
X61136054Y-25474728D01*
X60865135Y-25474492D01*
X60614748Y-25577949D01*
X60423013Y-25769351D01*
X60319118Y-26019556D01*
X60318882Y-26290475D01*
X60422339Y-26540862D01*
X60494000Y-26612648D01*
X60494000Y-30055594D01*
X60401134Y-29992141D01*
X60250000Y-29961536D01*
X60006000Y-29961536D01*
X60006000Y-28500000D01*
X59967483Y-28306362D01*
X59857796Y-28142204D01*
X58181031Y-26465439D01*
X58181118Y-26365135D01*
X58077661Y-26114748D01*
X57886259Y-25923013D01*
X57636054Y-25819118D01*
X57365135Y-25818882D01*
X57114748Y-25922339D01*
X56923013Y-26113741D01*
X56819118Y-26363946D01*
X56818882Y-26634865D01*
X37921839Y-26634865D01*
X38207438Y-26207438D01*
X39029872Y-25657904D01*
X40044911Y-25456000D01*
X62581028Y-25456000D01*
X62423013Y-25613741D01*
G36*
X73242829Y-75877171D02*
X73415877Y-75992797D01*
X73620000Y-76033400D01*
X76111536Y-76033400D01*
X76111536Y-76750000D01*
X76138103Y-76891190D01*
X76221546Y-77020865D01*
X76348866Y-77107859D01*
X76500000Y-77138464D01*
X76983242Y-77138464D01*
X77007203Y-77258923D01*
X77122829Y-77431971D01*
X77386600Y-77695742D01*
X77386600Y-78340226D01*
X77049552Y-78565435D01*
X76782704Y-78964800D01*
X76689000Y-79435883D01*
X76689000Y-79484117D01*
X76782704Y-79955200D01*
X77049552Y-80354565D01*
X77289659Y-80515000D01*
X76943690Y-80515000D01*
X76710301Y-80611673D01*
X76531673Y-80790302D01*
X76435000Y-81023691D01*
X76435000Y-81714250D01*
X76593750Y-81873000D01*
X77793000Y-81873000D01*
X77793000Y-81853000D01*
X78047000Y-81853000D01*
X78047000Y-81873000D01*
X78067000Y-81873000D01*
X78067000Y-82127000D01*
X78047000Y-82127000D01*
X78047000Y-82147000D01*
X77793000Y-82147000D01*
X77793000Y-82127000D01*
X76593750Y-82127000D01*
X76435000Y-82285750D01*
X76435000Y-82976309D01*
X76442328Y-82994000D01*
X73797872Y-82994000D01*
X73825345Y-82966575D01*
X74020777Y-82495924D01*
X74021222Y-81986311D01*
X73826612Y-81515320D01*
X73466575Y-81154655D01*
X73368030Y-81113736D01*
X73554148Y-81036643D01*
X73640554Y-80780159D01*
X72740000Y-79879605D01*
X71839446Y-80780159D01*
X71925852Y-81036643D01*
X72123159Y-81108830D01*
X72015320Y-81153388D01*
X71654655Y-81513425D01*
X71459223Y-81984076D01*
X71458778Y-82493689D01*
X71653388Y-82964680D01*
X71682657Y-82994000D01*
X68271007Y-82994000D01*
X68119212Y-82842205D01*
X67955054Y-82732518D01*
X67761416Y-82694001D01*
X66021591Y-82694001D01*
X69256256Y-79459336D01*
X71193542Y-79459336D01*
X71219161Y-80069460D01*
X71403357Y-80514148D01*
X71659841Y-80600554D01*
X72560395Y-79700000D01*
X72919605Y-79700000D01*
X73820159Y-80600554D01*
X74076643Y-80514148D01*
X74286458Y-79940664D01*
X74260839Y-79330540D01*
X74076643Y-78885852D01*
X73820159Y-78799446D01*
X72919605Y-79700000D01*
X72560395Y-79700000D01*
X71659841Y-78799446D01*
X71403357Y-78885852D01*
X71193542Y-79459336D01*
X69256256Y-79459336D01*
X70456380Y-78259212D01*
X70873996Y-78259212D01*
X71067634Y-78220695D01*
X71231792Y-78111008D01*
X71596295Y-77746505D01*
X71653388Y-77884680D01*
X72013425Y-78245345D01*
X72111970Y-78286264D01*
X71925852Y-78363357D01*
X71839446Y-78619841D01*
X72740000Y-79520395D01*
X73640554Y-78619841D01*
X73554148Y-78363357D01*
X73356841Y-78291170D01*
X73464680Y-78246612D01*
X73825345Y-77886575D01*
X74020777Y-77415924D01*
X74021222Y-76906311D01*
X73826612Y-76435320D01*
X73466575Y-76074655D01*
X73021364Y-75889787D01*
X73187004Y-75821346D01*
X73242829Y-75877171D01*
X73242829Y-75877171D01*
G37*
X73242829Y-75877171D02*
X73415877Y-75992797D01*
X73620000Y-76033400D01*
X76111536Y-76033400D01*
X76111536Y-76750000D01*
X76138103Y-76891190D01*
X76221546Y-77020865D01*
X76348866Y-77107859D01*
X76500000Y-77138464D01*
X76983242Y-77138464D01*
X77007203Y-77258923D01*
X77122829Y-77431971D01*
X77386600Y-77695742D01*
X77386600Y-78340226D01*
X77049552Y-78565435D01*
X76782704Y-78964800D01*
X76689000Y-79435883D01*
X76689000Y-79484117D01*
X76782704Y-79955200D01*
X77049552Y-80354565D01*
X77289659Y-80515000D01*
X76943690Y-80515000D01*
X76710301Y-80611673D01*
X76531673Y-80790302D01*
X76435000Y-81023691D01*
X76435000Y-81714250D01*
X76593750Y-81873000D01*
X77793000Y-81873000D01*
X77793000Y-81853000D01*
X78047000Y-81853000D01*
X78047000Y-81873000D01*
X78067000Y-81873000D01*
X78067000Y-82127000D01*
X78047000Y-82127000D01*
X78047000Y-82147000D01*
X77793000Y-82147000D01*
X77793000Y-82127000D01*
X76593750Y-82127000D01*
X76435000Y-82285750D01*
X76435000Y-82976309D01*
X76442328Y-82994000D01*
X73797872Y-82994000D01*
X73825345Y-82966575D01*
X74020777Y-82495924D01*
X74021222Y-81986311D01*
X73826612Y-81515320D01*
X73466575Y-81154655D01*
X73368030Y-81113736D01*
X73554148Y-81036643D01*
X73640554Y-80780159D01*
X72740000Y-79879605D01*
X71839446Y-80780159D01*
X71925852Y-81036643D01*
X72123159Y-81108830D01*
X72015320Y-81153388D01*
X71654655Y-81513425D01*
X71459223Y-81984076D01*
X71458778Y-82493689D01*
X71653388Y-82964680D01*
X71682657Y-82994000D01*
X68271007Y-82994000D01*
X68119212Y-82842205D01*
X67955054Y-82732518D01*
X67761416Y-82694001D01*
X66021591Y-82694001D01*
X69256256Y-79459336D01*
X71193542Y-79459336D01*
X71219161Y-80069460D01*
X71403357Y-80514148D01*
X71659841Y-80600554D01*
X72560395Y-79700000D01*
X72919605Y-79700000D01*
X73820159Y-80600554D01*
X74076643Y-80514148D01*
X74286458Y-79940664D01*
X74260839Y-79330540D01*
X74076643Y-78885852D01*
X73820159Y-78799446D01*
X72919605Y-79700000D01*
X72560395Y-79700000D01*
X71659841Y-78799446D01*
X71403357Y-78885852D01*
X71193542Y-79459336D01*
X69256256Y-79459336D01*
X70456380Y-78259212D01*
X70873996Y-78259212D01*
X71067634Y-78220695D01*
X71231792Y-78111008D01*
X71596295Y-77746505D01*
X71653388Y-77884680D01*
X72013425Y-78245345D01*
X72111970Y-78286264D01*
X71925852Y-78363357D01*
X71839446Y-78619841D01*
X72740000Y-79520395D01*
X73640554Y-78619841D01*
X73554148Y-78363357D01*
X73356841Y-78291170D01*
X73464680Y-78246612D01*
X73825345Y-77886575D01*
X74020777Y-77415924D01*
X74021222Y-76906311D01*
X73826612Y-76435320D01*
X73466575Y-76074655D01*
X73021364Y-75889787D01*
X73187004Y-75821346D01*
X73242829Y-75877171D01*
G36*
X100518524Y-65303110D02*
X100639845Y-65533000D01*
X101833000Y-65533000D01*
X101833000Y-65513000D01*
X102087000Y-65513000D01*
X102087000Y-65533000D01*
X102107000Y-65533000D01*
X102107000Y-65787000D01*
X102087000Y-65787000D01*
X102087000Y-65807000D01*
X101833000Y-65807000D01*
X101833000Y-65787000D01*
X100639845Y-65787000D01*
X100518524Y-66016890D01*
X100688355Y-66426924D01*
X101078642Y-66855183D01*
X101503947Y-67054917D01*
X101464800Y-67062704D01*
X101065435Y-67329552D01*
X100798587Y-67728917D01*
X100704883Y-68200000D01*
X100787967Y-68617692D01*
X97703426Y-71702232D01*
X93627180Y-71702232D01*
X100341612Y-64987799D01*
X100649122Y-64987799D01*
X100518524Y-65303110D01*
X100518524Y-65303110D01*
G37*
X100518524Y-65303110D02*
X100639845Y-65533000D01*
X101833000Y-65533000D01*
X101833000Y-65513000D01*
X102087000Y-65513000D01*
X102087000Y-65533000D01*
X102107000Y-65533000D01*
X102107000Y-65787000D01*
X102087000Y-65787000D01*
X102087000Y-65807000D01*
X101833000Y-65807000D01*
X101833000Y-65787000D01*
X100639845Y-65787000D01*
X100518524Y-66016890D01*
X100688355Y-66426924D01*
X101078642Y-66855183D01*
X101503947Y-67054917D01*
X101464800Y-67062704D01*
X101065435Y-67329552D01*
X100798587Y-67728917D01*
X100704883Y-68200000D01*
X100787967Y-68617692D01*
X97703426Y-71702232D01*
X93627180Y-71702232D01*
X100341612Y-64987799D01*
X100649122Y-64987799D01*
X100518524Y-65303110D01*
G36*
X47627000Y-46673000D02*
X47647000Y-46673000D01*
X47647000Y-46927000D01*
X47627000Y-46927000D01*
X47627000Y-46947000D01*
X47373000Y-46947000D01*
X47373000Y-46927000D01*
X47353000Y-46927000D01*
X47353000Y-46673000D01*
X47373000Y-46673000D01*
X47373000Y-46653000D01*
X47627000Y-46653000D01*
X47627000Y-46673000D01*
X47627000Y-46673000D01*
G37*
X47627000Y-46673000D02*
X47647000Y-46673000D01*
X47647000Y-46927000D01*
X47627000Y-46927000D01*
X47627000Y-46947000D01*
X47373000Y-46947000D01*
X47373000Y-46927000D01*
X47353000Y-46927000D01*
X47353000Y-46673000D01*
X47373000Y-46673000D01*
X47373000Y-46653000D01*
X47627000Y-46653000D01*
X47627000Y-46673000D01*
M02*
